<?xml version="1.0" encoding="UTF-8"?>
<svg id="_레이어_1" data-name="레이어 1" xmlns="http://www.w3.org/2000/svg" viewBox="0 0 61.96 165.45">
  <defs>
    <style>
      .cls-1 {
        fill: #fff;
        stroke: #fff;
        stroke-linecap: round;
        stroke-linejoin: round;
        stroke-width: 2px;
      }
    </style>
  </defs>
  <path class="cls-1" d="M60.95,13.6c-.02-.33-.07-.6-.14-.82-.03-.1-.07-.19-.11-.28-.04-.08-.08-.16-.12-.22-.74-1.07-2.31-.05-2.31-.05.03-.29.05-.56.04-.79,0-.32-.06-.58-.13-.8-.05-.15-.11-.29-.18-.41-.62-.99-2.1-.77-3.51-.75-.18,0-.36,0-.54,0-.71-.03-1.36-.16-1.82-.6-.23-.22-.53-.39-.86-.51-.17-.06-.34-.12-.53-.16-1.28-.32-2.91-.24-4.04-.32-.2-.01-.38-.04-.55-.06-.37-.06-.64-.16-.75-.34-.07-.13-.06-.29.05-.51.23-.44.07-.89-.39-1.34-1.37-1.37-5.45-2.78-9.97-4.07-6.03-1.71-9.87,4.26-9.87,4.26,0,0-1.84-1.55-4.7-2.91-1.43-.68-3.11-1.31-4.94-1.67-.37-.07-.74-.13-1.12-.18-.19-.02-.37-.04-.54-.04-.52-.01-.98.06-1.39.2-.13.05-.26.1-.39.16-.98.5-1.58,1.45-1.94,2.55-.05.14-.09.28-.12.42-.11.42-.2.86-.25,1.3-.02.15-.04.29-.05.43-.03.29-.05.57-.06.85-.07,1.66.13,3.02.13,3.02-.03.02-.06.04-.1.06-.33.19-1,.46-1.84,1.17-.37.31-.78.71-1.2,1.23-.53.65-1.08,1.47-1.63,2.55-.33.64-.66,1.38-.98,2.21-.21.56-.42,1.16-.63,1.81-.2.65-.4,1.35-.59,2.1-.57,2.26-1.08,4.99-1.47,8.31-.32,2.77-.46,5.02-.43,6.89.07,4.87,1.2,7.17,2.83,9.29.13.16.25.33.38.49.26.33.53.65.81.99.14.17.28.34.43.51,1.44,1.73,3.06,3.79,4.61,7.27.35.79.76,1.5,1.21,2.15.32.45.65.88,1.01,1.27.03.03.06.07.09.1,2.57,2.73,6.09,3.89,9.45,4.32-4.03,2.39-7.38,6.17-9,10.56,4.07-2.19,8.14-4.39,12.21-6.58.86,3.05,1.73,6.1,2.59,9.14,0-.01.02-.03.03-.04.95,28.96.24,58.04-2.18,86.8l3.41,1.9c-.23-.13,3.03-51.03,3.1-55.93.13-9.48.07-18.97-.2-28.44-.08-2.85.16-8.15-.02-13.16,4.49.74,8.89,2.07,13.06,3.95-.87-3.17-2.76-5.97-5.24-7.93.09-.01.19-.02.28-.03.43-.07.85-.16,1.24-.26.62-.16,1.2-.38,1.75-.63,7.54-3.34,8.52-13.74,11.46-21.54.41-1.09.86-2.13,1.37-3.09,3.07-5.77,4.28-11.08,4.79-15.33.06-.47.1-.93.15-1.38.16-1.78.21-3.34.25-4.63,0-.32.02-.63.03-.91.01-.29.02-.55.03-.8s.02-.48,0-.68c0-.02,0-.04,0-.06Z"/>
</svg>