<?xml version="1.0" encoding="UTF-8"?>
<svg id="_레이어_1" data-name="레이어 1" xmlns="http://www.w3.org/2000/svg" viewBox="0 0 53.52 53.38">
  <defs>
    <style>
      .cls-1 {
        fill: #fff;
        stroke: #fff;
        stroke-linecap: round;
        stroke-linejoin: round;
        stroke-width: 2px;
      }
    </style>
  </defs>
  <path class="cls-1" d="M51.96,27.8c.28-.39.43-.8.5-1.21s.06-.81,0-1.18c-.02-.12-.04-.24-.07-.36-.05-.23-.12-.44-.18-.63-.03-.09-.07-.18-.1-.26-.13-.31-.24-.5-.24-.5.15-.76.21-1.43.21-2.02,0-.67-.1-1.23-.24-1.71-.11-.38-.25-.71-.42-1-.1-.16-.2-.31-.31-.44-.98-1.21-2.34-1.36-2.34-1.36h0s0,0,0,0c.19-.28.36-.54.49-.78,0,0,.01-.02.01-.03.13-.24.24-.48.33-.7,0-.01,0-.02.01-.03.08-.22.14-.42.18-.62,0,0,0-.02,0-.03.04-.2.06-.38.06-.55,0,0,0-.01,0-.02,0-1.07-.66-1.73-1.33-2.13,0,0,0,0,0,0-.11-.06-.22-.12-.32-.17,0,0,0,0-.01,0-.1-.05-.2-.09-.3-.13,0,0-.01,0-.02,0-.09-.04-.18-.07-.26-.09,0,0,0,0-.01,0-.08-.03-.15-.05-.21-.06,0,0,0,0-.01,0-.06-.02-.11-.03-.14-.03,0,0,0,0,0,0-.03,0-.05-.01-.05-.01,0-1.18-.39-1.92-.92-2.39-.03-.02-.06-.04-.09-.06-.34-.28-.73-.45-1.12-.55-.44-.11-.86-.15-1.19-.15,0,0,0,0-.01,0-.37,0-.62.04-.62.04.03-.3,0-.59-.07-.87-.03-.1-.07-.2-.11-.29-.16-.36-.41-.69-.81-.98-.52-.38-1.25-.68-2.25-.85,0,0,0,0,0,0-.15-.03-.3-.03-.45-.03-.05,0-.09.01-.14.01-.1,0-.2.02-.3.04-.05.01-.11.03-.16.04-.09.02-.18.05-.26.08-.05.02-.1.04-.16.07-.08.04-.17.07-.25.12-.05.03-.1.06-.15.08-.08.05-.16.1-.24.15-.04.03-.09.06-.13.09-.08.06-.16.12-.23.18-.04.03-.08.07-.12.1-.08.07-.15.14-.23.21-.03.03-.07.06-.1.1-.08.08-.15.16-.22.24-.03.03-.05.06-.08.09-.08.09-.15.17-.22.26-.02.02-.04.04-.05.07-.08.1-.15.2-.22.29,0,0-.01.02-.02.03-.15.21-.29.41-.4.59-.02.03-.03.05-.04.07-.03.06-.07.11-.1.16-.03.04-.05.08-.07.12-.01.02-.02.04-.03.06-.03.05-.05.09-.06.12h-.07s0,0,0,0c.03-.29.06-.59.08-.9.02-.34.04-.7.03-1.06-.02-1.77-.46-2.93-1.12-3.68-1.99-2.26-5.91-.81-5.91-.81-.02-.02-.03-.03-.05-.05-2.79-3.45-6.28.23-6.28.23-1.52-.42-2.65-.34-3.51-.04-.1.03-.19.07-.29.11-1.76.78-2.14,2.57-2.14,2.57-4.11-.67-3.16,4.81-3.16,4.81-1.11-.96-2.06-1.32-2.86-1.31-.3,0-.58.06-.84.15-.09.03-.17.07-.25.11-.16.08-.32.17-.47.28-.29.21-.55.46-.77.73-.78.94-1.15,2.07-1.15,2.07-.27.08-.48.22-.68.37-.85.67-1.11,1.82-1.11,1.82-2.33,1.36-1.47,3.2-1.47,3.2-.49.89-.65,1.66-.62,2.3.09,1.94,1.93,2.8,1.93,2.8h0s.01,0,.01,0h0s0,0-.01,0c0,0,0,0,0,0h0c-6.15.19-3.01,7.59-3.01,7.59-.06.09-.1.18-.16.27-1.04,1.77-.79,3.25-.32,4.24.05.11.1.2.16.3.21.38.45.67.61.86.14.16.24.24.24.24-.02.5,0,.94.05,1.35.21,1.89,1.05,2.89,2.04,3.39,1.75.9,3.97.26,3.97.26l.07-.11.03.02c-.47.46-.72.74-.72.74-.34,1.02-.24,1.75.06,2.28.72,1.3,2.67,1.4,2.67,1.4.22,2.03,1.31,2.84,2.37,3.14.07.02.13.04.2.05.37.08.72.11,1.03.11,0,0,.01,0,.02,0,.57,0,.98-.1.98-.1.99.97,1.92,1.32,2.73,1.33s1.51-.3,2.03-.65c.62-.42.98-.89.98-.89,0,.17.02.33.04.48,0,.02,0,.04,0,.06.02.16.05.31.09.45.19.68.52,1.17.93,1.52.67.58,1.56.77,2.4.79.01,0,.02,0,.03,0,1.36.02,2.59-.41,2.59-.41.6.58,1.13.77,1.57.76.98-.02,1.54-1.01,1.54-1.01.13.15.27.29.42.4.07.06.15.11.23.16.08.06.17.12.25.17.46.26.95.4,1.45.46.2.02.41.04.61.04.35,0,.69-.03,1.01-.09,1.3-.21,2.32-.74,2.32-.74.25-.18.47-.37.68-.57.06-.06.12-.12.18-.18.14-.14.27-.28.38-.43.06-.07.11-.14.16-.21.11-.15.2-.3.29-.45.04-.07.08-.13.11-.2.09-.18.17-.37.24-.56.01-.04.03-.07.04-.11.16-.49.25-.99.28-1.5,0,0,0,0,0,0,.01-.25,0-.51-.01-.77,0-.02,0-.03,0-.05-.02-.26-.05-.52-.1-.78,0,0,0,0,0,0h0s0,.02,0,.03c0,.02.01.04.02.07.01.03.02.07.04.12,0,.01.01.03.02.04.02.04.03.08.05.12,0,.02.02.04.03.06.02.04.04.08.07.12.01.02.03.05.05.07.03.04.06.08.09.12.02.02.04.05.06.07.03.04.07.08.11.12.03.03.05.05.08.07.04.04.08.07.13.11.03.02.07.05.1.07.05.03.1.06.16.09.04.02.08.04.12.06.06.02.12.05.18.07.05.01.09.03.14.04.07.02.14.03.21.04.05,0,.11.02.17.02.08,0,.16,0,.25,0,.06,0,.12,0,.19,0,.09,0,.19-.02.29-.04.07-.01.14-.02.21-.04.11-.02.22-.06.34-.09.07-.02.15-.04.22-.06.13-.05.28-.11.42-.17.07-.03.13-.05.2-.08.22-.1.45-.21.7-.35,1.02-.56,1.65-1.18,2.02-1.79,1.13-1.84-.04-3.62-.04-3.62.4.12.75.17,1.08.17.32,0,.61-.05.86-.14.13-.04.25-.1.36-.16.34-.18.6-.44.82-.7.07-.09.14-.18.19-.27.41-.64.54-1.27.54-1.27,0,0,0,0,0,0,.15-.1.28-.2.4-.3.04-.03.07-.07.11-.1.08-.07.15-.14.22-.21.04-.04.07-.08.1-.12.05-.06.11-.13.15-.19.03-.04.05-.08.08-.12.04-.06.08-.12.11-.18.02-.04.04-.08.06-.12.03-.06.05-.12.07-.18.01-.04.02-.08.04-.12.02-.06.03-.12.04-.18,0-.04.01-.07.02-.11,0-.06.01-.12.02-.17,0-.03,0-.07,0-.1,0-.06,0-.11,0-.17,0-.03,0-.06,0-.09,0-.06-.02-.11-.03-.16,0-.03,0-.05-.01-.08-.01-.05-.03-.11-.04-.16,0-.02-.01-.04-.02-.06-.02-.05-.04-.1-.05-.15,0-.01-.01-.03-.02-.04-.02-.05-.05-.1-.07-.15,0,0,0-.01,0-.02-.05-.1-.1-.18-.14-.24,0-.01-.01-.02-.02-.03,0,0-.01-.02-.02-.03l-.03-.34s0,0,0,0c.22-.07.43-.17.61-.29.02-.01.03-.02.05-.04.18-.12.34-.26.47-.42,0,0,0,0,0,0,1-1.26,1.24-2.33,1.16-3.18-.14-1.42-1.2-2.21-1.2-2.21.3-.23.54-.48.73-.74ZM13.2,10.18s-.02-.03-.02-.03l.04.02s-.01,0-.02,0ZM20.92,48.27v-.07s0,0,0,0c0,.02,0,.05,0,.07Z"/>
</svg>