<?xml version="1.0" encoding="UTF-8"?>
<svg id="_레이어_1" data-name="레이어 1" xmlns="http://www.w3.org/2000/svg" viewBox="0 0 204.32 207.07">
  <defs>
    <style>
      .cls-1 {
        fill: #fff;
        stroke: #fff;
        stroke-linecap: round;
        stroke-linejoin: round;
        stroke-width: 2px;
      }
    </style>
  </defs>
  <path class="cls-1" d="M203.25,90.83c-.06-.37-.16-.75-.3-1.14-.07-.19-.15-.39-.25-.58-.47-.98-1.23-1.98-2.37-2.99-.36-.32-.74-.62-1.14-.91-.06-.05-.12-.09-.19-.14-.38-.28-.78-.54-1.18-.79-.08-.05-.16-.1-.24-.15-.41-.25-.83-.49-1.27-.72-.06-.03-.13-.07-.19-.1-.42-.22-.85-.43-1.29-.63-.05-.02-.1-.05-.15-.07-.45-.21-.91-.4-1.37-.59-.1-.04-.2-.08-.3-.12-.45-.18-.9-.35-1.35-.51-.1-.04-.21-.07-.31-.11-.46-.16-.92-.32-1.38-.46-.06-.02-.13-.04-.19-.06-.43-.13-.85-.26-1.28-.38-.09-.03-.19-.05-.28-.08-.44-.12-.87-.24-1.3-.35-.11-.03-.23-.06-.34-.08-.42-.1-.84-.2-1.24-.29-.1-.02-.19-.04-.29-.06-.39-.09-.77-.17-1.14-.24-.04,0-.09-.02-.14-.03-.4-.08-.78-.15-1.15-.22-.08-.01-.16-.03-.24-.04-.36-.06-.7-.12-1.02-.18-.07-.01-.14-.02-.21-.03-.33-.05-.64-.1-.92-.14-.02,0-.04,0-.07,0-.3-.04-.58-.08-.83-.12,0,0-.02,0-.02,0-.27-.03-.5-.06-.7-.09,0,0,0,0,0,0-.1-.15-.21-.29-.32-.44.62-.44,1.21-.89,1.78-1.34.11-.09.22-.18.33-.27.45-.37.89-.73,1.32-1.1.12-.11.24-.21.36-.32.41-.36.8-.72,1.18-1.08.1-.09.2-.19.29-.28.42-.4.81-.8,1.19-1.19.04-.04.08-.08.12-.12.86-.91,1.63-1.79,2.31-2.64.02-.02.04-.05.05-.07.31-.39.6-.76.87-1.13.05-.07.1-.13.15-.2.24-.32.46-.64.67-.95.05-.07.1-.14.14-.21.21-.31.41-.61.59-.9.03-.05.06-.09.09-.14.63-1.01,1.11-1.88,1.44-2.55.02-.04.04-.07.05-.11.09-.18.16-.34.23-.48.02-.04.03-.07.05-.11.06-.13.11-.24.15-.34.01-.03.02-.06.04-.08.04-.1.07-.18.1-.23,0,0,0-.01,0-.02.02-.06.04-.09.04-.09,0,0,3.87-6.17-4.15-9.08-2.25-.81-5.43-1.37-9.89-1.47-.68-.01-1.37,0-2.05.05-.13,0-.26.03-.4.04-.57.05-1.13.1-1.7.19-.09.01-.18.03-.28.05-.62.1-1.24.21-1.85.35-.03,0-.07.02-.1.02-.67.15-1.34.33-2.01.53-.03-.15-.07-.29-.11-.44l.25.08s1.06-1.39,2.42-3.56c4.09-6.53,10.87-20.19-.27-24.94,0,0,0,0,0,0-.41-.18-.83-.32-1.26-.45-.11-.03-.22-.07-.34-.1-.4-.11-.8-.21-1.21-.28-.03,0-.07-.02-.1-.02-.43-.07-.87-.12-1.32-.16-.13-.01-.26-.02-.4-.03-.38-.02-.76-.03-1.14-.03-.08,0-.17,0-.25,0-.43.01-.87.04-1.32.08-.17.02-.34.03-.51.05-.32.04-.65.08-.98.14-.16.03-.33.05-.49.08-.4.07-.81.16-1.22.26-.22.05-.44.11-.66.16-.25.07-.5.13-.76.21-.36.1-.72.21-1.08.33-.25.08-.5.16-.75.25-.28.1-.55.2-.83.3-.17.06-.34.13-.51.2-.64.25-1.28.52-1.92.8-.11-.16-.24-.33-.36-.49l.68.34h0s4.05-9.6-4.1-15.79c-1.77-1.35-3.57-1.85-5.3-1.82-.01,0-.02,0-.03,0-.61.01-1.21.1-1.8.24-5.39,1.24-9.7,7-9.7,7-.07-.19-.14-.36-.2-.53,0,0,0-.01,0-.02-.07-.16-.13-.31-.19-.45,0,0,0-.01,0-.02-.06-.14-.12-.26-.18-.38,0,0,0,0,0-.01-.06-.12-.11-.22-.16-.31,0,0,0,0,0,0-.2-.37-.33-.56-.33-.56,0,0-.1-10.11-5.09-11.63-.45-.14-.95-.2-1.49-.19-.54.02-1.12.12-1.75.32s-1.31.5-2.03.92c-.36.21-.74.44-1.13.71-1.17.8-2.46,1.87-3.88,3.25,0,0-.01.02-.02.02-.46.45-.89.91-1.32,1.4-.2.23-.38.47-.57.71-.22.28-.45.54-.66.83-.24.33-.47.67-.7,1.01-.14.21-.29.41-.43.62-.27.41-.52.84-.77,1.27-.09.15-.18.3-.27.45-.28.49-.54,1-.8,1.51-.05.1-.1.19-.15.29-.28.56-.54,1.14-.8,1.72-.02.05-.05.1-.07.15-.27.62-.52,1.25-.77,1.89,0,.02-.01.03-.02.05-.25.66-.49,1.33-.72,2,0,0,0,0,0,0-.04-.01-.08-.03-.11-.04,0,0,0,0,0,0,.54-10.44-5.1-15.13-5.1-15.13-3.08-2.26-5.63-3.12-7.71-3.08-1.38.02-2.56.44-3.57,1.1-.13.08-.25.17-.37.26-4.14,3.07-5.19,10.28-5.2,10.29,0-.02-.01-8.37-11.4-9.8,0,0,0,0,0,0-.34-.04-.67-.07-.99-.08-.1,0-.2,0-.3,0-.21,0-.42,0-.62,0-.11,0-.22.02-.33.03-.18.02-.35.03-.52.06-.11.02-.22.04-.32.06-.16.03-.31.06-.46.1-.1.03-.2.06-.3.09-.14.05-.29.09-.42.15-.09.04-.18.08-.27.12-.13.06-.26.12-.39.19-.08.04-.16.09-.24.14-.12.07-.25.15-.36.24-.07.05-.14.1-.21.15-.12.09-.23.18-.34.28-.06.05-.12.11-.18.16-.11.11-.22.22-.33.34-.05.05-.1.1-.14.16-.11.13-.22.27-.32.41-.03.04-.07.09-.1.13-.12.17-.24.34-.34.52-.01.02-.02.03-.03.05-.49.82-.86,1.73-1.15,2.67,0,0,0,0,0,0-.07.23-.13.47-.2.7,0,0,0,.02,0,.03-.06.23-.11.46-.16.7,0,0,0,.01,0,.02-.66,3.04-.64,6.08-1.06,7.17-.18.07-.36.14-.54.21-1.15-1.44-2.3-2.75-3.43-3.89-.02-.02-.04-.04-.06-.06-.83-.83-1.65-1.58-2.46-2.22-.04-.03-.09-.07-.13-.1-.22-.18-.45-.34-.67-.5-.04-.03-.09-.06-.13-.09-.52-.36-1.03-.68-1.53-.95-.05-.03-.11-.05-.16-.08-.19-.1-.39-.19-.58-.28-.07-.03-.13-.06-.2-.09-.2-.08-.39-.15-.58-.22-.05-.02-.09-.03-.14-.05-.24-.08-.47-.14-.7-.19-.05,0-.09-.02-.14-.02-.18-.03-.36-.06-.54-.08-.07,0-.14-.01-.21-.02-.16-.01-.32-.01-.47,0-.07,0-.13,0-.2,0-.22.01-.43.04-.64.08,0,0,0,0,0,0-11.49,2.27-3.89,17.59-4.28,18.56-.02.06-.09.08-.2.06-1.12-.18-6.57-4.29-12.6-4.19-.01,0-.03,0-.04,0-1.05.02-2.12.18-3.19.5-1.54.46-3.07,1.27-4.54,2.58-8.89,7.9,5.71,24.18,5.71,24.18l.52.11.13.03s-.02.02-.03.04c0,0,0,0,0,0-.62-.18-1.24-.34-1.87-.49-.62-.15-1.24-.28-1.87-.41-.02,0-.04,0-.06-.01-2.68-.52-6.63-1.38-10.2-1.32-.3,0-.6.02-.89.04-.47.03-.93.08-1.38.15-.09.02-.19.03-.28.05-.52.1-1.02.22-1.5.39-.32.11-.62.24-.92.38-.21.11-.42.22-.62.35-2.24,1.41-3.47,4.1-2.57,8.94,1.19,6.4,5.18,11.46,9.08,15.03.78.71,1.56,1.37,2.31,1.96.39.31.78.6,1.15.88,2.97,2.19,5.28,3.34,5.28,3.34h0l.14-.02.27-.03s0,.04,0,.06c-.28,0-.56-.01-.84-.02-.1,0-.2,0-.31,0-.26,0-.53,0-.8,0-.13,0-.26,0-.38,0-.26,0-.53.01-.79.02-.14,0-.27,0-.41.02-.27.01-.54.02-.81.04-.13,0-.25.02-.38.02-.92.06-1.85.14-2.8.25-.16.02-.33.04-.49.06-.24.03-.49.06-.73.1-.19.03-.38.05-.57.08-.23.03-.47.07-.7.11-.21.03-.41.07-.61.1-.22.04-.45.08-.67.12-.22.04-.43.09-.65.13-.21.04-.42.09-.63.13-.26.06-.51.12-.77.18-.21.05-.42.1-.63.15-.36.09-.72.19-1.08.29-.17.05-.33.1-.5.15-.25.07-.5.15-.75.23-.17.06-.35.11-.52.17-.24.08-.47.16-.71.25-.17.06-.34.12-.51.19-.24.09-.47.18-.7.28-.16.06-.31.13-.47.19-.26.11-.51.22-.76.34-.12.06-.25.11-.38.17-.37.18-.73.36-1.08.55-.06.03-.11.07-.17.1-.29.16-.58.33-.86.5-.11.07-.22.14-.34.21-.22.14-.44.28-.65.43-.12.08-.24.17-.35.25-.2.14-.39.29-.58.44-.11.09-.22.18-.33.27-.19.16-.37.32-.55.49-.09.09-.19.17-.28.26-.21.2-.4.41-.6.62-.05.06-.11.11-.15.17-.24.27-.46.55-.67.84-.05.07-.1.15-.15.22-.15.22-.29.44-.43.66-.06.11-.12.22-.18.33-.11.2-.21.4-.31.61-.06.12-.11.24-.16.37-.09.21-.16.42-.24.63-.04.13-.09.25-.12.38-.07.23-.13.47-.18.71-.02.11-.06.23-.08.34-.07.36-.12.72-.15,1.1-.03.39-.03.77-.02,1.15,0,.12.02.24.03.36.02.25.04.5.08.74.02.14.06.28.09.42.04.22.09.43.15.64.04.14.09.28.14.42.07.2.13.4.21.59.06.14.12.28.18.41.09.19.17.38.27.56.07.14.15.27.23.4.1.18.21.36.32.53.08.13.17.25.26.38.12.17.25.34.38.51.09.12.19.24.29.36.14.17.28.33.43.49.1.11.21.23.32.34.16.16.32.32.48.48.11.1.22.21.33.31.17.16.35.31.53.46.11.1.23.19.34.29.19.15.38.3.58.45.11.09.23.17.34.26.21.15.42.3.64.44.11.07.22.15.33.22.23.15.47.3.71.45.1.06.2.12.3.18.27.16.54.31.81.47.07.04.15.09.22.13.33.18.65.35.98.52.02.01.04.02.07.04,1.09.55,2.19,1.05,3.27,1.49.02,0,.03.01.05.02.34.14.67.27,1,.39.06.02.12.04.17.06.29.11.58.22.86.32.07.03.14.05.22.08.26.09.52.18.78.27.09.03.17.06.26.09.24.08.47.16.7.23.09.03.18.06.26.08.22.07.44.14.65.2.09.03.17.05.25.08.21.06.41.12.6.18.08.02.16.05.24.07.19.05.37.1.55.15.08.02.15.04.23.06.17.05.33.09.49.13.07.02.14.04.21.05.15.04.29.07.43.11.06.02.12.03.18.04.13.03.25.06.36.09.06.01.11.03.17.04.09.02.18.04.26.06.06.01.11.03.16.04.07.01.12.02.17.04.05.01.1.02.14.03,0,0,0,0,0,0-.02.06-.05.12-.07.18,0,0,0,0,0,0-.63.28-1.25.58-1.85.9-.07.04-.14.07-.2.1-.59.31-1.15.63-1.71.97-.07.04-.14.09-.21.13-.56.34-1.1.7-1.63,1.07,0,0,0,0,0,0-.52.37-1.03.75-1.53,1.15-.08.07-.17.13-.25.2-.48.39-.95.79-1.41,1.2-.05.05-.1.09-.15.14-.42.39-.84.79-1.24,1.19-.07.07-.13.13-.2.2-.42.43-.83.87-1.23,1.32-.08.09-.17.19-.25.29-.4.46-.8.93-1.18,1.41,0,0,0,0,0,0-4.82,6.03-5.26,9.72-4.73,11.8.03.12.06.23.1.33.08.25.18.47.28.66.46.89,1.04,1.26,1.04,1.26,0,0,0,0,0,0,.23.23.48.45.74.65.09.07.19.13.28.2.18.13.37.27.56.39.12.07.25.14.37.21.19.11.37.22.57.32.14.07.28.13.42.2.2.09.4.19.6.28.15.06.31.12.46.18.21.08.42.16.64.24.16.06.33.11.49.16.22.07.45.14.68.21.17.05.34.09.52.14.24.06.48.12.72.18.17.04.35.08.53.11.25.05.51.1.77.15.18.03.36.06.53.09.27.04.53.09.81.13.18.03.36.05.54.08.28.04.56.07.85.1.17.02.35.04.53.06.3.03.6.06.9.08.17.01.33.03.5.04.32.02.64.04.96.06.15,0,.31.02.46.03.34.02.68.03,1.03.04.13,0,.27.01.4.01.38.01.76.02,1.13.02.1,0,.2,0,.3,0,.44,0,.89,0,1.33,0,.03,0,.06,0,.1,0,1.95-.02,3.85-.11,5.64-.23.03,0,.05,0,.07,0,.41-.03.82-.06,1.22-.09.06,0,.12,0,.18-.01.36-.03.71-.06,1.06-.09.08,0,.15-.01.23-.02.32-.03.64-.06.95-.09.08,0,.16-.02.24-.03.3-.03.58-.06.86-.09.08,0,.17-.02.25-.03.27-.03.53-.06.79-.09.08,0,.15-.02.23-.03.25-.03.48-.06.71-.09.08,0,.15-.02.23-.03.22-.03.42-.05.62-.08.07,0,.14-.02.22-.03.19-.03.37-.05.54-.07.06,0,.12-.02.18-.02.17-.02.32-.05.46-.07.05,0,.1-.01.14-.02.12-.02.23-.04.34-.05.06,0,.11-.02.16-.02.07-.01.13-.02.19-.03.06,0,.12-.02.16-.03,0,0,0,0,0,0,.03.04.06.07.09.11h0c-.25.22-.5.44-.74.67-.15.14-.31.28-.46.43-.23.22-.46.44-.69.67-.21.21-.41.42-.61.63-.3.32-.6.64-.89.97-.19.22-.39.44-.58.66-.18.21-.35.41-.52.63-.23.29-.46.58-.68.88-.17.23-.34.46-.51.69-.25.35-.5.71-.74,1.08-.12.19-.24.37-.36.56-.22.35-.43.71-.64,1.07-.09.15-.17.3-.26.45-.27.5-.53,1.01-.78,1.53-.07.16-.14.32-.22.48-.19.42-.37.85-.54,1.29-.06.16-.13.32-.19.48-.21.57-.41,1.16-.59,1.75-.03.11-.06.23-.09.34-.15.51-.28,1.03-.4,1.56-.04.17-.08.35-.11.52-.13.64-.25,1.3-.35,1.97-1.65,12.01-1.41,16.96-.75,18.9.05.16.11.3.17.42.12.24.25.42.37.54.58.52,1.18-.08,1.18-.08,0,0,7.4-.39,22.39-8.76.58-.32,1.14-.67,1.69-1.03.16-.1.31-.21.47-.32.42-.29.83-.58,1.23-.89.13-.1.27-.2.4-.3.51-.4,1.01-.82,1.5-1.26.08-.07.15-.14.22-.21.42-.38.82-.77,1.22-1.16.13-.13.26-.26.39-.39.38-.39.76-.79,1.12-1.2.07-.08.15-.16.22-.25.44-.5.86-1,1.27-1.52.08-.1.16-.2.23-.3.34-.43.67-.86.99-1.29.09-.13.19-.25.28-.38.37-.52.74-1.04,1.09-1.57,0,0,0,0,0,0,.12.37.25.73.39,1.09-.26.64-.5,1.29-.73,1.95-.01.04-.03.07-.04.11-.22.63-.42,1.27-.62,1.92-.02.08-.05.16-.07.24-.18.62-.35,1.25-.51,1.89-.03.13-.06.27-.1.4-.15.61-.29,1.22-.41,1.85-.04.2-.08.4-.12.61-.11.58-.22,1.16-.32,1.76-.05.29-.09.6-.14.9-.08.53-.17,1.06-.24,1.61-.06.45-.11.92-.17,1.38-.05.43-.11.84-.15,1.28-.1.92-.18,1.87-.26,2.84-.04.51-.08,1.02-.11,1.53-.76,12.66,1.68,23.63,8.23,23.58,1.57-.01,3.38-.66,5.44-2.07,1.72-1.18,3.39-2.71,5-4.45.32-.35.64-.71.96-1.07.95-1.09,1.87-2.25,2.75-3.45.89-1.2,1.74-2.43,2.55-3.67s1.59-2.49,2.31-3.71c.24-.41.48-.81.71-1.22,3.71-6.43,6.05-11.92,6.05-11.92l-.14-.22c.1-.03.2-.07.3-.1.04.57.09,1.13.15,1.67,0,.08.02.16.03.24.05.44.1.87.15,1.28.02.12.03.23.05.35.05.39.11.78.17,1.15.01.09.03.18.04.26.15.92.32,1.77.5,2.55.01.05.02.1.04.16.08.33.15.65.23.95.02.08.04.16.06.23.08.29.15.56.23.83.02.05.03.11.05.16.19.64.37,1.21.54,1.71.01.04.03.07.04.11.07.2.14.39.21.57.02.05.04.1.06.15.06.17.13.32.18.47.01.03.03.07.04.1.14.35.27.63.37.84.01.03.02.05.04.08.03.07.07.14.09.19.01.03.03.05.04.07.02.04.04.07.05.1.01.02.02.03.02.04,0,.02.01.02.01.03,0,0,0,.01,0,.01,2.5,4.94,4.94,8.69,7.23,11.53.33.41.65.79.97,1.16.64.74,1.27,1.41,1.89,2.01,1.23,1.21,2.4,2.16,3.48,2.91,1.09.75,2.09,1.29,3,1.69.23.1.45.19.66.27,1.5.57,2.69.71,3.47.73.67.01,1.03-.07,1.03-.07s0,0,.02,0c.1,0,.58-.01,1.3-.36.11-.05.23-.12.35-.19.22-.13.46-.3.71-.5.11-.09.22-.18.33-.28.44-.41.92-.93,1.42-1.62.25-.34.5-.73.75-1.16.25-.43.51-.9.76-1.42,1.27-2.61,2.52-6.45,3.49-12.1,0,0,0,0,0-.01.08-.48.14-.96.2-1.45.02-.2.04-.4.06-.61.02-.26.04-.53.05-.79.04-.64.06-1.28.05-1.93h0c7.32,7.77,15.92,7.16,15.92,7.16,1.53.56,2.83.73,3.93.58,7.68-1.05,5.54-17.36,5.54-17.36,0-.03,0-.06-.01-.09-.06-.62-.14-1.24-.23-1.84-.09-.6-.19-1.18-.3-1.76,0,0,0,0,0,0,5.88,3.43,15.36,3.1,16.54,3.04.03,0,.05,0,.07,0,.03,0,.06,0,.06,0,0,0,.66.51,1.67.63.09.01.19.02.28.02.1,0,.2,0,.3,0,.31-.02.64-.07.98-.19.8-.27,1.69-.87,2.57-2.02.51-.66,1.01-1.5,1.5-2.56.49-1.06.97-2.35,1.41-3.91.11-.39.22-.8.33-1.22s.2-.85.28-1.27c.23-1.27.33-2.53.32-3.78-.06-7.91-4.48-15.2-7.32-19.07-.15-.2-.29-.4-.43-.58-.56-.74-1.03-1.32-1.37-1.71s-.53-.6-.53-.6l-.21.4c-.02-.15-.04-.3-.05-.45.47.07.93.13,1.38.19.02,0,.04,0,.05,0,.45.05.9.1,1.34.14.02,0,.03,0,.05,0,2.71.25,5.25.25,7.53.03.02,0,.04,0,.06,0,.3-.03.59-.06.87-.1.11-.01.22-.03.33-.04.25-.03.49-.07.72-.11.14-.02.29-.05.43-.07.21-.04.42-.08.63-.12.16-.03.31-.07.47-.1.18-.04.37-.08.55-.13.17-.04.33-.09.5-.13.16-.04.32-.09.47-.13.18-.05.35-.11.51-.17.13-.04.27-.09.4-.13.19-.07.37-.14.55-.21.1-.04.21-.08.3-.12.27-.12.53-.24.77-.36,0,0,0,0,.01,0,.88-.45,1.65-.84,2.35-1.19.34-.17.66-.34.96-.49.94-.49,1.72-.91,2.31-1.31.23-.16.44-.31.62-.47.73-.62,1.06-1.26,1.07-2.11,0-1.28-.72-3.06-1.93-6.04-.17-.41-.37-.82-.58-1.22-.03-.05-.05-.11-.08-.16-.21-.38-.45-.76-.7-1.14-.05-.07-.09-.14-.14-.21-.26-.37-.53-.74-.82-1.1-.05-.07-.11-.13-.16-.2-.3-.37-.61-.74-.94-1.1-.04-.04-.07-.08-.11-.12-.32-.35-.65-.69-.99-1.03-.04-.04-.08-.08-.12-.12-.35-.34-.71-.68-1.07-1.01-.07-.07-.15-.13-.22-.2-.35-.32-.71-.63-1.07-.93-.08-.07-.17-.14-.25-.21-.36-.3-.72-.59-1.08-.88-.08-.06-.15-.12-.23-.18-.36-.28-.72-.56-1.08-.82-.04-.03-.09-.06-.13-.1-.36-.26-.71-.52-1.06-.76-.07-.05-.15-.1-.22-.15-.34-.24-.68-.47-1.01-.69-.08-.05-.16-.11-.23-.16-.32-.22-.63-.42-.93-.62-.07-.04-.13-.09-.2-.13-.3-.19-.6-.38-.87-.55-.03-.02-.06-.04-.1-.06-.28-.17-.54-.33-.78-.47-.02-.01-.04-.02-.06-.04-.26-.15-.48-.29-.69-.41-.02-.01-.04-.02-.05-.03-.21-.12-.39-.22-.53-.31,0-.11,0-.23,0-.34,0,0,0,0,0,0,11.96-1.7,17.14-6.55,18.83-8.6,0,0,0,0,0,0,.12-.14.22-.27.31-.39.01-.02.03-.04.04-.06.04-.05.07-.09.1-.14.02-.03.04-.06.06-.09.03-.04.05-.08.08-.11.02-.03.04-.06.05-.08,0-.01.01-.02.02-.03.01-.02.02-.03.02-.03,0,0,2.37-1.76,3.49-4.38.46-1.08.71-2.3.5-3.61ZM134.12,15.13l.05.02s-.06,0-.09,0c0-.02-.01-.03-.02-.05l.06.03Z"/>
</svg>