<?xml version="1.0" encoding="UTF-8"?>
<svg id="_레이어_1" data-name="레이어 1" xmlns="http://www.w3.org/2000/svg" viewBox="0 0 82.52 82.3">
  <defs>
    <style>
      .cls-1 {
        fill: #fff;
        stroke: #fff;
        stroke-linecap: round;
        stroke-linejoin: round;
        stroke-width: 2px;
      }
    </style>
  </defs>
  <path class="cls-1" d="M79.51,44.05c.71-.54,1.19-1.15,1.51-1.78.1-.21.19-.42.26-.63.82-2.55-.74-5.2-.74-5.2,1.86-9.47-4.86-10.2-4.86-10.2h0s0,0,0,0c0,0,0,0,0,0,.14-.2.27-.4.39-.59.01-.02.03-.04.04-.06.11-.18.22-.36.32-.54.02-.03.03-.06.05-.08.09-.17.18-.33.25-.5.01-.03.03-.06.04-.09.07-.16.14-.31.2-.46.01-.03.02-.06.04-.09.06-.15.1-.29.15-.44,0-.03.02-.06.02-.08.04-.14.07-.28.1-.42,0-.02,0-.05.01-.07.03-.14.05-.27.06-.4,0-.02,0-.04,0-.06.01-.13.02-.26.02-.38,0-.02,0-.03,0-.05,0-.13,0-.25-.02-.37,0,0,0-.01,0-.02-.16-1.43-1.1-2.34-2.04-2.91,0,0-.01,0-.02-.01-.08-.05-.16-.09-.23-.13-.01,0-.02-.01-.03-.02-.07-.04-.15-.08-.22-.11-.01,0-.03-.01-.04-.02-.07-.03-.14-.06-.21-.09-.02,0-.03-.01-.05-.02-.07-.03-.13-.05-.19-.08-.02,0-.04-.01-.06-.02-.06-.02-.12-.04-.17-.06-.02,0-.04-.01-.05-.02-.05-.02-.11-.04-.16-.05-.02,0-.03-.01-.05-.02-.05-.02-.09-.03-.14-.04-.02,0-.03,0-.05-.01-.04-.01-.08-.02-.11-.03-.02,0-.03,0-.05-.01-.03,0-.06-.02-.09-.02-.01,0-.03,0-.04,0-.06-.01-.1-.02-.12-.03-.01,0-.02,0-.02,0,0-1.1-.22-1.96-.58-2.63-.59-1.11-1.56-1.7-2.52-2-.77-.24-1.54-.29-2.12-.29-.58,0-.96.07-.96.07.07-.64,0-1.27-.27-1.85-.05-.12-.11-.23-.18-.34-.68-1.13-2.12-2.05-4.61-2.47-.25-.04-.49-.06-.73-.05-.07,0-.13.02-.2.02-.17.01-.34.03-.51.06-.06.01-.12.04-.18.05-.17.04-.34.09-.5.15-.05.02-.11.05-.16.07-.17.07-.33.14-.49.23-.05.03-.09.06-.14.09-.16.09-.32.19-.48.3-.04.03-.07.06-.11.08-.16.12-.32.24-.47.37-.03.03-.06.05-.09.08-.15.14-.31.27-.45.42-.02.02-.04.05-.07.07-.15.15-.29.3-.43.45-.02.02-.03.04-.05.06-.14.16-.27.31-.39.47-.02.02-.03.04-.04.06-.12.16-.24.31-.35.46-.01.02-.02.03-.04.05-.11.15-.21.3-.31.44-.01.02-.02.03-.03.05-.09.14-.17.27-.25.39-.02.03-.03.05-.05.08-.06.1-.13.2-.18.29-.02.03-.03.05-.05.08-.04.07-.08.15-.12.2-.02.04-.04.07-.06.1-.02.03-.04.06-.05.09-.02.04-.03.06-.04.07h-.06s0-.01,0-.01c.06-.48.11-.97.14-1.47.04-.55.06-1.11.05-1.69-.06-6.56-3.92-7.8-7.05-7.73-2.14.05-3.94.71-3.94.71-.82-1.03-1.67-1.67-2.52-2.03-.12-.05-.23-.09-.35-.13-.03-.01-.06-.02-.09-.03-.04-.01-.09-.02-.13-.03-.38-.11-.76-.16-1.14-.17-3.05-.08-5.66,2.67-5.66,2.67-1-.27-1.89-.41-2.69-.45-5.59-.25-6.58,4.58-6.58,4.58-.4-.07-.77-.09-1.11-.09-5.13.08-3.82,7.6-3.82,7.6-1.08-.94-2.07-1.51-2.96-1.8-.03-.01-.06-.02-.1-.03-.5-.15-.97-.22-1.41-.22-3.76.04-5.44,5.21-5.44,5.21-.55.17-1,.47-1.37.82-.09.09-.18.18-.26.27-.16.19-.3.38-.43.58-.25.39-.42.78-.54,1.09-.15.39-.21.66-.21.66-.68.4-1.19.83-1.57,1.25-.25.29-.44.57-.58.85-.78,1.54-.14,2.9-.14,2.9,0,0,0,.01-.01.02-.18.32-.32.63-.44.93-.04.1-.07.2-.11.3-.07.2-.14.4-.2.59-.03.11-.05.21-.07.32-.04.17-.07.35-.09.51-.01.1-.02.2-.03.3-.01.16-.02.32-.01.47,0,.09,0,.18.01.27.01.15.03.3.06.45.01.08.02.15.04.23.03.15.08.3.13.45.02.05.03.11.05.17.07.18.14.34.22.5,0,.01.01.03.02.05.19.36.41.67.65.95.02.03.05.05.08.08.09.1.18.2.27.29.03.03.07.06.1.1.08.08.17.15.25.22.04.03.07.06.11.09.08.06.15.12.22.17.04.03.07.05.1.08.07.05.13.09.19.13.03.02.07.04.1.06.05.03.09.06.13.08.03.02.06.04.09.05h0s.02.11.02.11c0,0,0,0,0,0-9.37.43-4.53,11.85-4.53,11.85-.89,1.36-1.28,2.62-1.37,3.74-.13,1.68.42,3.06,1,4.01s1.2,1.49,1.2,1.49c-.09,2.34.32,4.03,1,5.24.39.69.87,1.23,1.41,1.64,1.34,1.03,3,1.29,4.38,1.28,1.51-.01,2.68-.35,2.68-.35l.11-.17.04.03c-.73.71-1.12,1.14-1.12,1.14-1.13,3.41.82,4.8,2.44,5.37.21.07.4.13.59.18.19.05.36.08.52.11.42.08.71.09.71.09.48,4.5,3.7,5.18,5.67,5.17.89,0,1.53-.15,1.53-.16.77.76,1.52,1.28,2.24,1.6.72.33,1.4.47,2.03.48,0,0,0,0,0,0,2.79.04,4.7-2.4,4.7-2.4.01.26.04.52.07.76,0,.03,0,.06.01.08.04.25.08.48.14.7.4,1.42,1.17,2.31,2.12,2.86.01,0,.03.01.04.02.36.21.76.35,1.16.46.28.08.56.14.85.18.36.05.71.09,1.07.09,2.12.04,4.05-.63,4.05-.63.94.9,1.77,1.2,2.46,1.18,1.53-.03,2.4-1.58,2.4-1.58,1.29,1.47,3,1.94,4.63,1.93,2.71,0,5.21-1.28,5.21-1.28.32-.23.6-.47.87-.71.05-.04.1-.09.15-.13.25-.23.48-.47.69-.71.05-.06.09-.11.14-.17.2-.24.39-.49.56-.75.03-.05.05-.09.08-.14.13-.22.26-.44.37-.66.04-.08.08-.16.12-.24.11-.23.2-.47.28-.71.04-.11.07-.23.11-.34.05-.18.1-.37.14-.56.04-.18.07-.36.1-.55.02-.12.03-.24.05-.36.03-.3.05-.59.05-.89,0-.06,0-.11,0-.17,0-.6-.06-1.21-.16-1.82,0,0,0,0,0,0h.03c.03.08.07.19.12.3.02.04.03.07.05.11.02.03.04.07.06.1.03.06.06.11.1.17.02.04.05.07.07.11.04.06.09.13.14.19.03.04.06.07.09.1.05.07.11.13.18.19.03.03.06.06.1.1.07.07.15.13.23.19.03.03.07.05.1.08.11.07.22.14.34.2.02.01.04.02.06.03.15.07.31.13.49.18.01,0,.03,0,.04,0,.16.04.33.07.51.09.06,0,.12,0,.18,0,.15,0,.3.01.46,0,.08,0,.16-.01.25-.02.15-.01.31-.04.48-.07.1-.02.19-.04.3-.06.17-.04.35-.09.54-.14.11-.03.21-.06.33-.1.21-.07.43-.16.65-.25.1-.04.2-.08.31-.13.34-.15.69-.33,1.06-.53,4.76-2.62,4.13-6.07,3.51-7.63-.05-.13-.1-.25-.15-.35-.1-.2-.18-.35-.22-.42-.02-.04-.03-.06-.03-.06.62.18,1.18.26,1.68.26,3.52-.01,4.34-3.99,4.34-3.99,3.89-2.63,1.51-5.67,1.51-5.67h0s0,0,0,0l-.16.15-.03-.58s0,0,0,0c.2-.06.39-.12.57-.2.01,0,.03-.01.04-.02.16-.07.32-.15.47-.24.05-.03.1-.07.15-.1.11-.07.22-.14.31-.23.15-.13.28-.27.41-.42,4.17-5.29-.06-8.42-.06-8.42ZM20.25,15.61c-.13-.18-.2-.29-.2-.29l.32.15s-.08.1-.12.15ZM32.14,74.88v-.34s0,0,0,0c0,.11,0,.23,0,.34Z"/>
</svg>