<?xml version="1.0" encoding="UTF-8"?>
<svg id="_레이어_1" data-name="레이어 1" xmlns="http://www.w3.org/2000/svg" viewBox="0 0 106.46 105.3">
  <defs>
    <style>
      .cls-1 {
        fill: #fff;
        stroke: #fff;
        stroke-linecap: round;
        stroke-linejoin: round;
        stroke-width: 2px;
      }
    </style>
  </defs>
  <path class="cls-1" d="M102.46,45.38c1.07-5.05,1.34-9.31,1.07-12.9-.09-1.2-.24-2.32-.44-3.37-2.39-12.64-11.98-15.19-11.98-15.19,0,0-4.06-15.27-31.83-11.85,0,0-.02,0-.02,0,0,0-.02,0-.04,0-.02,0-.03,0-.05,0-.05,0-.12.02-.2.04-.02,0-.03,0-.05,0-.22.04-.53.11-.92.2-.02,0-.03,0-.05.01-.59.14-1.36.34-2.24.61-.03,0-.06.02-.09.03-.29.09-.58.18-.89.29,0,0,0,0-.01,0h0s0,0,0,0c0,0-.56-.86-2.01-1.52-.14-.07-.3-.13-.46-.19-.81-.31-1.86-.54-3.17-.57-.52-.01-1.09.01-1.71.08-.61.06-1.27.17-1.98.32-4.25.93-10.24,3.65-18.52,9.98,0,0-.67.12-1.98.42-.82.19-1.91.45-3.22.79-.16.04-.33.09-.5.13-1.25.33-2.69.72-4.32,1.2-.28.08-.56.16-.85.25-.69.2-1.4.42-2.15.65-.16.05-.32.1-.49.15-1.19.37-2.16.79-2.95,1.25-1.32.75-2.14,1.59-2.64,2.43-.14.23-.25.45-.34.68-.03.08-.07.17-.09.25-.68,1.98.2,3.68.2,3.68h0s0,0,0,0h.02s0,0,0,0c-.24.28-.46.57-.67.86-.02.02-.03.05-.05.07-.86,1.2-1.5,2.46-1.95,3.73v.02c-.45,1.23-.72,2.45-.85,3.61,0,.08-.02.16-.03.24-.02.23-.04.45-.06.67,0,.12-.01.24-.02.35,0,.19-.02.39-.02.58,0,.28,0,.56.02.82,0,.12.02.22.03.34.02.18.03.36.05.54.01.1.03.2.05.3.03.18.06.34.09.5.02.08.03.15.05.23.06.22.12.44.19.62.2.55.42,1.13.65,1.7,0,.02.01.03.02.05.22.57.45,1.14.67,1.69h0s-1.33.64-2.58,2.45c-.39.56-.77,1.22-1.1,2.01-.17.4-.32.82-.46,1.28-.07.23-.13.47-.19.72-.47,1.98-.64,4.5-.16,7.7.06.4.13.81.21,1.23.16.84.36,1.72.61,2.65.12.46.26.94.41,1.43.13.43.26.84.38,1.24.05.15.09.29.13.43.08.25.15.49.22.72.05.16.1.32.15.47.08.26.16.52.24.76.03.09.06.18.08.26,0,0,0,.01,0,.02,0,0,0,.01-.02.03,0,0,0,.01-.02.03-.01.02-.02.04-.04.07,0,.02-.02.03-.03.05-.03.05-.05.1-.09.16,0,.02-.02.04-.03.06-.03.05-.05.11-.08.17-.02.03-.03.06-.05.1-.03.06-.06.13-.09.21-.02.04-.03.07-.05.11-.04.09-.08.2-.12.3-.02.05-.04.1-.06.16-.03.08-.06.16-.09.24-.02.06-.04.12-.06.18-.04.13-.09.27-.13.42-.02.06-.03.12-.05.18-.03.1-.06.21-.08.31-.02.08-.04.16-.06.24-.02.11-.05.22-.07.33-.02.08-.03.15-.05.23-.03.17-.06.35-.08.53-.01.09-.02.18-.03.27-.01.12-.03.24-.04.36,0,.1-.02.2-.02.3,0,.16-.02.32-.02.48,0,.13,0,.26,0,.39,0,.15,0,.29,0,.44,0,.11.01.22.02.33,0,.14.02.28.04.42.01.11.02.22.03.33.03.23.07.46.11.69.02.11.05.22.07.34.03.15.07.31.11.46.03.12.06.24.1.36.05.18.11.37.17.55.05.15.1.29.15.44.07.2.15.4.24.6.05.12.11.25.17.37.08.17.16.34.25.52.06.12.12.24.18.36.14.27.3.54.47.81.07.11.14.22.22.33.12.19.25.38.38.57.09.13.18.25.27.38.15.21.32.41.49.62.08.1.15.19.23.29h0c.3,1.65.68,3.17,1.11,4.58.97,3.16,2.22,5.76,3.6,7.86.22.34.45.66.67.98,5,6.91,11.2,8.08,11.2,8.08,8.85,3.2,17.16,4.2,24.27,4.13.68,0,1.34-.02,2-.05,2.39-.09,4.62-.3,6.67-.57.6-.08,1.19-.17,1.76-.26,1.01-.16,1.98-.34,2.88-.52.45-.09.89-.19,1.32-.28.85-.19,1.64-.39,2.37-.58.73-.19,1.39-.38,1.99-.57,2.39-.73,3.72-1.31,3.72-1.31h0,0s0,0,0,0c5.54-2.5,10.25-5.11,14.27-7.78,8.03-5.33,13.24-10.88,16.53-16.21.47-.76.9-1.52,1.3-2.27,1.78-3.39,2.81-6.66,3.35-9.71,1.91-10.84-2.52-18.81-2.52-18.81Z"/>
</svg>