<?xml version="1.0" encoding="UTF-8"?>
<svg id="main-bigBall" xmlns="http://www.w3.org/2000/svg" xmlns:xlink="http://www.w3.org/1999/xlink" viewBox="0 0 93.1 93.1">
  <defs>
    <style>
      .cls-1 {
        fill: #d793ff;
        stroke: #000;
        stroke-miterlimit: 10;
        stroke-width: 2px;
      }

      .cls-2 {
        clip-path: url(#clippath);
      }

      .cls-3 {
        fill: none;
      }

      .cls-3, .cls-4, .cls-5 {
        stroke-width: 0px;
      }

      .cls-4 {
        fill: #ffec2d;
      }

      .cls-5 {
        fill: #ff6a37;
      }
    </style>
    <clipPath id="clippath">
      <circle class="cls-3" cx="-69.51" cy="48.85" r="45.69"/>
    </clipPath>
  </defs>
  <g id="gcBall1">
    <g id="ballDeco1">
      <g class="cls-2">
        <path class="cls-4" d="M3.79,83.45c-14.34-13.49-27.32-28.45-38.33-44.79-9.93-14.73-19.87-30.8-21.77-48.83-.66-6.2-10.12-4.11-9.48,2.04,1.99,18.83,12.24,35.79,22.61,51.2,11.51,17.09,24.82,32.8,39.82,46.93,4.51,4.25,11.7-2.26,7.15-6.54h0Z"/>
      </g>
    </g>
  </g>
  <g id="gcBall3">
    <circle id="ballColor3" class="cls-1" cx="46.55" cy="46.55" r="45.55"/>
    <g id="ballDeco3">
      <path class="cls-5" d="M20.46,13.81c-2.77,2.7-4.55,4.54-7.24,7.39-.11-1.37-.43-1.82-1.22-1.76,2.88-2.58,4.68-4.39,7.29-7.33-.28,1.01,0,1.43,1.17,1.7h0Z"/>
      <path class="cls-5" d="M32.13,9.28c-2.67,2.51-4.31,4.31-6.66,7.27-.85-2.01-1.63-2.94-3.11-3.71,2.81-2.42,4.46-4.21,6.68-7.25.5,1.83,1.27,2.74,3.09,3.69Z"/>
      <path class="cls-5" d="M44.72,7.39c-2.43,2.11-3.87,3.74-5.82,6.59-1.47-2.48-2.62-3.77-4.67-5.23,2.63-2.09,4.06-3.73,5.8-6.62,1.21,2.43,2.37,3.74,4.69,5.26h0Z"/>
      <path class="cls-5" d="M57.58,8.36c-2.08,1.51-3.26,2.82-4.74,5.34-1.98-2.77-3.43-4.33-5.92-6.35,2.34-1.6,3.49-2.96,4.68-5.42,1.81,2.82,3.31,4.43,5.99,6.43h0Z"/>
      <path class="cls-5" d="M70.04,12.39c-1.62.69-2.49,1.54-3.43,3.52-2.4-2.9-4.08-4.63-6.86-7.06,1.93-.95,2.73-1.87,3.32-3.64,2.31,2.99,4.05,4.79,6.97,7.19h0Z"/>
      <path class="cls-5" d="M81.03,19.36c-.94-.21-1.32.13-1.53,1.37-2.69-2.8-4.51-4.59-7.33-7.28,1.29-.18,1.68-.53,1.55-1.39,2.59,2.9,4.39,4.71,7.31,7.3h0Z"/>
      <path class="cls-5" d="M15.61,26.62c-2.85,2.42-4.54,4.13-6.95,6.95-.9-2-1.78-2.85-3.47-3.51,2.94-2.32,4.73-4.08,7.12-7.05.62,1.7,1.41,2.6,3.3,3.6h0Z"/>
      <path class="cls-5" d="M29.71,23.76c-2.89,2.42-4.57,4.22-6.84,7.3-1.44-2.52-2.68-3.76-4.92-5.03,3.01-2.35,4.76-4.18,6.97-7.36,1.19,2.36,2.36,3.63,4.78,5.09h.01Z"/>
      <path class="cls-5" d="M44.63,22.4c-2.8,2.23-4.38,3.98-6.43,7.1-1.85-2.85-3.34-4.34-5.98-6.08,2.94-2.24,4.55-4.03,6.5-7.18,1.67,2.81,3.13,4.34,5.91,6.17h0Z"/>
      <path class="cls-5" d="M59.73,22.74c-2.59,1.85-4.03,3.4-5.79,6.32-2.17-2.99-3.83-4.64-6.72-6.73,2.75-1.95,4.18-3.56,5.78-6.42,2.05,3.05,3.72,4.75,6.73,6.83h0Z"/>
      <path class="cls-5" d="M74.36,24.98c-2.28,1.26-3.51,2.47-4.91,4.98-2.38-2.96-4.14-4.66-7.16-6.98,2.44-1.5,3.62-2.77,4.83-5.09,2.32,3.08,4.12,4.85,7.24,7.09h0Z"/>
      <path class="cls-5" d="M87.49,29.09c-1.74.57-2.62,1.38-3.51,3.27-2.47-2.71-4.24-4.37-7.15-6.74,1.93-.91,2.8-1.72,3.49-3.27,2.4,2.85,4.18,4.52,7.17,6.74Z"/>
      <path class="cls-5" d="M13.4,40.31c-2.71,2.01-4.22,3.5-6.18,6.04-1.56-2.41-2.88-3.59-5.26-4.83,2.75-1.85,4.33-3.36,6.3-6.1,1.44,2.14,2.7,3.36,5.15,4.89h0Z"/>
      <path class="cls-5" d="M28.79,39.2c-2.92,2.21-4.52,3.91-6.55,6.88-1.9-2.83-3.47-4.3-6.25-5.96,2.97-2.09,4.64-3.79,6.67-6.88,1.79,2.67,3.29,4.15,6.13,5.97h0Z"/>
      <path class="cls-5" d="M44.91,38.42c-2.96,2.24-4.59,4.01-6.6,7.19-2.09-3.03-3.78-4.65-6.79-6.58,3.02-2.21,4.67-4,6.65-7.21,2.02,2.98,3.69,4.62,6.74,6.6h0Z"/>
      <path class="cls-5" d="M61.12,38.2c-2.9,2.08-4.49,3.79-6.41,6.92-2.19-3.04-3.92-4.72-7.01-6.79,2.95-2.15,4.52-3.87,6.39-6.96,2.16,3.1,3.91,4.79,7.04,6.83h-.01Z"/>
      <path class="cls-5" d="M76.77,38.74c-2.72,1.73-4.22,3.22-5.99,6.09-2.18-2.87-3.88-4.49-6.92-6.59,2.76-1.9,4.21-3.43,5.89-6.14,2.2,3.01,3.95,4.66,7.03,6.65h-.01Z"/>
      <path class="cls-5" d="M90.93,40.05c-2.35,1.26-3.63,2.46-5.1,4.84-2.06-2.48-3.64-3.96-6.43-5.94,2.4-1.51,3.64-2.7,5.03-4.81,2.06,2.69,3.67,4.14,6.5,5.91Z"/>
      <path class="cls-5" d="M13.68,54.15c-2.4,1.51-3.64,2.7-5.03,4.81-2.06-2.69-3.67-4.14-6.5-5.91,2.35-1.26,3.63-2.46,5.1-4.84,2.06,2.48,3.64,3.96,6.43,5.94Z"/>
      <path class="cls-5" d="M29.22,54.87c-2.76,1.9-4.21,3.43-5.89,6.14-2.2-3.01-3.95-4.66-7.03-6.65,2.72-1.73,4.22-3.22,5.99-6.09,2.18,2.87,3.88,4.49,6.92,6.59h.01Z"/>
      <path class="cls-5" d="M45.39,54.77c-2.95,2.15-4.52,3.87-6.39,6.96-2.16-3.1-3.91-4.79-7.04-6.83,2.9-2.08,4.49-3.79,6.41-6.92,2.19,3.04,3.92,4.72,7.01,6.79h.01Z"/>
      <path class="cls-5" d="M61.57,54.07c-3.02,2.21-4.67,4-6.65,7.21-2.02-2.98-3.69-4.62-6.74-6.6,2.96-2.24,4.59-4.01,6.6-7.19,2.09,3.03,3.78,4.65,6.79,6.58h0Z"/>
      <path class="cls-5" d="M77.1,52.99c-2.97,2.09-4.64,3.79-6.67,6.88-1.79-2.67-3.29-4.15-6.13-5.97,2.92-2.21,4.52-3.91,6.55-6.88,1.9,2.83,3.47,4.3,6.25,5.96h0Z"/>
      <path class="cls-5" d="M91.13,51.58c-2.75,1.85-4.33,3.36-6.3,6.1-1.44-2.14-2.7-3.36-5.15-4.89,2.71-2.01,4.22-3.5,6.18-6.04,1.56,2.41,2.88,3.59,5.26,4.83h0Z"/>
      <path class="cls-5" d="M16.25,67.48c-1.93.91-2.8,1.72-3.49,3.27-2.4-2.85-4.18-4.52-7.17-6.74,1.74-.57,2.62-1.38,3.51-3.27,2.47,2.71,4.24,4.37,7.15,6.74Z"/>
      <path class="cls-5" d="M30.8,70.12c-2.44,1.5-3.62,2.77-4.83,5.09-2.32-3.08-4.12-4.85-7.24-7.09,2.28-1.26,3.51-2.47,4.91-4.98,2.38,2.96,4.14,4.66,7.16,6.98h0Z"/>
      <path class="cls-5" d="M45.87,70.78c-2.75,1.95-4.18,3.56-5.78,6.42-2.05-3.05-3.72-4.75-6.73-6.83,2.59-1.85,4.03-3.4,5.79-6.32,2.17,2.99,3.83,4.64,6.72,6.73h0Z"/>
      <path class="cls-5" d="M60.87,69.69c-2.94,2.24-4.55,4.03-6.5,7.18-1.67-2.81-3.13-4.34-5.91-6.17,2.8-2.23,4.38-3.98,6.43-7.1,1.85,2.85,3.34,4.34,5.98,6.08h0Z"/>
      <path class="cls-5" d="M75.13,67.07c-3.01,2.35-4.76,4.18-6.97,7.36-1.19-2.36-2.36-3.63-4.78-5.09,2.89-2.42,4.57-4.22,6.84-7.3,1.44,2.52,2.68,3.76,4.92,5.03h-.01Z"/>
      <path class="cls-5" d="M87.89,63.03c-2.94,2.32-4.73,4.08-7.12,7.05-.62-1.7-1.41-2.6-3.3-3.6,2.85-2.42,4.54-4.13,6.95-6.95.9,2,1.78,2.85,3.47,3.51h0Z"/>
      <path class="cls-5" d="M20.91,79.65c-1.29.18-1.68.53-1.55,1.39-2.59-2.9-4.39-4.71-7.31-7.3.94.21,1.32-.13,1.53-1.37,2.69,2.8,4.51,4.59,7.33,7.28h0Z"/>
      <path class="cls-5" d="M33.33,84.27c-1.93.95-2.73,1.87-3.32,3.64-2.31-2.99-4.05-4.79-6.97-7.19,1.62-.69,2.49-1.54,3.43-3.52,2.4,2.9,4.08,4.63,6.86,7.06h0Z"/>
      <path class="cls-5" d="M46.17,85.75c-2.34,1.6-3.49,2.96-4.68,5.42-1.81-2.82-3.31-4.43-5.99-6.43,2.08-1.51,3.26-2.82,4.74-5.34,1.98,2.77,3.43,4.33,5.92,6.35h0Z"/>
      <path class="cls-5" d="M58.85,84.35c-2.63,2.09-4.06,3.73-5.8,6.62-1.21-2.43-2.37-3.74-4.69-5.26,2.43-2.11,3.87-3.74,5.82-6.59,1.47,2.48,2.62,3.77,4.67,5.23h0Z"/>
      <path class="cls-5" d="M70.72,80.26c-2.81,2.42-4.46,4.21-6.68,7.25-.5-1.83-1.27-2.74-3.09-3.69,2.67-2.51,4.31-4.31,6.66-7.27.85,2.01,1.63,2.94,3.11,3.71Z"/>
      <path class="cls-5" d="M81.08,73.66c-2.88,2.58-4.68,4.39-7.29,7.33.28-1.01,0-1.43-1.17-1.7,2.77-2.7,4.55-4.54,7.24-7.39.11,1.37.43,1.82,1.22,1.76h0Z"/>
    </g>
  </g>
</svg>