<?xml version="1.0" encoding="UTF-8"?>
<svg id="main-bigBall" xmlns="http://www.w3.org/2000/svg" viewBox="0 0 93.1 93.1">
  <defs>
    <style>
      .cls-1 {
        fill: #ffec2d;
        stroke-width: 0px;
      }

      .cls-2 {
        fill: #00d675;
        stroke: #000;
        stroke-miterlimit: 10;
        stroke-width: 2.5px;
      }

                  #ballDeco2{  
        animation: leap-rotation2 4s linear infinite;
        transform-origin: 46.55px 46.55px;
        }
@keyframes leap-rotation2 {
  0% {
    transform: rotate(0deg);
  }
  100% {
    transform: rotate(280deg);
  }
}

#ballColor2{
    fill: #d793ff;
    animation: fillColorChange2 2s ease-in-out infinite;
  }

  @keyframes fillColorChange2 {
    0% {
      fill: #CD77FF;
    }
    100% {
      fill: #FF7C50;
    }
  }

    </style>
  </defs>
  <g id="gcBall2">
    <circle id="ballColor2" class="cls-2" cx="46.55" cy="46.55" r="45.55"/>
    <g id="ballDeco2">
      <path class="cls-1" d="M30.06,7.92c-1.69,1.68-4.85,3.41-7.04,3.84-2.19.43-2.43-.31-.5-1.58s5.1-2.96,7.06-3.79c1.96-.83,2.17-.15.48,1.53Z"/>
      <path class="cls-1" d="M42.48,6.73c-1.28,2.15-4.23,3.9-6.58,3.88-2.35-.02-3.01-1.58-1.46-3.45,1.55-1.87,4.51-3.6,6.59-3.87s2.74,1.28,1.45,3.43h0Z"/>
      <path class="cls-1" d="M55.07,8.37c-.82,2.42-3.43,4.02-5.81,3.57s-3.4-2.66-2.28-4.94c1.12-2.27,3.72-3.89,5.8-3.6,2.08.3,3.11,2.54,2.29,4.96h0Z"/>
      <path class="cls-1" d="M67.16,12.79c-.31,2.49-2.45,3.76-4.73,2.88-2.28-.88-3.6-3.58-2.95-6.05.65-2.47,2.75-3.82,4.7-2.96s3.3,3.63,2.98,6.12h0Z"/>
      <path class="cls-1" d="M78.05,20.01c.24,2.35-1.28,3.14-3.34,1.83s-3.61-4.33-3.49-6.79c.12-2.46,1.59-3.37,3.29-1.95s3.3,4.56,3.54,6.91h0Z"/>
      <path class="cls-1" d="M86.76,29.68c.85,2.02.19,2.32-1.44.67-1.64-1.65-3.34-4.81-3.79-7.06s.23-2.56,1.46-.68,2.92,5.05,3.77,7.07h0Z"/>
      <path class="cls-1" d="M21.56,18.45c-1.35,2.11-4.33,3.71-6.73,3.58-2.4-.12-3.24-1.64-1.78-3.38,1.46-1.75,4.59-3.38,6.87-3.61,2.28-.24,2.98,1.31,1.63,3.42h0Z"/>
      <path class="cls-1" d="M35.77,19.68c-1.12,2.52-4.11,4.25-6.72,3.86-2.62-.39-3.78-2.56-2.51-4.84s4.37-4.03,6.84-3.88c2.46.15,3.51,2.34,2.39,4.86Z"/>
      <path class="cls-1" d="M50.41,22.59c-.84,2.73-3.69,4.42-6.38,3.8s-4.08-3.24-3.05-5.86c1.02-2.62,3.94-4.36,6.44-3.85s3.83,3.18,2.99,5.91Z"/>
      <path class="cls-1" d="M64.8,27.17c-.52,2.73-3.09,4.23-5.73,3.37-2.63-.85-4.19-3.76-3.46-6.51s3.32-4.32,5.74-3.45c2.42.88,3.97,3.86,3.45,6.59Z"/>
      <path class="cls-1" d="M78.24,33.43c-.15,2.53-2.31,3.66-4.77,2.58s-4.12-4.11-3.73-6.79c.4-2.68,2.52-3.92,4.73-2.68,2.22,1.24,3.92,4.37,3.76,6.9h.01Z"/>
      <path class="cls-1" d="M89.81,41.09c.27,2.14-1.25,2.87-3.34,1.63-2.1-1.24-3.79-4.21-3.78-6.62,0-2.41,1.51-3.15,3.33-1.63,1.81,1.51,3.52,4.49,3.79,6.62Z"/>
      <path class="cls-1" d="M15.42,30.64c-.9,2.33-3.55,3.71-5.95,3.08-2.4-.63-3.69-2.77-2.81-4.77s3.63-3.4,6.05-3.1c2.42.3,3.61,2.46,2.71,4.79h0Z"/>
      <path class="cls-1" d="M30.32,34.01c-.88,2.7-3.74,4.33-6.42,3.61s-4.18-3.35-3.28-5.83,3.85-4.1,6.51-3.59c2.66.5,4.07,3.11,3.19,5.81Z"/>
      <path class="cls-1" d="M45.91,37.93c-.81,2.86-3.73,4.58-6.52,3.83s-4.4-3.63-3.54-6.41,3.82-4.51,6.56-3.84,4.31,3.56,3.5,6.42Z"/>
      <path class="cls-1" d="M61.49,42.4c-.69,2.82-3.54,4.46-6.32,3.68-2.79-.78-4.43-3.75-3.66-6.62.77-2.87,3.6-4.55,6.31-3.71,2.71.84,4.36,3.84,3.67,6.66h0Z"/>
      <path class="cls-1" d="M76.38,47.44c-.53,2.57-3.16,3.97-5.82,3.16s-4.28-3.7-3.64-6.46c.64-2.76,3.21-4.22,5.75-3.22s4.23,3.95,3.7,6.52h.01Z"/>
      <path class="cls-1" d="M89.7,52.81c-.31,2.13-2.52,3.23-4.88,2.44s-3.88-3.43-3.42-5.86c.46-2.43,2.61-3.52,4.82-2.43,2.21,1.1,3.78,3.72,3.48,5.85h0Z"/>
      <path class="cls-1" d="M11.7,43.73c-.46,2.43-2.61,3.52-4.82,2.43-2.21-1.1-3.78-3.72-3.48-5.85.31-2.13,2.52-3.23,4.88-2.44,2.36.79,3.88,3.43,3.42,5.86h0Z"/>
      <path class="cls-1" d="M26.18,48.98c-.64,2.76-3.21,4.22-5.75,3.22-2.55-1-4.23-3.95-3.7-6.52s3.16-3.97,5.82-3.16c2.66.82,4.28,3.7,3.64,6.46h-.01Z"/>
      <path class="cls-1" d="M41.6,53.65c-.77,2.87-3.6,4.55-6.31,3.71-2.71-.84-4.36-3.84-3.67-6.66s3.54-4.46,6.32-3.68,4.43,3.75,3.66,6.62h0Z"/>
      <path class="cls-1" d="M57.26,57.76c-.86,2.78-3.82,4.51-6.56,3.84-2.75-.67-4.31-3.56-3.5-6.42s3.73-4.58,6.52-3.83c2.8.75,4.4,3.63,3.54,6.41Z"/>
      <path class="cls-1" d="M72.48,61.33c-.9,2.49-3.85,4.1-6.51,3.59-2.66-.5-4.07-3.11-3.19-5.81s3.74-4.33,6.42-3.61,4.18,3.35,3.28,5.83Z"/>
      <path class="cls-1" d="M86.45,64.17c-.88,2-3.63,3.4-6.05,3.1-2.42-.3-3.61-2.46-2.71-4.79.9-2.33,3.55-3.71,5.95-3.08s3.69,2.77,2.81,4.77h0Z"/>
      <path class="cls-1" d="M10.42,57.01c0,2.41-1.51,3.15-3.33,1.63-1.81-1.51-3.52-4.49-3.79-6.62-.27-2.14,1.25-2.87,3.34-1.63,2.1,1.24,3.79,4.21,3.78,6.62Z"/>
      <path class="cls-1" d="M23.36,63.9c-.4,2.68-2.52,3.92-4.73,2.68-2.22-1.24-3.92-4.37-3.76-6.9.15-2.53,2.31-3.66,4.77-2.58,2.46,1.09,4.12,4.11,3.73,6.79h-.01Z"/>
      <path class="cls-1" d="M37.49,69.08c-.73,2.75-3.32,4.32-5.74,3.45-2.42-.88-3.97-3.86-3.45-6.59s3.09-4.23,5.73-3.37c2.63.85,4.19,3.76,3.46,6.51Z"/>
      <path class="cls-1" d="M52.12,72.59c-1.02,2.62-3.94,4.36-6.44,3.85s-3.83-3.18-2.99-5.91c.84-2.73,3.69-4.42,6.38-3.8s4.08,3.24,3.05,5.86Z"/>
      <path class="cls-1" d="M66.56,74.4c-1.27,2.28-4.37,4.03-6.84,3.88s-3.51-2.34-2.39-4.86,4.11-4.25,6.72-3.86c2.62.39,3.78,2.56,2.51,4.84Z"/>
      <path class="cls-1" d="M80.05,74.47c-1.46,1.75-4.59,3.38-6.87,3.61-2.28.24-2.98-1.31-1.63-3.42,1.35-2.11,4.33-3.71,6.73-3.58s3.24,1.64,1.78,3.38h0Z"/>
      <path class="cls-1" d="M11.57,69.82c.44,2.25-.23,2.56-1.46.68-1.24-1.88-2.92-5.05-3.77-7.07s-.19-2.32,1.44-.67c1.64,1.65,3.34,4.81,3.79,7.06h0Z"/>
      <path class="cls-1" d="M21.88,78.07c-.12,2.46-1.59,3.37-3.29,1.95s-3.3-4.56-3.54-6.91c-.24-2.35,1.28-3.14,3.34-1.83s3.61,4.33,3.49,6.79h0Z"/>
      <path class="cls-1" d="M33.62,83.48c-.65,2.47-2.75,3.82-4.7,2.96s-3.3-3.63-2.98-6.12c.31-2.49,2.45-3.76,4.73-2.88,2.28.88,3.6,3.58,2.95,6.05h0Z"/>
      <path class="cls-1" d="M46.12,86.11c-1.12,2.27-3.72,3.89-5.8,3.6-2.08-.3-3.11-2.54-2.29-4.96.82-2.42,3.43-4.02,5.81-3.57s3.4,2.66,2.28,4.94h0Z"/>
      <path class="cls-1" d="M58.67,85.94c-1.55,1.87-4.51,3.6-6.59,3.87s-2.74-1.28-1.45-3.43c1.28-2.15,4.23-3.9,6.58-3.88,2.35.02,3.01,1.58,1.46,3.45h0Z"/>
      <path class="cls-1" d="M70.59,82.94c-1.93,1.27-5.1,2.96-7.06,3.79-1.96.83-2.17.15-.48-1.53s4.85-3.41,7.04-3.84c2.19-.43,2.43.31.5,1.58Z"/>
    </g>
  </g>
</svg>