<?xml version="1.0" encoding="UTF-8"?>
<svg id="main-bigBall" xmlns="http://www.w3.org/2000/svg" xmlns:xlink="http://www.w3.org/1999/xlink" viewBox="0 0 99.43 99.43">
  <defs>
    <style>

      .cls-2 {
        fill: #00d675;
        stroke: #000;
        stroke-miterlimit: 10;
        stroke-width: 2.5px;
      }


      .cls-2, .cls-3, .cls-4, .cls-5, .cls-6 {
        stroke-width: 0px;
      }

      .cls-3 {
        fill: #ffec2d;
      }

      .cls-4 {
        fill: #00d675;
      }

      .cls-5 {
        fill: #000;
      }

      .cls-6 {
        fill: #ff6a37;
      }
                        #ballDeco4{  
                                          fill: #CD77FF;
        animation: leap-rotation2 4s linear infinite,fillColorChange2 2s ease-in-out infinite;
        transform-origin: 49.72px 49.72px;
        }
@keyframes leap-rotation2 {
  0% {
    transform: rotate(0deg);
  }
  100% {
    transform: rotate(280deg);
  }
}
  @keyframes fillColorChange2 {
    0% {
      fill: #CD77FF;
    }
    100% {
      fill: #ED80E9;
    }
  }
#ballColor4{
    fill: #00D675;
    animation: fillColorChange2 2s ease-in-out infinite;
  }

  @keyframes fillColorChange2 {
    0% {
      fill: #CD77FF;
    }
    100% {
      fill: #ED80E9;
    }
  }
    </style>
    <clipPath id="clippath">
      <circle class="cls-2" cx="49.28" cy="-69.47" r="45.69"/>
    </clipPath>
  </defs>
  <g id="gcBall4">
    <g id="ballColor4">
      <circle class="cls-4" cx="49.72" cy="49.72" r="48.71"/>
      <path class="cls-5" d="M71.88,94.23c-24.54,12.22-54.45,2.2-66.67-22.35S3.02,17.43,27.56,5.21c24.54-12.22,54.45-2.19,66.67,22.35,12.22,24.54,2.2,54.45-22.35,66.67h0ZM28.46,7.03C4.92,18.75-4.7,47.44,7.02,70.98s40.41,33.16,63.95,21.44c23.54-11.72,33.16-40.41,21.44-63.95S52-4.69,28.46,7.03Z"/>
    </g>
    <g id="ballDeco4">
      <path class="cls-6" d="M9.12,24.84c-1.1,27.63,13.27,56.49,35.98,72.26-4.3-.42-6.44-.88-10.52-2.25C8.61,82.43-1.17,62.8,4.57,34.59c1.37-4.08,2.29-6.06,4.54-9.75h.01Z"/>
      <path class="cls-6" d="M19.48,12.94c9.54,29.98,23.19,57.4,41.36,83.08-4.33,1.04-6.54,1.3-10.89,1.32C28.35,78.55,13.84,49.41,11.86,20.84c2.64-3.46,4.17-5.07,7.61-7.89h0Z"/>
      <path class="cls-6" d="M33.77,4.86c16.7,26.63,30.77,55.33,42.13,84.62-3.79,2.49-5.97,3.57-10.24,5.1-16.52-26.72-30.95-55.25-42.13-84.62,3.79-2.49,5.97-3.57,10.24-5.1h0Z"/>
      <path class="cls-6" d="M49.48,2.11c21.6,18.79,36.11,47.93,38.09,76.5-2.64,3.46-4.17,5.07-7.61,7.89C70.42,56.52,56.77,29.1,38.6,3.42c4.33-1.04,6.54-1.3,10.89-1.32h-.01Z"/>
      <path class="cls-6" d="M64.85,4.59c25.97,12.42,35.75,32.05,30.01,60.26-1.37,4.08-2.29,6.06-4.54,9.75,1.1-27.63-13.27-56.49-35.98-72.26,4.3.42,6.44.88,10.52,2.25h-.01Z"/>
    </g>
  </g>
</svg>