<?xml version="1.0" encoding="UTF-8"?>
<svg id="main-bigBall" xmlns="http://www.w3.org/2000/svg" xmlns:xlink="http://www.w3.org/1999/xlink" viewBox="0 0 451.27 362.46">
  <defs>
    <style>
      .cls-1, .cls-2, .cls-3, .cls-4, .cls-5, .cls-6 {
        stroke: #000;
        stroke-miterlimit: 10;
        stroke-width: 2px;
      }

      .cls-1, .cls-7 {
        fill: #d793ff;
      }

      .cls-8, .cls-3 {
        fill: #00b2ff;
      }

      .cls-9, .cls-2, .cls-10 {
        fill: #ff97b5;
      }

      .cls-9, .cls-11, .cls-7, .cls-12, .cls-13, .cls-14 {
        stroke-width: 0px;
      }

      .cls-15 {
        clip-path: url(#clippath);
      }

      .cls-11, .cls-4 {
        fill: #ffec2d;
      }

      .cls-5, .cls-12 {
        fill: #00d675;
      }

      .cls-6 {
        fill: none;
      }

      .cls-16 {
        clip-path: url(#clippath-1);
      }

      .cls-13 {
        fill: #000;
      }

      .cls-14 {
        fill: #ff6a37;
      }
    </style>
    <clipPath id="clippath">
      <circle class="cls-3" cx="346.76" cy="252.12" r="46.78"/>
    </clipPath>
    <clipPath id="clippath-1">
      <circle class="cls-2" cx="90.04" cy="74.28" r="46.78"/>
    </clipPath>
  </defs>
  <g>
    <circle class="cls-8" cx="346.76" cy="252.12" r="46.78"/>
    <g class="cls-15">
      <path class="cls-11" d="M304.06,231.84c28.11,5.31,61.08,1.44,74.5-27.57,2.66-5.76-5.88-10.8-8.57-5.01-11.48,24.8-39.27,27.55-63.3,23.01-6.24-1.18-8.91,8.38-2.64,9.57h0Z"/>
      <path class="cls-11" d="M288.74,248.64c21.43,13.64,48.08,16.57,72.57,10.86s46.59-19.94,64.92-37.11c4.67-4.38-2.36-11.38-7.02-7.02-16.73,15.68-36.5,28.56-58.95,34.17-22.44,5.61-46.82,3.06-66.52-9.47-5.4-3.44-10.38,5.14-5.01,8.57h0Z"/>
      <path class="cls-11" d="M291.67,274.37c40.16,13.07,83.89,13.33,124.22.76,6.08-1.89,3.48-11.47-2.64-9.57-38.76,12.08-80.34,11.8-118.94-.76-6.09-1.98-8.69,7.6-2.64,9.57h0Z"/>
      <path class="cls-11" d="M315.29,175.34c1.51,20.1.98,40.37-1.98,60.32-2.67,17.99-6.27,37-17.29,51.93-3.79,5.14,4.81,10.1,8.57,5.01,11.5-15.6,15.48-35.5,18.29-54.3,3.11-20.86,3.91-41.93,2.34-62.96-.47-6.33-10.4-6.38-9.92,0h0Z"/>
      <path class="cls-11" d="M327.95,195.59c8.34,43.34,6,88.2-6.55,130.5-1.6,5.4,6.27,8.7,9.07,3.82.89-1.56,1.78-3.11,2.68-4.67,3.18-5.55-5.39-10.55-8.57-5.01-.89,1.56-1.78,3.11-2.68,4.67l9.07,3.82c13.07-44.04,15.23-90.68,6.55-135.77-1.21-6.26-10.77-3.61-9.57,2.64h0Z"/>
      <path class="cls-11" d="M347.53,191.41c10.68,41.16,10.51,84.48-.49,125.56-1.65,6.17,7.91,8.81,9.57,2.64,11.45-42.77,11.61-87.98.49-130.83-1.6-6.18-11.18-3.56-9.57,2.64h0Z"/>
      <path class="cls-11" d="M372.88,206.84c4.97,32.41,4.59,65.57-1.06,97.87-1.09,6.24,8.47,8.93,9.57,2.64,5.98-34.19,6.32-68.84,1.06-103.14-.96-6.29-10.53-3.62-9.57,2.64h0Z"/>
      <g>
        <path class="cls-13" d="M426.59,99.78c-.1-.18-.34.07-.41.08.29.26.47-.15.41-.08Z"/>
        <path class="cls-13" d="M429.4,100.3l-.04.14c.12-.11.21-.24.29-.37-.08.08-.16.16-.25.23Z"/>
        <path class="cls-13" d="M431.19,99.71c-.44-.4-.51.42-.93.33l-.09-.11c0,.16,0,.33-.02.5.43-.19.74-.69,1.04-.72Z"/>
        <path class="cls-13" d="M432.91,99.87c-.23-.09.05-.35-.27.19.04,0,.06,0,.08,0,.04-.04.09-.09.19-.19Z"/>
        <path class="cls-13" d="M432.72,100.06c-.18.21.27,0,0,0h0Z"/>
        <path class="cls-13" d="M433.37,98.93c0,.14,0,.29-.02.44.16,0,.37-.3.39-.14.1-.45-.08-.41-.37-.3Z"/>
        <path class="cls-13" d="M433.12,98.42v.21c.07,0,.11-.05,0-.21Z"/>
        <path class="cls-13" d="M433.1,99.07c.02-.14.02-.29.02-.44-.11.01-.28-.07-.02.2-.14-.11-.02.03,0,.24Z"/>
        <path class="cls-13" d="M432.91,99.21c-.22.1-.42.21-.39-.15-.3.51.06.75.39.15Z"/>
        <path class="cls-13" d="M430.92,99.16l-.23-.06v.24c0-.12.34-.04.23-.18Z"/>
        <path class="cls-13" d="M434.18,97c-.12-.03-.34.08-.5.08l.12.23c.1-.1.2-.31.38-.31Z"/>
        <path class="cls-13" d="M433.67,97.08c-.06-.11-.13-.21-.2-.31-.04.26.06.32.2.31Z"/>
        <path class="cls-13" d="M432.53,98.13c.07.22.14.46.16.7,0-.27-.06-.56-.13-.8l-.03.1Z"/>
        <path class="cls-13" d="M434.16,95.79c.1.04.2.09.31.14-.15-.1-.31-.18-.47-.25l.16.11Z"/>
        <path class="cls-13" d="M433.99,95.09c.26.07.36-.24.54-.15-.09-.18-.32-.29-.54-.37.14.11.15.28,0,.52Z"/>
        <path class="cls-13" d="M433.67,94.42c.07.05.19.09.32.14-.07-.06-.17-.11-.32-.14Z"/>
        <path class="cls-13" d="M433.53,96.28c.07-.03.27-.08.34-.25l-.34.14s0,.07,0,.11Z"/>
        <path class="cls-13" d="M433.52,96.17h.01c0-.12,0-.21,0-.24,0,.03,0,.1-.01.24Z"/>
        <path class="cls-13" d="M433.53,96.31v-.03s-.05.02,0,.03Z"/>
        <path class="cls-13" d="M433.04,97.49c-.16-.21-.34-.53-.67-.28.22.14.43-.01.67.28Z"/>
        <path class="cls-13" d="M433.1,96.46c-.03.1-.05.19-.08.28.09,0,.23-.05.33.03-.08-.11-.16-.22-.25-.32Z"/>
        <polygon class="cls-13" points="432.98 96.33 433.1 96.46 433.12 96.35 432.98 96.33"/>
        <path class="cls-13" d="M433.46,94.94c-.17-.08-.22-.18-.28-.31-.03.16-.03.31,0,.45.11,0,.32.01.27-.14Z"/>
        <path class="cls-13" d="M433.48,95.53l-.02-.02s-.03.04.02.02Z"/>
        <polygon class="cls-13" points="432.8 93.47 432.74 93.51 432.8 93.5 432.8 93.47"/>
        <path class="cls-13" d="M433.13,95.12c-.04.12.06.17.18.21-.05-.08-.09-.16-.12-.25-.05,0-.08,0-.06.04Z"/>
        <path class="cls-13" d="M433.4,94.12c-.05.07-.09.15-.13.23.09-.08.22-.25.13-.23Z"/>
        <path class="cls-13" d="M433.55,95.45h.02c.07-.04.03-.03-.02,0Z"/>
        <path class="cls-13" d="M433.55,95.45c-.06-.05-.16-.08-.24-.11.04.06.09.12.15.17.02-.02.06-.04.09-.06Z"/>
        <path class="cls-13" d="M430.56,93.98c.31-.11.68,0,.42.31.3.1,1.27-.39,1.77-.77-.14.05-.26.09-.51-.04-.14.13-.23.58-.57.52-.25-.2.03-.25.14-.43-.34.25-.68-.1-1.21.17l.28.14c-.09.04-.25.01-.31.1Z"/>
        <path class="cls-13" d="M432.86,93.92l.07.07c.02-.12.12-.23.31-.45-.2-.09-.33-.07-.43-.04l.11.44h-.06Z"/>
        <path class="cls-13" d="M433.06,94.4c-.36.03-.58-.13-.9.12.1.24.34.09.54.2-.22-.41.23.07.33-.3.08.07.13.14.16.22.02-.1.05-.19.09-.28l-.02.02h0s0,0,0,0c-.04.03-.06.05-.04.02h-.01s-.09,0-.13.01c.03-.15.08-.05.13-.02h.05s0-.01,0-.01c-.11-.13-.22-.25-.33-.38-.02.11.03.21.14.41Z"/>
        <path class="cls-13" d="M431.63,96.89s.06,0,.08,0c-.04-.03-.07-.04-.08,0Z"/>
        <path class="cls-13" d="M431.85,96.73s.19.07.15.17c-.11.08-.17-.01-.29-.02.09.06.23.24.43.06l-.05-.04c.14-.16.58-.42.63-.39-.32.06-.54.12-.87.22Z"/>
        <path class="cls-13" d="M432.46,95.64c-.08-.11-.16-.23-.25-.33l-.26.24.18-.05c-.03.22.18.13.33.13Z"/>
        <polygon class="cls-13" points="432.95 93.37 433.32 93.28 432.75 93.29 432.95 93.37"/>
        <polygon class="cls-13" points="432.75 92.98 433.06 92.87 432.83 92.84 432.75 92.98"/>
        <path class="cls-13" d="M422.26,71.53l-.11-.07s.08.06.11.07Z"/>
        <path class="cls-13" d="M422.41,72.19l.16-.02c-.09,0-.16,0-.16.02Z"/>
        <path class="cls-13" d="M429.52,83.41c.26-.22.67-.49.32-.37l-.33.14c.09.07.07.15.01.24Z"/>
        <path class="cls-13" d="M425.63,77.18l-.1.07c.13,0,.25,0,.36,0-.08-.02-.17-.05-.26-.07Z"/>
        <path class="cls-13" d="M424.17,77.45l.18-.23c-.07.06-.13.14-.18.23Z"/>
        <path class="cls-13" d="M420.95,68.02h-.38c.05.15.2.03.38,0Z"/>
        <path class="cls-13" d="M431.19,89.07c.09-.16.12-.26.11-.35-.15.2-.41.41-.11.35Z"/>
        <path class="cls-13" d="M426.02,70.85c-.08-.04-.15-.05-.23-.03.07.04.15.06.23.03Z"/>
        <path class="cls-13" d="M431.19,88.41s-.04.06-.06.09c.08.06.16.13.17.23.11-.15.16-.29-.11-.32Z"/>
        <path class="cls-13" d="M417.16,55.24s.01-.03.03-.04c-.05.02-.04.03-.03.04Z"/>
        <path class="cls-13" d="M418.91,50.18s.06.09.09.14c0-.04-.01-.08-.09-.14Z"/>
        <path class="cls-13" d="M432.31,91.38c.05.07.04,0,0,0h0Z"/>
        <path class="cls-13" d="M431.13,92.27s-.1,0-.18.03c.08-.02.14-.03.18-.03Z"/>
        <path class="cls-13" d="M428.79,88.28h0c-.06.04-.05.03,0,0Z"/>
        <path class="cls-13" d="M432.21,91.56s.05-.09.06-.14c-.02.03-.04.07-.06.14Z"/>
        <path class="cls-13" d="M432.36,91.48s0,.06,0,.08c.06-.01.09-.03,0-.08Z"/>
        <path class="cls-13" d="M432.25,91.27s.02.09.01.14c.02-.02.03-.04.05-.04-.01-.02-.03-.05-.06-.11Z"/>
        <path class="cls-13" d="M420.44,61.67s.02-.02.03-.03c-.17-.04-.13-.01-.03.03Z"/>
        <polygon class="cls-13" points="425.31 82.18 425.33 82.19 425.34 82.17 425.31 82.18"/>
        <path class="cls-13" d="M424.97,81.94c.47.02.43.11.37.23l.97-.37-1.34.14Z"/>
        <path class="cls-13" d="M421.76,69.97l-.26.3c-.58-.13-.45-.36-.84-.04,1.09-.25.33.81,1.42.56l-.19.2s-.07-.03-.07-.08c-.45.41.84,0,.78.4-.05.15-.19.27-.34.22l.34.21c0,.09-.19.11-.19.03l.2.4h-.03c.19.02.48.09.61.13-.13.15-.13-.02-.26.04l.32.17c-.26.17-.58.04-.58-.13-1.03.5.32.13-.19.76l-.19-.19c-.58.3-.31.42-.64.76.19-.11.84-.75,1.18-.56-.06.09-.08.2.17.28-.39.1-.26.21-.19.37l-.52.12c.19.14.45.06.71.11,0,.22-.39.36-.71.49,0,.35.58-.38.77-.02-.13.32.13.46.52.7-.13.23-.32.05-.45.15l.45.06s-.13.06-.19.07c.19.1.52-.12.71.07.58-.08-.71.67,0,.78-.13.1-.32.05-.52.12.52.27.39.25,1.03.41l-.27.35c.34-.29.85-.16,1.28-.04.17-.12.32-.22.38-.28l.36.28c-.07.06-.26.07-.49.07.05.01.1.02.14.03-.16.17-.47.18-.78.17.09-.07.19-.14.28-.21-.33,0-.7,0-.99.1.06,0,.13.04.17.08-.09,0-.17,0-.22.03-.05.03.07.03.22.06l-.55.22.23-.04-.24.55c.66.18,1.58.24,1.95.69-.45-.02-.69.15-1.19.27.49-.28-.33-.34-.29-.64-.02.15-.26.18-.36.17l.6.35c-.41.09-.28.18-.41.35.78-.3.63.22.92.35-.27.08-.55.11-.55-.15-.54.42,1.03.09.58.48-.02-.06.01-.1-.13-.08.27.07.17.45-.08.44l-.02-.06c0,.41.31,1.17,1,1.04-.09.03-.83.17-.98.18l2.47.06c-.6.1-1.92.71-2.34.48-.06.11-.12.25.13.39.07-.09.8-.39.88-.32-.59.41-.3.26-.78.7.1-.13,1.04-.28,1.05-.12-.14.01-.9.26-1.01.23l1,.12c-.19-.05-.76.2-.99.35.16-.09.07.32.19.4l.16-.21c-.02.45,1.38.05,1.45.47-.2,0-1.17.2-1.22.45.49-.04,2.32-.21,2.78.04l-.24.15.38.19c-.74.03-2.32-.03-2.96-.13-.16.22-.3.13-.21.36-.22.15-.41-.02-.44-.08v.59c.52-.18.65.26,1.09.1l-.72-.43c.53-.18,1.61-.1,1.63.3-.18.16-.97.21-1.15.27.2,0,.46.26.34.33l-.33-.08c-.13.27.81.13.38.54,0,.1-.6.47-.28.39.56-.33,2.43-.93,2.91-.98-.03.04-.44.63-.71.83-.43.29-1.2.14-1.57.39.15-.04.35-.02.42,0-.09.13-.46.1-.33.28.55-.14.08.42.48-.05.21.15-.05.24.05.47.32-.18,1.24-.17,1.46-.03-.14.03-.3.13-.38.18.09.41-.09.7.04,1.08-.12.08-.21.31-.47.31.11.02.31,0,.36.12-.39.38-.16-.23-.66.13.32-.09.53.15.78.25.46-.21-.04-.41-.28-.51.66-.22,1.45-.17,1.88.1.27.25-.38.28-.27.3.08.61,1.31.08,1.01.72-.35.34-.83.31-1.12.46-.25-.19.12-.47.05-.63l-.13.28c-.17-.03-.33-.16-.24-.29-.33.29.28.99.09,1.56.17.03.36.11.51-.02l-.11-.12c.29-.25.56.09.65-.15.31.1.75.16.66.49l-.46.23c.14-.06.22-.28.05-.3.25.03-.49.64.17.52l.26-.31c.31.09.89.12.83.41.43-.29-.07-.03.41-.41-.63.4-.19-.59-.82-.09.57-.41.16-.39.62-.81-.15.07-.27.19-.26-.03-.05,0-.11.01-.15.01v-.02s0,.02,0,.02c-.03,0-.03,0,0,0-.05.07-.12.14-.2.19-.39.04-.5-.27-.72-.3.03-.14.2-.02.34-.14l-.34-.05c.34-.14.47-.51.77-.32l-.07-.24c.14-.21.15-.43-.04-.5.04-.14-.49-.15-.18-.15l-.35-.3.09-.03c-.08-.39-.84-.58-.36-1.22-.13-.1-.28-.19-.26-.44l.29-.14c-.16-.13.14-.59-.2-.55.77-.44-.07-.85,0-1.19l-.4.11c-.04-.21-.21-.36-.45-.56l-.35.12c-.36-.13.08-.63-.06-.95.14-.02.13.08.07.16.68-.64-.83-.69-.35-1.23-.16-.05-.13-.13-.06-.22,0,0,.01.01.03.02,0-.01,0-.02,0-.04.05-.06.11-.12.15-.18-.08.06-.14.12-.16.16-.03-.07-.1-.16-.22-.24l.37-.15s0-.01-.02-.02c.11-.14-.21-.03-.48.11-.08-.04-.17-.06-.27-.07.59-.26-.29-.22.34-.52-.34.02-.4-.46-1.09-.33.09-.03.12-.07.14-.02.05-.14.09-.28-.13-.33l.47-.18-.73-.08c.25-.24.41-.35.83-.3-.68-.22-.3-.25-.96-.41l.32-.07c-.04-.11-.52-.18-.27-.32.53-.42-.26-1.3.13-2.11-.9.37.34-.42-.39-.26.21-.1.31-.22.53-.16-.3-.28.22-.6-.45-.67.21-.1.34-.01.46-.08-.05-.01-.22-.06-.1-.13.12-.07.2,0,.31.03-.13-.34-.82-.2-1.46-.06.26-.25.19-.33-.26-.35.19-.11.39-.27.52-.08,0-.13.12-.82-.4-.7.12-.07,0-.18-.07-.2-.04-.28,0-.32-.11-.57l-.06.1c-.64.05-.19-.19-.32-.38h.06c.32-.62-.27-.17.12-.79l-.38.12c-.84.16.38-.56,0-.76l-.19.16c-.32-.08,1.02-.72,1.08-.9.06-.05.13.02.19.06.38-.53-.52.07-.71-.2.26-.12.71-.1.71-.32.19-.16-1.03-.37-.58-.78-.19.11-.39.23-.58.13-.13-.2.64-.79-.07-.81.05-.04.1-.07.15-.08-.21-.12-.42-.47-.8-.47,1.29-.49-.91-.86.31-1.17l-.2-.49.13-.02c0-.35-.33-.39-.65-.42.06-.1.19-.07.26-.08.12-.54.05-.57-.66-.81l.38-.15c-.26-.05.44-.85-.15-1.2.05,0,.13-.02.19,0-.6-.4.74-1.56-.75-1.35l-.45-.24c.02.48-.64.11-.83.36-.13-.15.3-.57.44-.38l-.06.05c.77-.13.11-.63.62-.76-.28-.87-.14-1.84-.36-2.68l-.55.27-.05-.3c.11-.12.42-.24.46-.03.29-.21-.38-.26-.51-.22.11-.47.72-.06.7-.18l-.09-.15-.06.06c-.28-.06-.53,0-.58-.25.07-.19.33-.19.33-.26.04-.01.05-.04-.01-.1l-.07-.38-.41.29c-.28-.09-.09-.34-.55-.01.71-.5-.16-1.43.03-1.66-.4-.11-.47-.33-.52-.62-.07.1-.56.32-.58.06,1.08-.28.3-.58.98-1.04-.43.35-.37-.62-.98-.1.01-.22.39-.15.58-.39-.57-.31-.11-1.12-.47-1.64-.14.04-.31.22-.56.18l.55-.57c-.11-.09-.82.21-.44-.18-.1.07-.26.19-.33.13.2-1.39-1.45-2.02-.77-3.67-.19.27-.26.18-.32.07-.03.1-.33.15-.5.25l.28-.69c-.53.15-.26-.48-.76-.3l.15.11c-.64.08-1.11.86-1.84,1.17.73-.09-.69.99.38.92-.11.14-.26.04-.41.16.35-.05.46.02.41.28h-.09c.33.53.13.9.18,1.61l.34-.2c0,.16-.09.23-.16.33.61-.08-.12-.39.54-.51-.66.49.38.96-.41,1.42.08.21.4-.23.48-.02l-.2.15.31-.07c0,.16-.25.34-.44.42,0-.04-.09-.07-.12-.1-.2.28.29.46.23.55l.06-.25c.44.48.39,1.3,1.06,1.68l.16-.11c.48.31-.06.41.26.82h-.05c.21.03.34.12.37.26-.24-.05-.32.36-.6.29.5.35.35.13,1.1.22l-.27.17c.3.02.44-.02.59.19-.31-.11-.39.3-.79.2-.47.71.89.52.03,1.06.88-.04.3-.58.52-.51.23-.19.67-.01.64.17.04.17-.94.61-.79,1,0-.04-.07-.02-.08-.06-.16.21.37.21.09.5.52-.05.05.25.68.08l-.26-.32c.23.16,1.02.13.77.58-.13.01-.33-.04-.45-.08-.15.16.18.16.02.32-.64.16-.27-.41-.82-.48-.23.19.58.28-.13.38.91-.11.01.43.75.5l-.38.1c.07.02.28.06.29.14h-.53c.48.1-.23.54.06.68-.15-.44.42-.24.64-.5.67.4-.88.61-.52,1.16-.08-.07.13-.38.35-.3-.04.14-.14.34-.32.47.19.38.37-.18.65-.07-.42.27.24.15.44.28l-.38.11c-.11.54.83-.11.66.4l-.58-.03.2.18-.45.08c.39.14.33.24.27.51.26-.13.71-.17.78.04-.19.2-.39.02-.25.3-.26,0-.58.01-.26-.21-.13.02-.26,0-.39.02-.22.22.05.4.08.5,0-.04,0-.1.06-.14l.65.28c-.13.11-.26.09-.38.06.07.07.26.09.32.2-.32.05-.64.15-.84.01l.46.31c-.13.06-.32.31-.45.29-.12.27.75.39.59.75.06,0,.13.01.19.07,0,.3-.31.65.21.87l-.51.34c.2.23.64-.44.97-.06.26.26-.45.24-.58.39.32.08.97.2.58.6-.13-.07-.07-.16-.13-.24ZM422.83,73.14c-.1-.04-.38-.1-.16-.21.46-.04.26.07.16.21ZM425.02,77.85c-.14-.01-.1-.1.03-.22.05.05.05.12-.03.22ZM431.67,90.6h-.02c.1-.18.06-.12.02,0ZM431.61,90.93c.06,0,.11-.01.16-.04-.1.02-.13-.04-.13-.12-.09.06-.15.12-.03.17ZM422.72,59.95l-.08.09c-.15-.09-.04-.09.08-.09Z"/>
        <path class="cls-13" d="M424.34,77.42c.06-.03.13-.06.2-.08-.07,0-.15.01-.2.08Z"/>
        <path class="cls-13" d="M421.02,68.02h0s-.05,0-.07,0h.07Z"/>
        <path class="cls-13" d="M426.93,87.6c.04-.08.1-.13.16-.18-.09.03-.16.08-.16.18Z"/>
        <path class="cls-13" d="M432.79,92.15l-.16-.14c.05.08-.02.14-.06.21.09-.04.2-.12.23-.07Z"/>
        <path class="cls-13" d="M431.08,94.6c.06.01.02.05.08.06l.17-.07c-.05-.11-.22-.14-.25,0Z"/>
        <path class="cls-13" d="M431.62,92.79c-.31.14-.16.21-.05.31,0,0,0-.01,0-.02.45-.13.26-.21.06-.29Z"/>
        <path class="cls-13" d="M431.59,93.13s.05.07.05.11c.18-.05.02-.06-.05-.11Z"/>
        <path class="cls-13" d="M431.95,91.21c-.06.09.42-.11.3-.03.43-.08-.63-.21-.3.03Z"/>
        <polygon class="cls-13" points="430.63 93.29 431 93.1 430.66 93.15 430.63 93.29"/>
        <path class="cls-13" d="M430.54,92.19l-.03.24c.06-.03.11-.02.15,0-.03-.13,0-.29-.12-.25Z"/>
        <path class="cls-13" d="M430.66,92.44c.02.07.05.13.12.14-.02-.03-.06-.1-.12-.14Z"/>
        <polygon class="cls-13" points="430.41 93.06 430.47 92.97 430.44 92.82 430.41 93.06"/>
        <path class="cls-13" d="M429.83,89.99l-.19-.18c-.14.02-.2.11-.12.18.11.02.19.09.31,0Z"/>
        <path class="cls-13" d="M428.99,91.04c.06-.09.15-.12.26-.2l-.49.16.22.04Z"/>
        <path class="cls-13" d="M428.65,90.42c-.14.02-.5-.19-.37.08.14-.02.33.16.37-.08Z"/>
        <polygon class="cls-13" points="428.16 86.83 428.19 86.89 428.99 86.63 428.16 86.83"/>
        <path class="cls-13" d="M425.34,84.38c-.12.33.52-.08.35.24.21,0,.14-.26.32-.24-.25-.11-.16-.22-.67,0Z"/>
        <path class="cls-13" d="M426.01,84.38s.09.03.15.05c-.06-.03-.11-.04-.15-.05Z"/>
        <polygon class="cls-13" points="419.03 49.37 419.11 49.12 418.91 49.36 419.03 49.37"/>
        <path class="cls-13" d="M418.32,49.32l.46-.27-.48.11s.11.08.02.16Z"/>
        <path class="cls-13" d="M421.91,73.89l.13-.02c.13-.06.13-.1.13-.19l-.26.21Z"/>
        <polygon class="cls-13" points="421.7 71.44 421.7 71.48 422.15 71.29 421.7 71.44"/>
        <path class="cls-13" d="M420.59,69.63c0,.09.13.15.13.24-.13-.15.45-.41-.13-.24Z"/>
      </g>
    </g>
    <circle class="cls-6" cx="346.76" cy="252.12" r="46.78"/>
  </g>
  <g>
    <circle class="cls-10" cx="90.04" cy="74.28" r="46.78"/>
    <g class="cls-16">
      <path class="cls-11" d="M134.96,61.39c-5.48,3.62-11,7.13-16.21,11.15-3.1,2.39-7.06,4.68-9.52,7.75-2.28,2.84-4.04,6.31-6,9.38-7.68,12.01-5.65,26.92-5.04,40.39.29,6.36,10.21,6.39,9.92,0-.31-6.81-.99-13.7-.94-20.51-.02,2.79.42-1.31.61-2.14l1.52-6.53c.21-.88,1.73-5.48.54-3.15.61-1.19,1.47-2.3,2.19-3.42l3.54-5.54c.52-.82,1.14-1.63,1.59-2.48,1.28-2.47-.47,1.65-1.07.73-.08-.12,7.58-5.84,8.39-6.47,4.96-3.83,10.27-7.14,15.49-10.6,5.3-3.5.34-12.1-5.01-8.57h0Z"/>
      <path class="cls-11" d="M135.87,39.76c-4.38,1.62-8.82,3.79-13.34,4.95s-10.03.63-14.61,2.17c-2.11.71-3.95,2.71-5.62,4.13-2.41,2.04-4.93,3.99-7.24,6.14-3.48,3.23-6.6,6.97-9.78,10.5-6.65,7.38-12.37,14.87-17.93,23.09-2.64,3.9-5.34,7.77-7.86,11.75s-3.12,9.54-4.24,14.27c-1.32,5.54-1.45,11.5-1.59,17.18-.06,2.61.22-.95,0,.66-.21,1.48-.44,2.96-.65,4.44-.44,2.99-.88,5.98-1.32,8.97-.92,6.25,8.64,8.94,9.57,2.64,1.46-9.95,2.3-19.63,3.11-29.64-.01.13-.4,1.6.14-.26.37-1.3.63-2.64.94-3.95.68-2.88,1.22-5.85,2.06-8.69-.07.23-.78,1.14.23-.12.88-1.09,1.59-2.38,2.37-3.55,1.62-2.42,3.23-4.84,4.85-7.25,2.62-3.9,5.26-7.78,7.91-11.66,1-1.47-1.05,1.2.1-.14.77-.9,1.55-1.79,2.33-2.68,2.02-2.32,4.01-4.66,6.05-6.96,3.1-3.5,6.22-7.05,9.51-10.38s7.44-6.03,10.85-9.37c1.87-1.83-1.73-.03-.53.35,1.03.33,3.28-.49,4.3-.64,3.08-.46,6.36-.67,9.39-1.4,4.63-1.11,9.18-3.34,13.65-4.99,5.93-2.2,3.37-11.79-2.64-9.57h0Z"/>
      <path class="cls-11" d="M116.14,20.08c-13.7,10.04-28.24,18.52-43.49,26.02-7.23,3.56-12.79,9.64-18.81,14.95-3.25,2.87-6.79,5.31-8.84,9.17-1.27,2.39-2.54,4.78-3.81,7.16-.39.73-1.37,1.91-1.46,2.74-.13,1.32,2.44-1.62.66-.55-2.53,1.51-4.84,3.65-7.19,5.43-2.19,1.65-4.56,3-5.71,5.55-1.92,4.27-3.11,9.04-4.64,13.47-2.08,6.05,7.5,8.65,9.57,2.64,1.55-4.49,3.09-8.98,4.64-13.47l-2.28,2.96c3.3-2.49,6.61-4.98,9.91-7.48,2.97-2.25,4.19-4.62,5.93-7.89,1.09-2.04,2.27-4.06,3.28-6.15.14-.3,1.15-1.86.35-.86s.76-.55,1.09-.82c3.06-2.55,6-5.28,8.98-7.93,3.16-2.8,6.47-5.5,9.5-8.44.92-.89.72-.41-.14.04.56-.3,1.14-.58,1.71-.84,2.53-1.15,5.01-2.46,7.5-3.69,5.75-2.83,11.26-6.15,16.82-9.34,7.57-4.35,14.41-8.95,21.45-14.11,5.1-3.73.15-12.35-5.01-8.57h0Z"/>
      <path class="cls-11" d="M164.32,112.77c-2.55-3.56-5.1-7.12-7.65-10.68-2.15-3-4.63-4.98-7.49-7.34-1.87-1.54-3.7-3.28-5.68-4.67-.18-.13-1.73-1.37-.73-.43.94.89-.61-.85-.85-1.17-2.64-3.6-5.29-7.18-7.91-10.79-2.42-3.33-4.8-6.7-7.2-10.04-.52-.72-1.01-1.51-1.58-2.2-.78-.96.66,1.67-.03.16-.98-2.16-1.75-4.45-2.61-6.66-1.4-3.58-2.45-7.45-4.94-10.41-1.57-1.85-3.19-3.67-4.78-5.5l-2.25-2.58c-.49-.57-2.6-2.36-.81-.6,1.34,1.32.38.19.02-1.2l-1.16-4.45-1.16-4.45c-.11-.41-.66-2.98-.5-1.65.17,1.41.09-1.35.09-1.69l.03-4.53c.02-2.29.03-4.59.05-6.88.05-6.39-9.87-6.39-9.92,0-.03,4.38-.32,8.83-.1,13.2.21,4.12,1.85,8.32,2.88,12.29,1.11,4.26,3.23,6.6,6.1,9.9,1.5,1.73,2.94,3.79,4.64,5.34,1.58,1.44-.52-1.22-.52-1.16,0,.76.78,1.99,1.06,2.71,1.63,4.15,2.88,8.84,5.04,12.76s5.28,7.36,7.83,10.91c4.01,5.6,7.71,12.37,13.05,16.75l7.08,5.81c.86.71,1.7,1.51,2.62,2.15,1.32.92-.84-1.24.13-.03,3.11,3.83,5.8,8.1,8.67,12.11,3.68,5.15,12.29.2,8.57-5.01h0Z"/>
      <path class="cls-11" d="M140.39,107.41c-7.17-6.14-14.04-12.7-21.28-18.73-.66-.55-1.77-2.19-.61-.3-.35-.57-.62-1.21-.92-1.8l-4.31-8.47c-2.16-4.25-4.7-6.23-8.48-9.14-2.1-1.61-4.29-3.89-6.64-5.11-1.68-.87,1.11,2.47.88.73-.15-1.07-1.42-2.55-1.93-3.47-2.15-3.87-3.91-8.21-7.12-11.29-1.99-1.92-4.1-3.73-6.14-5.59-.88-.8-1.74-1.66-2.66-2.42-1.12-.93-1.5-1.37-.69-.41-3.03-3.58-6.36-7.81-8.71-11.87s-4.19-9.37-5.96-13.93c.96,2.47-.08-.42-.27-.95l-1.63-4.59-2.69-7.58-8.29,4.83c1.25,1.6,2.5,3.2,3.74,4.8,3.92,5.03,10.9-2.04,7.02-7.02-1.25-1.6-2.5-3.2-3.74-4.8-3.05-3.91-9.89.33-8.29,4.83,3.29,9.26,6.78,18.28,10.64,27.33,3.33,7.81,10.05,14.73,16.26,20.39,1.81,1.65,3.72,3.23,5.45,4.96-.05-.05-.74-1.39.04.26.62,1.32,1.43,2.57,2.14,3.85,2.33,4.2,4.03,8.27,7.86,11.22,2.41,1.86,4.82,3.71,7.23,5.57.86.66,1.83,1.65,2.8,2.16,1.62.85-1.58-2.87-.69-.31,1.45,4.13,4.11,9.29,6.59,12.92,2.89,4.24,8.05,7.71,11.88,11.1s7.69,6.58,11.53,9.87c4.83,4.13,11.88-2.85,7.02-7.02h0Z"/>
      <path class="cls-11" d="M130.04,118.91c-4.2-2.17-8.41-4.33-12.61-6.5-.5-.26,1.34,1.22-.05-.02-.83-.74-1.7-1.44-2.54-2.16-2.24-1.91-4.49-3.8-6.72-5.72-6.37-5.5-12.13-11.06-17.56-17.46-2.66-3.14-5.16-5.43-8.38-8.02-1.95-1.58-3.86-3.34-5.92-4.78-1.32-.92.73,1.19-.05.13s-1.41-2.13-2.11-3.19c-2.29-3.45-4.47-6.99-6.99-10.28l-5.33-6.95c-.59-.77-1.16-1.58-1.79-2.33-.58-.69.41,1.77-.18-.37-1.31-4.75-2.45-11.23-5.43-15.24-2.91-3.91-6.69-7.38-9.97-10.99-4.3-4.74-11.3,2.29-7.02,7.02,1.35,1.48,2.69,2.97,4.04,4.45,1.59,1.75,3.49,4.84,5.52,6.09,1.18.72-.61-2.38-.6-1.02,0,.88.64,2.04.91,2.87.93,2.96,1.82,5.93,2.8,8.87,1.36,4.1,4.32,7.17,6.93,10.57,2.47,3.22,4.7,6.49,6.95,9.88,2.5,3.78,4.45,6.79,7.97,9.63,3.21,2.59,6.76,4.96,9.47,8.09,6.02,6.95,11.85,13.13,18.78,19.22,3.58,3.14,7.16,6.5,10.97,9.35,4.13,3.08,9.34,5.07,13.92,7.43,5.67,2.92,10.69-5.64,5.01-8.57h0Z"/>
      <path class="cls-11" d="M99.78,127.29c-3.94-5-7.55-10.16-12.28-14.41-5.59-5.03-11.26-9.61-17.25-14.16-.6-.45-4.3-2.95-2.02-1.34,1.59,1.12.62.68.23-.19-.48-1.06-1.25-2.09-1.84-3.09-1.84-3.09-3.46-6.69-5.81-9.43s-5.58-5.34-8.3-7.94c-.56-.54-1.1-1.11-1.69-1.62-1.18-1.01.36.69.08.19-.97-1.73-1.88-3.49-2.82-5.24-3.59-6.66-7.28-13.26-10.99-19.86-3.13-5.57-11.7-.57-8.57,5.01s6.32,11.18,9.37,16.84c1.68,3.12,3.11,6.86,5.41,9.59,2.51,2.98,5.79,5.54,8.6,8.23.51.49,1.03.98,1.54,1.47.93.9-.72-1.13-.21-.34,1.08,1.68,2.05,3.43,3.07,5.14,1.82,3.06,3.38,6.65,6.11,8.98,2.96,2.52,6.24,4.74,9.34,7.09.87.66,2.93,2.46,1.43,1.1,1.36,1.24,2.74,2.46,4.11,3.69,5.96,5.35,10.54,11,15.5,17.31,3.94,5.01,10.92-2.05,7.02-7.02h0Z"/>
      <g>
        <path class="cls-13" d="M129.39,241.7c.19.07.21-.28.25-.33-.39,0-.26.42-.25.33Z"/>
        <path class="cls-13" d="M126.91,243.15l-.07-.13c-.01.16,0,.32.02.47,0-.11.01-.23.04-.34Z"/>
        <path class="cls-13" d="M125.95,244.77c.6.02.12-.65.49-.86l.14.02c-.11-.12-.21-.25-.31-.39-.2.43-.1,1.01-.32,1.22Z"/>
        <path class="cls-13" d="M124.54,245.77c.24-.09.19.29.08-.32-.03.03-.04.04-.06.05,0,.06,0,.13-.02.27Z"/>
        <path class="cls-13" d="M124.56,245.5c0-.27-.2.17,0,0h0Z"/>
        <path class="cls-13" d="M124.82,246.79c-.09-.11-.18-.22-.27-.34-.12.1-.08.47-.2.36.22.4.33.26.48-.02Z"/>
        <path class="cls-13" d="M125.33,247l-.14-.15s-.05.11.14.15Z"/>
        <path class="cls-13" d="M124.92,246.51c.08.12.17.23.27.35.08-.08.26-.13-.11-.16.18-.01,0-.04-.16-.18Z"/>
        <path class="cls-13" d="M124.98,246.27c.1-.22.18-.44.4-.14-.11-.58-.54-.53-.4.14Z"/>
        <path class="cls-13" d="M126.52,245l.21-.1-.15-.19c.07.09-.24.26-.06.3Z"/>
        <path class="cls-13" d="M125.46,248.77c.11-.06.21-.28.33-.39l-.24-.09c-.01.14.05.36-.09.48Z"/>
        <path class="cls-13" d="M125.79,248.38c.12.04.24.07.36.11-.14-.22-.25-.2-.36-.11Z"/>
        <path class="cls-13" d="M125.97,246.84c-.2-.12-.41-.26-.58-.42.18.2.41.38.62.52l-.04-.09Z"/>
        <path class="cls-13" d="M126.27,249.67c-.11.04-.22.06-.33.09.18-.03.35-.07.52-.12l-.2.03Z"/>
        <path class="cls-13" d="M126.86,250.09c-.24.12-.12.42-.31.47.18.08.44.01.65-.07-.18,0-.3-.12-.35-.39Z"/>
        <path class="cls-13" d="M127.54,250.38c-.09,0-.21.06-.34.1.09,0,.2-.03.34-.1Z"/>
        <path class="cls-13" d="M126.42,248.89c-.04.07-.15.24-.09.41l.17-.33s-.05-.05-.07-.08Z"/>
        <path class="cls-13" d="M126.5,248.96h0c.08.1.13.16.16.19-.02-.02-.06-.08-.15-.19Z"/>
        <path class="cls-13" d="M126.4,248.87l.02.02s.02-.04-.02-.02Z"/>
        <path class="cls-13" d="M126,247.65c.26.06.61.18.69-.23-.26.04-.31.29-.69.23Z"/>
        <path class="cls-13" d="M126.64,248.47c-.04-.09-.09-.17-.12-.27-.07.06-.14.19-.27.19.13.04.26.06.39.08Z"/>
        <polygon class="cls-13" points="126.81 248.5 126.64 248.47 126.69 248.57 126.81 248.5"/>
        <path class="cls-13" d="M127.35,249.86c.18-.06.29,0,.41.05-.08-.14-.18-.25-.3-.34-.08.08-.25.2-.11.29Z"/>
        <path class="cls-13" d="M126.95,249.43h.03s0-.05-.03,0Z"/>
        <path class="cls-13" d="M128.82,250.53s0-.04.01-.07l-.03.05h.02Z"/>
        <path class="cls-13" d="M127.48,249.5c-.05-.12-.15-.09-.27-.05.09.03.17.06.25.11.04-.04.06-.06.02-.07Z"/>
        <path class="cls-13" d="M127.94,250.44c0-.09-.03-.18-.05-.26-.01.12,0,.33.05.26Z"/>
        <path class="cls-13" d="M126.96,249.53h-.02c-.02.08,0,.05.02,0Z"/>
        <path class="cls-13" d="M126.96,249.53c.08,0,.17-.04.26-.07-.07-.02-.15-.03-.23-.03,0,.03-.02.07-.03.1Z"/>
        <path class="cls-13" d="M130.17,248.69c-.16.28-.51.44-.52.04-.29.12-.7,1.12-.83,1.74.07-.12.14-.24.41-.31.02-.19-.21-.59.09-.76.32-.02.14.21.18.42.09-.41.58-.37.8-.93l-.3.08c.04-.08.18-.18.17-.28Z"/>
        <path class="cls-13" d="M128.48,250.23h-.1c.06.09.06.24.06.53.21-.07.29-.16.36-.25l-.37-.26.05-.03Z"/>
        <path class="cls-13" d="M128.01,250c.26-.26.52-.28.6-.68-.24-.12-.31.15-.54.2.43.17-.22.1-.05.44-.11,0-.19-.02-.26-.06.05.09.09.17.12.27v-.02s0,0,0,0h0c0-.05.02-.08.02-.05h.01s.06-.07.09-.1c.08.13-.03.09-.09.1l-.03.04h0c.17.04.33.05.49.07-.06-.09-.16-.14-.37-.22Z"/>
        <path class="cls-13" d="M127.46,247.19s-.04.04-.06.06c.05,0,.08-.02.06-.06Z"/>
        <path class="cls-13" d="M127.4,247.45c-.06,0-.19.07-.22-.03.03-.14.14-.1.23-.17-.11.01-.33-.03-.36.24h.06c0,.21-.16.7-.22.7.2-.26.34-.44.51-.73Z"/>
        <path class="cls-13" d="M127.65,248.68c.14.03.27.07.4.09l.04-.36-.11.15c-.12-.19-.22.02-.34.11Z"/>
        <polygon class="cls-13" points="128.77 250.71 128.55 251.02 128.98 250.64 128.77 250.71"/>
        <polygon class="cls-13" points="129.18 250.87 129.01 251.16 129.21 251.04 129.18 250.87"/>
        <path class="cls-13" d="M151.14,260.23l.13-.02c-.05,0-.09,0-.13.02Z"/>
        <path class="cls-13" d="M150.59,259.83l-.11.12c.08-.05.12-.1.11-.12Z"/>
        <path class="cls-13" d="M137.88,256c-.05.33-.19.81,0,.49l.16-.32c-.11,0-.15-.07-.16-.17Z"/>
        <path class="cls-13" d="M144.89,258.16l.03-.11c-.1.08-.19.16-.27.23.08-.04.16-.08.24-.12Z"/>
        <path class="cls-13" d="M145.82,257l.02.29c.01-.09,0-.19-.02-.29Z"/>
        <path class="cls-13" d="M154.43,262.03l.3-.24c-.14-.09-.18.1-.3.24Z"/>
        <path class="cls-13" d="M132.91,252.81c.03.18.08.28.14.33-.02-.25.04-.57-.14-.33Z"/>
        <path class="cls-13" d="M148.75,263.2c.09-.02.15-.07.19-.13-.08.02-.15.05-.19.13Z"/>
        <path class="cls-13" d="M133.35,253.31s0-.07-.01-.1c-.1,0-.2,0-.28-.07.01.18.07.33.29.17Z"/>
        <path class="cls-13" d="M165.67,269.21s0,.03,0,.05c.02-.04.01-.05,0-.05Z"/>
        <path class="cls-13" d="M167.66,274.18s-.11-.02-.16-.04c.02.03.06.05.16.04Z"/>
        <path class="cls-13" d="M130.55,251.8c-.09-.02-.03.03,0,0h0Z"/>
        <path class="cls-13" d="M130.86,250.35s.07-.06.11-.14c-.05.07-.08.11-.11.14Z"/>
        <path class="cls-13" d="M135.25,251.84h0c.01-.07.01-.05,0,0Z"/>
        <path class="cls-13" d="M130.52,251.6c0,.05.02.1.05.15,0-.03-.02-.08-.05-.15Z"/>
        <path class="cls-13" d="M130.45,251.75s-.04-.05-.05-.07c-.04.05-.05.08.05.07Z"/>
        <path class="cls-13" d="M130.67,251.84s-.08-.06-.11-.1c0,.03,0,.05-.01.06.02,0,.06.02.12.04Z"/>
        <path class="cls-13" d="M158.98,266.49s0,.02,0,.04c.15-.08.11-.08,0-.04Z"/>
        <polygon class="cls-13" points="141.86 254.17 141.85 254.18 141.85 254.2 141.86 254.17"/>
        <path class="cls-13" d="M142.28,254.13c-.36.29-.4.2-.43.07l-.49.92.92-.99Z"/>
        <path class="cls-13" d="M152.55,261.08v-.39c.52-.28.58-.02.66-.51-.66.91-.78-.4-1.44.51v-.28s.09-.02.11.02c.07-.6-.64.55-.85.21-.06-.14-.04-.33.11-.39l-.39.07c-.06-.07.07-.21.13-.15l-.41-.18.02-.03c-.15.11-.42.25-.55.31,0-.2.11-.07.17-.2l-.35.08c.09-.3.41-.41.53-.28.46-1.05-.33.12-.35-.7h.27c.24-.59-.04-.51-.02-.98-.07.21-.15,1.12-.52,1.2-.01-.11-.07-.2-.32-.1.23-.33.06-.33-.1-.41l.31-.43c-.24.02-.38.25-.61.38-.14-.16.06-.52.22-.83-.23-.26-.19.67-.57.53-.11-.33-.4-.26-.85-.19-.06-.26.21-.25.24-.41l-.38.25s.06-.13.1-.18c-.21.05-.31.43-.58.41-.38.44.1-.97-.51-.59.03-.16.21-.25.31-.43-.57.13-.45.07-1.05.36l-.03-.44c-.06.44-.54.68-.95.87-.05.2-.1.37-.11.46l-.46.03c.01-.1.15-.22.32-.37-.04.02-.09.05-.13.07,0-.23.23-.45.48-.64-.03.11-.05.23-.08.34.26-.21.53-.46.69-.72-.05.04-.12.05-.18.05.07-.06.13-.11.15-.16.02-.05-.08.02-.2.1l.27-.53-.15.18-.18-.57c-.61.3-1.35.85-1.93.75.35-.28.42-.57.72-.98-.19.53.47.04.64.29-.09-.13.08-.31.16-.36l-.69.13c.25-.34.09-.32.08-.53-.39.74-.61.25-.92.34.15-.24.35-.44.51-.25.13-.67-.84.6-.76.02.05.03.06.08.15-.02-.25.12-.43-.23-.22-.38l.05.03c-.27-.3-1-.68-1.44-.13.05-.08.52-.67.62-.78l-1.91,1.57c.39-.47.99-1.8,1.45-1.89-.03-.12-.07-.27-.36-.21,0,.11-.35.82-.46.81.17-.69.06-.39.13-1.04,0,.16-.61.89-.72.78.1-.1.51-.79.61-.84l-.83.57c.17-.09.45-.65.52-.91-.07.17-.27-.19-.4-.17l.02.27c-.28-.35-1.07.86-1.4.59.15-.13.75-.92.63-1.14-.34.34-1.62,1.68-2.12,1.79l.09-.27-.41.1c.53-.51,1.77-1.5,2.32-1.84-.02-.27.14-.29-.08-.41.07-.26.32-.25.39-.23l-.38-.45c-.28.48-.66.23-.89.64l.82-.15c-.28.48-1.15,1.13-1.43.84.03-.24.6-.79.69-.95-.15.13-.52.11-.48-.03l.3-.16c-.08-.29-.7.43-.65-.16-.06-.08.15-.75-.04-.48-.21.62-1.23,2.29-1.56,2.65,0-.05-.08-.77,0-1.09.13-.5.82-.89.93-1.32-.08.13-.25.24-.32.27-.01-.16.28-.38.07-.43-.33.46-.34-.27-.33.35-.26.03-.12-.21-.34-.32-.13.35-.83.94-1.08.97.08-.12.14-.3.17-.38-.33-.25-.4-.59-.73-.79.04-.14-.04-.37.15-.54-.1.06-.24.2-.35.15.04-.54.27.07.41-.52-.18.27-.5.23-.75.32-.21.46.29.28.55.2-.35.6-.98,1.08-1.49,1.16-.36-.01.11-.46,0-.4-.46-.41-1.04.79-1.23.12.04-.48.43-.78.54-1.08.31-.02.22.44.38.51l-.08-.29c.15-.09.35-.09.37.07.06-.44-.86-.57-1.09-1.11-.15.09-.35.16-.37.35l.16.02c-.05.38-.48.3-.4.54-.29.13-.68.37-.82.06l.19-.47c-.06.13.02.35.16.25-.21.14-.05-.81-.47-.28v.4c-.29.13-.75.49-.89.23-.14.5.08-.02-.05.58.21-.72.53.32.68-.47-.17.68.13.4.06,1.02.07-.15.08-.32.22-.15.03-.04.08-.08.11-.11v.02s0-.02,0-.02c.02-.02.02-.02,0,0,0-.09,0-.18.03-.27.27-.29.55-.12.74-.24.07.13-.14.14-.17.33l.29-.18c-.17.33-.02.69-.37.75l.22.14c.03.25.17.42.36.35.06.13.47-.2.23,0h.46s-.04.09-.04.09c.32.24,1.02-.12,1.07.69.16-.01.34-.04.48.16l-.13.3c.21,0,.28.53.51.29-.29.84.61.6.78.89l.23-.35c.16.13.4.13.71.13l.18-.32c.35-.14.35.53.67.68-.1.11-.15.03-.16-.08-.1.93,1.08-.02,1.07.7.15-.06.19.02.19.13,0,0-.02,0-.03,0,0,0,.02.02.03.03,0,.08,0,.16,0,.24.02-.1.02-.18.01-.23.07.03.19.06.33.04l-.18.36s.02,0,.03,0c0,.18.18-.11.29-.39.08-.02.17-.06.25-.12-.28.58.36-.02.08.61.25-.24.6.09,1.04-.46-.05.08-.04.13-.1.1.06.14.12.27.32.17l-.24.45.6-.42c-.04.35-.08.53-.43.77.66-.28.39,0,1-.32l-.2.26c.11.06.51-.2.42.06-.13.66,1.05.81,1.28,1.68.44-.87.02.54.46-.06-.1.21-.09.37-.29.47.41.01.23.6.78.21-.1.21-.25.23-.3.36.05-.02.2-.1.16.03-.05.13-.15.13-.25.18.31.17.75-.39,1.14-.91-.03.36.07.37.42.09-.07.21-.11.46-.34.39.08.1.45.7.76.27-.04.13.12.13.18.1.21.19.21.24.46.36v-.11c.44-.46.26.01.48.08l-.04.05c.15.67.31-.05.42.66l.21-.34c.53-.67.08.67.5.57l.04-.25c.3-.15-.3,1.21-.23,1.39-.01.08-.11.07-.19.08.06.65.34-.39.67-.31-.11.26-.47.54-.33.7-.04.25,1.02-.4.95.21.07-.21.14-.43.36-.48.23.06.03,1.02.58.57-.01.06-.03.12-.06.16.24-.05.62.08.92-.17-.65,1.22,1.25.06.53,1.09l.47.24-.08.1c.23.26.5.08.77-.11.02.11-.1.18-.14.23.26.49.34.47,1.03.18l-.19.36c.23-.13.23.93.9.81-.03.04-.08.1-.15.12.71-.09.46,1.67,1.45.53l.5-.11c-.32-.35.41-.5.39-.82.2.03.15.63-.08.58v-.08c-.48.61.34.55.04.98.78.47,1.31,1.3,2.02,1.79l.24-.57.24.19c0,.16-.16.46-.33.32-.08.35.46-.05.53-.16.23.43-.51.51-.41.59l.17.05v-.08c.25-.14.4-.35.6-.19.07.19-.12.36-.08.42-.02.04-.01.07.08.07l.3.24.12-.49c.27-.12.29.2.42-.35-.21.84,1.06.97,1.06,1.28.38-.18.57-.06.8.12-.01-.12.22-.61.4-.43-.63.92.16.64-.06,1.43.1-.55.68.23.8-.56.14.18-.19.37-.18.67.64-.14.82.77,1.43.94.08-.12.09-.37.31-.5l-.05.79c.14,0,.49-.7.45-.15.03-.12.07-.31.16-.31.75,1.18,2.42.58,2.98,2.27-.04-.33.08-.3.2-.26-.05-.1.15-.33.22-.51l.24.71c.3-.46.51.19.77-.27l-.18.02c.44-.48.28-1.38.62-2.09-.5.54-.13-1.2-.89-.44,0-.18.17-.2.21-.39-.23.27-.36.29-.5.06l.06-.07c-.59-.17-.68-.58-1.18-1.09l-.13.37c-.11-.11-.08-.24-.1-.36-.41.46.35.21-.07.73.18-.8-.92-.48-.62-1.34-.2-.1-.15.43-.35.33l.06-.24-.2.26c-.11-.11-.03-.42.06-.6.02.04.12,0,.16,0-.04-.34-.52-.15-.54-.26l.12.23c-.65-.08-1.14-.73-1.9-.58l-.05.18c-.56.08-.22-.35-.73-.45l.04-.03c-.18.11-.34.13-.45.04.22-.12,0-.49.27-.61-.61.07-.35.13-.98.55l.09-.3c-.24.18-.32.3-.57.25.31-.12.1-.48.47-.67-.11-.84-1.01.19-.72-.78-.64.61.15.63-.06.72-.04.3-.5.44-.6.29-.14-.1.31-1.07-.05-1.27.03.03.07-.03.1,0-.02-.27-.41.09-.39-.31-.36.38-.2-.16-.57.38l.41.08c-.27.03-.85.57-.97.06.09-.1.28-.19.39-.23.01-.22-.24,0-.23-.23.37-.54.47.13.93-.17.05-.3-.62.17-.15-.37-.62.68-.29-.32-.9.12l.22-.32c-.07.03-.25.14-.31.08l.4-.35c-.43.25-.17-.56-.48-.47.4.23-.17.45-.15.8-.77.14.27-1.04-.37-1.22.1,0,.15.37-.07.45-.06-.13-.11-.35-.06-.56-.4-.16-.16.37-.45.48.14-.48-.28.05-.52.08l.22-.34c-.26-.48-.56.63-.76.13l.46-.36h-.27s.29-.36.29-.36c-.39.15-.41.03-.54-.21-.11.27-.42.59-.61.48,0-.28.28-.27,0-.39.2-.17.43-.39.34-.01.08-.1.19-.17.28-.27.02-.31-.3-.27-.39-.32.03.04.06.08.05.14l-.67.22c.03-.16.14-.23.25-.3-.1-.01-.25.1-.38.06.21-.25.39-.53.63-.56l-.55.06c.06-.13.04-.44.15-.51-.09-.29-.82.2-.94-.18-.05.04-.11.07-.19.08-.2-.22-.19-.7-.72-.52l.17-.59c-.3-.04-.19.75-.69.68-.37-.03.18-.48.18-.67-.3.15-.86.49-.83-.07.14-.03.16.08.25.1ZM149.66,259.38c.1-.03.35-.17.26.05-.32.33-.24.12-.26-.05ZM144.93,257.25c.11-.08.14.02.12.19-.07,0-.12-.06-.12-.19ZM131.55,251.97h.02c.05.19.03.11-.02,0ZM131.37,251.68c-.05.03-.08.08-.09.14.07-.08.13-.05.18,0,.03-.1.03-.18-.09-.15ZM158.38,269.28v-.12c.18-.03.09.04,0,.12Z"/>
        <path class="cls-13" d="M145.71,257.14c-.02.07-.06.13-.1.19.06-.04.1-.1.1-.19Z"/>
        <path class="cls-13" d="M154.37,262.07h0s.03-.03.05-.04l-.05.04Z"/>
        <path class="cls-13" d="M137.1,251.13c.02.08.01.16,0,.24.05-.08.07-.17,0-.24Z"/>
        <path class="cls-13" d="M129.68,251.53h.21c-.09-.03-.08-.12-.09-.2-.04.08-.07.22-.13.2Z"/>
        <path class="cls-13" d="M129.37,248.55s-.05-.03-.1,0l-.09.16c.11.05.26-.04.19-.17Z"/>
        <path class="cls-13" d="M130.15,250.28c.14-.3-.01-.26-.16-.27,0,0,.02,0,.02.01-.25.4-.06.33.14.26Z"/>
        <path class="cls-13" d="M129.96,250s-.08-.02-.11-.05c-.1.16.03.06.11.05Z"/>
        <path class="cls-13" d="M130.94,251.7c-.01-.11-.24.36-.21.22-.27.34.62-.25.21-.22Z"/>
        <polygon class="cls-13" points="130.57 249.25 130.42 249.64 130.65 249.38 130.57 249.25"/>
        <path class="cls-13" d="M131.36,250.03l-.13-.2c-.03.06-.07.09-.12.1.11.08.2.22.25.11Z"/>
        <path class="cls-13" d="M131.11,249.92c-.06-.04-.12-.06-.18-.02.03.01.11.04.18.02Z"/>
        <polygon class="cls-13" points="130.89 249.28 130.91 249.39 131.03 249.49 130.89 249.28"/>
        <path class="cls-13" d="M133.34,251.23l.26.02c.09-.11.08-.22-.02-.21-.1.06-.2.06-.24.2Z"/>
        <path class="cls-13" d="M133.29,249.88c.01.11-.03.19-.07.33l.26-.44-.19.12Z"/>
        <path class="cls-13" d="M133.95,250.13c.09-.11.5-.18.23-.3-.09.11-.36.09-.23.3Z"/>
        <polygon class="cls-13" points="136.67 252.52 136.61 252.5 136.17 253.22 136.67 252.52"/>
        <path class="cls-13" d="M140.41,252.53c-.13-.32-.34.4-.42.05-.16.13.06.29-.09.39.26-.08.27.07.51-.44Z"/>
        <path class="cls-13" d="M139.9,252.97s-.09.03-.14.06c.07-.02.11-.04.14-.06Z"/>
        <polygon class="cls-13" points="168.09 274.87 168.19 275.11 168.19 274.8 168.09 274.87"/>
        <path class="cls-13" d="M168.66,274.44l-.17.51.29-.4s-.14.01-.12-.11Z"/>
        <path class="cls-13" d="M149.87,258.21l-.09.1c-.06.13-.03.16.03.23l.06-.33Z"/>
        <polygon class="cls-13" points="151.63 259.93 151.6 259.9 151.39 260.34 151.63 259.93"/>
        <path class="cls-13" d="M153.65,260.57c-.06-.06-.2-.03-.25-.09.2.03-.07.61.25.09Z"/>
      </g>
    </g>
    <circle class="cls-6" cx="90.04" cy="74.28" r="46.78"/>
  </g>
  <g>
    <circle class="cls-3" cx="280.36" cy="148.6" r="45.55"/>
    <g>
      <path class="cls-9" d="M265.76,109.76c-3,1-6,3-9,3,0-1,1-2,1-2,3-2,7,0,9-3,0,1-1,1-1,2h0Z"/>
      <path class="cls-9" d="M277.76,109.76c-3,1-7,4-8,1-2-4,6-7,9-4,0,1-1,2-1,3h0Z"/>
      <path class="cls-9" d="M289.76,111.76c-2,2-6,4-8,0,0-2,2-5,4-6s4-1,5,2c0,1-1,3-1,4h0Z"/>
      <path class="cls-9" d="M301.76,116.76c-1,1-1,3-5,1-2-1-3-3-2-6,1-2,4-3,6-2,2,2,1,5,1,7h0Z"/>
      <path class="cls-9" d="M312.76,123.76c0,1-1,2-1,2-2,0-4-1-5-3,0-2-1-6,1-7,4-1,3,5,5,8h0Z"/>
      <path class="cls-9" d="M320.76,133.76l1,1c-5,0-4-6-5-10,1,0,2,1,2,1,1,3,1,5,2,8h0Z"/>
      <path class="cls-9" d="M256.76,119.76c-2,1-4,4-8,3-1-1-2-3-1-4,3-3,7-2,10-2,0,1-1,2-1,3h0Z"/>
      <path class="cls-9" d="M270.76,121.76c-2,1-3,2-5,3s-4,1-5-2c0-1,0-3,1-4,2-2,4-3,7-2,2,1,3,2,2,5h0Z"/>
      <path class="cls-9" d="M284.76,125.76c-2,4-7,4-9,1-1-1-1-4,0-5,2-2,4-4,7-3,2,1,4,2,2,7h0Z"/>
      <path class="cls-9" d="M298.76,130.76c0,1-1,3-3,3-3,0-5-2-6-5,0-3,2-6,5-6,2,1,6,2,4,8h0Z"/>
      <path class="cls-9" d="M311.76,137.76c0,1-1,2-1,2-5,1-7-4-6-8,1-2,2-3,5-2,3,2,2,5,2,8h0Z"/>
      <path class="cls-9" d="M323.76,145.76c-1,2-3,2-4,1-1-2-5-6-1-9h2c2,2,3,5,3,8h0Z"/>
      <path class="cls-9" d="M249.76,131.76c-2,2-7,5-9,0-1-3,3-6,7-5,2,1,3,2,2,5h0Z"/>
      <path class="cls-9" d="M264.76,135.76c-2,2-4,4-7,3-1-1-3-2-3-4,0-4,4-6,8-5,3,1,2,4,2,6h0Z"/>
      <path class="cls-9" d="M279.76,140.76c-2,3-6,4-9,1s0-8,4-9c3,0,5,2,6,5,0,1-1,2-1,3h0Z"/>
      <path class="cls-9" d="M294.76,145.76c0,2-1,3-4,3-2,0-4-1-5-3-1-4,0-8,5-8,2,1,6,2,4,8h0Z"/>
      <path class="cls-9" d="M309.76,151.76c-1,3-4,2-6,2-3-1-4-5-3-8,2-3,7-3,9,1v5h0Z"/>
      <path class="cls-9" d="M322.76,156.76c-1,2-2,3-5,2-2-2-5-7,0-9,3-1,6,3,5,7h0Z"/>
      <path class="cls-9" d="M245.76,144.76c-1,1-4,3-6,2-2-2-5-7,0-8,3-1,7,1,6,6h0Z"/>
      <path class="cls-9" d="M259.76,150.76c-2,1-3,5-7,2-2-2-3-4-2-7,1-1,2-3,4-3,4,0,6,4,5,8h0Z"/>
      <path class="cls-9" d="M274.76,156.76c-1,3-5,2-7,2-2-1-3-3-3-5,1-3,5-6,8-5,2,1,4,4,2,8h0Z"/>
      <path class="cls-9" d="M289.76,160.76c-2,2-6,6-9,1v-5c1-2,4-4,7-3,2,1,4,4,2,7h0Z"/>
      <path class="cls-9" d="M305.76,164.76c-2,3-5,4-8,3-3-2-3-7,1-9h5c3,1,2,4,2,6h0Z"/>
      <path class="cls-9" d="M318.76,168.76c-1,1-3,3-6,2-2-1-3-3-2-6,1-2,3-3,7-1,1,1,3,1,1,5h0Z"/>
      <path class="cls-9" d="M243.76,157.76c-1,1,3,4-4,1-3-2-2-6-2-9,4,0,5,5,6,8h0Z"/>
      <path class="cls-9" d="M255.76,165.76c-1,1-1,2-2,2-2,0-4-1-5-3v-5c1-2,3-3,5-2,1,2,4,3,2,8h0Z"/>
      <path class="cls-9" d="M269.76,171.76c0,1-1,2-1,2-4,1-8,0-8-5,1-2,1-5,5-5,2,1,6,2,4,8h0Z"/>
      <path class="cls-9" d="M284.76,175.76c-1,2-3,3-5,3-2-1-5-1-5-5,1-3,5-6,8-5,2,1,4,2,2,7h0Z"/>
      <path class="cls-9" d="M298.76,177.76c-2,2-4,3-7,3-2-1-3-3-2-6,2-3,5-2,8-2,1,0,3,1,1,5h0Z"/>
      <path class="cls-9" d="M312.76,178.76c-2,1-7,5-9,1v-3c3-1,7-4,10-1,0,1-1,2-1,3h0Z"/>
      <path class="cls-9" d="M243.76,170.76v2c-3-3-3-7-4-11,3,1,4,5,4,9h0Z"/>
      <path class="cls-9" d="M253.76,179.76c0,1-1,1-1,2-1,0-1-1-2-1-3-3-3-6-2-9,1-1,4-1,5,3v5h0Z"/>
      <path class="cls-9" d="M265.76,185.76c-1,2-2,3-5,2-2-1-3-4-2-7,1-2,2-3,5-2,2,1,3,4,2,7h0Z"/>
      <path class="cls-9" d="M277.76,188.76c-2,2-6,4-8,0-1-3,3-6,7-5,1,0,3,1,1,5h0Z"/>
      <path class="cls-9" d="M290.76,188.76c-2,1-4,3-7,3-1,0-2-1-2-1,0-2,1-4,3-5,2,0,5-1,7,1,0,0-1,1-1,2h0Z"/>
      <path class="cls-9" d="M302.76,186.76c-3,1-6,1-9,3,0-5,7-3,10-5,0,1-1,1-1,2h0Z"/>
    </g>
  </g>
  <g>
    <circle class="cls-5" cx="167.36" cy="168.83" r="45.55"/>
    <g>
      <path class="cls-11" d="M150.87,130.19c-1.69,1.68-4.85,3.41-7.04,3.84-2.19.43-2.43-.31-.5-1.58,1.93-1.27,5.1-2.96,7.06-3.79,1.96-.83,2.17-.15.48,1.53Z"/>
      <path class="cls-11" d="M163.29,129.01c-1.28,2.15-4.23,3.9-6.58,3.88-2.35-.02-3.01-1.58-1.46-3.45,1.55-1.87,4.51-3.6,6.59-3.87s2.74,1.28,1.45,3.43Z"/>
      <path class="cls-11" d="M175.88,130.64c-.82,2.42-3.43,4.02-5.81,3.57-2.38-.45-3.4-2.66-2.28-4.94,1.12-2.27,3.72-3.89,5.8-3.6,2.08.3,3.11,2.54,2.29,4.96Z"/>
      <path class="cls-11" d="M187.97,135.06c-.31,2.49-2.45,3.76-4.73,2.88-2.28-.88-3.6-3.58-2.95-6.05.65-2.47,2.75-3.82,4.7-2.96,1.95.86,3.3,3.63,2.98,6.12Z"/>
      <path class="cls-11" d="M198.86,142.28c.24,2.35-1.28,3.14-3.34,1.83s-3.61-4.33-3.49-6.79c.12-2.46,1.59-3.37,3.29-1.95,1.7,1.42,3.3,4.56,3.54,6.91Z"/>
      <path class="cls-11" d="M207.57,151.95c.85,2.02.19,2.32-1.44.67-1.64-1.65-3.34-4.81-3.79-7.06s.23-2.56,1.46-.68,2.92,5.05,3.77,7.07Z"/>
      <path class="cls-11" d="M142.37,140.72c-1.35,2.11-4.33,3.71-6.73,3.58-2.4-.12-3.24-1.64-1.78-3.38,1.46-1.75,4.59-3.38,6.87-3.61,2.28-.24,2.98,1.31,1.63,3.42Z"/>
      <path class="cls-11" d="M156.58,141.95c-1.12,2.52-4.11,4.25-6.72,3.86-2.62-.39-3.78-2.56-2.51-4.84,1.27-2.28,4.37-4.03,6.84-3.88,2.46.15,3.51,2.34,2.39,4.86Z"/>
      <path class="cls-11" d="M171.22,144.86c-.84,2.73-3.69,4.42-6.38,3.8-2.69-.62-4.08-3.24-3.05-5.86,1.02-2.62,3.94-4.36,6.44-3.85,2.5.51,3.83,3.18,2.99,5.91Z"/>
      <path class="cls-11" d="M185.61,149.44c-.52,2.73-3.09,4.23-5.73,3.37-2.63-.85-4.19-3.76-3.46-6.51.73-2.75,3.32-4.32,5.74-3.45,2.42.88,3.97,3.86,3.45,6.59Z"/>
      <path class="cls-11" d="M199.05,155.7c-.15,2.53-2.31,3.66-4.77,2.58s-4.12-4.11-3.73-6.79c.4-2.68,2.52-3.92,4.73-2.68,2.22,1.24,3.92,4.37,3.76,6.9Z"/>
      <path class="cls-11" d="M210.62,163.36c.27,2.14-1.25,2.87-3.34,1.63-2.1-1.24-3.79-4.21-3.78-6.62.01-2.41,1.51-3.15,3.33-1.63,1.81,1.51,3.52,4.49,3.79,6.62Z"/>
      <path class="cls-11" d="M136.23,152.91c-.9,2.33-3.55,3.71-5.95,3.08-2.4-.63-3.69-2.77-2.81-4.77.88-2,3.63-3.4,6.05-3.1,2.42.3,3.61,2.46,2.71,4.79Z"/>
      <path class="cls-11" d="M151.13,156.28c-.88,2.7-3.74,4.33-6.42,3.61s-4.18-3.35-3.28-5.83,3.85-4.1,6.51-3.59c2.66.5,4.07,3.11,3.19,5.81Z"/>
      <path class="cls-11" d="M166.72,160.2c-.81,2.86-3.73,4.58-6.52,3.83s-4.4-3.63-3.54-6.41,3.82-4.51,6.56-3.84,4.31,3.56,3.5,6.42Z"/>
      <path class="cls-11" d="M182.3,164.67c-.69,2.82-3.54,4.46-6.32,3.68-2.79-.78-4.43-3.75-3.66-6.62.77-2.87,3.6-4.55,6.31-3.71,2.71.84,4.36,3.84,3.67,6.66Z"/>
      <path class="cls-11" d="M197.19,169.71c-.53,2.57-3.16,3.97-5.82,3.16s-4.28-3.7-3.64-6.46c.64-2.76,3.21-4.22,5.75-3.22s4.23,3.95,3.7,6.52Z"/>
      <path class="cls-11" d="M210.51,175.08c-.31,2.13-2.52,3.23-4.88,2.44-2.36-.79-3.88-3.43-3.42-5.86.46-2.43,2.61-3.52,4.82-2.43,2.21,1.1,3.78,3.72,3.48,5.85Z"/>
      <path class="cls-11" d="M132.51,166c-.46,2.43-2.61,3.52-4.82,2.43-2.21-1.1-3.78-3.72-3.48-5.85.31-2.13,2.52-3.23,4.88-2.44,2.36.79,3.88,3.43,3.42,5.86Z"/>
      <path class="cls-11" d="M146.99,171.25c-.64,2.76-3.21,4.22-5.75,3.22-2.55-1-4.23-3.95-3.7-6.52.53-2.57,3.16-3.97,5.82-3.16,2.66.82,4.28,3.7,3.64,6.46Z"/>
      <path class="cls-11" d="M162.41,175.92c-.77,2.87-3.6,4.55-6.31,3.71-2.71-.84-4.36-3.84-3.67-6.66.69-2.82,3.54-4.46,6.32-3.68s4.43,3.75,3.66,6.62Z"/>
      <path class="cls-11" d="M178.07,180.04c-.86,2.78-3.82,4.51-6.56,3.84-2.75-.67-4.31-3.56-3.5-6.42s3.73-4.58,6.52-3.83c2.8.75,4.4,3.63,3.54,6.41Z"/>
      <path class="cls-11" d="M193.29,183.6c-.9,2.49-3.85,4.1-6.51,3.59-2.66-.5-4.07-3.11-3.19-5.81.88-2.7,3.74-4.33,6.42-3.61,2.68.72,4.18,3.35,3.28,5.83Z"/>
      <path class="cls-11" d="M207.26,186.44c-.88,2-3.63,3.4-6.05,3.1-2.42-.3-3.61-2.46-2.71-4.79.9-2.33,3.55-3.71,5.95-3.08,2.4.63,3.69,2.77,2.81,4.77Z"/>
      <path class="cls-11" d="M131.23,179.29c-.01,2.41-1.51,3.15-3.33,1.63-1.81-1.51-3.52-4.49-3.79-6.62-.27-2.14,1.25-2.87,3.34-1.63,2.1,1.24,3.79,4.21,3.78,6.62Z"/>
      <path class="cls-11" d="M144.17,186.17c-.4,2.68-2.52,3.92-4.73,2.68-2.22-1.24-3.92-4.37-3.76-6.9.15-2.53,2.31-3.66,4.77-2.58,2.46,1.09,4.12,4.11,3.73,6.79Z"/>
      <path class="cls-11" d="M158.3,191.35c-.73,2.75-3.32,4.32-5.74,3.45-2.42-.88-3.97-3.86-3.45-6.59.52-2.73,3.09-4.23,5.73-3.37,2.63.85,4.19,3.76,3.46,6.51Z"/>
      <path class="cls-11" d="M172.93,194.86c-1.02,2.62-3.94,4.36-6.44,3.85-2.5-.51-3.83-3.18-2.99-5.91.84-2.73,3.69-4.42,6.38-3.8,2.69.62,4.08,3.24,3.05,5.86Z"/>
      <path class="cls-11" d="M187.37,196.68c-1.27,2.28-4.37,4.03-6.84,3.88s-3.51-2.34-2.39-4.86c1.12-2.52,4.11-4.25,6.72-3.86,2.62.39,3.78,2.56,2.51,4.84Z"/>
      <path class="cls-11" d="M200.86,196.74c-1.46,1.75-4.59,3.38-6.87,3.61-2.28.24-2.98-1.31-1.63-3.42,1.35-2.11,4.33-3.71,6.73-3.58s3.24,1.64,1.78,3.38Z"/>
      <path class="cls-11" d="M132.38,192.09c.44,2.25-.23,2.56-1.46.68-1.24-1.88-2.92-5.05-3.77-7.07-.85-2.02-.19-2.32,1.44-.67,1.64,1.65,3.34,4.81,3.79,7.06Z"/>
      <path class="cls-11" d="M142.69,200.34c-.12,2.46-1.59,3.37-3.29,1.95-1.7-1.42-3.3-4.56-3.54-6.91-.24-2.35,1.28-3.14,3.34-1.83,2.06,1.31,3.61,4.33,3.49,6.79Z"/>
      <path class="cls-11" d="M154.43,205.76c-.65,2.47-2.75,3.82-4.7,2.96-1.95-.86-3.3-3.63-2.98-6.12.31-2.49,2.45-3.76,4.73-2.88,2.28.88,3.6,3.58,2.95,6.05Z"/>
      <path class="cls-11" d="M166.93,208.38c-1.12,2.27-3.72,3.89-5.8,3.6-2.08-.3-3.11-2.54-2.29-4.96.82-2.42,3.43-4.02,5.81-3.57,2.38.45,3.4,2.66,2.28,4.94Z"/>
      <path class="cls-11" d="M179.48,208.21c-1.55,1.87-4.51,3.6-6.59,3.87s-2.74-1.28-1.45-3.43c1.28-2.15,4.23-3.9,6.58-3.88,2.35.02,3.01,1.58,1.46,3.45Z"/>
      <path class="cls-11" d="M191.4,205.21c-1.93,1.27-5.1,2.96-7.06,3.79-1.96.83-2.17.15-.48-1.53,1.69-1.68,4.85-3.41,7.04-3.84,2.19-.43,2.43.31.5,1.58Z"/>
    </g>
  </g>
  <g>
    <circle class="cls-4" cx="52.32" cy="228.88" r="45.55"/>
    <g>
      <path class="cls-12" d="M20.99,200.82c7.35-1.08,1.17,5.29,2.94-3-11.49,13.47-12.58,11.9.49.72-5.83,2.4.44-3.86-2.96,2.98,11.46-13.56,12.45-12.11-.47-.69Z"/>
      <path class="cls-12" d="M31.47,195.1c10.1,1.97,4.4,8.22,2.7-2.95-9.41,14.49-12.1,11.28,1.26,1.51-8.74-1.28-3.01-7.49-2.71,2.95,9.13-14.68,11.78-11.51-1.25-1.5Z"/>
      <path class="cls-12" d="M43.28,191.79c12.05,4.77,7.05,10.41,2.36-2.68-7.17,14.4-11.17,9.91,1.9,2.13-11.06-4.54-6.1-10.23-2.35,2.69,6.48-14.51,10.53-9.96-1.91-2.14Z"/>
      <path class="cls-12" d="M55.74,191.06c13.31,7.37,9.21,11.91,1.93-2.17-4.73,13.22-9.79,7.8,2.41,2.58-12.71-7.35-8.72-12.04-1.9,2.2,3.61-12.99,8.78-7.42-2.43-2.61Z"/>
      <path class="cls-12" d="M68.17,193.11c13.96,9.76,10.95,12.72,1.39-1.43-2.03,10.93-7.87,4.93,2.79,2.87-13.62-9.72-10.82-12.92-1.35,1.48.59-10.13,6.63-3.89-2.83-2.92Z"/>
      <path class="cls-12" d="M79.89,198.21c13.37,11.35,12.05,12.54.62-.56,1.35,7.7-4.95,1.46,2.98,2.96-13.27-11.45-11.9-12.67-.63.57-2.74-6.16,3.52.1-2.97-2.96Z"/>
      <path class="cls-12" d="M15.06,211.72c10.55,2.26,4.66,8.18,2.82-2.82-9.63,13.86-12.7,10.9,1.41,1.42-9.76-.85-3.55-6.95-2.89,2.86,9.76-14.22,12.52-11.07-1.34-1.46Z"/>
      <path class="cls-12" d="M27.85,208.23c12.89,4.28,7.09,10.5,2.78-2.96-8.58,15.4-12.88,11.12,2,2.04-12.18-3.5-6.12-9.85-2.83,2.99,8.54-15.7,12.58-11.29-1.94-2.07Z"/>
      <path class="cls-12" d="M41.91,206.07c14.38,5.97,8.89,12.02,2.61-2.88-7.29,15.84-12.45,10.66,2.43,2.47-13.83-5.63-8.21-11.84-2.64,2.92,6.97-15.95,12.02-10.61-2.4-2.5Z"/>
      <path class="cls-12" d="M56.53,205.42c15.2,7.41,10.22,12.79,2.35-2.57-5.78,15.13-11.55,9.4,2.73,2.73-14.79-7.37-9.83-12.94-2.35,2.61,5.2-14.91,10.99-8.99-2.74-2.77Z"/>
      <path class="cls-12" d="M71.05,206.45c15.36,8.61,11.09,12.83,2-2.02-4.06,13.27-10.16,7.34,2.91,2.83-15.07-8.71-10.96-13.15-1.96,2.07,3.24-12.57,9.5-6.42-2.94-2.88Z"/>
      <path class="cls-12" d="M84.8,209.4c14.39,9.12,11.35,11.93,1.43-1.33-1.75,10.43-7.88,4.65,2.91,2.74-14.19-9.46-11.19-12.28-1.42,1.33.97-9.08,7.13-3.31-2.91-2.74Z"/>
      <path class="cls-12" d="M12.28,223.56c12.83,4.9,7.57,10.06,2.51-2.45-7.16,12.99-11.75,8.88,2.14,1.96-12.6-3.79-7.12-9.06-2.56,2.48,7.27-13.61,11.63-9.38-2.09-1.99Z"/>
      <path class="cls-12" d="M26.28,222.35c14.72,5.98,9.15,11.88,2.66-2.79-7.18,15.15-12.61,10.04,2.54,2.42-14.5-5.41-8.71-11.32-2.71,2.8,7.27-15.57,12.47-10.44-2.49-2.42Z"/>
      <path class="cls-12" d="M41.52,221.39c15.67,6.66,10.02,12.81,2.68-2.92-6.92,16.22-12.77,10.58,2.76,2.67-15.5-6.44-9.76-12.64-2.7,2.93,6.84-16.36,12.61-10.68-2.74-2.68Z"/>
      <path class="cls-12" d="M57.23,220.84c15.95,7.03,10.43,12.95,2.61-2.81-6.45,16.08-12.46,10.28,2.85,2.76-15.81-7.13-10.34-13.12-2.59,2.83,6.22-15.91,12.28-10.03-2.86-2.77Z"/>
      <path class="cls-12" d="M72.78,220.9c15.56,7.11,10.36,12.31,2.43-2.47-5.78,14.76-11.67,9.13,2.81,2.68-15.45-7.46-10.45-12.76-2.39,2.49,5.39-14.21,11.48-8.47-2.85-2.7Z"/>
      <path class="cls-12" d="M87.47,221.79c14.15,6.57,9.72,10.75,2.07-1.97-4.6,12.37-10.08,7.26,2.61,2.41-14.04-7.28-9.75-11.41-2.04,1.95,4.28-11.38,9.89-6.33-2.64-2.4Z"/>
      <path class="cls-12" d="M12.49,235.52c14.04,7.28,9.75,11.41,2.04-1.95-4.28,11.38-9.89,6.33,2.64,2.4-14.15-6.57-9.72-10.75-2.07,1.97,4.6-12.37,10.08-7.26-2.61-2.41Z"/>
      <path class="cls-12" d="M26.62,236.65c15.45,7.46,10.45,12.76,2.39-2.49-5.39,14.21-11.48,8.47,2.85,2.7-15.56-7.11-10.36-12.31-2.43,2.47,5.78-14.76,11.67-9.13-2.81-2.68Z"/>
      <path class="cls-12" d="M41.96,236.97c15.81,7.13,10.34,13.12,2.59-2.83-6.22,15.91-12.28,10.03,2.86,2.77-15.95-7.03-10.43-12.95-2.61,2.81,6.45-16.08,12.46-10.28-2.85-2.76Z"/>
      <path class="cls-12" d="M57.68,236.62c15.5,6.44,9.76,12.64,2.7-2.93-6.84,16.36-12.61,10.68,2.74,2.68-15.67-6.66-10.02-12.81-2.68,2.92,6.92-16.22,12.77-10.58-2.76-2.67Z"/>
      <path class="cls-12" d="M73.16,235.78c14.5,5.41,8.71,11.32,2.71-2.8-7.27,15.57-12.47,10.44,2.49,2.42-14.72-5.98-9.15-11.88-2.66,2.79,7.18-15.15,12.61-10.04-2.54-2.42Z"/>
      <path class="cls-12" d="M87.72,234.69c12.6,3.79,7.12,9.06,2.56-2.48-7.27,13.61-11.63,9.38,2.09,1.99-12.83-4.91-7.57-10.06-2.51,2.45,7.16-12.99,11.75-8.88-2.14-1.96Z"/>
      <path class="cls-12" d="M15.51,246.95c14.19,9.46,11.19,12.28,1.42-1.33-.97,9.08-7.13,3.31,2.91,2.74-14.39-9.12-11.35-11.93-1.43,1.33,1.75-10.43,7.88-4.65-2.91-2.74Z"/>
      <path class="cls-12" d="M28.69,250.5c15.07,8.72,10.96,13.15,1.96-2.07-3.24,12.57-9.5,6.42,2.94,2.88-15.36-8.61-11.09-12.83-2,2.02,4.06-13.27,10.16-7.34-2.91-2.83Z"/>
      <path class="cls-12" d="M43.03,252.17c14.79,7.37,9.83,12.94,2.35-2.61-5.2,14.91-10.99,8.99,2.74,2.77-15.2-7.41-10.22-12.79-2.35,2.57,5.78-15.13,11.55-9.4-2.73-2.73Z"/>
      <path class="cls-12" d="M57.69,252.09c13.83,5.63,8.21,11.84,2.64-2.92-6.97,15.95-12.02,10.61,2.4,2.5-14.38-5.97-8.89-12.02-2.61,2.88,7.29-15.84,12.45-10.66-2.43-2.47Z"/>
      <path class="cls-12" d="M72.03,250.45c12.18,3.5,6.12,9.85,2.83-2.99-8.54,15.7-12.58,11.29,1.94,2.07-12.89-4.28-7.09-10.5-2.78,2.96,8.58-15.4,12.88-11.12-2-2.04Z"/>
      <path class="cls-12" d="M85.35,247.43c9.76.85,3.55,6.95,2.89-2.86-9.76,14.22-12.52,11.07,1.34,1.46-10.55-2.26-4.66-8.18-2.82,2.82,9.63-13.86,12.7-10.9-1.41-1.42Z"/>
      <path class="cls-12" d="M21.16,257.15c13.27,11.45,11.9,12.67.63-.57,2.74,6.16-3.52-.1,2.97,2.96-13.37-11.35-12.05-12.54-.62.56-1.35-7.7,4.95-1.46-2.98-2.96Z"/>
      <path class="cls-12" d="M32.29,263.2c13.62,9.72,10.82,12.92,1.35-1.48-.59,10.13-6.63,3.89,2.83,2.92-13.96-9.76-10.95-12.72-1.39,1.43,2.03-10.93,7.87-4.93-2.79-2.87Z"/>
      <path class="cls-12" d="M44.57,266.28c12.71,7.35,8.72,12.04,1.9-2.2-3.61,12.99-8.78,7.42,2.43,2.61-13.31-7.37-9.21-11.91-1.93,2.17,4.73-13.22,9.79-7.8-2.41-2.58Z"/>
      <path class="cls-12" d="M57.1,266.52c11.06,4.54,6.1,10.23,2.35-2.69-6.48,14.51-10.53,9.96,1.91,2.14-12.05-4.77-7.05-10.41-2.36,2.68,7.17-14.4,11.17-9.91-1.9-2.13Z"/>
      <path class="cls-12" d="M69.21,264.11c8.74,1.28,3.01,7.49,2.71-2.95-9.13,14.68-11.78,11.51,1.25,1.5-10.1-1.97-4.4-8.22-2.7,2.95,9.41-14.49,12.1-11.28-1.26-1.51Z"/>
      <path class="cls-12" d="M80.22,259.22c5.83-2.4-.44,3.86,2.96-2.98-11.46,13.56-12.45,12.11.47.69-7.35,1.08-1.17-5.29-2.94,3,11.49-13.47,12.58-11.9-.49-.72Z"/>
    </g>
  </g>
  <g>
    <circle class="cls-1" cx="390.53" cy="310.66" r="45.55"/>
    <g>
      <path class="cls-14" d="M364.45,277.92c-2.77,2.7-4.55,4.54-7.24,7.39-.11-1.37-.43-1.82-1.22-1.76,2.88-2.58,4.68-4.39,7.29-7.33-.28,1.01,0,1.43,1.17,1.7Z"/>
      <path class="cls-14" d="M376.12,273.39c-2.67,2.51-4.31,4.31-6.66,7.27-.85-2.01-1.63-2.94-3.11-3.71,2.81-2.42,4.46-4.21,6.68-7.25.5,1.83,1.27,2.74,3.09,3.69Z"/>
      <path class="cls-14" d="M388.71,271.5c-2.43,2.11-3.87,3.74-5.82,6.59-1.47-2.48-2.62-3.77-4.67-5.23,2.63-2.09,4.06-3.73,5.8-6.62,1.21,2.43,2.37,3.74,4.69,5.26Z"/>
      <path class="cls-14" d="M401.57,272.47c-2.08,1.51-3.26,2.82-4.74,5.34-1.98-2.77-3.43-4.33-5.92-6.35,2.34-1.6,3.49-2.96,4.68-5.42,1.81,2.82,3.31,4.43,5.99,6.43Z"/>
      <path class="cls-14" d="M414.03,276.5c-1.62.69-2.49,1.54-3.43,3.52-2.4-2.9-4.08-4.63-6.86-7.06,1.93-.95,2.73-1.87,3.32-3.64,2.31,2.99,4.05,4.79,6.97,7.19Z"/>
      <path class="cls-14" d="M425.02,283.47c-.94-.21-1.32.13-1.53,1.37-2.69-2.8-4.51-4.59-7.33-7.28,1.29-.18,1.68-.53,1.55-1.39,2.59,2.9,4.39,4.71,7.31,7.3Z"/>
      <path class="cls-14" d="M359.6,290.73c-2.85,2.42-4.54,4.13-6.95,6.95-.9-2-1.78-2.85-3.47-3.51,2.94-2.32,4.73-4.08,7.12-7.05.62,1.7,1.41,2.6,3.3,3.6Z"/>
      <path class="cls-14" d="M373.7,287.87c-2.89,2.42-4.57,4.22-6.84,7.3-1.44-2.52-2.68-3.76-4.92-5.03,3.01-2.35,4.76-4.18,6.97-7.36,1.19,2.36,2.36,3.63,4.78,5.09Z"/>
      <path class="cls-14" d="M388.62,286.51c-2.8,2.23-4.38,3.98-6.43,7.1-1.85-2.85-3.34-4.34-5.98-6.08,2.94-2.24,4.55-4.03,6.5-7.18,1.67,2.81,3.13,4.34,5.91,6.17Z"/>
      <path class="cls-14" d="M403.72,286.85c-2.59,1.85-4.03,3.4-5.79,6.32-2.17-2.99-3.83-4.64-6.72-6.73,2.75-1.95,4.18-3.56,5.78-6.42,2.05,3.05,3.72,4.75,6.73,6.83Z"/>
      <path class="cls-14" d="M418.35,289.09c-2.28,1.26-3.51,2.47-4.91,4.98-2.38-2.96-4.14-4.66-7.16-6.98,2.44-1.5,3.62-2.77,4.83-5.09,2.32,3.08,4.12,4.85,7.24,7.09Z"/>
      <path class="cls-14" d="M431.48,293.2c-1.74.57-2.62,1.38-3.51,3.27-2.47-2.71-4.24-4.37-7.15-6.74,1.93-.91,2.8-1.72,3.49-3.27,2.4,2.85,4.18,4.52,7.17,6.74Z"/>
      <path class="cls-14" d="M357.39,304.42c-2.71,2.01-4.22,3.5-6.18,6.04-1.56-2.41-2.88-3.59-5.26-4.83,2.75-1.85,4.33-3.36,6.3-6.1,1.44,2.14,2.7,3.36,5.15,4.89Z"/>
      <path class="cls-14" d="M372.78,303.31c-2.92,2.21-4.52,3.91-6.55,6.88-1.9-2.83-3.47-4.3-6.25-5.96,2.97-2.09,4.64-3.79,6.67-6.88,1.79,2.67,3.29,4.15,6.13,5.97Z"/>
      <path class="cls-14" d="M388.9,302.53c-2.96,2.24-4.59,4.01-6.6,7.19-2.09-3.03-3.78-4.65-6.79-6.58,3.02-2.21,4.67-4,6.65-7.21,2.02,2.98,3.69,4.62,6.74,6.6Z"/>
      <path class="cls-14" d="M405.11,302.31c-2.9,2.08-4.49,3.79-6.41,6.92-2.19-3.04-3.92-4.72-7.01-6.79,2.95-2.15,4.52-3.87,6.39-6.96,2.16,3.1,3.91,4.79,7.04,6.83Z"/>
      <path class="cls-14" d="M420.76,302.85c-2.72,1.73-4.22,3.22-5.99,6.09-2.18-2.87-3.88-4.49-6.92-6.59,2.76-1.9,4.21-3.43,5.89-6.14,2.2,3.01,3.95,4.66,7.03,6.65Z"/>
      <path class="cls-14" d="M434.92,304.16c-2.35,1.26-3.63,2.46-5.1,4.84-2.06-2.48-3.64-3.96-6.43-5.94,2.4-1.51,3.64-2.7,5.03-4.81,2.06,2.69,3.67,4.14,6.5,5.91Z"/>
      <path class="cls-14" d="M357.67,318.26c-2.4,1.51-3.64,2.7-5.03,4.81-2.06-2.69-3.67-4.14-6.5-5.91,2.35-1.26,3.63-2.46,5.1-4.84,2.06,2.48,3.64,3.96,6.43,5.94Z"/>
      <path class="cls-14" d="M373.21,318.98c-2.76,1.9-4.21,3.43-5.89,6.14-2.2-3.01-3.95-4.66-7.03-6.65,2.72-1.73,4.22-3.22,5.99-6.09,2.18,2.87,3.88,4.49,6.92,6.59Z"/>
      <path class="cls-14" d="M389.38,318.88c-2.95,2.15-4.52,3.87-6.39,6.96-2.16-3.1-3.91-4.79-7.04-6.83,2.9-2.08,4.49-3.79,6.41-6.92,2.19,3.04,3.92,4.72,7.01,6.79Z"/>
      <path class="cls-14" d="M405.56,318.18c-3.02,2.21-4.67,4-6.65,7.21-2.02-2.98-3.69-4.62-6.74-6.6,2.96-2.24,4.59-4.01,6.6-7.19,2.09,3.03,3.78,4.65,6.79,6.58Z"/>
      <path class="cls-14" d="M421.09,317.1c-2.97,2.09-4.64,3.79-6.67,6.88-1.79-2.67-3.29-4.15-6.13-5.97,2.92-2.21,4.52-3.91,6.55-6.88,1.9,2.83,3.47,4.3,6.25,5.96Z"/>
      <path class="cls-14" d="M435.12,315.69c-2.75,1.85-4.33,3.36-6.3,6.1-1.44-2.14-2.7-3.36-5.15-4.89,2.71-2.01,4.22-3.5,6.18-6.04,1.56,2.41,2.88,3.59,5.26,4.83Z"/>
      <path class="cls-14" d="M360.24,331.59c-1.93.91-2.8,1.72-3.49,3.27-2.4-2.85-4.18-4.52-7.17-6.74,1.74-.57,2.62-1.38,3.51-3.27,2.47,2.71,4.24,4.37,7.15,6.74Z"/>
      <path class="cls-14" d="M374.79,334.23c-2.44,1.5-3.62,2.77-4.83,5.09-2.32-3.08-4.12-4.85-7.24-7.09,2.28-1.26,3.51-2.47,4.91-4.98,2.38,2.96,4.14,4.66,7.16,6.98Z"/>
      <path class="cls-14" d="M389.86,334.89c-2.75,1.95-4.18,3.56-5.78,6.42-2.05-3.05-3.72-4.75-6.73-6.83,2.59-1.85,4.03-3.4,5.79-6.32,2.17,2.99,3.83,4.64,6.72,6.73Z"/>
      <path class="cls-14" d="M404.86,333.8c-2.94,2.24-4.55,4.03-6.5,7.18-1.67-2.81-3.13-4.34-5.91-6.17,2.8-2.23,4.38-3.98,6.43-7.1,1.85,2.85,3.34,4.34,5.98,6.08Z"/>
      <path class="cls-14" d="M419.12,331.18c-3.01,2.35-4.76,4.18-6.97,7.36-1.19-2.36-2.36-3.63-4.78-5.09,2.89-2.42,4.57-4.22,6.84-7.3,1.44,2.52,2.68,3.76,4.92,5.03Z"/>
      <path class="cls-14" d="M431.88,327.14c-2.94,2.32-4.73,4.08-7.12,7.05-.62-1.7-1.41-2.6-3.3-3.6,2.85-2.42,4.54-4.13,6.95-6.95.9,2,1.78,2.85,3.47,3.51Z"/>
      <path class="cls-14" d="M364.9,343.76c-1.29.18-1.68.53-1.55,1.39-2.59-2.9-4.39-4.71-7.31-7.3.94.21,1.32-.13,1.53-1.37,2.69,2.8,4.51,4.59,7.33,7.28Z"/>
      <path class="cls-14" d="M377.32,348.38c-1.93.95-2.73,1.87-3.32,3.64-2.31-2.99-4.05-4.79-6.97-7.19,1.62-.69,2.49-1.54,3.43-3.52,2.4,2.9,4.08,4.63,6.86,7.06Z"/>
      <path class="cls-14" d="M390.16,349.86c-2.34,1.6-3.49,2.96-4.68,5.42-1.81-2.82-3.31-4.43-5.99-6.43,2.08-1.51,3.26-2.82,4.74-5.34,1.98,2.77,3.43,4.33,5.92,6.35Z"/>
      <path class="cls-14" d="M402.84,348.46c-2.63,2.09-4.06,3.73-5.8,6.62-1.21-2.43-2.37-3.74-4.69-5.26,2.43-2.11,3.87-3.74,5.82-6.59,1.47,2.48,2.62,3.77,4.67,5.23Z"/>
      <path class="cls-14" d="M414.71,344.37c-2.81,2.42-4.46,4.21-6.68,7.25-.5-1.83-1.27-2.74-3.09-3.69,2.67-2.51,4.31-4.31,6.66-7.27.85,2.01,1.63,2.94,3.11,3.71Z"/>
      <path class="cls-14" d="M425.07,337.77c-2.88,2.58-4.68,4.39-7.29,7.33.28-1.01,0-1.43-1.17-1.7,2.77-2.7,4.55-4.54,7.24-7.39.11,1.37.43,1.82,1.22,1.76Z"/>
    </g>
  </g>
  <g>
    <circle class="cls-4" cx="400.94" cy="124.57" r="45.55"/>
    <g>
      <path class="cls-7" d="M363.12,129.39l3.72-8.13,2.07-8.7,5.34-7.17,3.82-8.08,6.72-5.89,5.48-7.06,6.46-3.46c-7.25.71-14.25,3.21-20.32,7.29l-1.64,1.54-2.08,1.28c-2.95,2.48-5.61,5.39-7.87,8.69l-.57,1.02-.6.77c-.5.81-.98,1.62-1.43,2.47-1.55,2.92-2.73,5.93-3.57,8.99l-.23,1.79-.66,2.13c-.7,3.9-.85,7.84-.49,11.7l.26,1.41-.03.61c.67,4.76,2.11,9.38,4.27,13.68l1.21-5.95.14-8.94Z"/>
      <path class="cls-7" d="M377.71,140.01l5.44-8.31,2.88-9.5,6-7.91,3.53-9.28,6.54-7.48,4.16-9.01,6.24-6.26c-3.49-.96-7.03-1.46-10.56-1.54l-6.94,4.41-5.06,7.86-6.86,6.34-3.65,8.61-5.72,7.39-2.19,9.09-4.42,8.23-.62,9.33-2.17,6.72c1.98,3.01,4.35,5.81,7.08,8.29l4.11-7.3,2.22-9.68Z"/>
      <path class="cls-7" d="M394.58,149.32l6.5-7.73,3.4-9.51,6.17-7.99,3-9.64,5.83-8.25,2.58-9.77,4.67-7.32c-1.63-1.19-3.36-2.28-5.2-3.26-1.45-.77-2.92-1.44-4.41-2.04l-6.08,6.61-3.79,9.36-6.49,7.74-3.38,9.52-6.15,8.01-2.98,9.65-5.82,8.26-2.59,9.76-4.7,7.31c1.63,1.18,3.36,2.28,5.19,3.25,1.45.77,2.92,1.44,4.41,2.03l6.05-6.64,3.78-9.37Z"/>
      <path class="cls-7" d="M411.93,156.14l6.86-6.34,3.65-8.61,5.72-7.39,2.19-9.09,4.42-8.23.62-9.33,2.17-6.72c-1.98-3.01-4.35-5.81-7.08-8.29l-4.11,7.3-2.22,9.68-5.44,8.31-2.88,9.5-6,7.91-3.53,9.28-6.54,7.48-4.16,9.01-6.24,6.26c3.49.96,7.03,1.46,10.56,1.54l6.94-4.41,5.06-7.86Z"/>
      <path class="cls-7" d="M444.61,120.55l-.26-1.41.03-.61c-.67-4.76-2.11-9.38-4.27-13.68l-1.21,5.95-.14,8.94-3.72,8.13-2.07,8.7-5.34,7.17-3.82,8.08-6.72,5.89-5.48,7.06-6.46,3.46c7.25-.71,14.25-3.21,20.32-7.29l1.64-1.54,2.08-1.28c2.95-2.48,5.61-5.39,7.87-8.69l.57-1.02.6-.77c.5-.81.98-1.62,1.43-2.47,1.55-2.92,2.73-5.93,3.57-8.99l.23-1.79.66-2.13c.7-3.9.85-7.84.49-11.7Z"/>
    </g>
  </g>
  <g>
    <circle class="cls-1" cx="224.99" cy="55.61" r="45.55"/>
    <g>
      <path class="cls-14" d="M213.55,69.25c.05.72-.42,1.29-1.06,1.27-.64-.02-1.2-.62-1.26-1.33-.06-.72.42-1.29,1.06-1.27s1.2.61,1.26,1.33Z"/>
      <path class="cls-14" d="M204.32,66.12c.06.69-.39,1.23-1.02,1.19-.63-.04-1.19-.62-1.26-1.31-.07-.68.39-1.22,1.03-1.19.63.03,1.19.61,1.25,1.3Z"/>
      <path class="cls-14" d="M212.32,77.99c.08.7-.35,1.22-.95,1.16s-1.17-.66-1.25-1.34c-.09-.69.34-1.21.95-1.16.61.05,1.17.65,1.25,1.34Z"/>
      <path class="cls-14" d="M204.59,76.82c.11.66-.27,1.13-.87,1.03-.59-.09-1.17-.7-1.29-1.35-.12-.65.27-1.11.87-1.03.6.08,1.18.68,1.29,1.35Z"/>
      <path class="cls-14" d="M204.59,91.41c.11.66-.27,1.13-.87,1.03-.59-.09-1.17-.7-1.29-1.35-.12-.65.27-1.11.87-1.03.6.08,1.18.68,1.29,1.35Z"/>
      <path class="cls-14" d="M207.94,72.73c.06.51-.4.88-1.01.83-.62-.05-1.17-.5-1.23-1s.39-.87,1.01-.82c.62.05,1.18.49,1.23,1Z"/>
      <path class="cls-14" d="M209.14,82.6c.08.48-.32.8-.89.71-.57-.1-1.11-.56-1.21-1.04-.09-.48.31-.79.89-.7.58.09,1.12.55,1.21,1.03Z"/>
      <path class="cls-14" d="M206.34,85.88c.08.48-.32.8-.89.71-.57-.1-1.11-.56-1.21-1.04-.09-.48.31-.79.89-.7.58.09,1.12.55,1.21,1.03Z"/>
      <path class="cls-14" d="M209.49,65.82c-.31.36-.95.24-1.44-.28-.49-.51-.64-1.22-.33-1.58.31-.36.95-.24,1.44.27.49.51.64,1.23.33,1.59Z"/>
      <path class="cls-14" d="M216.95,77.32c-.43-.21-.65-.9-.47-1.56.18-.66.69-1.03,1.13-.83.44.2.64.91.46,1.57-.19.66-.68,1.03-1.12.82Z"/>
      <path class="cls-14" d="M201.5,71.91c-.44-.23-.69-.88-.55-1.48.14-.59.62-.91,1.06-.69.44.22.68.89.54,1.49-.14.6-.61.9-1.05.67Z"/>
      <path class="cls-14" d="M198.87,78.45c-.44-.23-.69-.88-.55-1.48.14-.59.62-.91,1.06-.69.44.22.68.89.54,1.49-.14.6-.61.9-1.05.67Z"/>
      <path class="cls-14" d="M193.18,74.43c-.44-.23-.69-.88-.55-1.48.14-.59.62-.91,1.06-.69.44.22.68.89.54,1.49-.14.6-.61.9-1.05.67Z"/>
      <path class="cls-14" d="M198.23,86.8c-.44-.23-.69-.88-.55-1.48.14-.59.62-.91,1.06-.69.44.22.68.89.54,1.49-.14.6-.61.9-1.05.67Z"/>
      <path class="cls-14" d="M214.74,84.97c-.34.21-.9-.12-1.26-.74-.37-.62-.39-1.28-.05-1.5.34-.21.92.11,1.28.73s.37,1.29.04,1.51Z"/>
      <path class="cls-14" d="M227.88,59.08c.02.75-.5,1.38-1.16,1.4-.66.02-1.21-.57-1.24-1.32-.02-.75.5-1.38,1.16-1.4.66-.02,1.22.57,1.24,1.32Z"/>
      <path class="cls-14" d="M218.45,56.36c.02.75-.49,1.37-1.15,1.38-.66.02-1.21-.57-1.24-1.32-.02-.74.5-1.36,1.15-1.38.66-.02,1.21.57,1.23,1.32Z"/>
      <path class="cls-14" d="M226.01,68.43c.02.74-.49,1.36-1.14,1.37-.65.02-1.19-.57-1.21-1.31s.48-1.36,1.14-1.37c.65-.02,1.2.57,1.21,1.31Z"/>
      <path class="cls-14" d="M217.75,68.17c.04.73-.45,1.33-1.09,1.32s-1.2-.6-1.25-1.33.45-1.32,1.1-1.32c.65,0,1.21.6,1.25,1.33Z"/>
      <path class="cls-14" d="M221.79,63.21c.02.55-.5,1-1.15,1.01-.66.01-1.21-.42-1.23-.96-.02-.54.49-.99,1.15-1.01s1.21.42,1.23.96Z"/>
      <path class="cls-14" d="M222.01,73.97c.02.53-.47.97-1.1.97-.63,0-1.16-.43-1.19-.96-.03-.53.46-.96,1.1-.96.64,0,1.17.43,1.19.96Z"/>
      <path class="cls-14" d="M223.84,55.71c-.33.4-.99.3-1.48-.22-.48-.52-.61-1.26-.28-1.66.33-.4.99-.3,1.47.21.48.52.61,1.26.28,1.66Z"/>
      <path class="cls-14" d="M230.96,67.27c-.44-.18-.61-.89-.38-1.6s.78-1.12,1.23-.94c.45.18.62.89.38,1.59-.23.7-.78,1.12-1.22.94Z"/>
      <path class="cls-14" d="M214.96,63.05c-.45-.2-.65-.91-.44-1.6.21-.69.75-1.09,1.21-.9.45.19.65.91.44,1.6-.21.69-.75,1.09-1.2.89Z"/>
      <path class="cls-14" d="M227.87,75.71c-.39.28-.97,0-1.3-.62-.33-.62-.27-1.35.12-1.64.4-.28.99,0,1.31.62.32.62.26,1.35-.14,1.63Z"/>
      <path class="cls-14" d="M235.4,71.21c-.41.29-.98.04-1.29-.58-.31-.61-.24-1.35.17-1.64.41-.29.99-.03,1.3.58.31.61.22,1.34-.18,1.64Z"/>
      <path class="cls-14" d="M233.85,76.85c-.02.72-.54,1.34-1.15,1.39s-1.09-.5-1.08-1.23c.01-.72.53-1.34,1.15-1.38.62-.04,1.11.51,1.08,1.23Z"/>
      <path class="cls-14" d="M238.59,75.49c-.4-.15-.52-.83-.26-1.52.26-.69.81-1.12,1.22-.97.41.15.52.83.26,1.51-.27.68-.81,1.12-1.21.97Z"/>
      <path class="cls-14" d="M235.1,83.76c-.39.3-.89.07-1.15-.51-.25-.58-.15-1.29.23-1.58.39-.29.92-.06,1.17.51s.13,1.28-.26,1.57Z"/>
      <path class="cls-14" d="M211.66,91.29c.13.62-.17,1.02-.69.89-.52-.13-1.06-.73-1.21-1.34s.16-1.01.7-.89c.53.12,1.07.71,1.21,1.33Z"/>
      <path class="cls-14" d="M215.6,91.18c-.39-.22-.62-.87-.51-1.45.12-.58.54-.87.94-.65.4.22.61.88.49,1.46-.12.58-.53.86-.92.64Z"/>
      <path class="cls-14" d="M218.27,97.37c-.36-.21-.58-.82-.48-1.36.1-.54.49-.82.86-.61s.57.83.46,1.37c-.11.55-.48.81-.84.6Z"/>
      <path class="cls-14" d="M214.41,97.59c-.25.13-.74-.22-1.12-.79s-.47-1.14-.21-1.27.77.21,1.14.78c.36.57.44,1.14.19,1.27Z"/>
      <path class="cls-14" d="M230.42,83.32c-.02.7-.51,1.31-1.09,1.34-.58.03-1.05-.51-1.04-1.22s.49-1.3,1.09-1.34c.6-.03,1.07.51,1.05,1.22Z"/>
      <path class="cls-14" d="M221.94,80.73c.03.71-.43,1.28-1.03,1.27-.6-.01-1.12-.6-1.17-1.3-.04-.71.42-1.27,1.03-1.27.61,0,1.14.59,1.17,1.3Z"/>
      <path class="cls-14" d="M228.32,91.99c-.02.66-.46,1.21-.99,1.24-.53.02-.96-.5-.96-1.16s.45-1.22.99-1.24.97.5.95,1.16Z"/>
      <path class="cls-14" d="M221.45,91.66c.04.66-.35,1.16-.89,1.13-.53-.04-1.02-.6-1.08-1.25-.06-.65.34-1.16.89-1.13.55.03,1.03.59,1.07,1.25Z"/>
      <path class="cls-14" d="M224.91,87.24c0,.51-.45.92-1.01.92-.57,0-1.04-.41-1.06-.92-.02-.5.44-.91,1.01-.91.58,0,1.05.41,1.06.91Z"/>
      <path class="cls-14" d="M224.93,96.84c.01.46-.38.82-.87.81-.49-.01-.92-.39-.94-.85-.03-.45.37-.81.87-.8.51,0,.93.38.94.84Z"/>
      <path class="cls-14" d="M226.89,80.19c-.31.38-.91.29-1.35-.21-.44-.5-.55-1.21-.24-1.59s.93-.28,1.37.21c.44.5.54,1.2.23,1.58Z"/>
      <path class="cls-14" d="M232.48,90.77c-.35-.14-.44-.77-.19-1.42.25-.65.75-1.06,1.11-.92.36.14.43.78.17,1.43s-.75,1.06-1.1.92Z"/>
      <path class="cls-14" d="M218.95,86.86c-.4-.21-.6-.88-.44-1.51.16-.63.64-.98,1.05-.78.41.2.6.89.42,1.52s-.63.97-1.03.77Z"/>
      <path class="cls-14" d="M229.44,98.22c-.32.25-.74.04-.97-.47s-.15-1.14.17-1.39c.33-.25.78-.03.99.48.22.51.12,1.13-.2,1.38Z"/>
      <path class="cls-14" d="M196.83,32.54c-.18.62-.75,1.24-1.28,1.39s-.81-.2-.61-.81c.19-.6.78-1.23,1.29-1.4.52-.17.78.19.6.81Z"/>
      <path class="cls-14" d="M190.68,32.83c-.27.55-.87,1.18-1.34,1.39-.47.21-.62-.05-.34-.58.29-.53.89-1.15,1.34-1.38.45-.23.6.02.33.58Z"/>
      <path class="cls-14" d="M193.19,40.68c-.12.62-.67,1.21-1.23,1.32s-.91-.29-.78-.9c.13-.61.69-1.2,1.24-1.32.55-.12.89.28.77.9Z"/>
      <path class="cls-14" d="M186.41,41.97c-.16.56-.7,1.12-1.22,1.26-.51.13-.8-.19-.63-.74.17-.54.72-1.11,1.23-1.26s.78.18.62.74Z"/>
      <path class="cls-14" d="M190.93,37.2c-.13.43-.66.9-1.18,1.05s-.82-.05-.68-.46.67-.89,1.18-1.06c.51-.17.81.04.68.47Z"/>
      <path class="cls-14" d="M188.74,45.88c-.07.44-.57.86-1.13.95-.55.09-.94-.19-.87-.61.07-.42.58-.85,1.13-.95.55-.1.94.18.87.62Z"/>
      <path class="cls-14" d="M194.77,30.77c-.38.4-.83.5-1,.24s.02-.79.4-1.19c.38-.4.8-.53.97-.27.16.26,0,.81-.37,1.22Z"/>
      <path class="cls-14" d="M197.72,39.01c-.36-.1-.4-.71-.08-1.35.32-.64.87-1.09,1.22-.99s.39.71.08,1.36c-.31.65-.86,1.09-1.22.98Z"/>
      <path class="cls-14" d="M185.79,38.81c-.27-.02-.16-.47.23-1.04.4-.56.93-1.02,1.19-1.01.26,0,.15.48-.24,1.05s-.91,1.01-1.18.99Z"/>
      <path class="cls-14" d="M193.86,46.75c-.4.28-.92.08-1.15-.44-.23-.51-.09-1.15.31-1.43.4-.28.9-.1,1.13.42.23.52.11,1.17-.29,1.45Z"/>
      <path class="cls-14" d="M234.83,15.32c-.4.28-.92.08-1.15-.44-.23-.51-.09-1.15.31-1.43.4-.28.9-.1,1.13.42.23.52.11,1.17-.29,1.45Z"/>
      <path class="cls-14" d="M210.81,20.75c-.13.63-.65,1.25-1.17,1.38-.52.13-.82-.28-.67-.91.15-.62.67-1.24,1.17-1.37s.8.27.67.9Z"/>
      <path class="cls-14" d="M197.9,23.32c-.21.57-.77,1.2-1.24,1.39s-.66-.11-.43-.67c.23-.56.79-1.18,1.24-1.39.45-.21.64.09.42.66Z"/>
      <path class="cls-14" d="M207.56,29.32c-.11.67-.65,1.31-1.22,1.41-.57.11-.93-.34-.81-1.01s.68-1.31,1.23-1.43c.55-.12.9.35.8,1.02Z"/>
      <path class="cls-14" d="M216.54,19.17c-.07.65-.56,1.24-1.09,1.32-.53.08-.88-.37-.79-1.01.09-.64.58-1.23,1.09-1.32.51-.09.86.36.79,1.01Z"/>
      <path class="cls-14" d="M200.63,30.57c-.16.64-.73,1.27-1.27,1.41-.54.14-.84-.25-.67-.87.18-.62.76-1.27,1.29-1.43.53-.16.81.25.65.89Z"/>
      <path class="cls-14" d="M205.18,25.36c-.12.47-.64.96-1.16,1.11-.52.15-.84-.1-.71-.56.13-.46.65-.96,1.16-1.11s.83.1.71.56Z"/>
      <path class="cls-14" d="M204.24,20.56c-.12.47-.64.96-1.16,1.11-.52.15-.84-.1-.71-.56.13-.46.65-.96,1.16-1.11s.83.1.71.56Z"/>
      <path class="cls-14" d="M213.41,14.96c-.09.43-.55.89-1.02,1.02-.47.13-.76-.1-.66-.53.11-.43.57-.89,1.02-1.03.46-.14.75.1.66.54Z"/>
      <path class="cls-14" d="M203.06,35c-.07.49-.6.97-1.18,1.08-.58.1-.98-.2-.9-.68.08-.48.61-.97,1.19-1.08.57-.11.97.2.9.69Z"/>
      <path class="cls-14" d="M208.57,18.72c-.33.39-.78.45-.99.16s-.08-.84.26-1.22c.33-.39.75-.47.96-.18s.11.86-.22,1.25Z"/>
      <path class="cls-14" d="M220.43,14.93c-.33.39-.78.45-.99.16s-.08-.84.26-1.22c.33-.39.75-.47.96-.18s.11.86-.22,1.25Z"/>
      <path class="cls-14" d="M212.01,27.68c-.36-.13-.41-.78-.12-1.45.29-.67.81-1.11,1.16-.99s.42.77.13,1.45c-.28.67-.81,1.12-1.17.99Z"/>
      <path class="cls-14" d="M199.95,26.84c-.28-.04-.19-.57.2-1.19.39-.62.92-1.09,1.19-1.06s.19.56-.19,1.19-.92,1.1-1.2,1.06Z"/>
      <path class="cls-14" d="M208.3,35.91c-.4.3-.93.09-1.17-.46s-.09-1.25.31-1.56c.4-.31.91-.11,1.15.45.24.56.11,1.27-.29,1.58Z"/>
      <path class="cls-14" d="M215.73,31.16c-.39.3-.93.06-1.18-.51s-.13-1.28.25-1.58c.39-.3.9-.07,1.16.51s.16,1.29-.24,1.59Z"/>
      <path class="cls-14" d="M214.1,36.74c-.03.72-.56,1.35-1.18,1.4-.62.06-1.1-.48-1.06-1.19s.57-1.34,1.18-1.4c.61-.06,1.08.47,1.05,1.19Z"/>
      <path class="cls-14" d="M218.87,35.44c-.42-.17-.56-.86-.32-1.55s.77-1.1,1.18-.93c.41.17.56.86.32,1.55-.24.69-.77,1.1-1.19.94Z"/>
      <path class="cls-14" d="M215.65,43.87c-.41.29-1,.03-1.31-.58s-.23-1.35.18-1.64c.41-.29.98-.04,1.3.58.31.62.24,1.35-.17,1.65Z"/>
      <path class="cls-14" d="M188.98,53.81c-.01.61-.49,1.12-1.06,1.13-.58.02-1.03-.45-1.02-1.05.02-.59.5-1.1,1.07-1.14.57-.03,1.02.44,1.01,1.05Z"/>
      <path class="cls-14" d="M193.55,52.79c-.41-.16-.54-.77-.3-1.38s.78-1,1.18-.85c.4.15.53.78.29,1.4-.24.62-.77.99-1.18.83Z"/>
      <path class="cls-14" d="M190.73,59.96c-.36.21-.92-.06-1.24-.6s-.29-1.14.07-1.36c.36-.22.91.04,1.24.58.32.55.3,1.17-.06,1.38Z"/>
      <path class="cls-14" d="M188.53,71.81c-.36.21-.92-.06-1.24-.6s-.29-1.14.07-1.36c.36-.22.91.04,1.24.58.32.55.3,1.17-.06,1.38Z"/>
      <path class="cls-14" d="M185.1,61.01c-.36.21-.92-.06-1.24-.6s-.29-1.14.07-1.36c.36-.22.91.04,1.24.58.32.55.3,1.17-.06,1.38Z"/>
      <path class="cls-14" d="M198.01,69.95c-.36.21-.92-.06-1.24-.6s-.29-1.14.07-1.36c.36-.22.91.04,1.24.58.32.55.3,1.17-.06,1.38Z"/>
      <path class="cls-14" d="M184.22,51.88c-.36.21-.92-.06-1.24-.6s-.29-1.14.07-1.36c.36-.22.91.04,1.24.58.32.55.3,1.17-.06,1.38Z"/>
      <path class="cls-14" d="M210.5,43.33c-.02.72-.55,1.35-1.19,1.4-.63.05-1.13-.49-1.1-1.21.03-.72.56-1.34,1.19-1.4.63-.06,1.12.49,1.1,1.21Z"/>
      <path class="cls-14" d="M234.63,59.71c.01.74-.51,1.37-1.16,1.39-.66.03-1.2-.56-1.22-1.3s.5-1.37,1.16-1.39c.66-.02,1.2.56,1.22,1.3Z"/>
      <path class="cls-14" d="M201.93,41.41c-.07.68-.6,1.3-1.21,1.37-.61.07-1.04-.41-.97-1.08.07-.67.62-1.29,1.22-1.37.6-.09,1.02.4.96,1.08Z"/>
      <path class="cls-14" d="M208.34,52.45c0,.72-.51,1.33-1.15,1.35-.64.02-1.17-.54-1.18-1.25s.52-1.32,1.16-1.35,1.17.53,1.17,1.25Z"/>
      <path class="cls-14" d="M197.06,57.01c.02.67-.46,1.21-1.08,1.2-.62,0-1.15-.55-1.17-1.2-.02-.65.47-1.19,1.1-1.2s1.13.53,1.15,1.19Z"/>
      <path class="cls-14" d="M200.25,52.43c0,.69-.51,1.26-1.14,1.29-.62.02-1.13-.51-1.12-1.18,0-.68.52-1.25,1.14-1.29.62-.04,1.12.49,1.11,1.18Z"/>
      <path class="cls-14" d="M204.44,47.56c-.02.51-.54.97-1.17,1.01-.63.04-1.12-.33-1.1-.84.02-.51.54-.96,1.17-1.01.63-.05,1.12.32,1.1.84Z"/>
      <path class="cls-14" d="M204.28,57.86c.02.52-.48.94-1.12.94-.64,0-1.17-.41-1.19-.92-.02-.51.48-.93,1.12-.94.64,0,1.17.4,1.19.92Z"/>
      <path class="cls-14" d="M199.4,63.05c.04.49-.43.87-1.05.83s-1.16-.45-1.2-.94c-.04-.48.43-.85,1.05-.83.62.02,1.16.44,1.2.93Z"/>
      <path class="cls-14" d="M193.21,67.4c.05.47-.4.81-1.01.75-.61-.06-1.14-.47-1.19-.94-.05-.46.4-.8,1.01-.75.61.04,1.15.46,1.2.93Z"/>
      <path class="cls-14" d="M194.32,78.64c.05.47-.4.81-1.01.75-.61-.06-1.14-.47-1.19-.94-.05-.46.4-.8,1.01-.75.61.04,1.15.46,1.2.93Z"/>
      <path class="cls-14" d="M187.55,65.85c.05.47-.4.81-1.01.75-.61-.06-1.14-.47-1.19-.94-.05-.46.4-.8,1.01-.75.61.04,1.15.46,1.2.93Z"/>
      <path class="cls-14" d="M206.95,40.36c-.34.4-.95.36-1.34-.09s-.43-1.12-.08-1.52.93-.37,1.33.07c.39.44.44,1.13.1,1.53Z"/>
      <path class="cls-14" d="M213.31,51.28c-.45-.18-.62-.89-.38-1.58.24-.69.79-1.12,1.23-.94s.61.89.38,1.59-.78,1.12-1.23.94Z"/>
      <path class="cls-14" d="M218.55,48.49c-.45-.18-.62-.9-.39-1.6s.78-1.12,1.23-.94c.44.18.62.9.39,1.6-.23.7-.78,1.12-1.23.94Z"/>
      <path class="cls-14" d="M198,47.85c-.4-.14-.52-.78-.25-1.42.27-.64.81-1.06,1.21-.92.4.14.51.78.24,1.43-.26.65-.8,1.06-1.21.91Z"/>
      <path class="cls-14" d="M210.3,59.63c-.4.27-1.01-.02-1.36-.64-.35-.62-.31-1.34.1-1.62.4-.27,1.01,0,1.36.63.35.63.31,1.35-.09,1.62Z"/>
      <path class="cls-14" d="M232.15,35.49c.4.59.34,1.4-.15,1.82-.49.41-1.21.27-1.61-.32s-.32-1.41.17-1.82c.49-.41,1.2-.26,1.6.33Z"/>
      <path class="cls-14" d="M223.56,39.16c.38.59.28,1.42-.24,1.87-.52.45-1.25.33-1.63-.25-.38-.59-.26-1.42.25-1.87.51-.45,1.23-.34,1.61.25Z"/>
      <path class="cls-14" d="M235.63,44.22c.41.6.34,1.42-.17,1.85s-1.25.29-1.66-.31-.33-1.43.18-1.86c.5-.42,1.24-.28,1.65.32Z"/>
      <path class="cls-14" d="M228.9,49.42c.4.6.31,1.45-.22,1.9-.52.45-1.28.33-1.68-.27-.4-.6-.3-1.45.22-1.9.52-.45,1.27-.32,1.67.28Z"/>
      <path class="cls-14" d="M229.59,42.59c.29.44.12,1.14-.39,1.58-.51.44-1.17.44-1.46,0s-.11-1.15.4-1.58c.51-.44,1.16-.44,1.45,0Z"/>
      <path class="cls-14" d="M235.34,51.43c.3.44.11,1.14-.41,1.58-.52.44-1.18.45-1.48.01-.29-.44-.11-1.15.41-1.59s1.18-.44,1.47,0Z"/>
      <path class="cls-14" d="M227.42,35.22c-.06.52-.61.86-1.23.75-.62-.11-1.07-.62-1.01-1.15s.61-.86,1.23-.75c.62.11,1.07.63,1.01,1.15Z"/>
      <path class="cls-14" d="M238.85,40.32c-.44.11-.96-.37-1.17-1.07-.21-.7-.03-1.35.41-1.45s.96.38,1.17,1.08.03,1.34-.4,1.45Z"/>
      <path class="cls-14" d="M224.09,46.98c-.46.14-.98-.32-1.15-1.04-.17-.72.06-1.42.52-1.56s.97.32,1.15,1.04c.17.72-.06,1.42-.52,1.56Z"/>
      <path class="cls-14" d="M241.09,49.01c-.17.48-.8.62-1.41.32-.61-.3-.96-.94-.79-1.42.17-.48.8-.62,1.4-.32s.96.94.79,1.42Z"/>
      <path class="cls-14" d="M236.5,19.65c.4.57.43,1.26.05,1.56-.38.3-1.02.09-1.41-.48-.39-.57-.39-1.28-.02-1.58.37-.3.98-.08,1.38.49Z"/>
      <path class="cls-14" d="M229.37,22.07c.36.56.3,1.32-.14,1.7-.44.38-1.1.24-1.45-.33-.35-.56-.27-1.33.17-1.71.43-.38,1.06-.23,1.42.33Z"/>
      <path class="cls-14" d="M240.37,27.83c.42.59.44,1.32.02,1.65s-1.11.12-1.52-.47c-.42-.59-.41-1.34,0-1.66.41-.33,1.08-.1,1.5.48Z"/>
      <path class="cls-14" d="M227.81,13.8c.42.59.44,1.32.02,1.65s-1.11.12-1.52-.47c-.42-.59-.41-1.34,0-1.66.41-.33,1.08-.1,1.5.48Z"/>
      <path class="cls-14" d="M234.65,31.96c.4.59.36,1.38-.1,1.77-.47.39-1.18.23-1.58-.36-.4-.59-.34-1.39.12-1.78.46-.39,1.16-.22,1.56.37Z"/>
      <path class="cls-14" d="M225.16,29.76c.36.57.27,1.38-.22,1.81-.49.43-1.18.31-1.54-.26s-.24-1.38.24-1.81c.49-.43,1.16-.31,1.52.26Z"/>
      <path class="cls-14" d="M234.87,25.69c.29.43.18,1.06-.26,1.42-.43.36-1.03.31-1.31-.12-.28-.43-.16-1.08.27-1.43s1-.3,1.29.13Z"/>
      <path class="cls-14" d="M240.75,34.38c.31.43.2,1.07-.25,1.43-.45.36-1.08.31-1.38-.12-.31-.43-.18-1.09.27-1.45.45-.36,1.06-.3,1.37.14Z"/>
      <path class="cls-14" d="M232.48,18.86c0,.45-.46.69-1,.54-.54-.15-.96-.65-.94-1.11.02-.46.46-.7.99-.54s.95.66.94,1.11Z"/>
      <path class="cls-14" d="M242.77,24.83c-.36.02-.88-.48-1.14-1.11-.27-.64-.19-1.17.16-1.18.35-.02.86.48,1.14,1.12s.21,1.16-.16,1.18Z"/>
      <path class="cls-14" d="M251.55,23.13c-.36.02-.88-.48-1.14-1.11-.27-.64-.19-1.17.16-1.18.35-.02.86.48,1.14,1.12s.21,1.16-.16,1.18Z"/>
      <path class="cls-14" d="M230.12,29.38c-.42.11-.9-.35-1.08-1.04-.18-.68.02-1.33.43-1.44.41-.11.89.35,1.07,1.04.19.68,0,1.33-.42,1.44Z"/>
      <path class="cls-14" d="M219.79,21.96c.29.52.15,1.3-.33,1.74s-1.11.36-1.39-.16c-.28-.52-.11-1.3.36-1.74s1.08-.37,1.36.16Z"/>
      <path class="cls-14" d="M224.89,25.02c.25.41.07,1.08-.4,1.5-.47.42-1.07.43-1.31.02s-.05-1.09.42-1.51,1.04-.43,1.29-.01Z"/>
      <path class="cls-14" d="M223.29,18.25c-.07.47-.55.79-1.08.71-.52-.08-.87-.52-.79-.99.08-.47.56-.79,1.07-.71s.87.53.8,1Z"/>
      <path class="cls-14" d="M219.77,29.29c-.42.15-.87-.27-.98-.94-.11-.67.14-1.34.56-1.5.42-.15.84.27.96.94.12.67-.12,1.35-.54,1.5Z"/>
      <path class="cls-14" d="M245.8,32.85c-.1.41-.66.45-1.25.1s-.98-.97-.87-1.39c.1-.41.65-.45,1.24-.1.58.36.98.98.88,1.38Z"/>
      <path class="cls-14" d="M247.75,26.47c-.04.35-.55.32-1.11-.07s-.97-1-.93-1.35c.05-.36.54-.32,1.1.07.56.4.99,1,.94,1.35Z"/>
      <path class="cls-14" d="M247.16,21.21c-.04.35-.55.32-1.11-.07s-.97-1-.93-1.35c.05-.36.54-.32,1.1.07.56.4.99,1,.94,1.35Z"/>
      <path class="cls-14" d="M242.48,17.95c-.04.35-.55.32-1.11-.07s-.97-1-.93-1.35c.05-.36.54-.32,1.1.07.56.4.99,1,.94,1.35Z"/>
      <path class="cls-14" d="M250.48,31.42c.46.58.54,1.24.16,1.5-.38.25-1.06,0-1.51-.58-.45-.58-.51-1.27-.14-1.52.37-.25,1.03.03,1.49.6Z"/>
      <path class="cls-14" d="M252.51,29.07c-.34-.03-.89-.55-1.21-1.15-.32-.6-.31-1.06.02-1.01.33.05.87.56,1.21,1.16.33.59.33,1.04-.02,1.01Z"/>
      <path class="cls-14" d="M256.09,36.5c-.06.35-.59.34-1.18-.03s-1-.97-.93-1.33c.07-.36.59-.34,1.17.04s1,.96.94,1.31Z"/>
      <path class="cls-14" d="M259.05,31.51c-.06.35-.59.34-1.18-.03s-1-.97-.93-1.33c.07-.36.59-.34,1.17.04s1,.96.94,1.31Z"/>
      <path class="cls-14" d="M241.43,58.49c.38.58.27,1.4-.26,1.84-.52.45-1.26.34-1.64-.24s-.27-1.41.25-1.86c.52-.44,1.26-.33,1.64.25Z"/>
      <path class="cls-14" d="M241.37,66.82c.35.56.2,1.38-.33,1.84s-1.24.38-1.59-.18c-.35-.56-.21-1.39.32-1.85.53-.46,1.25-.37,1.6.19Z"/>
      <path class="cls-14" d="M244.88,54.43c-.45.13-.96-.32-1.14-1.01-.18-.69.04-1.36.49-1.49.45-.13.97.33,1.15,1.02.18.69-.04,1.35-.49,1.48Z"/>
      <path class="cls-14" d="M246.53,62.9c-.2.48-.83.67-1.4.41-.57-.26-.87-.86-.67-1.35.2-.49.83-.66,1.4-.4.57.26.87.86.67,1.34Z"/>
      <path class="cls-14" d="M252.36,37.87c.45.58.47,1.27.05,1.56-.42.3-1.12.09-1.56-.49-.44-.58-.45-1.3-.04-1.59.41-.3,1.1-.06,1.55.52Z"/>
      <path class="cls-14" d="M244.48,40.14c.43.59.4,1.36-.07,1.73s-1.2.2-1.62-.39c-.42-.59-.38-1.38.08-1.75.46-.37,1.18-.18,1.61.41Z"/>
      <path class="cls-14" d="M256.4,45.85c.42.55.39,1.25-.06,1.58-.45.33-1.16.16-1.58-.4-.42-.56-.38-1.28.07-1.61s1.15-.13,1.57.43Z"/>
      <path class="cls-14" d="M250.25,50c.4.56.33,1.33-.16,1.72-.49.39-1.21.26-1.61-.31-.4-.57-.32-1.35.16-1.74s1.21-.23,1.61.33Z"/>
      <path class="cls-14" d="M251.66,56.87c.37.54.25,1.31-.26,1.73-.51.42-1.22.32-1.58-.23-.37-.55-.25-1.34.25-1.75.51-.41,1.22-.3,1.59.25Z"/>
      <path class="cls-14" d="M244.3,74.25c-.39-.13-.48-.79-.2-1.47.28-.68.83-1.11,1.23-.98.4.14.49.79.2,1.46-.29.67-.83,1.11-1.22.98Z"/>
      <path class="cls-14" d="M240.52,82.47c-.39.31-.88.12-1.1-.44s-.09-1.26.31-1.56.91-.1,1.12.45c.22.55.07,1.24-.33,1.55Z"/>
      <path class="cls-14" d="M247.89,77.47c-.4.31-.88.14-1.08-.39s-.05-1.22.36-1.53c.4-.31.91-.13,1.11.4.2.53.03,1.2-.38,1.51Z"/>
      <path class="cls-14" d="M245.68,82.8c-.14.67-.7,1.31-1.24,1.43-.54.13-.88-.32-.75-.99s.67-1.31,1.23-1.43.9.32.76.98Z"/>
      <path class="cls-14" d="M239.72,86.33c-.11.67-.63,1.3-1.18,1.39s-.91-.37-.82-1.05c.09-.68.62-1.31,1.17-1.4.56-.09.92.38.82,1.05Z"/>
      <path class="cls-14" d="M250.03,80.9c-.32-.07-.31-.66.03-1.31s.89-1.1,1.22-1.03c.33.08.31.66-.04,1.3-.35.64-.89,1.11-1.21,1.04Z"/>
      <path class="cls-14" d="M252.09,88.04c-.32-.07-.31-.66.03-1.31s.89-1.1,1.22-1.03c.33.08.31.66-.04,1.3-.35.64-.89,1.11-1.21,1.04Z"/>
      <path class="cls-14" d="M245.47,88.77c-.38.33-.76.23-.86-.23-.1-.46.11-1.1.5-1.43.39-.32.79-.21.89.25.1.46-.15,1.08-.53,1.41Z"/>
      <path class="cls-14" d="M258.79,81.25c-.38.33-.76.23-.86-.23-.1-.46.11-1.1.5-1.43.39-.32.79-.21.89.25.1.46-.15,1.08-.53,1.41Z"/>
      <path class="cls-14" d="M241.58,89.19c-.14.64-.67,1.25-1.18,1.38-.51.13-.82-.29-.7-.93s.65-1.27,1.18-1.38.84.3.7.94Z"/>
      <path class="cls-14" d="M244.03,93.58c-.14.64-.67,1.25-1.18,1.38-.51.13-.82-.29-.7-.93s.65-1.27,1.18-1.38.84.3.7.94Z"/>
      <path class="cls-14" d="M236.47,94.75c-.11.61-.59,1.2-1.07,1.3-.48.1-.8-.31-.71-.93.09-.62.57-1.2,1.07-1.3.5-.1.82.32.71.94Z"/>
      <path class="cls-14" d="M248.39,66.92c-.04.69-.58,1.3-1.2,1.37s-1.08-.45-1.04-1.15c.04-.7.57-1.31,1.19-1.37.62-.06,1.09.46,1.05,1.15Z"/>
      <path class="cls-14" d="M254.81,65.37c.3.5.11,1.24-.42,1.68-.53.44-1.19.41-1.49-.09-.3-.5-.12-1.27.4-1.71.52-.44,1.2-.38,1.5.12Z"/>
      <path class="cls-14" d="M253.81,72.86c.24.46-.01,1.2-.55,1.67s-1.15.48-1.38.02c-.24-.46,0-1.23.53-1.69.53-.47,1.17-.46,1.41,0Z"/>
      <path class="cls-14" d="M258.93,68.86c-.24.44-.82.67-1.29.51-.47-.17-.67-.67-.43-1.12.24-.45.82-.66,1.3-.49.48.17.66.66.42,1.1Z"/>
      <path class="cls-14" d="M258.76,75.17c-.24.44-.82.67-1.29.51-.47-.17-.67-.67-.43-1.12.24-.45.82-.66,1.3-.49.48.17.66.66.42,1.1Z"/>
      <path class="cls-14" d="M264.21,63.12c.26.43.05,1.1-.44,1.51-.5.41-1.1.4-1.36-.04s-.07-1.14.43-1.54,1.11-.36,1.37.07Z"/>
      <path class="cls-14" d="M250.58,43.86c.31.42.19,1.04-.28,1.39s-1.09.31-1.4-.11c-.31-.42-.18-1.06.28-1.41.46-.35,1.08-.29,1.39.13Z"/>
      <path class="cls-14" d="M256.38,52.08c.28.39.12,1-.37,1.37s-1.11.36-1.39-.04-.11-1.02.37-1.39c.48-.37,1.1-.34,1.39.06Z"/>
      <path class="cls-14" d="M247.82,36.97c0,.47-.49.7-1.11.52s-1.11-.71-1.12-1.19c0-.47.49-.71,1.1-.52.61.19,1.11.72,1.12,1.19Z"/>
      <path class="cls-14" d="M259.09,42.88c-.39.04-.91-.42-1.16-1.03-.26-.61-.16-1.13.23-1.16.38-.03.91.44,1.17,1.04.26.6.16,1.11-.23,1.15Z"/>
      <path class="cls-14" d="M263.77,38.94c-.39.04-.91-.42-1.16-1.03-.26-.61-.16-1.13.23-1.16.38-.03.91.44,1.17,1.04.26.6.16,1.11-.23,1.15Z"/>
      <path class="cls-14" d="M245.52,47.51c-.44.11-.97-.36-1.17-1.05-.21-.69-.02-1.33.42-1.44.44-.1.97.37,1.17,1.05s.02,1.32-.43,1.43Z"/>
      <path class="cls-14" d="M261.6,50.29c-.14.39-.7.48-1.26.2s-.9-.85-.76-1.24c.14-.4.7-.47,1.26-.18s.9.84.76,1.23Z"/>
      <path class="cls-14" d="M265.36,46.76c-.1.34-.61.39-1.16.09-.54-.3-.9-.84-.81-1.2.1-.35.61-.38,1.16-.07.54.31.9.83.81,1.18Z"/>
      <path class="cls-14" d="M257.78,55.82c.36.52.24,1.24-.25,1.62-.5.39-1.18.29-1.54-.23-.36-.52-.25-1.27.25-1.65.49-.38,1.19-.26,1.54.26Z"/>
      <path class="cls-14" d="M258.68,62.18c.3.48.13,1.2-.38,1.62-.51.42-1.17.37-1.47-.12-.3-.49-.14-1.24.37-1.65.51-.41,1.18-.34,1.48.14Z"/>
      <path class="cls-14" d="M263.45,57.45c.23.34.04.92-.44,1.29-.48.37-1.05.41-1.29.06s-.03-.94.44-1.31c.48-.37,1.05-.38,1.28-.03Z"/>
      <path class="cls-14" d="M265.01,70.15c.23.34.04.92-.44,1.29-.48.37-1.05.41-1.29.06s-.03-.94.44-1.31c.48-.37,1.05-.38,1.28-.03Z"/>
      <path class="cls-14" d="M268.43,55.44c-.16.36-.69.49-1.18.27s-.77-.72-.62-1.09c.16-.37.69-.48,1.19-.25.5.23.77.7.61,1.07Z"/>
      <path class="cls-14" d="M262.68,54.41c-.16.4-.73.52-1.27.27-.54-.25-.85-.8-.68-1.21.16-.41.73-.51,1.27-.25.54.26.84.79.68,1.19Z"/>
    </g>
  </g>
  <g>
    <g>
      <circle class="cls-12" cx="229.06" cy="285.32" r="48.71"/>
      <path class="cls-13" d="M251.22,329.83c-24.54,12.22-54.45,2.2-66.67-22.35s-2.19-54.45,22.35-66.67c24.54-12.22,54.45-2.19,66.67,22.35,12.22,24.54,2.2,54.45-22.35,66.67ZM207.8,242.63c-23.54,11.72-33.16,40.41-21.44,63.95,11.72,23.54,40.41,33.16,63.95,21.44,23.54-11.72,33.16-40.41,21.44-63.95s-40.41-33.16-63.95-21.44Z"/>
    </g>
    <g>
      <path class="cls-14" d="M188.46,260.44c-1.1,27.63,13.27,56.49,35.98,72.26-4.3-.42-6.44-.88-10.52-2.25-25.97-12.42-35.75-32.05-30.01-60.26,1.37-4.08,2.29-6.06,4.54-9.75Z"/>
      <path class="cls-14" d="M198.82,248.54c9.54,29.98,23.19,57.4,41.36,83.08-4.33,1.04-6.54,1.3-10.89,1.32-21.6-18.79-36.11-47.93-38.09-76.5,2.64-3.46,4.17-5.07,7.61-7.89Z"/>
      <path class="cls-14" d="M213.11,240.46c16.7,26.63,30.77,55.33,42.13,84.62-3.79,2.49-5.97,3.57-10.24,5.1-16.52-26.72-30.95-55.25-42.13-84.62,3.79-2.49,5.97-3.57,10.24-5.1Z"/>
      <path class="cls-14" d="M228.82,237.71c21.6,18.79,36.11,47.93,38.09,76.5-2.64,3.46-4.17,5.07-7.61,7.89-9.54-29.98-23.19-57.4-41.36-83.08,4.33-1.04,6.54-1.3,10.89-1.32Z"/>
      <path class="cls-14" d="M244.19,240.19c25.97,12.42,35.75,32.05,30.01,60.26-1.37,4.08-2.29,6.06-4.54,9.75,1.1-27.63-13.27-56.49-35.98-72.26,4.3.42,6.44.88,10.52,2.25Z"/>
    </g>
  </g>
</svg>