<?xml version="1.0" encoding="UTF-8"?>
<svg id="main-bigBall" xmlns="http://www.w3.org/2000/svg" xmlns:xlink="http://www.w3.org/1999/xlink" viewBox="0 0 93.1 93.1">
  <defs>
    <style>
      .cls-1 {
        fill: none;
      }

      .cls-1, .cls-2 {
        stroke-width: 0px;
      }

      .cls-2 {
        fill: #d793ff;
      }

      .cls-3 {
        fill: #ffec2d;
        stroke: #000;
        stroke-miterlimit: 10;
        stroke-width: 2px;
      }
    </style>
    <clipPath id="clippath">
      <circle class="cls-1" cx="-70.16" cy="-69.47" r="45.69"/>
    </clipPath>
  </defs>
  <g id="gcBall5">
    <circle id="ballColor5" class="cls-3" cx="46.55" cy="46.55" r="45.55"/>
    <g id="ballDeco5">
      <path class="cls-2" d="M8.73,51.38l3.72-8.13,2.07-8.7,5.34-7.17,3.82-8.08,6.72-5.89,5.48-7.06,6.46-3.46c-7.25.71-14.25,3.21-20.32,7.29l-1.64,1.54-2.08,1.28c-2.95,2.48-5.61,5.39-7.87,8.69l-.57,1.02-.6.77c-.5.81-.98,1.62-1.43,2.47-1.55,2.92-2.73,5.93-3.57,8.99l-.23,1.79-.66,2.13c-.7,3.9-.85,7.84-.49,11.7l.26,1.41-.03.61c.67,4.76,2.11,9.38,4.27,13.68l1.21-5.95.14-8.94h0Z"/>
      <path class="cls-2" d="M23.32,62l5.44-8.31,2.88-9.5,6-7.91,3.53-9.28,6.54-7.48,4.16-9.01,6.24-6.26c-3.49-.96-7.03-1.46-10.56-1.54l-6.94,4.41-5.06,7.86-6.86,6.34-3.65,8.61-5.72,7.39-2.19,9.09-4.42,8.23-.62,9.33-2.17,6.72c1.98,3.01,4.35,5.81,7.08,8.29l4.11-7.3,2.22-9.68h0Z"/>
      <path class="cls-2" d="M40.19,71.31l6.5-7.73,3.4-9.51,6.17-7.99,3-9.64,5.83-8.25,2.58-9.77,4.67-7.32c-1.63-1.19-3.36-2.28-5.2-3.26-1.45-.77-2.92-1.44-4.41-2.04l-6.08,6.61-3.79,9.36-6.49,7.74-3.38,9.52-6.15,8.01-2.98,9.65-5.82,8.26-2.59,9.76-4.7,7.31c1.63,1.18,3.36,2.28,5.19,3.25,1.45.77,2.92,1.44,4.41,2.03l6.05-6.64,3.78-9.37v.02Z"/>
      <path class="cls-2" d="M57.54,78.13l6.86-6.34,3.65-8.61,5.72-7.39,2.19-9.09,4.42-8.23.62-9.33,2.17-6.72c-1.98-3.01-4.35-5.81-7.08-8.29l-4.11,7.3-2.22,9.68-5.44,8.31-2.88,9.5-6,7.91-3.53,9.28-6.54,7.48-4.16,9.01-6.24,6.26c3.49.96,7.03,1.46,10.56,1.54l6.94-4.41,5.06-7.86h0Z"/>
      <path class="cls-2" d="M90.22,42.54l-.26-1.41.03-.61c-.67-4.76-2.11-9.38-4.27-13.68l-1.21,5.95-.14,8.94-3.72,8.13-2.07,8.7-5.34,7.17-3.82,8.08-6.72,5.89-5.48,7.06-6.46,3.46c7.25-.71,14.25-3.21,20.32-7.29l1.64-1.54,2.08-1.28c2.95-2.48,5.61-5.39,7.87-8.69l.57-1.02.6-.77c.5-.81.98-1.62,1.43-2.47,1.55-2.92,2.73-5.93,3.57-8.99l.23-1.79.66-2.13c.7-3.9.85-7.84.49-11.7h0Z"/>
    </g>
  </g>
</svg>