<?xml version="1.0" encoding="UTF-8"?>
<svg id="_레이어_1" data-name="레이어 1" xmlns="http://www.w3.org/2000/svg" viewBox="0 0 222.19 480.22">
  <defs>
    <style>
      .cls-1, .cls-2, .cls-3, .cls-4, .cls-5, .cls-6, .cls-7, .cls-8, .cls-9, .cls-10 {
        stroke: #000;
      }

      .cls-1, .cls-2, .cls-6, .cls-7, .cls-8, .cls-9 {
        stroke-linecap: round;
        stroke-linejoin: round;
      }

      .cls-1, .cls-3 {
        fill: #00d675;
      }

      .cls-1, .cls-8 {
        stroke-width: 1.5px;
      }

      .cls-2 {
        stroke-width: 1.6px;
      }

      .cls-2, .cls-4 {
        fill: none;
      }

      .cls-3, .cls-4, .cls-5, .cls-10 {
        stroke-miterlimit: 10;
      }

      .cls-3, .cls-7, .cls-10 {
        stroke-width: 2px;
      }

      .cls-4 {
        stroke-width: 1.2px;
      }

      .cls-11 {
        fill: #000;
        stroke-width: 0px;
      }

      .cls-5 {
        fill: #ff97b5;
        stroke-width: 1.63px;
  animation: colorChange3 2s linear infinite;
}

@keyframes colorChange3 {
  0% {
    fill: #FFEC2D;
  }
  33% {
    fill: #d793ff;
  }
  66% {
    fill: #d793ff;
  }
  100% {
    fill: #00D675;
  }
}

.cls-6 {
  fill: #ffec2d;
  animation: colorChange1 1s infinite alternate;
}

@keyframes colorChange1 {
  0% {
    fill: #FFEC2D;
  }
  50% {
    fill: #FFAE00;
  }
  100% {
    fill: #FFEC2D;
  }
}


      .cls-6, .cls-9 {
        stroke-width: 1.22px;
      }

      .cls-7, .cls-9, .cls-10 {
        fill: #ff6a37;
      }

      .cls-8 {
        fill: #d793ff;
  animation: colorChange 2s linear infinite;
}

@keyframes colorChange {
  0% {
    fill: #d793ff;
  }
  33% {
    fill: #FFEC2D;
  }
  66% {
    fill: #00D675;
  }
  100% {
    fill: #d793ff;
  }
}


    </style>
  </defs>
  <path class="cls-7" d="M100.43,230.37c-1.4,6.78-4.76,13.15-9.57,18.14,3.23,2.53,5.93,5.73,7.88,9.34-.89-1.73.16-3.95,1.8-5s3.68-1.19,5.63-1.25c4.4-.13,8.81.04,13.21.22.62,1.92,1.24,3.83,1.86,5.75.09-2.2,1.53-4.3,3.56-5.17.25-.81,1.17-1.19,2.01-1.29s1.72-.02,2.5-.36c1.3-.58,1.86-2.22,1.64-3.63s-1.03-2.65-1.83-3.83c-2.79-4.17-5.58-8.34-8.37-12.5l-20.33-.42Z"/>
  <ellipse class="cls-10" cx="111.66" cy="116.15" rx="106.95" ry="115.15"/>
  <path class="cls-8" d="M38.25,32.41s62.55-39.03,146.35-.47l7.77,8.89c-27.31-5.84-53.86-10.24-81.79-10.65-27.93-.41-53.59,2.21-79.93,11.48l7.6-9.24Z"/>
  <path class="cls-5" d="M184.77,200.11s-62.55,39.03-146.35.47l-7.77-8.89c27.31,5.84,53.86,10.24,81.79,10.65,27.93.41,53.59-2.21,79.93-11.48l-7.6,9.24Z"/>
  <path class="cls-2" d="M111.66,1s-55.9,40.25-55.32,115.9c.59,75.65,55.32,114.02,55.32,114.02"/>
  <path class="cls-2" d="M111.66,1S24.3,21.8,21.85,116.9c-1.95,75.63,89.81,114.18,89.81,114.18"/>
  <path class="cls-2" d="M110.86,1s55.9,40.25,55.32,115.9c-.59,75.65-55.32,114.02-55.32,114.02"/>
  <path class="cls-2" d="M110.86,1s87.36,20.8,89.81,115.9c1.95,75.63-89.81,114.18-89.81,114.18"/>
  <line class="cls-2" x1="111.66" y1="1" x2="111.66" y2="231.31"/>
  <path class="cls-11" d="M103.99,230.93c.69,2.31.04,4.6-.95,6.67-.58,2.19-.52,4.56-1.53,6.64-.64,1.38-1.45,2.69-2.61,3.77-.05.05-.16,0-.14-.07.38-2.31,1.07-4.32,2.04-6.37.54-1.36,1.51-2.62,1.74-4.1.07-2.26.19-4.49,1.3-6.56.03-.07.14-.06.16.02h0Z"/>
  <path class="cls-11" d="M107.52,231.38c.25,1.22.21,2.39-.15,3.55-.2.55-.55,1.09-.69,1.66-.3,1.15.12,2.38.07,3.53.02,1.63-.13,3.88-1.06,5.25-.8-1.72-.82-3.6-.45-5.4.16-1.17.88-2.27.93-3.47-.04-1.19-.27-2.42.27-3.56.23-.56.49-1.11.92-1.61.04-.05.14-.03.16.04h0Z"/>
  <path class="cls-11" d="M110.62,231.51c.54,1.05.74,2.16.6,3.3-.1.55-.36,1.1-.4,1.66-.03,1.66.76,3.27.62,4.96-.07,1.1-.25,2.21-.76,3.31-.03.07-.13.07-.16,0-.74-1.63-.92-3.25-.7-4.96.05-1.1.62-2.2.48-3.31-.22-1.09-.68-2.16-.38-3.3.1-.55.23-1.1.53-1.66.03-.06.13-.06.16,0h0Z"/>
  <path class="cls-11" d="M113.81,231.51c1.16,1.88,1.33,3.97,1.4,6.09.24,1.38,1.2,2.53,1.71,3.8.93,1.91,1.56,3.79,1.85,5.97.01.07-.09.13-.14.07-1.09-1.01-1.86-2.23-2.46-3.51-.95-1.94-.87-4.17-1.45-6.2-.57-1.29-1.31-2.56-1.27-4.04-.02-.71,0-1.43.21-2.16.02-.07.12-.09.16-.02h0Z"/>
  <path class="cls-11" d="M117.64,231.18c1.29,1.75,1.55,3.55,1.8,5.6.35,1.27,1.39,2.24,2.01,3.36,1.1,1.67,1.9,3.34,2.45,5.35.02.07-.07.14-.13.09-1.19-.77-2.08-1.81-2.8-2.94-1.14-1.71-1.27-3.82-2.01-5.68-.67-1.15-1.49-2.29-1.55-3.69-.07-.67-.09-1.35.08-2.06.01-.07.12-.09.16-.03h0Z"/>
  <polyline class="cls-1" points="107.34 252.74 108.37 479.47 111.48 477.39 112.31 251.97"/>
  <path class="cls-1" d="M107.34,358.21s-21.3-2.15-16.13,32.57c0,0,2.59,8.75,7.47,0s.94-28.57,9.15-31.13"/>
  <path class="cls-1" d="M112.31,358.19s11.97-.37,12.8,13.12c.82,13.49,2.76,18.89-2.4,16.44s0-21.71-10.39-26.95"/>
  <rect class="cls-3" x="2.4" y="93.72" width="218.54" height="39.68" rx="7.11" ry="7.11"/>
  <g>
    <line class="cls-4" x1="2.4" y1="101.76" x2="221.37" y2="101.76"/>
    <line class="cls-4" x1="2.4" y1="109.62" x2="221.37" y2="109.62"/>
    <line class="cls-4" x1="2.4" y1="117.49" x2="221.37" y2="117.49"/>
    <line class="cls-4" x1="2.4" y1="125.36" x2="221.37" y2="125.36"/>
  </g>
  <g>
    <path class="cls-5" d="M36.32,113.56c.34,23.03-35.84,23.03-35.5,0-.34-23.03,35.84-23.03,35.5,0Z"/>
    <path class="cls-9" d="M31.23,113.56c.24,16.43-25.57,16.43-25.33,0-.24-16.43,25.57-16.43,25.33,0Z"/>
    <path class="cls-6" d="M27.42,113.56c.17,11.49-17.88,11.49-17.71,0-.17-11.49,17.88-11.49,17.71,0Z"/>
  </g>
  <g>
    <path class="cls-5" d="M82.58,113.56c.34,23.03-35.84,23.03-35.5,0-.34-23.03,35.84-23.03,35.5,0Z"/>
    <path class="cls-9" d="M77.5,113.56c.24,16.43-25.57,16.43-25.33,0-.24-16.43,25.57-16.43,25.33,0Z"/>
    <path class="cls-6" d="M73.69,113.56c.17,11.49-17.88,11.49-17.71,0-.17-11.49,17.88-11.49,17.71,0Z"/>
  </g>
  <g>
    <path class="cls-5" d="M128.85,113.56c.34,23.03-35.84,23.03-35.5,0-.34-23.03,35.84-23.03,35.5,0Z"/>
    <path class="cls-9" d="M123.76,113.56c.24,16.43-25.57,16.43-25.33,0-.24-16.43,25.57-16.43,25.33,0Z"/>
    <path class="cls-6" d="M119.95,113.56c.17,11.49-17.88,11.49-17.71,0-.17-11.49,17.88-11.49,17.71,0Z"/>
  </g>
  <g>
    <path class="cls-5" d="M175.11,113.56c.34,23.03-35.84,23.03-35.5,0-.34-23.03,35.84-23.03,35.5,0Z"/>
    <path class="cls-9" d="M170.02,113.56c.24,16.43-25.57,16.43-25.33,0-.24-16.43,25.57-16.43,25.33,0Z"/>
    <path class="cls-6" d="M166.21,113.56c.17,11.49-17.88,11.49-17.71,0-.17-11.49,17.88-11.49,17.71,0Z"/>
  </g>
  <g>
    <path class="cls-5" d="M221.37,113.56c.34,23.03-35.84,23.03-35.5,0-.34-23.03,35.84-23.03,35.5,0Z"/>
    <path class="cls-9" d="M216.28,113.56c.24,16.43-25.57,16.43-25.33,0-.24-16.43,25.57-16.43,25.33,0Z"/>
    <path class="cls-6" d="M212.47,113.56c.17,11.49-17.88,11.49-17.71,0-.17-11.49,17.88-11.49,17.71,0Z"/>
  </g>
  <path class="cls-11" d="M11.53,93.1c0-4.38.8-8.75,2.23-12.89,1.21-3.05,2.74-5.95,3.84-9.04,3.18-9.28,8.19-18.2,15.79-24.57,0,0,.15.13.15.13-5.31,8.18-10.78,16.11-15.32,24.7-2.32,4.9-2.87,10.37-4.61,15.47-.59,2.09-1.17,4.16-1.89,6.22,0,0-.2-.03-.2-.03h0Z"/>
  <path class="cls-11" d="M17.85,93.6c-.23-4.38,1.17-8.5,2.96-12.4,1.28-4.06,1.75-8.39,3.5-12.32,1.14-2.61,2.47-5.15,4.24-7.45l.18.08c-.93,4.23-2.33,8.14-4.05,12.05-1.02,2.62-2.59,5.07-3.26,7.82-.55,2.77-.74,5.62-1.78,8.28-.45,1.34-.93,2.67-1.6,3.98l-.2-.04h0Z"/>
  <path class="cls-11" d="M30.75,93.36c-.26-4.75.39-9.55,1.78-14.1,1.19-3.36,2.77-6.56,3.95-9.92,3.47-10.08,9.31-19.67,18.01-26.05,0,0,.14.14.14.14-4.39,5.54-8.46,11.16-12.28,17.05-2.39,4.01-5.04,7.93-6.55,12.39-1.32,4.58-3.65,15.74-4.85,20.51,0,0-.2-.02-.2-.02h0Z"/>
  <path class="cls-11" d="M36.24,93.37c-.14-4.06,1.27-7.82,3-11.4,1.22-3.74,1.56-7.76,3.12-11.41,1.01-2.43,2.18-4.8,3.78-6.97l.18.08c-.64,3.97-1.83,7.64-3.41,11.27-.93,2.43-2.43,4.68-3.06,7.23-.51,2.56-.71,5.21-1.77,7.64-.46,1.22-.96,2.44-1.65,3.61l-.19-.05h0Z"/>
  <path class="cls-11" d="M43.98,93.54c-.27-5.01,1.1-9.81,2.86-14.42,1.25-4.75,1.68-9.72,3.41-14.35,1.12-3.08,2.44-6.1,4.22-8.92l.19.07c-.89,4.89-2.27,9.51-3.97,14.12-1.01,3.09-2.57,6.03-3.21,9.24-.53,3.21-.7,6.49-1.72,9.62-.44,1.57-.91,3.14-1.57,4.67l-.2-.03h0Z"/>
  <path class="cls-11" d="M51.36,93.77c-.18-4.62.4-9.27,1.58-13.74,1.02-3.31,2.36-6.51,3.24-9.86,2.49-10.07,6.63-19.94,13.51-27.83,0,0,.17.11.17.11-4.32,9.26-9.16,18.5-13.03,27.93-1.96,5.39-2.18,11.2-3.66,16.72-.48,2.24-.97,4.48-1.61,6.7,0,0-.2-.02-.2-.02h0Z"/>
  <path class="cls-11" d="M67.88,93.04c-.28-5.61,1.3-11.01,3.45-16.11,1.23-3.46,1.79-7.15,3.12-10.59,1.86-5.2,4.51-10.18,8.1-14.42,0,0,.17.1.17.1-2.89,7.76-6.62,14.95-9.93,22.5-1.64,4.28-1.66,8.95-3.09,13.29-.47,1.77-.97,3.53-1.63,5.26,0,0-.2-.03-.2-.03h0Z"/>
  <path class="cls-11" d="M81.97,83.08c-.01.38-.02.55-.03.68-.01.1-.02.18-.03.06-.01-.08-.03-.95-.07-.29-.01.2-.02.34-.03.4-.01.08-.02.16-.03.12-.02-.09-.04-.33-.07-.97v-.2c.03-.95.08-1.33.13-.45.04.66.05-.21.07-.29.01-.13.02-.05.03.06.01.1.04.58.03.88h0Z"/>
  <path class="cls-11" d="M77.07,93.8c.1-7.45,1.93-14.67,4.26-21.7,1.34-4.74,1.95-9.66,3.31-14.4,1.88-7.14,4.47-14.15,8-20.65,0,0,.19.07.19.07-2.63,10.78-6.43,21.09-9.95,31.57-1.76,5.89-1.96,12.1-3.64,18.02-.58,2.39-1.19,4.77-1.97,7.12,0,0-.2-.03-.2-.03h0Z"/>
  <path class="cls-11" d="M89.37,93.34c-1-3.98-.45-8,.44-11.91.36-3.96-.24-7.99.43-11.95.41-2.62.99-5.23,2.02-7.75l.2.03c.34,4.05.04,7.95-.66,11.89-.34,2.61-1.29,5.18-1.34,7.83.07,2.64.46,5.3-.05,7.93-.19,1.31-.41,2.62-.84,3.93h-.2Z"/>
  <path class="cls-11" d="M99.37,93.06c-.84-6.18-.33-12.35.32-18.5.2-4.11-.54-8.22-.66-12.32-.39-6.18-.42-12.3.16-18.51,0,0,.2-.01.2-.01.87,4.07,1.28,8.18,1.5,12.3.36,6.19-.54,12.36-.55,18.54.24,4.11.69,8.24.17,12.36-.2,2.05-.46,4.11-.94,6.14h-.2Z"/>
  <path class="cls-11" d="M125.31,94.11c-.79-5.2-.24-10.36.45-15.51.23-3.45-.48-6.9-.58-10.33-.34-5.19-.33-10.31.29-15.52,0,0,.2-.01.2-.01.85,3.41,1.23,6.86,1.42,10.32.33,5.2-.63,10.38-.68,15.56.21,3.45.63,6.92.08,10.38-.22,1.72-.49,3.44-.98,5.13h-.2Z"/>
  <path class="cls-11" d="M135.54,92.97c-1.37-4.03-1.41-8.2-1.3-12.38-.16-2.77-1.24-5.41-1.73-8.12-.92-4.08-1.47-8.13-1.44-12.37,0,0,.2-.04.2-.04,1.22,2.57,1.98,5.26,2.55,7.99.91,4.1.54,8.34,1.07,12.47.59,2.71,1.41,5.42,1.25,8.24-.02,1.39-.1,2.79-.4,4.2h-.2Z"/>
  <path class="cls-11" d="M144.7,93.58c-.3-4.25-.45-8.48-.55-12.73,0-3.18.03-6.4-.73-9.52-2.56-9.22-6.33-17.92-10.08-26.75,0,0,.17-.1.17-.1,6.34,7.46,9.49,17.12,10.58,26.73.77,5.32,2.41,10.56,1.84,16-.17,2.16-.46,4.3-1.03,6.39,0,0-.2-.02-.2-.02h0Z"/>
  <path class="cls-11" d="M154.73,93.86c-1.22-3.55-1.31-7.26-1.45-10.96-.33-2.44-1.65-4.64-2.46-6.93-1.42-3.42-2.61-6.79-3.52-10.46,0,0,.18-.09.18-.09,2.57,2.83,4.24,6.3,5.14,9.97.7,2.41.64,4.98,1.29,7.39.76,2.37,1.65,4.77,1.49,7.33-.03,1.26-.13,2.51-.48,3.76h-.2Z"/>
  <path class="cls-11" d="M172.15,93.05c-.83-3.68-1.47-7.37-2-11.1-.32-2.8-.59-5.64-1.61-8.29-3.31-7.8-7.54-15.03-11.54-22.53,0,0,.16-.12.16-.12,6.42,5.87,10.13,14.09,12.03,22.45,1.22,4.61,3.37,9,3.42,13.86.08,1.92.05,3.84-.25,5.74,0,0-.2,0-.2,0h0Z"/>
  <path class="cls-11" d="M181.01,93.33c-.69-2.64-1.12-5.32-1.32-8.03-.06-2.03-.02-4.1-.7-6.05-2.24-5.71-4.97-11.02-6.96-16.88,0,0,.17-.11.17-.11,4.55,4.45,6.66,10.64,7.45,16.82.62,3.4,2.34,6.56,2.08,10.11-.03,1.39-.15,2.77-.52,4.14h-.2Z"/>
  <path class="cls-11" d="M189.97,93.33c-.59-4.6-1.3-9.1-2.23-13.63-.64-3.4-1.4-6.81-3.02-9.9-5.17-9.01-12.31-16.6-20.47-23.05,0,0,.1-.17.1-.17,9.94,4.09,17.14,13.1,20.98,22.94,2.28,5.42,5.04,10.77,5.23,16.77.1,2.37.02,4.73-.39,7.06,0,0-.2,0-.2,0h0Z"/>
  <path class="cls-11" d="M204.18,93.3c-1.13-2.95-1.97-5.97-2.61-9.05-.37-2.32-.66-4.69-1.63-6.86-3.12-6.38-6.65-12.35-9.42-18.93,0,0,.16-.11.16-.11,5.24,5.04,8.18,11.87,9.9,18.82,1.12,3.81,3.33,7.27,3.64,11.32.19,1.58.3,3.18.16,4.79l-.2.03h0Z"/>
  <path class="cls-11" d="M209.78,94.12c-.71-1.56-1.1-3.11-1.16-4.78,0-.81.18-1.67.08-2.48-.18-1.63-1.3-3.02-1.87-4.51-1.07-2.26-1.79-4.43-2.16-7,0,0,.18-.1.18-.1,1.36,1.13,2.3,2.57,3.02,4.09,1.13,2.32.91,4.95,1.47,7.39.6,1.55,1.4,3.12,1.18,4.86-.06.84-.18,1.69-.53,2.52h-.2Z"/>
  <g>
    <path class="cls-11" d="M209.98,133.35c0,4.38-.8,8.75-2.23,12.89-1.21,3.05-2.74,5.95-3.84,9.04-3.18,9.28-8.19,18.2-15.79,24.57,0,0-.15-.13-.15-.13,5.31-8.18,10.78-16.11,15.32-24.7,2.32-4.9,2.87-10.37,4.61-15.47.59-2.09,1.17-4.16,1.89-6.22,0,0,.2.03.2.03h0Z"/>
    <path class="cls-11" d="M203.66,132.86c.23,4.38-1.17,8.5-2.96,12.4-1.28,4.06-1.75,8.39-3.5,12.32-1.14,2.61-2.47,5.15-4.24,7.45l-.18-.08c.93-4.23,2.33-8.14,4.05-12.05,1.02-2.62,2.59-5.07,3.26-7.82.55-2.77.74-5.62,1.78-8.28.45-1.34.93-2.67,1.6-3.98l.2.04h0Z"/>
    <path class="cls-11" d="M190.76,133.1c.26,4.75-.39,9.55-1.78,14.1-1.19,3.36-2.77,6.56-3.95,9.92-3.47,10.08-9.31,19.67-18.01,26.05,0,0-.14-.14-.14-.14,4.39-5.54,8.46-11.16,12.28-17.05,2.39-4.01,5.04-7.93,6.55-12.39,1.32-4.58,3.65-15.74,4.85-20.51,0,0,.2.02.2.02h0Z"/>
    <path class="cls-11" d="M185.26,133.09c.14,4.06-1.27,7.82-3,11.4-1.22,3.74-1.56,7.76-3.12,11.41-1.01,2.43-2.18,4.8-3.78,6.97l-.18-.08c.64-3.97,1.83-7.64,3.41-11.27.93-2.43,2.43-4.68,3.06-7.23.51-2.56.71-5.21,1.77-7.64.46-1.22.96-2.44,1.65-3.61l.19.05h0Z"/>
    <path class="cls-11" d="M177.52,132.92c.27,5.01-1.1,9.81-2.86,14.42-1.25,4.75-1.68,9.72-3.41,14.35-1.12,3.08-2.44,6.1-4.22,8.92l-.19-.07c.89-4.89,2.27-9.51,3.97-14.12,1.01-3.09,2.57-6.03,3.21-9.24.53-3.21.7-6.49,1.72-9.62.44-1.57.91-3.14,1.57-4.67l.2.03h0Z"/>
    <path class="cls-11" d="M170.14,132.69c.18,4.62-.4,9.27-1.58,13.74-1.02,3.31-2.36,6.51-3.24,9.86-2.49,10.07-6.63,19.94-13.51,27.83,0,0-.17-.11-.17-.11,4.32-9.26,9.16-18.5,13.03-27.93,1.96-5.39,2.18-11.2,3.66-16.72.48-2.24.97-4.48,1.61-6.7,0,0,.2.02.2.02h0Z"/>
    <path class="cls-11" d="M153.62,133.42c.28,5.61-1.3,11.01-3.45,16.11-1.23,3.46-1.79,7.15-3.12,10.59-1.86,5.2-4.51,10.18-8.1,14.42,0,0-.17-.1-.17-.1,2.89-7.76,6.62-14.95,9.93-22.5,1.64-4.28,1.66-8.95,3.09-13.29.47-1.77.97-3.53,1.63-5.26,0,0,.2.03.2.03h0Z"/>
    <path class="cls-11" d="M144.44,132.65c-.1,7.45-1.93,14.67-4.26,21.7-1.34,4.74-1.95,9.66-3.31,14.4-1.88,7.14-4.47,14.15-8,20.65l-.19-.07c2.63-10.78,6.43-21.09,9.95-31.57,1.76-5.89,1.96-12.1,3.64-18.02.58-2.39,1.19-4.77,1.97-7.12,0,0,.2.03.2.03h0Z"/>
    <path class="cls-11" d="M132.14,133.12c1,3.98.45,8-.44,11.91-.36,3.96.24,7.99-.43,11.95-.41,2.62-.99,5.23-2.02,7.75l-.2-.03c-.34-4.05-.04-7.95.66-11.89.34-2.61,1.29-5.18,1.34-7.83-.07-2.64-.46-5.3.05-7.93.19-1.31.41-2.62.84-3.93h.2Z"/>
    <path class="cls-11" d="M122.14,133.4c.84,6.18.33,12.35-.32,18.5-.2,4.11.54,8.22.66,12.32.39,6.18.42,12.3-.16,18.51,0,0-.2.01-.2.01-.87-4.07-1.28-8.18-1.5-12.3-.36-6.19.54-12.36.55-18.54-.24-4.11-.69-8.24-.17-12.36.2-2.05.46-4.11.94-6.14h.2Z"/>
    <path class="cls-11" d="M96.19,132.35c.79,5.2.24,10.36-.45,15.51-.23,3.45.48,6.9.58,10.33.34,5.19.33,10.31-.29,15.52,0,0-.2.01-.2.01-.85-3.41-1.23-6.86-1.42-10.32-.33-5.2.63-10.38.68-15.56-.21-3.45-.63-6.92-.08-10.38.22-1.72.49-3.44.98-5.13h.2Z"/>
    <path class="cls-11" d="M85.96,133.49c1.37,4.03,1.41,8.2,1.3,12.38.16,2.77,1.24,5.41,1.73,8.12.92,4.08,1.47,8.13,1.44,12.37,0,0-.2.04-.2.04-1.22-2.57-1.98-5.26-2.55-7.99-.91-4.1-.54-8.34-1.07-12.47-.59-2.71-1.41-5.42-1.25-8.24.02-1.39.1-2.79.4-4.2h.2Z"/>
    <path class="cls-11" d="M76.81,132.88c.3,4.25.45,8.48.55,12.73,0,3.18-.03,6.4.73,9.52,2.56,9.22,6.33,17.92,10.08,26.75,0,0-.17.1-.17.1-6.34-7.46-9.49-17.12-10.58-26.73-.77-5.32-2.41-10.56-1.84-16,.17-2.16.46-4.3,1.03-6.39,0,0,.2.02.2.02h0Z"/>
    <path class="cls-11" d="M66.77,132.6c1.22,3.55,1.31,7.26,1.45,10.96.33,2.44,1.65,4.64,2.46,6.93,1.42,3.42,2.61,6.79,3.52,10.46,0,0-.18.09-.18.09-2.57-2.83-4.24-6.3-5.14-9.97-.7-2.41-.64-4.98-1.29-7.39-.76-2.37-1.65-4.77-1.49-7.33.03-1.26.13-2.51.48-3.76h.2Z"/>
    <path class="cls-11" d="M49.35,133.41c.83,3.68,1.47,7.37,2,11.1.32,2.8.59,5.64,1.61,8.29,3.31,7.8,7.54,15.03,11.54,22.53,0,0-.16.12-.16.12-6.42-5.87-10.13-14.09-12.03-22.45-1.22-4.61-3.37-9-3.42-13.86-.08-1.92-.05-3.84.25-5.74,0,0,.2,0,.2,0h0Z"/>
    <path class="cls-11" d="M40.49,133.13c.69,2.64,1.12,5.32,1.32,8.03.06,2.03.02,4.1.7,6.05,2.24,5.71,4.97,11.02,6.96,16.88,0,0-.17.11-.17.11-4.55-4.45-6.66-10.64-7.45-16.82-.62-3.4-2.34-6.56-2.08-10.1.03-1.39.15-2.77.52-4.14h.2Z"/>
    <path class="cls-11" d="M31.53,133.13c.59,4.6,1.3,9.1,2.23,13.63.64,3.4,1.4,6.81,3.02,9.9,5.17,9.01,12.31,16.6,20.47,23.05,0,0-.1.17-.1.17-9.94-4.09-17.14-13.1-20.98-22.94-2.28-5.42-5.04-10.77-5.23-16.77-.1-2.37-.02-4.73.39-7.06,0,0,.2,0,.2,0h0Z"/>
    <path class="cls-11" d="M17.33,133.16c1.13,2.95,1.97,5.97,2.61,9.05.37,2.32.66,4.69,1.63,6.86,3.12,6.38,6.65,12.35,9.42,18.93,0,0-.16.11-.16.11-5.24-5.04-8.18-11.87-9.9-18.82-1.12-3.81-3.33-7.27-3.64-11.32-.19-1.58-.3-3.18-.16-4.79l.2-.03h0Z"/>
    <path class="cls-11" d="M11.73,132.34c.71,1.56,1.1,3.11,1.16,4.78,0,.81-.18,1.67-.08,2.48.18,1.63,1.3,3.02,1.87,4.51,1.07,2.26,1.79,4.43,2.16,7,0,0-.18.1-.18.1-1.36-1.13-2.3-2.57-3.02-4.09-1.13-2.32-.91-4.95-1.47-7.39-.6-1.55-1.4-3.12-1.18-4.86.06-.84.18-1.69.53-2.52h.2Z"/>
  </g>
</svg>