<?xml version="1.0" encoding="UTF-8"?>
<svg id="_레이어_1" data-name="레이어 1" xmlns="http://www.w3.org/2000/svg" viewBox="0 0 492.6 369.71">
  <defs>
    <style>
      .cls-1 {
        fill: #ff6a37;
      }

      .cls-1, .cls-2, .cls-3, .cls-4, .cls-5 {
        stroke: #000;
        stroke-miterlimit: 10;
        stroke-width: 1.4px;
      }

      .cls-2 {
        fill: #d793ff;
      }

      .cls-3 {
        fill: #ff97b5;
      }

      .cls-4 {
        fill: #00d675;
      }

      .cls-5 {
        fill: #ffec2d;
      }
    </style>
  </defs>
  <circle id="circleR3" class="cls-1" cx="417.39" cy="237.02" r="39.73"/>
  <circle id="circleG7" class="cls-4" cx="40.43" cy="160.44" r="39.73"/>
  <circle id="circleY6" class="cls-5" cx="240.53" cy="321.93" r="39.73"/>
  <circle id="circleV5" class="cls-2" cx="68.28" cy="86.32" r="39.73"/>
  <circle id="circleG6" class="cls-4" cx="316.33" cy="60.96" r="40.32"/>
  <circle id="circleP6" class="cls-3" cx="387.51" cy="69.81" r="40.32"/>
  <circle id="circleY5" class="cls-5" cx="350.5" cy="133.42" r="40.32"/>
  <circle id="circleY4" class="cls-5" cx="451.58" cy="168.29" r="40.32"/>
  <circle id="circleP5" class="cls-3" cx="321.73" cy="256.57" r="40.32"/>
  <circle id="circleP4" class="cls-3" cx="81.71" cy="150.83" r="40.32"/>
  <circle id="circleP3" class="cls-3" cx="292.41" cy="99.71" r="40.32"/>
  <circle id="circleR2" class="cls-1" cx="104.92" cy="265.19" r="40.32"/>
  <circle id="circleV4" class="cls-2" cx="282.97" cy="291.59" r="40.32"/>
  <circle id="circleG5" class="cls-4" cx="148.11" cy="41.02" r="40.32"/>
  <circle id="circleG4" class="cls-4" cx="261.57" cy="214.2" r="40.32"/>
  <circle id="circleY3" class="cls-5" cx="245.08" cy="113.81" r="40.32"/>
  <circle id="circleY2" class="cls-5" cx="162.68" cy="271.59" r="40.32"/>
  <circle id="circleV3" class="cls-2" cx="131.04" cy="216.73" r="40.32"/>
  <circle id="circleV2" class="cls-2" cx="214.96" cy="166.52" r="40.32"/>
  <circle id="circleP2" class="cls-3" cx="193.91" cy="326.56" r="40.32"/>
  <circle id="circleY1" class="cls-5" cx="133.96" cy="139.92" r="40.32"/>
  <circle id="circleG3" class="cls-4" cx="124.03" cy="310.58" r="40.32"/>
  <circle id="circleG2" class="cls-4" cx="381.65" cy="182.12" r="40.32"/>
  <circle id="circleG1" class="cls-4" cx="340.25" cy="328.69" r="40.32"/>
  <circle id="circleV1" class="cls-2" cx="311.22" cy="184.65" r="40.32"/>
  <circle id="circleP1" class="cls-3" cx="201.39" cy="227.38" r="40.32"/>
  <circle id="circleR1" class="cls-1" cx="190.33" cy="89.67" r="40.32"/>
</svg>