<?xml version="1.0" encoding="UTF-8"?>
<svg width="1350" height="945" viewBox="0 0 1350 945" fill="none" xmlns="http://www.w3.org/2000/svg">
<rect width="1350" height="945" fill="#0C0B22"/>
 <style>
       .phone {
        fill: #00D675;
   animation: fillColorChang2 1s infinite alternate, bounceScale40 1s infinite ease-in-out;
}

@keyframes fillColorChang2 {
  0% {
    fill: #00D675;
  }
  100% {
    fill: #FED64C;
  }
}
     .phone1-2:hover {
            text-decoration: underline;
        }
.phone1,
.phone1-2,
.phone1-3,
.phone1-1{ animation: bounceScale40 1s infinite ease-in-out;
}

@keyframes bounceScale40 {

    0%,
    100% {
        transform: translateY(-8px);
    }

    50% {
        transform: translateY(0);
    }
}
       .email {
        fill: #D793FF;
   animation: fillColorChang3 0.5s infinite alternate, bounceScale40 1s infinite ease-in-out;
}

@keyframes fillColorChang3 {
  0% {
    fill: #D793FF;
  }
  100% {
    fill: #FF97B5;
  }
}
.email1,
.email1-1{ animation: bounceScale40 1s infinite ease-in-out;
}

@keyframes bounceScale40 {

    0%,
    100% {
        transform: translateY(4px);
    }

    50% {
        transform: translateY(0);
    }
}

       .copy {
        fill: #D793FF;
   animation: fillColorChang5 5s infinite alternate, bounceScale45 1s infinite ease-in-out;
}

@keyframes fillColorChang5 {
  0%,
  100% {
    fill: #45C7FF;
  }
  50% {
    fill: #FF6A37;
  }
}
.copy1{ animation: bounceScale45 1s infinite ease-in-out;
}

@keyframes bounceScale45 {

    0%,
    100% {
        transform: translateY(0px);
    }

    50% {
        transform: translateY(10px);
    }
}
{ animation: bounceScale45 1s infinite ease-in-out;
}

@keyframes bounceScale45 {
    0%,
    100% {
        transform: translateY(-5px);
    }

    50% {
        transform: translateY(0);
    }
}

 </style>
<path d="M631.268 156.24C624.968 156.24 621.278 151.71 621.278 145.92C621.278 140.13 624.968 135.6 631.268 135.6C635.618 135.6 638.738 137.79 640.268 141.33L636.608 144.27C636.008 141.75 634.298 139.71 631.238 139.71C627.728 139.71 625.898 142.26 625.898 145.92C625.898 149.58 627.728 152.13 631.238 152.13C634.298 152.13 636.008 150.09 636.608 147.57L640.268 150.51C638.738 154.05 635.618 156.24 631.268 156.24ZM648.923 156.3C644.453 156.3 641.573 153.15 641.573 148.65C641.573 144.18 644.453 141 648.923 141C653.513 141 656.423 144.18 656.423 148.65C656.423 153.15 653.513 156.3 648.923 156.3ZM648.983 152.82C650.813 152.82 652.073 151.65 652.073 148.65C652.073 145.62 650.813 144.48 648.983 144.48C647.183 144.48 645.923 145.62 645.923 148.65C645.923 151.65 647.183 152.82 648.983 152.82ZM663.078 156H658.788V141.3H663.078V145.56C663.558 143.16 664.968 141 667.998 141C670.788 141 672.498 142.71 672.498 145.74V156H668.208V147.24C668.208 145.44 667.728 144.33 665.778 144.33C663.738 144.33 663.078 145.47 663.078 147.87V156ZM680.897 156.3C677.657 156.3 676.127 154.38 676.127 151.65V144.57H673.937V141.3H676.127V139.56L680.417 137.31V141.3H684.497V144.57H680.417V150.87C680.417 152.07 681.017 152.49 681.857 152.49C682.787 152.49 683.597 151.74 684.047 150.93L685.277 154.44C684.647 155.25 683.147 156.3 680.897 156.3ZM693.197 156.3C688.517 156.3 685.667 153.18 685.667 148.65C685.667 144.12 688.517 141 692.837 141C697.517 141 699.857 144.12 699.857 147.96C699.857 148.59 699.797 149.43 699.707 149.76H689.687C689.957 151.83 691.337 152.82 693.257 152.82C695.327 152.82 696.437 151.92 696.977 150.66L699.587 153.27C698.477 154.86 696.497 156.3 693.197 156.3ZM692.867 144.3C691.037 144.3 689.897 145.32 689.687 147.3H695.987C695.837 145.35 694.787 144.3 692.867 144.3ZM709.306 156.3C704.776 156.3 701.926 153.15 701.926 148.65C701.926 144.18 704.776 141 709.306 141C712.816 141 715.246 142.92 716.146 145.44L712.576 147.51C712.216 145.68 711.256 144.57 709.456 144.57C707.566 144.57 706.306 145.95 706.306 148.65C706.306 151.35 707.566 152.73 709.456 152.73C711.286 152.73 712.216 151.62 712.576 149.79L716.146 151.86C715.246 154.38 712.816 156.3 709.306 156.3ZM723.964 156.3C720.724 156.3 719.194 154.38 719.194 151.65V144.57H717.004V141.3H719.194V139.56L723.484 137.31V141.3H727.564V144.57H723.484V150.87C723.484 152.07 724.084 152.49 724.924 152.49C725.854 152.49 726.664 151.74 727.114 150.93L728.344 154.44C727.714 155.25 726.214 156.3 723.964 156.3Z" fill="#FF97B5"/>
<rect class="phone1" x="165" y="230" width="505" height="280" rx="8.30769" fill="white"/>
<path class="phone" d="M190 392C190 346.16 227.16 309 273 309H639C642.314 309 645 311.686 645 315V399C645 444.84 607.84 482 562 482H196C192.686 482 190 479.314 190 476V392Z" fill="#00D675"/>
<path class="phone1-1" d="M211.358 266.663C206.474 261.779 198.554 261.779 193.663 266.663C188.779 271.547 188.779 279.467 193.663 284.358C193.871 284.566 194.086 284.761 194.301 284.949L202.497 293.145L210.599 285.043C210.632 285.016 210.666 284.989 210.7 284.956C210.921 284.761 211.143 284.566 211.351 284.351C216.235 279.467 216.235 271.547 211.351 266.656L211.358 266.663Z" fill="#191919"/>
<path class="phone1-1" d="M226.103 287.358C230.987 282.474 230.987 274.554 226.103 269.663C221.219 264.779 213.299 264.779 208.408 269.663C208.2 269.871 208.005 270.086 207.817 270.301L199.621 278.497L207.723 286.599C207.75 286.632 207.777 286.666 207.81 286.7C208.005 286.921 208.2 287.143 208.415 287.351C213.299 292.235 221.219 292.235 226.11 287.351L226.103 287.358Z" fill="#191919"/>
<path class="phone1-3" d="M565.079 288H560.789V267.9H569.129C573.749 267.9 577.289 270.03 577.289 275.1C577.289 280.05 573.809 282.18 569.129 282.18H565.079V288ZM568.979 271.71H565.079V278.37H568.979C571.199 278.37 572.789 277.47 572.789 275.1C572.789 272.58 571.199 271.71 568.979 271.71ZM584.038 288H579.748V267.9H584.038V277.56C584.518 275.16 585.928 273 588.958 273C591.748 273 593.458 274.71 593.458 277.74V288H589.168V279.24C589.168 277.44 588.688 276.33 586.738 276.33C584.698 276.33 584.038 277.47 584.038 279.87V288ZM603.23 288.3C598.76 288.3 595.88 285.15 595.88 280.65C595.88 276.18 598.76 273 603.23 273C607.82 273 610.73 276.18 610.73 280.65C610.73 285.15 607.82 288.3 603.23 288.3ZM603.29 284.82C605.12 284.82 606.38 283.65 606.38 280.65C606.38 277.62 605.12 276.48 603.29 276.48C601.49 276.48 600.23 277.62 600.23 280.65C600.23 283.65 601.49 284.82 603.29 284.82ZM617.685 288H613.395V273.3H617.685V277.56C618.165 275.16 619.575 273 622.605 273C625.395 273 627.105 274.71 627.105 277.74V288H622.815V279.24C622.815 277.44 622.335 276.33 620.385 276.33C618.345 276.33 617.685 277.47 617.685 279.87V288ZM637.147 288.3C632.467 288.3 629.617 285.18 629.617 280.65C629.617 276.12 632.467 273 636.787 273C641.467 273 643.807 276.12 643.807 279.96C643.807 280.59 643.747 281.43 643.657 281.76H633.637C633.907 283.83 635.287 284.82 637.207 284.82C639.277 284.82 640.387 283.92 640.927 282.66L643.537 285.27C642.427 286.86 640.447 288.3 637.147 288.3ZM636.817 276.3C634.987 276.3 633.847 277.32 633.637 279.3H639.937C639.787 277.35 638.737 276.3 636.817 276.3Z" fill="black"/>
<rect class="email1" x="680" y="230" width="505" height="280" rx="8.30769" fill="white"/>
<path class="email" d="M703 392C703 346.16 740.16 309 786 309H1153C1156.31 309 1159 311.686 1159 315V399C1159 444.84 1121.84 482 1076 482H709C705.686 482 703 479.314 703 476V392Z" fill="#D793FF"/>
<path class="email1-1" d="M726.358 266.663C721.474 261.779 713.554 261.779 708.663 266.663C703.779 271.547 703.779 279.467 708.663 284.358C708.871 284.566 709.086 284.761 709.301 284.949L717.497 293.145L725.599 285.043C725.632 285.016 725.666 284.989 725.7 284.956C725.921 284.761 726.143 284.566 726.351 284.351C731.235 279.467 731.235 271.547 726.351 266.656L726.358 266.663Z" fill="#191919"/>
<path class="email1-1" d="M741.103 285.426C745.987 280.542 745.987 272.622 741.103 267.731C736.219 262.847 728.299 262.847 723.408 267.731C723.2 267.94 723.005 268.155 722.817 268.37L714.621 276.565L722.723 284.667C722.75 284.701 722.777 284.734 722.81 284.768C723.005 284.99 723.2 285.211 723.415 285.42C728.299 290.304 736.219 290.304 741.11 285.42L741.103 285.426Z" fill="#191919"/>
<path class="email1-1" d="M1101.58 288H1086.82V267.9H1101.58V271.71H1091.11V275.94H1099.87V279.75H1091.11V284.19H1101.58V288ZM1108.26 288H1103.97V273.3H1108.26V277.53C1108.71 275.13 1110.03 273 1113.06 273C1115.76 273 1117.26 274.71 1117.26 277.56C1117.71 275.13 1119.03 273 1122.06 273C1124.76 273 1126.26 274.71 1126.26 277.74V288H1121.97V279.24C1121.97 277.32 1121.37 276.33 1119.63 276.33C1117.92 276.33 1117.26 277.47 1117.26 279.87V288H1112.97V279.24C1112.97 277.32 1112.37 276.33 1110.63 276.33C1108.92 276.33 1108.26 277.47 1108.26 279.87V288ZM1132.7 288.33C1130.42 288.33 1128.83 287.1 1128.83 284.73C1128.83 282.51 1130.24 281.22 1133.03 280.26L1137.53 278.58C1137.38 277.35 1136.81 276.66 1135.19 276.66C1133.33 276.66 1131.62 277.71 1130.6 279.18L1128.44 276.06C1129.91 274.47 1132.34 273 1135.49 273C1139.21 273 1141.37 274.98 1141.37 278.67V283.71C1141.37 284.37 1141.61 284.58 1142.15 284.58H1143.02V288H1140.5C1138.91 288 1137.47 287.28 1137.47 285.18V284.19C1136.99 286.11 1135.7 288.33 1132.7 288.33ZM1132.79 284.1C1132.79 284.79 1133.27 285.18 1134.29 285.18C1136.33 285.18 1137.47 284.16 1137.47 282.36V281.34L1134.35 282.63C1133.18 283.11 1132.79 283.53 1132.79 284.1ZM1149.64 271.56H1145.35V267.9H1149.64V271.56ZM1149.64 288H1145.35V273.3H1149.64V288ZM1157.26 288H1152.97V267.9H1157.26V288Z" fill="black"/>
<path class="phone1-2" d="M249.6 401.44H245.16V396.8H240.52V392.36H245.16V387.76H249.6V392.36H254.2V396.8H249.6V401.44ZM267.799 408.4C260.479 408.4 256.959 405.28 256.959 400.92C256.959 398.16 258.599 395.36 263.279 394.4C259.599 393.8 257.879 391.28 257.879 388.24C257.879 384.16 261.319 380.8 267.799 380.8C274.239 380.8 277.719 384.16 277.719 388.2C277.719 391.32 275.799 393.8 272.119 394.4C276.799 395.36 278.639 398.16 278.639 400.92C278.639 405.28 275.119 408.4 267.799 408.4ZM267.799 392.48C270.159 392.48 271.559 391.08 271.559 389.24C271.559 387.56 270.479 386.08 267.799 386.08C265.119 386.08 264.039 387.56 264.039 389.24C264.039 391.08 265.119 392.48 267.799 392.48ZM267.799 403.12C271.079 403.12 272.079 401.48 272.079 399.64C272.079 397.68 270.639 396.08 267.799 396.08C264.959 396.08 263.519 397.68 263.519 399.64C263.519 401.48 264.519 403.12 267.799 403.12ZM302.512 408H282.272V403.68L292.232 394.56C294.352 392.56 295.632 391.08 295.632 389.2C295.632 387.52 294.472 386.28 292.392 386.28C289.072 386.28 286.712 388.36 286.312 393.32L281.872 389.76C282.312 384.32 286.872 380.8 292.992 380.8C298.632 380.8 301.712 384.04 301.712 388.84C301.712 393.04 298.392 396.28 294.992 398.76L291.672 401.36L288.232 403.56L293.232 402.92H302.512V408ZM323.177 408H317.457V387.96H312.417V383.6C314.777 383.6 316.577 382.96 317.937 381.2H323.177V408ZM338.887 408.36C331.247 408.36 327.007 402.56 327.007 394.56C327.007 386.6 331.247 380.8 338.887 380.8C346.527 380.8 350.727 386.6 350.727 394.56C350.727 402.56 346.527 408.36 338.887 408.36ZM338.887 402.8C343.007 402.8 344.727 399.6 344.727 394.56C344.727 389.56 343.007 386.32 338.887 386.32C334.767 386.32 333.047 389.56 333.047 394.56C333.047 399.6 334.767 402.8 338.887 402.8ZM372.016 399.84H361.216V395.16H372.016V399.84ZM393.755 408.4C387.675 408.4 383.635 405.28 382.515 401.28L386.795 397.48C387.595 400.96 389.755 402.96 393.595 402.96C396.315 402.96 397.835 401.8 397.835 399.8C397.835 397.6 395.955 396.88 393.155 396.88H389.035V392.28H393.435C395.835 392.28 397.355 391.44 397.355 389.44C397.355 387.56 395.995 386.28 393.595 386.28C390.475 386.28 388.075 387.92 387.395 391.16L383.115 387.44C384.315 383.76 388.115 380.8 393.795 380.8C399.995 380.8 403.155 384.32 403.155 388.16C403.155 392.2 399.915 394.16 396.235 394.36C401.515 394.52 404.035 397.36 404.035 401.12C404.035 405.68 399.635 408.4 393.755 408.4ZM415.665 408H409.305C409.305 396.56 415.025 390.48 419.025 386.36H405.345V381.2H424.505V386.56C419.945 391.36 415.665 397.04 415.665 408ZM437.481 408.36C429.841 408.36 425.601 402.56 425.601 394.56C425.601 386.6 429.841 380.8 437.481 380.8C445.121 380.8 449.321 386.6 449.321 394.56C449.321 402.56 445.121 408.36 437.481 408.36ZM437.481 402.8C441.601 402.8 443.321 399.6 443.321 394.56C443.321 389.56 441.601 386.32 437.481 386.32C433.361 386.32 431.641 389.56 431.641 394.56C431.641 399.6 433.361 402.8 437.481 402.8ZM462.721 408.4C455.401 408.4 451.881 405.28 451.881 400.92C451.881 398.16 453.521 395.36 458.201 394.4C454.521 393.8 452.801 391.28 452.801 388.24C452.801 384.16 456.241 380.8 462.721 380.8C469.161 380.8 472.641 384.16 472.641 388.2C472.641 391.32 470.721 393.8 467.041 394.4C471.721 395.36 473.561 398.16 473.561 400.92C473.561 405.28 470.041 408.4 462.721 408.4ZM462.721 392.48C465.081 392.48 466.481 391.08 466.481 389.24C466.481 387.56 465.401 386.08 462.721 386.08C460.041 386.08 458.961 387.56 458.961 389.24C458.961 391.08 460.041 392.48 462.721 392.48ZM462.721 403.12C466.001 403.12 467.001 401.48 467.001 399.64C467.001 397.68 465.561 396.08 462.721 396.08C459.881 396.08 458.441 397.68 458.441 399.64C458.441 401.48 459.441 403.12 462.721 403.12ZM494.672 399.84H483.872V395.16H494.672V399.84ZM514.571 408H508.211C508.211 396.56 513.931 390.48 517.931 386.36H504.251V381.2H523.411V386.56C518.851 391.36 514.571 397.04 514.571 408ZM535.438 408.4C529.798 408.4 525.878 405.64 524.558 402.08L529.078 398C529.958 401.16 532.278 402.76 535.318 402.76C538.118 402.76 539.718 401.24 539.718 398.44C539.718 395.48 537.798 394.08 535.158 394.08C532.997 394.08 531.438 394.88 531.038 396.56L530.998 396.8L525.558 396.24L526.478 381.2H544.078V386.36H531.838L531.238 394.72C532.118 392.32 534.358 390.44 537.958 390.44C542.718 390.44 545.918 393.44 545.918 398.96C545.918 404.64 541.718 408.4 535.438 408.4ZM559.049 408.4C551.729 408.4 548.209 405.28 548.209 400.92C548.209 398.16 549.849 395.36 554.529 394.4C550.849 393.8 549.129 391.28 549.129 388.24C549.129 384.16 552.569 380.8 559.049 380.8C565.489 380.8 568.969 384.16 568.969 388.2C568.969 391.32 567.049 393.8 563.369 394.4C568.049 395.36 569.889 398.16 569.889 400.92C569.889 405.28 566.369 408.4 559.049 408.4ZM559.049 392.48C561.409 392.48 562.809 391.08 562.809 389.24C562.809 387.56 561.729 386.08 559.049 386.08C556.369 386.08 555.289 387.56 555.289 389.24C555.289 391.08 556.369 392.48 559.049 392.48ZM559.049 403.12C562.329 403.12 563.329 401.48 563.329 399.64C563.329 397.68 561.889 396.08 559.049 396.08C556.209 396.08 554.769 397.68 554.769 399.64C554.769 401.48 555.769 403.12 559.049 403.12ZM583.68 408.4C578.04 408.4 574.12 405.64 572.8 402.08L577.32 398C578.2 401.16 580.52 402.76 583.56 402.76C586.36 402.76 587.96 401.24 587.96 398.44C587.96 395.48 586.04 394.08 583.4 394.08C581.24 394.08 579.68 394.88 579.28 396.56L579.24 396.8L573.8 396.24L574.72 381.2H592.32V386.36H580.08L579.48 394.72C580.36 392.32 582.6 390.44 586.2 390.44C590.96 390.44 594.16 393.44 594.16 398.96C594.16 404.64 589.96 408.4 583.68 408.4Z" fill="black"/>
<rect class="copy1"  x="165" y="525" width="1020" height="264" rx="8.30769" fill="white"/>
<path class="copy1"  d="M211.358 558.663C206.474 553.779 198.554 553.779 193.663 558.663C188.779 563.547 188.779 571.467 193.663 576.358C193.871 576.566 194.086 576.761 194.301 576.949L202.497 585.145L210.599 577.043C210.632 577.016 210.666 576.989 210.7 576.956C210.921 576.761 211.143 576.566 211.351 576.351C216.235 571.467 216.235 563.547 211.351 558.656L211.358 558.663Z" fill="#191919"/>
<path class="copy1"  d="M226.103 577.426C230.987 572.542 230.987 564.622 226.103 559.731C221.219 554.847 213.299 554.847 208.408 559.731C208.2 559.94 208.005 560.155 207.817 560.37L199.621 568.565L207.723 576.667C207.75 576.701 207.777 576.734 207.81 576.768C208.005 576.99 208.2 577.211 208.415 577.42C213.299 582.304 221.219 582.304 226.11 577.42L226.103 577.426Z" fill="#191919"/>
<path class="copy"  d="M191 687C191 641.16 228.16 604 274 604H1154C1157.31 604 1160 606.686 1160 610V671C1160 716.84 1122.84 754 1077 754H197C193.686 754 191 751.314 191 748V687Z" fill="#45C7FF"/>
<path class="copy1"  d="M371.84 690.68C364.16 690.68 358.92 685.44 358.92 677.76C358.92 670.04 364.16 664.84 371.84 664.84C379.2 664.84 384.68 670.04 384.68 677.76C384.68 685.44 379.2 690.68 371.84 690.68ZM371.8 687.12C377 687.12 380.84 683.56 380.84 677.76C380.84 671.96 377 668.36 371.8 668.36C366.6 668.36 362.8 671.96 362.8 677.76C362.8 683.56 366.6 687.12 371.8 687.12ZM372.04 685.32C367.8 685.32 364.72 682.2 364.72 677.68C364.72 673.2 367.8 670.04 372.04 670.04C375.4 670.04 377.88 671.96 378.72 674.56L375.76 676.8C375.36 675.04 374.12 673.76 372.12 673.76C370.08 673.76 368.76 675 368.76 677.68C368.76 680.36 370.08 681.64 372.12 681.64C374.12 681.64 375.36 680.32 375.76 678.56L378.72 680.8C377.88 683.4 375.4 685.32 372.04 685.32ZM417.113 691H396.873V686.68L406.833 677.56C408.953 675.56 410.233 674.08 410.233 672.2C410.233 670.52 409.073 669.28 406.993 669.28C403.673 669.28 401.313 671.36 400.913 676.32L396.473 672.76C396.913 667.32 401.473 663.8 407.593 663.8C413.233 663.8 416.313 667.04 416.313 671.84C416.313 676.04 412.993 679.28 409.593 681.76L406.273 684.36L402.833 686.56L407.833 685.92H417.113V691ZM431.614 691.36C423.974 691.36 419.734 685.56 419.734 677.56C419.734 669.6 423.974 663.8 431.614 663.8C439.254 663.8 443.454 669.6 443.454 677.56C443.454 685.56 439.254 691.36 431.614 691.36ZM431.614 685.8C435.734 685.8 437.454 682.6 437.454 677.56C437.454 672.56 435.734 669.32 431.614 669.32C427.494 669.32 425.774 672.56 425.774 677.56C425.774 682.6 427.494 685.8 431.614 685.8ZM467.191 691H446.951V686.68L456.911 677.56C459.031 675.56 460.311 674.08 460.311 672.2C460.311 670.52 459.151 669.28 457.071 669.28C453.751 669.28 451.391 671.36 450.991 676.32L446.551 672.76C446.991 667.32 451.551 663.8 457.671 663.8C463.311 663.8 466.391 667.04 466.391 671.84C466.391 676.04 463.071 679.28 459.671 681.76L456.351 684.36L452.911 686.56L457.911 685.92H467.191V691ZM488.137 691H482.417V685.48H469.017V681.04L481.737 664.2H488.137V680.52H492.257V685.48H488.137V691ZM475.097 680.52H482.417V670.96L475.097 680.52ZM514.549 691.4C509.389 691.4 504.629 689.72 502.149 685.8L505.909 681.4C507.709 684.76 511.589 686.24 514.789 686.24C517.109 686.24 518.789 685.52 518.789 683.68C518.789 681.6 517.029 680.92 513.469 680.2L510.869 679.64C506.709 678.8 502.789 676.96 502.789 671.88C502.789 666.64 507.309 663.88 512.749 663.88C517.789 663.88 521.829 665.8 524.069 669L520.189 673.36C518.429 670.56 515.309 669.04 512.229 669.04C510.189 669.04 508.709 669.92 508.709 671.48C508.709 673.44 510.429 674.16 513.229 674.8L516.269 675.52C521.269 676.68 524.669 678.72 524.669 683.52C524.669 688.64 520.349 691.4 514.549 691.4ZM536.745 691.4C530.785 691.4 526.945 687.2 526.945 681.2C526.945 675.24 530.785 671 536.745 671C542.865 671 546.745 675.24 546.745 681.2C546.745 687.2 542.865 691.4 536.745 691.4ZM536.825 686.76C539.265 686.76 540.945 685.2 540.945 681.2C540.945 677.16 539.265 675.64 536.825 675.64C534.425 675.64 532.745 677.16 532.745 681.2C532.745 685.2 534.425 686.76 536.825 686.76ZM555.697 691H549.977V664.2H555.697V677.08C556.337 673.88 558.217 671 562.257 671C565.977 671 568.257 673.28 568.257 677.32V691H562.537V679.32C562.537 676.92 561.897 675.44 559.297 675.44C556.577 675.44 555.697 676.96 555.697 680.16V691ZM576.616 698.2C573.656 698.2 571.136 696.92 569.776 695.52L572.056 690.72C573.296 692.16 574.736 693.16 576.456 693.16C577.976 693.16 578.856 692.64 579.496 690.76L579.896 689.72H576.416L570.056 671.4H576.376L579.176 680.64L580.616 687.2L582.096 680.64L584.856 671.4H591.296L584.256 692.2C582.736 696.56 580.296 698.2 576.616 698.2ZM598.631 691.4C594.911 691.4 592.591 689.12 592.591 685.08V671.4H598.311V683.08C598.311 685.48 598.951 686.96 601.591 686.96C604.311 686.96 605.151 685.44 605.151 682.24V671.4H610.871V691H605.151V685.52C604.471 688.64 602.591 691.4 598.631 691.4ZM620.618 691H614.898V671.4H620.618V677.08C621.258 673.88 623.138 671 627.178 671C630.898 671 633.178 673.28 633.178 677.32V691H627.458V679.32C627.458 676.92 626.818 675.44 624.218 675.44C621.498 675.44 620.618 676.96 620.618 680.16V691ZM642.526 691H636.446V684.8H642.526V691ZM657.811 691H651.731L661.771 664.2H669.131L679.171 691H672.891L670.771 685.04H659.971L657.811 691ZM663.771 674.44L661.691 680.2H669.011L666.971 674.44L665.371 668.76L663.771 674.44ZM687.103 691H681.383V664.2H687.103V691ZM696.868 691H691.148V664.2H696.868V691ZM714.29 691H708.57V671.4H714.29V677.56C714.93 674.28 716.85 671 720.61 671C723.49 671 725.09 672.84 725.09 675.92C725.09 678.04 724.45 679.72 723.97 680.48H718.45C719.17 679.76 719.85 678.36 719.85 677.24C719.85 676.12 719.33 675.28 718.09 675.28C716.13 675.28 714.29 677.4 714.29 680.64V691ZM733.158 669.08H727.438V664.2H733.158V669.08ZM733.158 691H727.438V671.4H733.158V691ZM745.843 685.32C744.123 685.32 742.603 685 741.323 684.4C741.043 684.84 740.803 685.44 740.803 686C740.803 686.92 741.283 687.44 742.843 687.44H749.723C754.083 687.44 756.043 689.24 756.043 692.12C756.043 695.8 752.483 698.84 744.683 698.84C738.643 698.84 735.483 697.04 735.483 694.72C735.483 692.84 737.443 691.88 739.803 691.6C738.163 691.24 736.883 690.36 736.883 688.64C736.883 686.64 738.643 685 740.523 683.96C738.483 682.72 737.283 680.68 737.283 678.16C737.283 673.92 740.723 671 745.843 671C747.003 671 748.083 671.16 749.083 671.44L749.963 666.72L755.043 668.44L751.243 672.4C753.243 673.68 754.443 675.68 754.443 678.16C754.443 682.4 750.963 685.32 745.843 685.32ZM745.843 681.48C747.683 681.48 749.083 680.36 749.083 678.16C749.083 675.96 747.683 674.84 745.843 674.84C744.043 674.84 742.603 675.96 742.603 678.16C742.603 680.36 744.043 681.48 745.843 681.48ZM745.163 694.84C749.123 694.84 751.123 694.08 751.123 692.8C751.123 691.92 750.403 691.64 748.883 691.64H740.603C740.363 691.92 740.083 692.32 740.083 692.8C740.083 694.08 741.483 694.84 745.163 694.84ZM764.134 691H758.414V664.2H764.134V677.08C764.774 673.88 766.654 671 770.694 671C774.414 671 776.694 673.28 776.694 677.32V691H770.974V679.32C770.974 676.92 770.334 675.44 767.734 675.44C765.014 675.44 764.134 676.96 764.134 680.16V691ZM787.893 691.4C783.573 691.4 781.533 688.84 781.533 685.2V675.76H778.613V671.4H781.533V669.08L787.253 666.08V671.4H792.693V675.76H787.253V684.16C787.253 685.76 788.053 686.32 789.173 686.32C790.413 686.32 791.493 685.32 792.093 684.24L793.733 688.92C792.893 690 790.893 691.4 787.893 691.4ZM804.283 691.4C799.923 691.4 796.043 689.8 794.363 687.44L797.003 683.56C798.643 685.32 801.483 687.04 804.443 687.04C806.003 687.04 806.923 686.56 806.923 685.52C806.923 684.48 805.803 684.08 803.723 683.56L801.083 682.92C797.563 682 795.003 680.6 795.003 677.16C795.003 673.32 798.123 671.04 802.923 671.04C807.163 671.04 810.243 672.88 811.603 674.6L809.043 678.44C807.123 676.44 804.723 675.36 802.443 675.36C801.043 675.36 800.203 675.88 800.203 676.84C800.203 677.88 801.043 678.28 803.643 679L805.843 679.6C810.163 680.76 812.043 682.44 812.043 685.44C812.043 689.24 808.843 691.4 804.283 691.4ZM828.353 691H822.633V671.4H828.353V677.56C828.993 674.28 830.913 671 834.673 671C837.553 671 839.153 672.84 839.153 675.92C839.153 678.04 838.513 679.72 838.033 680.48H832.513C833.233 679.76 833.913 678.36 833.913 677.24C833.913 676.12 833.393 675.28 832.153 675.28C830.193 675.28 828.353 677.4 828.353 680.64V691ZM850.387 691.4C844.147 691.4 840.347 687.24 840.347 681.2C840.347 675.16 844.147 671 849.907 671C856.147 671 859.267 675.16 859.267 680.28C859.267 681.12 859.187 682.24 859.067 682.68H845.707C846.067 685.44 847.907 686.76 850.467 686.76C853.227 686.76 854.707 685.56 855.427 683.88L858.907 687.36C857.427 689.48 854.787 691.4 850.387 691.4ZM849.947 675.4C847.507 675.4 845.987 676.76 845.707 679.4H854.107C853.907 676.8 852.507 675.4 849.947 675.4ZM870.884 691.4C866.524 691.4 862.644 689.8 860.964 687.44L863.604 683.56C865.244 685.32 868.084 687.04 871.044 687.04C872.604 687.04 873.524 686.56 873.524 685.52C873.524 684.48 872.404 684.08 870.324 683.56L867.684 682.92C864.164 682 861.604 680.6 861.604 677.16C861.604 673.32 864.724 671.04 869.524 671.04C873.764 671.04 876.844 672.88 878.204 674.6L875.644 678.44C873.724 676.44 871.324 675.36 869.044 675.36C867.644 675.36 866.804 675.88 866.804 676.84C866.804 677.88 867.644 678.28 870.244 679L872.444 679.6C876.764 680.76 878.644 682.44 878.644 685.44C878.644 689.24 875.444 691.4 870.884 691.4ZM890.387 691.4C884.147 691.4 880.347 687.24 880.347 681.2C880.347 675.16 884.147 671 889.907 671C896.147 671 899.267 675.16 899.267 680.28C899.267 681.12 899.187 682.24 899.067 682.68H885.707C886.067 685.44 887.907 686.76 890.467 686.76C893.227 686.76 894.707 685.56 895.427 683.88L898.907 687.36C897.427 689.48 894.787 691.4 890.387 691.4ZM889.947 675.4C887.507 675.4 885.987 676.76 885.707 679.4H894.107C893.907 676.8 892.507 675.4 889.947 675.4ZM908.275 691H902.555V671.4H908.275V677.56C908.915 674.28 910.835 671 914.595 671C917.475 671 919.075 672.84 919.075 675.92C919.075 678.04 918.435 679.72 917.955 680.48H912.435C913.155 679.76 913.835 678.36 913.835 677.24C913.835 676.12 913.315 675.28 912.075 675.28C910.115 675.28 908.275 677.4 908.275 680.64V691ZM933.547 691H926.307L919.427 671.4H925.747L928.467 680.8L929.987 687.68L931.467 680.8L934.187 671.4H940.427L933.547 691ZM950.621 691.4C944.381 691.4 940.581 687.24 940.581 681.2C940.581 675.16 944.381 671 950.141 671C956.381 671 959.501 675.16 959.501 680.28C959.501 681.12 959.421 682.24 959.301 682.68H945.941C946.301 685.44 948.141 686.76 950.701 686.76C953.461 686.76 954.941 685.56 955.661 683.88L959.141 687.36C957.661 689.48 955.021 691.4 950.621 691.4ZM950.181 675.4C947.741 675.4 946.221 676.76 945.941 679.4H954.341C954.141 676.8 952.741 675.4 950.181 675.4ZM969.9 691.44C965.14 691.44 962.14 687.72 962.14 681.2C962.14 674.72 965.14 671 969.66 671C973.74 671 975.34 673.84 975.9 677V664.2H981.62V691H975.9V685.48C975.38 688.64 973.98 691.44 969.9 691.44ZM967.94 681.2C967.94 684.96 969.58 686.96 972.18 686.96C974.58 686.96 975.9 685.48 975.9 682.28V680.16C975.9 676.96 974.54 675.44 972.1 675.44C969.58 675.44 967.94 677.48 967.94 681.2ZM991.042 691H984.962V684.8H991.042V691Z" fill="black"/>
<path class="email1-1" d="M754.88 408.4C748.8 408.4 744.76 405.28 743.64 401.28L747.92 397.48C748.72 400.96 750.88 402.96 754.72 402.96C757.44 402.96 758.96 401.8 758.96 399.8C758.96 397.6 757.08 396.88 754.28 396.88H750.16V392.28H754.56C756.96 392.28 758.48 391.44 758.48 389.44C758.48 387.56 757.12 386.28 754.72 386.28C751.6 386.28 749.2 387.92 748.52 391.16L744.24 387.44C745.44 383.76 749.24 380.8 754.92 380.8C761.12 380.8 764.28 384.32 764.28 388.16C764.28 392.2 761.04 394.16 757.36 394.36C762.64 394.52 765.16 397.36 765.16 401.12C765.16 405.68 760.76 408.4 754.88 408.4ZM789.105 408H768.865V403.68L778.825 394.56C780.945 392.56 782.225 391.08 782.225 389.2C782.225 387.52 781.065 386.28 778.985 386.28C775.665 386.28 773.305 388.36 772.905 393.32L768.465 389.76C768.905 384.32 773.465 380.8 779.585 380.8C785.225 380.8 788.305 384.04 788.305 388.84C788.305 393.04 784.985 396.28 781.585 398.76L778.265 401.36L774.825 403.56L779.825 402.92H789.105V408ZM810.051 408H804.331V402.48H790.931V398.04L803.651 381.2H810.051V397.52H814.171V402.48H810.051V408ZM797.011 397.52H804.331V387.96L797.011 397.52ZM824.407 408H818.047C818.047 396.56 823.767 390.48 827.767 386.36H814.087V381.2H833.247V386.56C828.687 391.36 824.407 397.04 824.407 408ZM845.273 408.4C839.633 408.4 835.713 405.64 834.393 402.08L838.913 398C839.793 401.16 842.113 402.76 845.153 402.76C847.953 402.76 849.553 401.24 849.553 398.44C849.553 395.48 847.633 394.08 844.993 394.08C842.833 394.08 841.273 394.88 840.873 396.56L840.833 396.8L835.393 396.24L836.313 381.2H853.913V386.36H841.673L841.073 394.72C841.953 392.32 844.193 390.44 847.793 390.44C852.553 390.44 855.753 393.44 855.753 398.96C855.753 404.64 851.553 408.4 845.273 408.4ZM868.885 408.4C861.565 408.4 858.045 405.28 858.045 400.92C858.045 398.16 859.685 395.36 864.365 394.4C860.685 393.8 858.965 391.28 858.965 388.24C858.965 384.16 862.405 380.8 868.885 380.8C875.325 380.8 878.805 384.16 878.805 388.2C878.805 391.32 876.885 393.8 873.205 394.4C877.885 395.36 879.725 398.16 879.725 400.92C879.725 405.28 876.205 408.4 868.885 408.4ZM868.885 392.48C871.245 392.48 872.645 391.08 872.645 389.24C872.645 387.56 871.565 386.08 868.885 386.08C866.205 386.08 865.125 387.56 865.125 389.24C865.125 391.08 866.205 392.48 868.885 392.48ZM868.885 403.12C872.165 403.12 873.165 401.48 873.165 399.64C873.165 397.68 871.725 396.08 868.885 396.08C866.045 396.08 864.605 397.68 864.605 399.64C864.605 401.48 865.605 403.12 868.885 403.12ZM893.516 408.4C887.876 408.4 883.956 405.64 882.636 402.08L887.156 398C888.036 401.16 890.356 402.76 893.396 402.76C896.196 402.76 897.796 401.24 897.796 398.44C897.796 395.48 895.876 394.08 893.236 394.08C891.076 394.08 889.516 394.88 889.116 396.56L889.076 396.8L883.636 396.24L884.556 381.2H902.156V386.36H889.916L889.316 394.72C890.196 392.32 892.436 390.44 896.036 390.44C900.796 390.44 903.996 393.44 903.996 398.96C903.996 404.64 899.796 408.4 893.516 408.4ZM918.913 412.36C912.513 412.36 906.873 408.8 906.873 400.6C906.873 389.88 914.553 383.2 925.113 383.2C932.953 383.2 937.673 387.4 937.673 394.88C937.673 401.64 934.153 405.8 929.113 405.8C925.233 405.8 923.793 403.36 924.073 400.88C923.393 403.32 921.753 405.48 918.753 405.48C915.953 405.48 914.073 403.56 914.073 399.84C914.073 394.28 917.113 390.36 921.073 390.36C923.993 390.36 925.033 392.48 924.953 395.16L925.673 390.68H930.513L928.993 399.84C928.753 401.32 929.033 401.92 929.953 401.92C931.873 401.92 933.233 398.8 933.233 394.96C933.233 390.04 930.433 387.28 924.473 387.28C916.313 387.28 911.593 392.36 911.593 400C911.593 405.64 914.873 408.16 919.593 408.16C922.113 408.16 924.313 407.64 925.993 406.88L924.793 411.56C923.233 412.08 921.153 412.36 918.913 412.36ZM921.473 402.08C923.193 402.08 924.033 400.88 924.273 399.36L924.673 396.96C925.033 394.6 923.993 393.76 922.473 393.76C920.433 393.76 919.073 396.08 919.073 399.24C919.073 401.16 920.033 402.08 921.473 402.08ZM946.673 408H940.953V388.4H946.673V394.08C947.313 390.88 949.193 388 953.233 388C956.953 388 959.233 390.28 959.233 394.32V408H953.513V396.32C953.513 393.92 952.873 392.44 950.273 392.44C947.553 392.44 946.673 393.96 946.673 397.16V408ZM967.42 408.44C964.38 408.44 962.26 406.8 962.26 403.64C962.26 400.68 964.14 398.96 967.86 397.68L973.86 395.44C973.66 393.8 972.9 392.88 970.74 392.88C968.26 392.88 965.98 394.28 964.62 396.24L961.74 392.08C963.7 389.96 966.94 388 971.14 388C976.1 388 978.98 390.64 978.98 395.56V402.28C978.98 403.16 979.3 403.44 980.02 403.44H981.18V408H977.82C975.7 408 973.78 407.04 973.78 404.24V402.92C973.14 405.48 971.42 408.44 967.42 408.44ZM967.54 402.8C967.54 403.72 968.18 404.24 969.54 404.24C972.26 404.24 973.78 402.88 973.78 400.48V399.12L969.62 400.84C968.06 401.48 967.54 402.04 967.54 402.8ZM995.265 408H988.025L981.145 388.4H987.465L990.185 397.8L991.705 404.68L993.185 397.8L995.905 388.4H1002.15L995.265 408ZM1012.34 408.4C1006.1 408.4 1002.3 404.24 1002.3 398.2C1002.3 392.16 1006.1 388 1011.86 388C1018.1 388 1021.22 392.16 1021.22 397.28C1021.22 398.12 1021.14 399.24 1021.02 399.68H1007.66C1008.02 402.44 1009.86 403.76 1012.42 403.76C1015.18 403.76 1016.66 402.56 1017.38 400.88L1020.86 404.36C1019.38 406.48 1016.74 408.4 1012.34 408.4ZM1011.9 392.4C1009.46 392.4 1007.94 393.76 1007.66 396.4H1016.06C1015.86 393.8 1014.46 392.4 1011.9 392.4ZM1030.23 408H1024.51V388.4H1030.23V394.56C1030.87 391.28 1032.79 388 1036.55 388C1039.43 388 1041.03 389.84 1041.03 392.92C1041.03 395.04 1040.39 396.72 1039.91 397.48H1034.39C1035.11 396.76 1035.79 395.36 1035.79 394.24C1035.79 393.12 1035.27 392.28 1034.03 392.28C1032.07 392.28 1030.23 394.4 1030.23 397.64V408ZM1046.2 408H1040.12V401.8H1046.2V408ZM1058.15 408.4C1052.11 408.4 1048.31 404.2 1048.31 398.2C1048.31 392.24 1052.11 388 1058.15 388C1062.83 388 1066.07 390.56 1067.27 393.92L1062.51 396.68C1062.03 394.24 1060.75 392.76 1058.35 392.76C1055.83 392.76 1054.15 394.6 1054.15 398.2C1054.15 401.8 1055.83 403.64 1058.35 403.64C1060.79 403.64 1062.03 402.16 1062.51 399.72L1067.27 402.48C1066.07 405.84 1062.83 408.4 1058.15 408.4ZM1078.27 408.4C1072.31 408.4 1068.47 404.2 1068.47 398.2C1068.47 392.24 1072.31 388 1078.27 388C1084.39 388 1088.27 392.24 1088.27 398.2C1088.27 404.2 1084.39 408.4 1078.27 408.4ZM1078.35 403.76C1080.79 403.76 1082.47 402.2 1082.47 398.2C1082.47 394.16 1080.79 392.64 1078.35 392.64C1075.95 392.64 1074.27 394.16 1074.27 398.2C1074.27 402.2 1075.95 403.76 1078.35 403.76ZM1097.14 408H1091.42V388.4H1097.14V394.04C1097.74 390.84 1099.5 388 1103.54 388C1107.14 388 1109.14 390.28 1109.14 394.08C1109.74 390.84 1111.5 388 1115.54 388C1119.14 388 1121.14 390.28 1121.14 394.32V408H1115.42V396.32C1115.42 393.76 1114.62 392.44 1112.3 392.44C1110.02 392.44 1109.14 393.96 1109.14 397.16V408H1103.42V396.32C1103.42 393.76 1102.62 392.44 1100.3 392.44C1098.02 392.44 1097.14 393.96 1097.14 397.16V408Z" fill="black"/>
<path class="copy1"  d="M1032.22 580.24C1025.92 580.24 1022.23 575.71 1022.23 569.92C1022.23 564.13 1025.92 559.6 1032.22 559.6C1036.57 559.6 1039.69 561.79 1041.22 565.33L1037.56 568.27C1036.96 565.75 1035.25 563.71 1032.19 563.71C1028.68 563.71 1026.85 566.26 1026.85 569.92C1026.85 573.58 1028.68 576.13 1032.19 576.13C1035.25 576.13 1036.96 574.09 1037.56 571.57L1041.22 574.51C1039.69 578.05 1036.57 580.24 1032.22 580.24ZM1050.18 580.3C1045.71 580.3 1042.83 577.15 1042.83 572.65C1042.83 568.18 1045.71 565 1050.18 565C1054.77 565 1057.68 568.18 1057.68 572.65C1057.68 577.15 1054.77 580.3 1050.18 580.3ZM1050.24 576.82C1052.07 576.82 1053.33 575.65 1053.33 572.65C1053.33 569.62 1052.07 568.48 1050.24 568.48C1048.44 568.48 1047.18 569.62 1047.18 572.65C1047.18 575.65 1048.44 576.82 1050.24 576.82ZM1064.69 585.58H1060.4V565.3H1064.69V569.47C1065.11 567.1 1066.31 564.97 1069.37 564.97C1072.79 564.97 1075.01 567.76 1075.01 572.65C1075.01 577.51 1072.79 580.3 1069.19 580.3C1066.13 580.3 1065.08 578.2 1064.69 575.83V585.58ZM1064.69 573.43C1064.69 575.83 1065.68 576.97 1067.48 576.97C1069.43 576.97 1070.66 575.44 1070.66 572.65C1070.66 569.86 1069.43 568.33 1067.48 568.33C1065.68 568.33 1064.69 569.44 1064.69 571.84V573.43ZM1080.95 585.4C1078.73 585.4 1076.84 584.44 1075.82 583.39L1077.53 579.79C1078.46 580.87 1079.54 581.62 1080.83 581.62C1081.97 581.62 1082.63 581.23 1083.11 579.82L1083.41 579.04H1080.8L1076.03 565.3H1080.77L1082.87 572.23L1083.95 577.15L1085.06 572.23L1087.13 565.3H1091.96L1086.68 580.9C1085.54 584.17 1083.71 585.4 1080.95 585.4ZM1097.61 580H1093.32V565.3H1097.61V569.92C1098.09 567.46 1099.53 565 1102.35 565C1104.51 565 1105.71 566.38 1105.71 568.69C1105.71 570.28 1105.23 571.54 1104.87 572.11H1100.73C1101.27 571.57 1101.78 570.52 1101.78 569.68C1101.78 568.84 1101.39 568.21 1100.46 568.21C1098.99 568.21 1097.61 569.8 1097.61 572.23V580ZM1112.06 563.56H1107.77V559.9H1112.06V563.56ZM1112.06 580H1107.77V565.3H1112.06V580ZM1121.87 575.74C1120.58 575.74 1119.44 575.5 1118.48 575.05C1118.27 575.38 1118.09 575.83 1118.09 576.25C1118.09 576.94 1118.45 577.33 1119.62 577.33H1124.78C1128.05 577.33 1129.52 578.68 1129.52 580.84C1129.52 583.6 1126.85 585.88 1121 585.88C1116.47 585.88 1114.1 584.53 1114.1 582.79C1114.1 581.38 1115.57 580.66 1117.34 580.45C1116.11 580.18 1115.15 579.52 1115.15 578.23C1115.15 576.73 1116.47 575.5 1117.88 574.72C1116.35 573.79 1115.45 572.26 1115.45 570.37C1115.45 567.19 1118.03 565 1121.87 565C1122.74 565 1123.55 565.12 1124.3 565.33L1124.96 561.79L1128.77 563.08L1125.92 566.05C1127.42 567.01 1128.32 568.51 1128.32 570.37C1128.32 573.55 1125.71 575.74 1121.87 575.74ZM1121.87 572.86C1123.25 572.86 1124.3 572.02 1124.3 570.37C1124.3 568.72 1123.25 567.88 1121.87 567.88C1120.52 567.88 1119.44 568.72 1119.44 570.37C1119.44 572.02 1120.52 572.86 1121.87 572.86ZM1121.36 582.88C1124.33 582.88 1125.83 582.31 1125.83 581.35C1125.83 580.69 1125.29 580.48 1124.15 580.48H1117.94C1117.76 580.69 1117.55 580.99 1117.55 581.35C1117.55 582.31 1118.6 582.88 1121.36 582.88ZM1135.89 580H1131.6V559.9H1135.89V569.56C1136.37 567.16 1137.78 565 1140.81 565C1143.6 565 1145.31 566.71 1145.31 569.74V580H1141.02V571.24C1141.02 569.44 1140.54 568.33 1138.59 568.33C1136.55 568.33 1135.89 569.47 1135.89 571.87V580ZM1154.01 580.3C1150.77 580.3 1149.24 578.38 1149.24 575.65V568.57H1147.05V565.3H1149.24V563.56L1153.53 561.31V565.3H1157.61V568.57H1153.53V574.87C1153.53 576.07 1154.13 576.49 1154.97 576.49C1155.9 576.49 1156.71 575.74 1157.16 574.93L1158.39 578.44C1157.76 579.25 1156.26 580.3 1154.01 580.3Z" fill="black"/>
</svg>
