<?xml version="1.0" encoding="UTF-8"?>
<svg id="main-bigBall" xmlns="http://www.w3.org/2000/svg" viewBox="0 0 56.54 217.64">
  <defs>
    <style>
      .cls-1 {
        stroke-width: 1.82px;
      }

      .cls-1, .cls-2, .cls-3, .cls-4, .cls-5, .cls-6, .cls-7, .cls-8, .cls-9, .cls-10, .cls-11, .cls-12, .cls-13 {
        stroke-linecap: round;
        stroke-linejoin: round;
      }

      .cls-1, .cls-2, .cls-3, .cls-5, .cls-7, .cls-8, .cls-9, .cls-10, .cls-11, .cls-12 {
        fill: none;
      }

      .cls-1, .cls-2, .cls-4, .cls-6, .cls-13 {
        stroke: #000;
      }

      .cls-2, .cls-13 {
        stroke-width: 1.14px;
      }

      .cls-14 {
        fill: #ffec2d;
  animation: fillColorChang7 8s infinite alternate;
}

@keyframes fillColorChang7 {
  0%,
  100% {
    fill: #FFEC2D;
  }
  50% {
    fill: #FFAE00;
  }
}

      .cls-14, .cls-15 {
        stroke-width: 0px;
      }

      .cls-3 {
        stroke: #ff6a37;
      }

      .cls-3, .cls-11 {
        stroke-width: 2.28px;
      }

      .cls-15 {
        fill: #000;
      }

      .cls-4 {
        stroke-width: 1.61px;
      }

      .cls-4, .cls-6, .cls-13 {
        fill: #ff6a37;
  animation: fillColorChang2 .5s infinite alternate;
}

@keyframes fillColorChang2 {
  0% {
    fill: #FF6A37;
  }
  100% {
    fill: #FF97B5;
  }
}


      .cls-5 {
        stroke-width: 5.13px;
      }

      .cls-5, .cls-7, .cls-8, .cls-9, .cls-10, .cls-11, .cls-12 {
        stroke: #00d675;
      }

      .cls-6 {
        stroke-width: 1.37px;
      }

      .cls-7 {
        stroke-width: 4.28px;
      }

      .cls-8 {
        stroke-width: 4.44px;
      }

      .cls-9 {
        stroke-width: 2.26px;
      }

      .cls-10 {
        stroke-width: 4.37px;
      }

      .cls-12 {
        stroke-width: 4.4px;
      }
    </style>
  </defs>
  <path class="cls-14" d="M54.6,113.72l.04.05c.05-.18.08-.37.12-.55l.04-.11v-.03c1.21-5.26,1.4-10.66,1.41-16.14,0-2.36-.35-5.51-1.19-6.26-4.54-4.11-2.56-11.65-5.69-16.61-1.22-1.94-.2-6.26-.2-9.5v-17.25c-1.69-.81-3.39-1.47-5.09-2.02l.09-.81c-.05-4.57.12-9.1-.94-13.62-1.14-4.88-3.79-8.06-7.06-8.89v-.8s0,0,0,0c0-.45,0-.87-.02-1.27v-.11s0-.02,0-.02c-.12-1.95-.59-3.42-1.48-4.38l.22-1.54h0c1.01-4.69-.48-8.46-3.25-11.39-2.11-2.23-4.58-1.84-6.97-.09-3.57,2.61-5.13,6.91-4.29,11.62.51,2.89-.86,4.77-.7,7.18l-.37,1.41c-.55.14-1.09.29-1.64.48-4.43,1.62-6.07,3.13-6.39,7.65-.02,0-.03.02-.05.03h.05c-.06.81-.08,1.71-.06,2.73.07,3.67-.65,7.41.46,11.01l-.12,1.09c-1.29.28-2.59.56-3.88.85.02,1.45-.01,2.99-.07,4.58-.03,0-.06.01-.08.02h.08c-.27,7.89-1.14,17.07.57,23.9v.6c-.34.18-.7.35-1.05.56-1.42.84-3.13,1.97-2.82,3.33,1.68,7.38-3.03,13.05-2.76,20.13.25,6.68.98,13.31.91,20.07-.04,3.59,2.91,3.65,5.43,3.37.12.38.24.79.35,1.18l-.06-.02c.4,4.55-1.05,9.45,1.37,13.65-1.28,1.6-1.7,3.9-2.06,6.23-.03,0-.07.02-.1.02h.1c-.18,1.16-.35,2.33-.6,3.41.8,0,1.6,0,2.38,0l-.03.65h-.05c0,3.88-.21,10.39.08,14.23.18,2.43.73,4.69-.05,7.15-2.02,6.3-1.6,7.77,3.49,9.63.73.27,1.48.46,2.22.61l.26,1.4c-.43,4,.63,7.78,1.02,11.65.26,2.54,1.43,3.53,3.47,3.98,1.66.37,3.32.63,4.98.83h0s.04,1.58.04,1.58c.1,5.45-.46,10.97.78,16.4,4.54,1.56,8.88,1.56,13.43,0,.76-5.61,1.2-11.14.31-16.73l.36-1.53s.07,0,.11-.01c6.45-.93,7.5-2.55,7.5-10.99v-9.22c1.17-.34,2.34-.71,3.49-1.17,3.3-1.3,4.35-4.4,1.88-6.9-2.75-2.77-2.32-5.9-2.37-9.27-.05-3.24-.01-6.48-.01-9.71v-1.33c2.56-.35,4.29-3.38,2.78-6.92-2.98-6.98-.82-13.51-.78-20.24h0s.33-1.02.33-1.02c1.5-.09,2.85-.8,3.67-3.51-.47-.59-1.18-1.12-2.07-1.59l.53-1.7ZM7.77,53.92v-.18s0,.18,0,.18h0Z"/>
  <path class="cls-4" d="M24.64,109.26c14.81-3,11.26-19.95,2.33-24.81-7.67-4.18-15.82,5.89-12.97,16.01,1.36,4.82,4.82,8.04,10.04,8.8"/>
  <path class="cls-6" d="M34.06,148.09c4.43,20.83-20.18,21.33-17,0,5.66-.59,11.32-.24,17,0Z"/>
  <path class="cls-15" d="M25.17,149.38c.67.55,1.06,1.17.84,1.94-.15.32-.51.65-.58.97-.08.32.04.65.26.97.41.61.61,1.25.59,1.94-.1.65-.37,1.3-1.1,1.94-.07.06-.16.06-.23,0-.73-.65-1-1.3-1.1-1.94-.01-.69.18-1.34.59-1.94.21-.32.34-.65.26-.97-.07-.32-.43-.65-.58-.97-.22-.77.17-1.39.84-1.94.07-.05.16-.05.23,0h0Z"/>
  <path class="cls-15" d="M25.36,90.2c.49.94.62,1.85.03,2.65-.31.32-.86.55-1.08.9-.24.35-.25.78-.16,1.26.36,1.93-.33,3.53-2.33,4.37-.1.04-.21,0-.25-.1-.67-1.53-.61-2.7.27-3.85.36-.72,1.56-1.13,1.67-1.99.07-.41-.18-.95-.2-1.39.1-.99.81-1.57,1.8-1.94.1-.03.2.01.25.1h0Z"/>
  <path class="cls-13" d="M24.38,135.66c7.88-1.6,5.99-10.62,1.24-13.2-4.08-2.22-8.42,3.13-6.9,8.52.72,2.56,2.57,4.28,5.34,4.68"/>
  <path class="cls-15" d="M24.8,125.54c.42.49.73,1.11.31,1.52-.22.15-.64.22-.78.4-.15.17-.12.42,0,.7.52,1.18.04,2.02-1.42,2.26-.08.01-.16-.02-.21-.08-.92-1.15-.71-2.1.47-2.62.28-.13.47-.29.47-.52.01-.23-.25-.56-.31-.82-.04-.59.61-.84,1.25-.92.08,0,.16.03.21.08h0Z"/>
  <path class="cls-6" d="M24.5,71.03c11.13-2.25,8.47-15,1.76-18.66-5.77-3.14-11.9,4.43-9.75,12.04,1.02,3.62,3.63,6.04,7.55,6.62"/>
  <path class="cls-15" d="M25.05,56.7c.43.72.59,1.41.11,2.03-.25.23-.7.39-.88.65-.19.26-.18.59-.09.95.37,1.5-.18,2.7-1.81,3.26-.08.03-.17,0-.21-.08-.6-1.18-.61-2.06.1-2.93.27-.54,1.27-.81,1.33-1.47.05-.31-.18-.73-.21-1.07.06-.77.64-1.18,1.44-1.42.08-.02.17.01.21.08h0Z"/>
  <path class="cls-6" d="M24.45,42.49c9.77-1.98,7.43-13.17,1.54-16.37-5.06-2.75-10.44,3.89-8.56,10.57.9,3.18,3.18,5.3,6.63,5.81"/>
  <path class="cls-15" d="M24.95,29.93c.43.63.65,1.28.2,1.81-.24.2-.67.32-.84.55-.17.22-.16.52-.05.85.2.61.2,1.18-.03,1.73-.29.47-.74.87-1.61,1.12-.08.02-.17-.01-.21-.08-.48-.77-.54-1.37-.44-1.91.2-.56.58-.98,1.14-1.3.3-.18.51-.38.53-.66.03-.28-.21-.66-.25-.97.02-.7.62-1.03,1.36-1.21.08-.02.16.02.21.08h0Z"/>
  <path class="cls-3" d="M22.5,13.99c-.81-2.36-.6-4.46.81-6.28,1.42-1.82,3.82-2.25,5.51-.88,1.69,1.38,2.42,4.48,1.52,6.79"/>
  <path class="cls-15" d="M24.91,13.45c-.94-.79-.71-2.32.25-2.99.98-1.01,2.42-.87,2.99.47.28.74.21,1.61-.28,2.19-.03.03-.08.01-.08-.03-.04-1.26-.98-3.66-2.43-2.44-.36.7-.35,1.86-.37,2.75,0,.04-.05.07-.08.04h0Z"/>
  <path class="cls-9" d="M19.32,19.67c4.84-2.09,10.31-2.29,15.26-.55"/>
  <path class="cls-11" d="M11.57,28.45c7.7-5.88,18.85-5.54,27.31-3.53"/>
  <path class="cls-2" d="M10.61,30.73c4.04-2.58,8.21-5.21,12.71-5.6,3.06-.27,6.11.52,9.17.6,1.58.04,3.18-.12,4.75.15s3.16,1,4.23,2.52"/>
  <path class="cls-15" d="M39.09,26.6c.79,2.07.9,4.23.82,6.4.33,3.48,1.17,7.5.07,10.75-.64-3.57-.18-7.14-.35-10.72-.42-2.12-.79-4.21-.63-6.41,0-.04.07-.06.08-.01h0Z"/>
  <path class="cls-15" d="M35.96,26.08c.7,2.06.7,4.18.53,6.3.18,3.43.85,7.4-.37,10.53-.5-3.53.1-7,.09-10.52-.33-2.1-.6-4.16-.34-6.31,0-.04.07-.05.08,0h0Z"/>
  <path class="cls-2" d="M7.06,53.95c24.29-5.24,33.11-1.25,41.37.67"/>
  <path class="cls-15" d="M44.69,53.86c.45,2.56.29,5.11.01,7.66.03,4.25.65,8.64-.29,12.81-.8-4.22-.13-8.55,0-12.81-.15-2.47-.46-5.43.26-7.66h0Z"/>
  <path class="cls-15" d="M40.95,53.35c.47,2.52.32,5.03.06,7.55.06,4.19.7,8.51-.21,12.61-.83-4.15-.18-8.42-.07-12.62-.17-2.43-.5-5.35.22-7.55h0Z"/>
  <path class="cls-15" d="M38,52.63c.45,2.53.27,5.03-.01,7.55.02,4.19.62,8.51-.32,12.61-.79-4.16-.11-8.42.05-12.62-.14-2.43-.45-5.36.29-7.55h0Z"/>
  <path class="cls-12" d="M8.37,50.42c6.39-1.36,12.8-2.69,19.26-3.02s13,.36,19.19,2.97"/>
  <path class="cls-5" d="M5.58,81.28c14.15-4.02,28.6-4.31,42.8-.86"/>
  <path class="cls-15" d="M52.39,88.85c.68,3.12.61,6.3.3,9.45-.01,5.24.16,10.71-1.53,15.7-.02-5.24,1.06-10.46,1.26-15.71-.12-3.07-.54-6.58-.03-9.44h0Z"/>
  <path class="cls-15" d="M49.45,86.38c.65,3.34.51,6.72.1,10.06-.15,5.6-.35,11.28-2.28,16.6-.01.05-.09.03-.08-.02.36-3.87,1.2-9.38,1.78-13.27.76-4.36-.28-9.22.49-13.38h0Z"/>
  <path class="cls-15" d="M46.44,85.76c.51,3.31.33,6.63-.04,9.93-.12,5.51.1,11.21-1.41,16.53-.21-5.52.84-11.02,1.14-16.54-.05-3.23-.35-6.93.32-9.92h0Z"/>
  <path class="cls-15" d="M43.01,84.42c.74,3.42.73,6.9.47,10.35.07,5.75.32,11.71-1.33,17.25-.08-5.75.94-11.49,1.05-17.25-.16-3.37-.65-7.19-.19-10.35h0Z"/>
  <path class="cls-15" d="M40.46,84.72c.42,3.4.3,6.81-.1,10.2-.21,3.4.04,6.81-.22,10.2-.15,2.27-.41,4.54-.8,6.79-.02.09-.1.16-.2.14-.09-.02-.15-.1-.14-.2.06-.41.12-.82.19-1.23,0-.02.03-.04.05-.03.12.38.05.87.1,1.28,0,0-.34-.02-.34-.02,0-2.27.08-4.53.23-6.79.19-3.39.78-6.76.81-10.16-.09-2.87-.24-7.63.41-10.18h0Z"/>
  <path class="cls-8" d="M3.85,120.81c16.24-4.42,32.96-5.57,49.44-3.42"/>
  <path class="cls-15" d="M48.79,120.49c.48,2.23.34,4.45.1,6.68.08,3.71.74,7.55-.15,11.17-.84-3.67-.23-7.45-.13-11.17-.18-2.14-.52-4.77.18-6.68h0Z"/>
  <path class="cls-15" d="M46.21,120.75c.48,2.22.34,4.43.1,6.65.08,3.69.74,7.51-.15,11.12-.84-3.65-.23-7.42-.13-11.12-.18-2.13-.52-4.75.18-6.65h0Z"/>
  <path class="cls-15" d="M43.89,120.49c.48,2.19.34,4.38.1,6.57.08,3.64.74,7.42-.15,10.98-.84-3.61-.23-7.32-.13-10.98-.18-2.1-.52-4.69.18-6.57h0Z"/>
  <path class="cls-15" d="M41.25,120.75c.48,2.04.34,4.07.1,6.11.08,3.39.74,6.92-.15,10.22-.84-3.35-.23-6.82-.13-10.22-.25-2.04-.39-4.07.1-6.11,0-.04.08-.05.09,0h0Z"/>
  <path class="cls-15" d="M38.47,121c.48,1.94.34,3.87.1,5.82.08,3.23.74,6.59-.15,9.73-.84-3.19-.23-6.49-.13-9.73-.25-1.94-.39-3.87.1-5.82,0-.04.08-.05.09,0h0Z"/>
  <path class="cls-7" d="M8.31,143.84c14.12-3.44,28.75-3.41,42.86.08"/>
  <path class="cls-15" d="M46.46,148.7s-.08.16-.04.06c.47,2.54.31,5.07.07,7.61.06,4.15.8,8.79-.18,12.69-.75-4.22-.23-8.45-.09-12.69-.24-2.55-.39-5.09.08-7.63,0,0,0-.01,0-.02l.08-.07s.09.01.07.05h0Z"/>
  <path class="cls-15" d="M43.42,148.27s-.08.16-.04.06c.47,2.69.31,5.38.08,8.07.06,4.4.8,9.29-.18,13.44-.75-4.48-.23-8.95-.09-13.44-.24-2.7-.39-5.39.08-8.09,0,0,0-.01,0-.02l.08-.07s.09.01.07.05h0Z"/>
  <path class="cls-15" d="M40.52,148.51c.34,2.68.29,5.49.02,8.23.09,4.25.79,8.99-.18,13.01-.73-4.34-.26-8.67-.09-13.01-.19-2.6-.42-5.21.02-7.81.04-.15.14-.59.22-.42h0Z"/>
  <path class="cls-15" d="M37.61,148.07c.48,2.79.34,5.57.1,8.35.08,4.64.74,9.39-.14,13.96-.85-4.6-.22-9.31-.13-13.96-.18-2.7-.53-5.89.18-8.35h0Z"/>
  <path class="cls-10" d="M9.56,172.58c3.3,1.86,6.93,2.06,10.49,2.21,5.41.23,10.83.39,16.24-.01,4.81-.35,9.83-1.27,13.78-5.14"/>
  <path class="cls-15" d="M43.83,178.14c.48,2.21.34,4.41.1,6.62.08,3.67.74,7.47-.15,11.06-.84-3.63-.23-7.38-.13-11.06-.18-2.12-.52-4.72.18-6.62h0Z"/>
  <path class="cls-15" d="M40.59,179.33c.48,2.18.34,4.35.1,6.52.08,3.62.74,7.37-.15,10.91-.84-3.58-.23-7.28-.13-10.91-.18-2.09-.52-4.66.18-6.52h0Z"/>
  <path class="cls-15" d="M37.21,179.76c.48,2.16.34,4.3.1,6.46.08,3.58.74,7.3-.15,10.8-.84-3.54-.23-7.2-.13-10.8-.25-2.15-.39-4.3.1-6.46,0-.04.08-.05.09,0h0Z"/>
  <path class="cls-15" d="M33.58,179.93c.48,2.22.34,4.44.1,6.66.08,3.69.74,7.52-.15,11.13-.84-3.66-.23-7.43-.13-11.13-.18-2.13-.52-4.75.18-6.66h0Z"/>
  <path class="cls-15" d="M30.4,179.51c.48,2.27.34,4.54.1,6.81.08,3.78.74,7.69-.15,11.39-.84-3.74-.22-7.59-.13-11.39-.18-2.19-.52-4.85.18-6.81h0Z"/>
  <path class="cls-15" d="M26.76,179.96l-.05.1v-.04c.48,2.26.32,4.5.08,6.75.06,3.67.8,7.83-.18,11.25-.75-3.74-.23-7.49-.09-11.25-.24-2.26-.39-4.51.08-6.78,0,0,0-.01,0-.02l.08-.07s.09.01.07.05h0Z"/>
  <path class="cls-15" d="M23.13,180.12v.27s-.01-.02-.01-.02c.44,2.07.24,4.16.03,6.23.09,3.38.78,7.25-.18,10.39-.73-3.45-.25-6.92-.09-10.39-.21-2.08-.41-4.18.04-6.26,0,0,.13-.24.13-.24.02-.04.09-.03.08.02h0Z"/>
  <path class="cls-15" d="M19.62,180.7c.48,1.98.34,3.94.1,5.91.08,3.28.74,6.69-.15,9.89-.84-3.24-.23-6.59-.13-9.89-.25-1.97-.39-3.94.1-5.91,0-.04.08-.05.09,0h0Z"/>
  <path class="cls-15" d="M16.91,180.62c.48,1.85.35,3.68.1,5.52.08,3.06.74,6.27-.15,9.24-.84-3.03-.23-6.16-.13-9.24-.25-1.84-.39-3.68.1-5.52,0-.04.08-.04.09,0h0Z"/>
  <path class="cls-15" d="M24.21,200.9c1.77-.51,3.53-.4,5.31-.17,2.94-.13,6.02-.83,8.88.02-2.89.88-5.92.31-8.88.26-1.77.28-3.53.44-5.31-.02-.04,0-.05-.08,0-.09h0Z"/>
  <path class="cls-15" d="M24.28,204.36c1.83-.5,3.65-.37,5.48-.14,3.04-.11,6.21-.79,9.17.08-3,.86-6.11.28-9.17.2-1.83.26-3.65.41-5.48-.05-.04,0-.05-.08,0-.09h0Z"/>
  <path class="cls-15" d="M24.28,207.92c1.8-.45,3.58-.29,5.36,0,2.97-.03,6.09-.64,8.96.3-2.95.79-5.98.13-8.96-.02-1.79.22-3.57.33-5.36-.19-.04,0-.04-.08,0-.09h0Z"/>
  <path class="cls-15" d="M24.61,211.54c1.72-.43,3.4-.24,5.09.07,2.82,0,5.8-.56,8.5.42-2.81.75-5.68.05-8.51-.14-1.7.2-3.4.28-5.08-.26-.04-.01-.04-.08,0-.09h0Z"/>
  <path class="cls-1" d="M7.56,124.13c.4,4.55-1.05,9.45,1.37,13.65,12.15-1.34,24.16-3.19,36.15.5,1.72.53,3.71.54,5.48-.56"/>
  <path class="cls-1" d="M48.56,75.56c-8.97-1.44-17.86-4.13-27-3.24-5.13.5-10.22.91-15.05,3.75-1.42.84-3.13,1.97-2.82,3.33,1.68,7.38-3.03,13.05-2.76,20.13.25,6.68.98,13.31.91,20.07-.04,4.24,4.06,3.56,6.72,3.21,13.13-1.75,26.29-2.77,39.5-2.58,2.75.04,5.99,1.72,7.5-3.22-4.84-6.05-33.39-6.05-52.5,0"/>
  <path class="cls-1" d="M8.92,137.78c-1.92,2.4-1.91,6.4-2.67,9.66,6.79,0,12.8.04,18.8,0,7.85-.06,15.68.26,23.5,1.27,3.07.4,5.48-2.94,3.77-6.93-2.98-6.98-.82-13.51-.78-20.24"/>
  <path class="cls-1" d="M51.06,85.92c-15.5-2.98-31-3.52-46.5,0"/>
  <path class="cls-1" d="M50.06,167.52c-4.27,2.68-9,2.63-13.51,3.07-6.79.66-13.66.05-20.49.24-2.37.06-4.26-1.75-6.5-2.01"/>
  <path class="cls-1" d="M38.56,198.6c.93,5.67.49,11.27-.28,16.95-4.55,1.56-8.88,1.56-13.43,0-1.28-5.61-.64-11.32-.79-16.95"/>
  <path class="cls-1" d="M54.06,113.77c1.36-5.48,1.56-11.12,1.57-16.84,0-2.36-.35-5.51-1.19-6.26-4.54-4.11-2.56-11.65-5.69-16.61-1.22-1.94-.2-6.26-.2-9.5v-17.25c-13.71-6.57-27.6-4.06-41.5-.89"/>
  <path class="cls-1" d="M49.56,150.03c0,3.24-.04,6.48.01,9.71.05,3.36-.38,6.49,2.37,9.27,2.47,2.49,1.41,5.6-1.88,6.9-7.82,3.07-15.96,3.19-24,3.79-4.63.35-9.42,1.07-13.98-.6-5.09-1.87-5.52-3.33-3.49-9.63.79-2.45.24-4.72.05-7.15-.29-3.85-.08-10.35-.08-14.24"/>
  <path class="cls-1" d="M34.06,14.69c1.39-5.08-.11-9.13-3.04-12.24-2.11-2.23-4.58-1.84-6.97-.09-3.57,2.61-5.13,6.91-4.29,11.62.51,2.89-.86,4.77-.7,7.18"/>
  <path class="cls-1" d="M43.56,44.48c-.05-4.57.12-9.1-.94-13.62-1.42-6.07-5.17-9.52-9.56-9.08-5.33.53-10.71-.65-16.01,1.28-5.23,1.91-6.58,3.65-6.45,10.41.07,3.67-.65,7.41.46,11.01"/>
  <path class="cls-1" d="M7.06,46.42c.12,8.67-1.55,20.28.5,28.49"/>
  <path class="cls-1" d="M46.56,178.53v7.77c0,8.44-1.06,10.06-7.5,10.99-6.68.96-13.34.93-20.01-.54-2.04-.45-3.21-1.44-3.47-3.98-.39-3.88-1.45-7.66-1.02-11.65"/>
  <path class="cls-1" d="M35.56,21.16c.1-4.88-1.58-7.3-5.5-7.17-3.25.11-6.52-.23-9.5,1.99"/>
</svg>