<?xml version="1.0" encoding="UTF-8"?>
<svg id="_레이어_1" data-name="레이어 1" xmlns="http://www.w3.org/2000/svg" xmlns:xlink="http://www.w3.org/1999/xlink" viewBox="0 0 1920 1080">
  <defs>
    <style>
      .cls-1 {
        clip-path: url(#clippath);
      }

      .cls-2 {
        fill: #ffec2d;
        z-index: 0; 
        position: relative; 
      animation: rotate 11s infinite linear ,fillColorChang22 .5s infinite alternate;
      transform-origin: center;
    }

    @keyframes rotate {
      0% {
        transform: rotate(0deg);
      }
      100% {
        transform: rotate(360deg);
      }
    }


@keyframes fillColorChang22 {
  0% {
    fill: #FFEC2D;
  }
  100% {
    fill: #FFAE00;
  }
}

      .cls-2, .cls-3, .cls-4, .cls-5, .cls-6, .cls-7, .cls-8 {
        stroke: #000;
        stroke-linecap: round;
        stroke-linejoin: round;
      }

      .cls-2, .cls-3, .cls-4, .cls-5, .cls-6, .cls-8 {
        stroke-width: 1.5px;
      }

      .cls-3 {
        fill: #00d675;
    animation:bounce3 1s ease-in-out infinite;
  }

  @keyframes bounce3 {
    0%, 100% {
      transform: translateX(0);
    }
    50% {
      transform: translateX(4px);
    }
  }

      .cls-4, .cls-9 {
        fill: #ff6a37;
      }

      .cls-10 {
        clip-path: url(#clippath-1);
      }

      .cls-11 {
        fill: #000;
        stroke-width: 0px;
      }

      .cls-5, .cls-7 {
        fill: none;
      }

      .cls-6 {
        fill: #ff97b5;
    animation: fillColorChange31 4s ease-in-out infinite;
  }

  @keyframes fillColorChange31 {
    0% {
      fill: #FF97B5;
    }
    100% {
      fill: #d793ff;
    }
  }

      .cls-7 {
        stroke-width: .75px;
      }

      .cls-8 {
        fill: #d793ff;
    animation: fillColorChange 4s ease-in-out infinite, bounce 1s ease-in-out infinite;
  }

  @keyframes fillColorChange {
    0% {
      fill: #d793ff;
    }
    33% {
      fill: #FFEC2D;
    }
    66% {
      fill: #00D675;
    }
    100% {
      fill: #d793ff;
    }
  }

  @keyframes bounce {
    0%, 100% {
      transform: translateY(0);
    }
    50% {
      transform: translateY(-10px);
    }
  }

    </style>
    <clipPath id="clippath">
      <path class="cls-4" d="M1556.97,277.7c-6.14,4.13-7.36,8.31-3.5,11.89,1.62,1.51,3.51,3.25,5.95,2.44,2.96-.99,5.58-2.82,6.02-5.84.56-3.9-1.78-9.13-7.97-8.49"/>
    </clipPath>
    <clipPath id="clippath-1">
      <path class="cls-4" d="M1276.5,571c-4.39.66-6.59,3.68-7.99,7.5-1.15,3.13-.41,5.57,2.46,7.54,2.81,1.93,5.39,2.12,8.03-.05,6.72-5.54,5.88-11.78-1.99-14.99"/>
    </clipPath>
  </defs>
  <path class="cls-8" d="M1140.5,585.5c1.44,4.26,5.04,5.97,9.5,4.5,3.39-1.12,6.94-5.71,5.96-7.98-1.66-3.85-5.82-6.34-9.98-5.05-4.06,1.26-4.34,4.9-5.49,8.04"/>
  <path class="cls-8" d="M1491.19,614.1c.7,3.03,1.35,5.92,5.5,6.06,3.36.12,5.94-1.14,6.88-4.1.97-3.06,1.32-6.44-1.85-8.99-3.35-2.69-7.84-1.47-9.61,2.49-.61,1.37.27,2.92-.91,4.04"/>
  <path class="cls-8" d="M401.59,90.23c.7,3.03,1.35,5.92,5.5,6.06,3.36.12,5.94-1.14,6.88-4.1.97-3.06,1.32-6.44-1.85-8.99-3.35-2.69-7.84-1.47-9.61,2.49-.61,1.37.27,2.92-.91,4.04"/>
  <path class="cls-8" d="M682.19,802.77c1.95,5.79,5.79,7.81,10.03,5.55,2.77-1.48,3.79-3.49,3.51-6.55-.31-3.51-3.05-4.64-5.57-5.38-2.95-.87-5.49.53-6.95,3.39-.41.79-.68,1.66-1.01,2.49v.5Z"/>
  <path class="cls-3" d="M1198.98,857.03c1.26,3.31,4.12,4.11,6.96,3.36,2.53-.67,5.37-1.84,5.54-5.36.17-3.52-1.62-5.9-4.52-7.47-2.64-1.43-5.18-.17-6.49,2.97-.81,1.93-1.08,3.93-.99,6l-.5.5Z"/>
  <g>
    <path class="cls-9" d="M1556.97,277.7c-6.14,4.13-7.36,8.31-3.5,11.89,1.62,1.51,3.51,3.25,5.95,2.44,2.96-.99,5.58-2.82,6.02-5.84.56-3.9-1.78-9.13-7.97-8.49"/>
    <g class="cls-1">
      <g>
        <path class="cls-11" d="M1556.04,281.97s0,.07.02.06l.02-.08-.04.02Z"/>
        <path class="cls-11" d="M1556.18,282.12s.06-.11.04-.19c-.03.08-.03.05-.06.14-.02,0-.04-.03-.03-.06,0,.02-.03-.02-.05.03.03.06.06.07.1.02,0,.02,0,.04,0,.05Z"/>
        <path class="cls-11" d="M1558.4,281.72h-.02s.01,0,.02,0Z"/>
        <path class="cls-11" d="M1559.43,280.68s0,.02,0,.02c0-.01,0-.02,0-.02Z"/>
        <path class="cls-11" d="M1559.61,280.48h-.01s.02,0,.01,0Z"/>
        <path class="cls-11" d="M1558.4,281.72h.05s-.03,0-.05,0Z"/>
        <path class="cls-11" d="M1556.49,281.92s-.01.01-.02.02h.02s0-.02,0-.02Z"/>
        <path class="cls-11" d="M1557.85,282.06h-.01s0,.03,0,.04v-.04Z"/>
        <path class="cls-11" d="M1557.38,282.21s0-.07,0-.1c0,.03,0,.04-.01.05,0,.01,0,.03.02.05Z"/>
        <path class="cls-11" d="M1556.6,282.2h-.01s.01,0,.01,0Z"/>
        <path class="cls-11" d="M1558.19,281.93s.01.02.02.02l-.02-.02Z"/>
        <path class="cls-11" d="M1555.52,281.75s0,.01,0,.01c0,0,0-.01,0-.01Z"/>
        <polygon class="cls-11" points="1556.02 282.15 1556.01 282.15 1556.01 282.19 1556.02 282.15"/>
        <path class="cls-11" d="M1559.83,280.03h0s0,0,0,0Z"/>
        <path class="cls-11" d="M1556.68,277.87c.06.05-.06.1.03.15-.01-.03.04-.12-.03-.15Z"/>
        <path class="cls-11" d="M1556.5,281.93h.02s-.01,0-.02,0Z"/>
        <polygon class="cls-11" points="1556.7 278.02 1556.7 278.02 1556.71 278.03 1556.7 278.02"/>
        <path class="cls-11" d="M1559.65,278.87s-.02.02-.02.02c0,0,.01,0,.02-.02Z"/>
        <path class="cls-11" d="M1559.72,279.73v-.02s0,.01,0,.02Z"/>
        <path class="cls-11" d="M1559.33,278.53s0-.02-.02-.03h0s.02.01.02.03Z"/>
        <path class="cls-11" d="M1558.99,278.23v.02s.01,0,.01,0v-.02Z"/>
        <path class="cls-11" d="M1554.35,281.54s0,.04,0,.07c0-.05.07-.05,0-.07Z"/>
        <path class="cls-11" d="M1556.49,281.96s0-.03.01-.03c0,0,0,0-.01,0,0,.01,0,.02,0,.03Z"/>
        <path class="cls-11" d="M1558.9,278.88s-.01-.03-.02-.04c0,.01.01.03.02.04Z"/>
        <path class="cls-11" d="M1554.64,279.7v.02s0,0,0-.02Z"/>
        <path class="cls-11" d="M1558.76,278.75s0-.04,0-.06c0,0,0,0-.02.01v.04Z"/>
        <path class="cls-11" d="M1554.79,281.54c-.06-.02-.05.08-.07.13-.08,0-.02-.07-.03-.13-.05.01-.1.09-.13.08,0-.02,0-.02,0-.04-.06.06-.14-.03-.21.05v-.02s-.01.09-.02.12c-.03,0-.06.04-.06-.02.02,0,.02-.02.04-.03l-.03.02c0-.09.05-.02.06-.08-.06.01-.14.07-.18.03.01-.08.1,0,.07-.09l.06.05c-.01-.14.04.02.03-.13-.08-.05-.11.02-.18-.03-.02.04-.02.07-.04.11-.11.06.05-.21-.03-.11-.04.04-.14.14-.11.07l.09-.07s-.13.08-.07,0c.04-.01.03,0,.04,0,.07-.06-.05.02-.06,0l.08-.03s-.1-.1-.11-.18c.02,0,.05.02.08,0-.03-.11.02-.23.08-.32l-.06-.05s.04-.01.05,0c.04-.03-.05-.01-.07-.04,0-.02.05-.02.07,0-.04-.08-.08-.24.02-.29v.02c.07-.04-.1-.12,0-.15v.02c.09-.11.09-.28.25-.31-.08-.07.11-.09,0-.18.11-.02.1,0,.22-.05.02-.02-.04-.09-.03-.13l.06.05-.03-.09.09.04v-.04s-.04,0-.05-.02c0-.06.13-.06.15-.04,0-.05.03-.09.04-.14.02.02.01.05.01.07,0-.1.07.05.06-.04-.02,0-.03-.04-.04-.05.06.01.11-.03.13-.08l.03.05c.08-.05.13-.15.22-.21-.05,0-.1-.07-.07-.1l.06.06c-.01-.05-.05,0-.05-.08.04-.02.08.06.08.09l.02-.05s.02.03.03.06c-.01-.05.11.02.09-.07l.02.02c.08-.06.11-.11.18-.16-.04-.06,0-.06,0-.13.07-.01.16,0,.22-.05.03-.06-.01-.06-.01-.11.03.05.1.02.09.07.08-.05.1-.06.19-.16-.02-.02-.04-.02-.04-.05.02-.02.06,0,.07.03h0c.08-.15.35.07.4-.09h0s.08-.09.08-.09c.05,0-.01.06.03.08.08-.14.18-.03.26-.12.11.16.25-.07.37.04v-.04s.02.02.04.03c0-.03-.03-.04-.02-.06.21-.09.45.03.65.09.07.02.07-.22.16-.1l-.04.08c.18-.09.3.07.47.03-.02.02-.02.04-.04.03.01.06.1.04.13,0,.02.01-.01.04-.01.07.01.04.1-.04.09.02,0,.01-.02.01-.02.01.03-.02.07.05.09-.02.03.05.1.03.11.09.07-.04.05.08.12,0-.08.08,0,.13.06.12-.03.01,0,.05-.05.07.02.03.06.04.1,0-.07.13.17.06.04.18.1.07.18.16.23.26-.11.02-.04-.11-.15-.07.07.07.18.11.17.22-.01.03-.05,0-.07-.01.06.09,0,.19.06.28-.01,0-.02-.01-.03-.02,0,.02-.02.04.03.04v-.02c.06-.03.14.09.18.1-.14-.05-.05.09-.23.02,0,.01.03.03.06.03-.01.02-.03.02-.07,0,.02.07.08.06.06.12-.02,0-.03-.02-.06-.03.04.04.08.08.05.13-.01,0-.03,0-.03-.02-.01.09.08.19,0,.27-.09-.07-.05.02-.13-.01v.06s.06,0,.06,0c-.02.04.02.11-.02.13l-.02-.05-.02.09.05-.03c.02.07.11.05.06.09,0-.02-.02.04-.08.04h0s.03.07-.01.09c-.03,0-.08-.06-.1-.07.05.06-.04.1.01.18-.01-.02-.05-.05-.06-.05l.04.05s-.04,0-.07-.02c-.05.04.11.05.02.09,0,0,0-.01,0-.03-.07.04-.06.15-.14.18-.08-.05.03-.06-.05-.1-.06.08-.07.24-.17.28h.02c.07.11-.1,0-.1.08,0-.02-.03-.07-.03-.06-.07.03-.1.11-.16.21v-.04c-.06,0-.11.04-.16.05,0,.04-.02.04.02.08-.21-.11-.2.22-.38.11.01,0,.02-.04.01-.04l-.09.07c.03.05.02.03.06.06,0,.04-.02.07-.05.08.03-.05-.03-.09-.06-.11,0,.02,0,.04.02.05-.09-.08.03.11-.07.07v-.03s-.04.07-.08.07c-.03-.06.02-.04,0-.09-.04.02-.05.15-.1.09.01-.02.04-.03.05-.05-.06-.06-.06-.04-.1-.05h0s-.08-.02-.08-.02l.02.02c-.01.18-.1.06-.15.18.05-.12,0-.06-.01-.14-.02-.02-.05-.04-.05-.06-.02.07-.06-.04-.1.06,0-.02-.04,0-.04-.06-.04.03.02.04.02.07-.06.1-.17-.08-.26.05-.08.06-.09.14-.17.18-.03-.04.02-.09.02-.09-.05-.03-.08-.02-.12,0,0-.02,0-.04-.02-.07-.03,0-.02.09-.06.05,0-.03.02-.07.03-.1-.04.02-.07.07-.11.09-.01-.04.02-.06.04-.09-.04.02-.11.04-.13.11l.03.02s0-.06,0-.07c.04-.05.06.02.06.05l-.03.02c.03.14.12-.02.17-.02l-.02.1.06-.09s.03.08,0,.1c.05.05.04-.04.08.02,0,0,0,.01,0,.02l.04-.03s.01.07-.01.06c.08.05.11-.09.15-.01h0c.1-.04,0-.07.07-.17l.08.18v-.08s.03,0,.03.04c.03-.06-.01-.03,0-.08.06.06.13-.06.17.06,0-.06-.06-.04,0-.08.04.13.06-.03.12.02,0,.07-.05.04,0,.09,0-.12.1,0,.13-.03-.02-.09.08-.06.13-.1,0,.03.14.01.21.02v.02c-.01-.09.05-.09.09-.13.02.05.02.08,0,.11l.04-.02s0-.05.03-.07v.07c.07-.03.1-.12.19-.11-.02-.06-.13-.14-.07-.21.02.03.04.08.03.1,0,0,.01-.04.03-.03v.07s0-.05.02-.06c.02.04.03.02.05.06,0,0-.03,0-.03.01.03,0,.08,0,.11.03-.02-.02-.03-.06-.01-.08.05-.03.05.04.09.05,0-.04.05-.03.01-.09.02,0,.03.02.05.03.01-.04.12-.08.05-.13h0s0,0,0,0h0s0,0,0,0c.05-.11.2-.08.26-.16l.02.02c.03-.06.09-.1.09-.17.01-.01.06,0,.08.03.02-.04,0-.07.08-.09,0,.06.04.02-.01.06.06-.03.1-.01.09-.11.03.06.09.02.1-.01h-.06s.04-.05.06-.07l.05.07c.16-.04.01-.28.2-.27-.03-.06-.07.04-.11-.03.04-.04.17-.03.19-.05.09-.05-.06-.13,0-.18-.03,0-.1-.03-.1-.1.03-.04.14,0,.15.04,0,.01-.02.02-.02.01,0,.02,0,.05.04.04l-.02-.02s.07-.09.11-.05c0-.05-.04-.04-.06-.01.07-.05.05-.11.11-.17-.02,0-.06,0-.05,0,.08-.09-.03-.07-.02-.14.06-.03.1.05.08-.04.04-.04.08.01.1.04-.03-.09.08-.12.09-.16v.04s.01-.05.02-.07h-.06s.02-.03.04-.02c-.03-.03-.1,0-.14-.06.04-.02-.01-.09.06-.09-.04.09.08,0,.08.09,0-.02,0-.04.01-.06,0,0,.02,0,.02.01.08-.08-.08-.06-.07-.15.04.02.09-.01.08-.03,0,.04-.07.01-.11-.03.04-.06-.02-.07-.02-.1l-.02.03s-.04-.04-.05-.08c.03,0,.02.04.04.02-.07-.04.08-.1.02-.17.03-.03.08,0,.1-.04-.06-.07.05-.09,0-.17-.06.03-.04.03-.11-.01l.06.12-.1-.07s.05.07.04.1c-.05-.03-.04-.03-.08,0,.08-.06-.06-.09-.01-.16l.15-.03c.04-.11-.11-.15-.12-.27v.04c-.07,0-.04-.07-.08-.09.05-.02.05-.04.07-.07-.03.02-.04-.08-.13-.05l.03-.08c-.03-.1-.18-.02-.21-.1.06,0,.06-.07.13-.04-.02-.03-.03-.05-.06-.03.01-.03-.11-.03-.09-.08-.02,0-.06.03-.08,0,0,0,.02-.02.02-.02-.02.02-.06-.01-.08.04.05-.18-.19-.16-.18-.31-.07-.02-.14-.05-.19-.07.01-.01.01-.02.02-.01-.05-.08-.11.11-.17.02,0-.09.06-.02.05-.06.05-.16-.11-.03-.13-.13h.02c-.03-.07-.13.02-.2-.01,0,0,0-.01,0-.02-.07.07-.17.06-.25.07.03-.06.04-.03.04-.09-.03,0-.01.1-.08.11-.01-.04-.05-.07-.05-.14h.06c-.02-.09-.08,0-.11-.02v-.04c-.09,0-.1.1-.2.08v.03c-.05.09-.03-.06-.09.01v-.1c-.05.02-.14.1-.2.11.03-.07.11-.11.16-.15-.04,0-.12,0-.14.06.01,0,.03-.03.05-.02-.04.08-.1.12-.17.11,0-.2-.18-.03-.25-.17-.12.09-.26,0-.4.05.08.13-.04.01,0,.16-.03.02-.04.02-.05,0l-.12-.06s.02-.04.01-.07c-.08,0-.05-.06-.11-.08.02.05,0,.08-.05.07l.08.05c-.08.1-.13-.1-.2,0l.02-.06s-.19.07-.2.2c-.02-.01-.04-.05-.02-.07-.13.02-.22.22-.34.2v-.04s-.02.08-.06.06c0-.01,0-.04-.02-.04,0,.02-.03.09-.07.08v-.05c-.13,0-.12.18-.2.25-.05-.1-.16-.08-.21-.06h0c-.14.05-.17.19-.25.31-.14-.04-.27.12-.41.17.03,0,.05.07.04.09-.04,0-.01.12-.08.04h0c-.08-.06-.12,0-.16.04l.09.1c-.24-.05-.18.31-.36.25,0,.05-.02.08-.02.12l-.05-.04c-.07.06-.1.1-.15.21l-.03-.05c-.04.05.13.18.1.23l-.1-.04c-.06.09-.19.16-.15.31-.01,0-.04-.02-.04-.04-.02.05-.15.17,0,.2-.09-.03-.05.11-.02.18l-.06-.03c.07.08.1.08.1.16-.01.01-.06,0-.03-.02-.05.05.05.06,0,.11l-.04-.03c-.02.06,0,.06.05.1.01.04-.03.1-.1.1.04.01.09.05.07.08-.02,0-.04-.01-.04-.02-.05.1.07.15,0,.21-.02,0-.03,0-.04.01,0-.08.01-.14.02-.13-.06,0-.08.06-.16,0,.04.06.15.15.11.21,0,0-.01,0-.02,0h0s0,.02.01.03c0,.02-.01.03-.01.05-.05.01-.02.08-.02.11.07-.01.07.05.12-.01,0,0,0,0-.02-.03h0s0-.01,0-.01c0-.02,0-.05-.02-.08.04.02.07.04.04.08.05.01.1.02.12.03-.09.06-.12.2-.18.25.04.06.03.16.09.19.09,0,.18,0,.25-.05.04,0,.02.04.02.07-.03,0-.05,0-.07.01.09-.01.21.04.25-.04.05.06-.06.07.03.08l-.02.02c.13.19.33-.16.46.07,0-.01-.02-.02-.01-.04.19.13.45.02.63.19.06.04.07-.02.12-.06v.08l.08-.08c.1-.05.13.21.26.1v-.05s.12-.01.11.04c0,0,.02-.05.03-.02v.04s.1-.06.1-.06c.08.04-.03.16.09.17.04-.01.13-.11.12-.13-.02,0-.04-.03-.04-.07l.04-.02c.01-.12.05-.23-.04-.32l-.07.07-.02-.06h.05c-.03-.05-.05,0-.07.02,0-.03,0-.05-.02-.06l-.07.1s.04-.09,0-.12c-.03.05.02.1-.03.13-.02-.06-.01-.1-.05-.06,0-.03,0-.05.02-.06-.04.03-.08,0-.11.06-.02-.07-.11,0-.09-.11-.01.03-.07.08-.1.08.07-.12-.11-.02-.07-.16-.06.11-.15.03-.23.08,0,0,.02-.03.02-.02-.04-.02-.04-.05-.06-.08-.02.1-.09.1-.13.16-.03-.1.05-.11.06-.2-.01.08-.1.06-.1.13-.02-.07-.03-.03-.03-.12-.03.12-.04.01-.08.08-.04-.07.01-.11-.05-.09-.02-.04.04-.07.04-.07ZM1553.9,281.23h0s0,.02,0,.03c0,0,0-.01,0-.03ZM1553.9,281.12s0,.03,0,.05c-.02,0-.05,0-.05-.01.02,0,.03-.02.05-.04ZM1553.42,281.39s0-.03.01-.03c0,0,0,.02.01.04h0s-.03,0-.04,0Z"/>
        <polygon class="cls-11" points="1553.52 281.42 1553.52 281.43 1553.54 281.41 1553.51 281.41 1553.52 281.42"/>
        <polygon class="cls-11" points="1558.38 281.72 1558.39 281.72 1558.38 281.71 1558.38 281.72"/>
        <polygon class="cls-11" points="1554.58 279.81 1554.57 279.8 1554.58 279.82 1554.58 279.81"/>
        <path class="cls-11" d="M1557.69,281.78h-.01s0,0,.01,0Z"/>
        <path class="cls-11" d="M1557.42,281.85l-.04-.02s.03.01.04.02Z"/>
        <path class="cls-11" d="M1557.21,281.86s0,.02,0,.03h0s0-.03,0-.03Z"/>
        <path class="cls-11" d="M1559.25,279.72h0s0-.01,0,0Z"/>
        <path class="cls-11" d="M1559.13,280.67s-.01-.03-.02-.04c-.01.01-.02.02.02.04Z"/>
        <polygon class="cls-11" points="1558.9 278.89 1558.9 278.89 1558.9 278.88 1558.9 278.89"/>
        <path class="cls-11" d="M1559.14,280.59s-.02.02-.02.04c.01-.01.02-.02.02-.04Z"/>
        <polygon class="cls-11" points="1556.3 281.92 1556.29 281.92 1556.29 281.93 1556.3 281.92"/>
        <path class="cls-11" d="M1556.29,281.93h-.01s0,0,.01,0Z"/>
        <path class="cls-11" d="M1556.25,281.95l.02-.02s-.02,0-.02.02Z"/>
        <path class="cls-11" d="M1556.58,281.94v-.03s0,.01,0,.03Z"/>
        <path class="cls-11" d="M1556.66,281.93s-.05-.05-.08-.03v.02s.06.06.08.01Z"/>
        <path class="cls-11" d="M1557.06,282.2h-.08s.04.05,0,.06c.11.07-.03-.06.07-.06Z"/>
        <path class="cls-11" d="M1557.3,282.2s0,.04,0,.05c.02-.03.03-.04,0-.05Z"/>
        <path class="cls-11" d="M1558.85,281.44l.04.05s-.02-.02-.04-.05Z"/>
        <polygon class="cls-11" points="1558.84 280.98 1558.79 280.98 1558.82 281.03 1558.84 280.98"/>
        <polygon class="cls-11" points="1559.31 281.11 1559.31 281.13 1559.33 281.07 1559.31 281.11"/>
        <path class="cls-11" d="M1559.09,278.23l-.04.07s.09-.06.04-.07Z"/>
        <path class="cls-11" d="M1557.82,277.88s-.05-.07-.07-.03c.03,0,.06.04.07.03Z"/>
        <polygon class="cls-11" points="1554.33 279.15 1554.33 279.11 1554.31 279.16 1554.33 279.15"/>
      </g>
      <g>
        <path class="cls-11" d="M1551.1,283.13s-.04.06-.02.06l.06-.06h-.04Z"/>
        <path class="cls-11" d="M1551.13,283.34s.11-.06.14-.13c-.07.05-.05.02-.13.08-.02,0-.02-.04,0-.07-.02.01-.02-.03-.06,0-.01.07.02.09.08.07,0,.02-.02.03-.03.04Z"/>
        <path class="cls-11" d="M1552.98,284.52h0s0,0,0,0Z"/>
        <path class="cls-11" d="M1554.27,285s-.02,0-.02.01c.01,0,.02,0,.02-.01Z"/>
        <path class="cls-11" d="M1554.48,285.14s-.01,0-.01,0c0,0,0,.01.01,0Z"/>
        <path class="cls-11" d="M1552.98,284.52l.02.04s0-.03-.02-.04Z"/>
        <path class="cls-11" d="M1551.49,283.34s-.02,0-.03,0h.02s0,0,0,0Z"/>
        <polygon class="cls-11" points="1552.4 284.32 1552.39 284.32 1552.37 284.34 1552.4 284.32"/>
        <path class="cls-11" d="M1551.98,284.12s.05-.05.06-.08c-.02.02-.03.03-.04.03,0,.01-.01.03-.02.05Z"/>
        <path class="cls-11" d="M1551.42,283.63h-.02s0,0,.02,0Z"/>
        <path class="cls-11" d="M1552.7,284.48s0,.02,0,.02v-.02Z"/>
        <path class="cls-11" d="M1560.16,278.89s.01,0,.01,0c0,0-.01,0-.01,0Z"/>
        <polygon class="cls-11" points="1560.13 278.27 1560.13 278.28 1560.16 278.25 1560.13 278.27"/>
        <path class="cls-11" d="M1554.89,285.31h0s0,0,0,0Z"/>
        <path class="cls-11" d="M1558.85,284.62c-.07-.03.03-.11-.07-.13.02.02,0,.13.07.13Z"/>
        <path class="cls-11" d="M1551.49,283.35h.02s-.01,0-.02,0Z"/>
        <polygon class="cls-11" points="1558.78 284.49 1558.78 284.48 1558.77 284.48 1558.78 284.49"/>
        <path class="cls-11" d="M1555.91,285.35s0-.02-.01-.03c0,0,0,.02.01.03Z"/>
        <path class="cls-11" d="M1555.17,285.2h.02s-.01,0-.02,0Z"/>
        <path class="cls-11" d="M1556.3,285.24s.01.01.03,0h0s-.01,0-.02,0Z"/>
        <polygon class="cls-11" points="1556.71 285.21 1556.7 285.19 1556.69 285.2 1556.71 285.21"/>
        <path class="cls-11" d="M1560.61,279.86s.04-.02.06-.03c-.05.02-.08-.03-.06.03Z"/>
        <path class="cls-11" d="M1551.47,283.37s.02-.02.03-.02c0,0,0,0-.01,0,0,0-.01.02-.01.02Z"/>
        <path class="cls-11" d="M1556.29,284.69h.06s-.04,0-.06,0Z"/>
        <path class="cls-11" d="M1560.3,282.4v-.02s0,0,0,.02Z"/>
        <path class="cls-11" d="M1556.52,284.67s.03.04.04.04c0,0,0-.01,0-.02l-.04-.03Z"/>
        <path class="cls-11" d="M1560.67,279.83h0s0,0,0,0Z"/>
        <path class="cls-11" d="M1560.4,279.52c.01.05.09,0,.15-.01.04.05-.06.05-.09.09.04.03.13.03.13.06-.01,0-.02.01-.04.01.09.02.04.12.14.15,0,0-.01,0-.02.01.04-.02.09-.03.12-.04,0,.02.07.03.01.06,0-.02-.03-.01-.05-.01l.03.02c-.08.04-.04-.03-.1-.01.04.04.12.09.11.13-.08.02-.05-.08-.11-.02l.02-.07c-.12.07,0-.04-.13.03,0,.08.06.07.05.16.05,0,.07-.02.12,0,.1.1-.2.12-.08.18.06.01.17.01.12.08h-.1c0,.07.14.02.08.11-.04-.01-.04-.06-.05-.05-.07.06.06.03.06.07h-.08c.02.09.08.18.09.27-.03,0-.05-.02-.08,0,.04.12-.02.24-.08.34l.07.05s-.03.01-.05,0c-.03.04.05,0,.07.03,0,.03-.04.03-.06,0,.05.08.09.24,0,.3l-.02-.02c-.04.05.13.1.05.14h0c-.06.11-.04.28-.18.34.09.05-.09.11.05.17-.1.04-.11.01-.2.09-.02.02.07.08.07.12l-.07-.03.05.08-.09-.02v.04s.05,0,.07,0c0,.06-.11.09-.14.07v.14s-.03-.04-.04-.07c.04.1-.08-.03-.04.06.02,0,.04.03.05.04-.06,0-.09.06-.1.11l-.04-.04c-.06.07-.08.17-.15.25.04-.01.11.05.1.08l-.07-.04s.04,0,.07.06c-.03.03-.09-.04-.1-.07v.05s-.03-.03-.05-.05c.03.05-.11.01-.06.09h-.02c-.07.06-.08.11-.13.18.05.05.02.06.04.12-.06.03-.15.04-.2.09-.01.06.03.05.04.1-.04-.04-.1.01-.1-.05-.06.06-.08.08-.13.2.03.01.04.01.05.03,0,.02-.05,0-.07-.02h0c-.05.15-.35.02-.35.18h0s-.05.11-.05.11c-.05.02,0-.06-.05-.07-.04.15-.16.08-.21.19-.15-.13-.22.13-.37.06l.02.04c0,.05-.04-.01-.06-.01.02.03.04.02.04.05-.18.14-.44.11-.65.13-.08.01.02.23-.11.16v-.09c-.12.14-.32.08-.46.19,0-.02,0-.05.02-.05-.04-.05-.12.02-.12.07-.03,0-.01-.04-.03-.07-.04-.03-.07.09-.1.03,0,0,0-.02.01-.03-.02.03-.1,0-.07.07-.06-.02-.11.04-.16,0-.02.08-.11-.03-.11.08,0-.11-.11-.08-.15-.03.01-.03-.04-.03-.02-.08-.04,0-.08.03-.07.08-.08-.13-.16.12-.21-.06-.13.06-.25.1-.37.12.01-.11.13,0,.13-.12-.11.04-.18.13-.29.1-.03-.02.02-.05.03-.07-.11.04-.21-.03-.32.02,0-.01.01-.02.02-.03-.02,0-.04-.02-.05.03h.02c.02.07-.1.13-.11.17.05-.14-.09-.05-.01-.23-.01,0-.03.03-.04.06-.02-.01-.02-.03,0-.07-.07.02-.06.07-.12.06,0-.02.02-.03.03-.06-.04.04-.08.09-.13.06,0-.01,0-.03.02-.03-.09-.01-.18.1-.27.03.05-.1-.03-.04-.01-.13h-.06s.01.06.01.06c-.05-.01-.1.04-.14,0l.04-.03h-.09s.04.04.04.04c-.06.03-.02.12-.08.08.02,0-.05-.01-.06-.07h0s-.06.05-.09.01c0-.03.03-.1.03-.12-.04.07-.11-.01-.17.06.02-.02.03-.06.03-.07l-.04.06s-.02-.04,0-.07c-.06-.03-.01.12-.08.05,0,0,0-.01.02-.02-.07-.05-.16-.01-.22-.06,0-.1.07,0,.07-.08-.11-.02-.25.04-.34-.02v.02c-.05.12-.03-.09-.11-.05.02,0,.04-.06.03-.05-.06-.04-.15-.02-.26-.03l.03-.03s-.1-.06-.13-.09c-.03.03-.05,0-.05.06-.05-.23-.29-.01-.33-.22.01,0,.04-.01.03-.02l-.11-.02c-.02.06,0,.04,0,.09-.03.02-.07.04-.09.02.06-.01.04-.08.04-.12,0,.02-.02.03-.03.05,0-.12-.06.1-.1,0l.02-.03s-.07.02-.1,0c.02-.07.04-.01.07-.06-.04-.02-.13.07-.14,0,.02,0,.05,0,.07,0,0-.09-.01-.07-.04-.1h0s-.05-.06-.05-.06v.03c-.13.13-.1-.02-.22.04.11-.06.04-.05.08-.11,0-.03-.02-.06,0-.08-.06.04-.02-.07-.11-.02.01-.02-.03-.02,0-.07-.05,0-.01.04-.03.07-.1.04-.08-.17-.23-.12-.1,0-.15.06-.24.05,0-.05.07-.06.07-.06-.02-.05-.05-.07-.1-.06.02-.01.02-.03.03-.06-.03-.01-.07.06-.08,0,.02-.02.05-.05.08-.06-.04,0-.1.02-.15.01.02-.04.06-.04.08-.06-.05,0-.12-.03-.17.02v.04s.04-.05.05-.06c.06-.02.03.05.02.07h-.03c-.06.13.11.04.15.08l-.08.07.1-.04s-.03.08-.06.08c0,.07.05-.01.05.06,0,0,0,.01-.01.01h.05s-.03.06-.05.04c.03.09.14,0,.12.08h0c.1.03.05-.06.16-.09l-.06.19.05-.06s.02.02,0,.05c.06-.02.01-.03.06-.06,0,.09.13.04.08.15.04-.04-.02-.06.05-.07-.05.12.06.01.07.09-.05.05-.07,0-.06.07.08-.09.06.07.11.07.05-.08.09,0,.16.01-.02.02.08.1.12.16h0c.05-.06.1-.02.15-.02-.03.05-.04.06-.08.07l.04.02s.04-.03.07-.03l-.04.06c.05.02.14-.02.18.05.03-.06.02-.18.11-.19-.01.03-.04.09-.06.09,0,0,.03-.02.04,0l-.05.04s.04-.04.06-.02c-.02.04,0,.04-.02.07,0,0-.01-.03-.03-.01.02.02.04.06.04.1,0-.03.03-.06.05-.06.05.02,0,.06.01.1.03-.03.05.02.08-.04.01,0,0,.04,0,.06.04-.02.13.05.13-.04h0s0,0,0,0h0s0,0,0,0c.12-.03.17.12.27.12v.02c.05,0,.12.03.17,0,.02,0,.02.06,0,.08.05,0,.06-.03.11.03-.06.03,0,.04-.05.01.05.04.05.08.13.04-.04.05.02.09.05.08l-.02-.06s.06.01.08.03l-.04.07c.08.14.25-.1.29.09.05-.05-.05-.06,0-.11.05.03.07.16.09.16.06.07.1-.1.17-.05,0-.03,0-.11.07-.12.05.02.03.14,0,.15-.01,0-.02-.01-.01-.02-.02,0-.04.01-.03.05v-.03s.11.05.08.09c.05-.02.03-.04,0-.07.06.06.1.03.17.07,0-.02-.01-.05,0-.05.1.06.06-.05.13-.04.03.05-.04.1.04.08.04.04,0,.08-.03.1.08-.04.11.06.15.08l-.04.02s.04,0,.06,0v-.06s.03.02.02.04c.03-.04,0-.1.05-.15.02.03.09-.02.08.06-.08-.04,0,.08-.08.08.02,0,.03,0,.05,0,0,0,0,.02-.01.02.07.08.05-.08.13-.07-.02.04,0,.09.02.08-.03,0,0-.08.03-.11.05.04.06-.02.09-.01l-.03-.02s.04-.03.08-.04c0,.03-.04.02-.02.04.05-.07.08.09.15.04.02.03,0,.08.02.11.07-.05.07.07.14.02-.02-.06-.02-.05.03-.1l-.12.04.08-.08s-.07.03-.09.02c.04-.05.03-.03.02-.08.04.09.09-.05.14.02v.15c.07.07.14-.06.24-.03l-.03-.03c.02-.06.06,0,.1-.03,0,.05.02.07.03.1,0-.04.08,0,.09-.09l.05.07c.09.03.09-.14.17-.13-.02.05.02.09-.04.13.03,0,.05,0,.05-.03.02.03.07-.07.1-.02.01-.02.01-.07.04-.07,0,0,0,.02,0,.02,0-.02.04-.04.01-.09.1.15.23-.03.31.09.06-.02.12-.05.18-.06,0,.02,0,.02,0,.02.08.03.02-.15.11-.11.06.07-.04.05,0,.08.04.16.1-.04.17.04h-.01c.05.06.09-.07.16-.07,0,0,0,.01,0,.02.03-.09.11-.14.17-.18,0,.07-.02.04,0,.1.03-.02-.03-.1.02-.13.03.03.08.05.1.11l-.05.02c.05.08.07-.02.1-.02v.04c.09-.03.06-.13.15-.15l-.02-.02c.02-.11.06.04.08-.05l.05.09s.08-.13.13-.17c0,.08-.06.14-.09.2.03,0,.11-.04.11-.1,0,.01-.02.04-.03.03.01-.09.05-.14.11-.17.06.18.18-.02.28.1.08-.12.23-.07.35-.15-.11-.11.03-.02-.05-.15.02-.02.04-.03.04-.02l.13.03s-.01.04,0,.07c.07-.02.06.04.12.05-.04-.04-.02-.08.03-.09l-.09-.03c.04-.12.14.06.19-.06v.06c.03-.05.17-.1.14-.24.02,0,.05.04.04.06.12-.06.15-.27.27-.27l.02.04s-.01-.08.03-.07c0,.01.02.03.03.03,0-.02,0-.09.04-.09v.05c.14-.04.08-.2.14-.29.08.08.17.04.22.02h.01c.11-.09.1-.23.15-.36.14,0,.22-.18.34-.26-.03,0-.07-.05-.06-.08.04-.01-.02-.11.07-.05h0c.1.04.11-.03.14-.07l-.11-.07c.23-.02.1-.33.28-.32-.02-.04,0-.08-.02-.12l.06.03c.05-.07.08-.11.1-.22l.04.04c.03-.06-.17-.14-.15-.2l.11.02c.04-.1.15-.18.09-.31.01,0,.04.02.04.03.02-.05.12-.18-.03-.19.09.02.03-.11,0-.17l.07.02c-.08-.06-.1-.07-.12-.14.01-.01.06,0,.04.01.04-.05-.06-.05-.01-.11l.04.03c.01-.05-.01-.05-.06-.09-.02-.04.03-.1.09-.1-.04-.01-.09-.04-.06-.07.02,0,.04.01.04.02.06-.09-.07-.14,0-.2.02,0,.04,0,.04,0,0,.07,0,.13-.01.12.06,0,.08-.06.16,0-.05-.05-.15-.14-.12-.19,0,0,.01,0,.02,0h0s0-.02,0-.03c.01-.02.02-.03.02-.05.05,0,.03-.07.03-.1-.07,0-.06-.03-.12,0,0,0,0,0,.01.02,0,0,0,0,0,.01h0s0,.04,0,.07c-.04-.02-.06-.05-.03-.08-.05-.01-.09-.03-.12-.04.1-.04.14-.12.2-.14-.04-.09-.04-.21-.18-.25-.02-.02.03-.03.05-.05.02.01.02.03.04.04-.04-.05-.03-.15-.13-.14.03-.07.09.02.06-.06h.03c.1-.2-.28-.21-.16-.44,0,.02-.01.02-.02.03.02-.24-.22-.39-.2-.63,0-.07-.06-.05-.12-.06l.06-.05h-.11c-.09-.06.07-.24-.09-.27l-.03.04s-.1-.09-.05-.12c0,0-.05.02-.04,0l.03-.03-.12-.03c-.03-.08.13-.09.06-.18-.04-.02-.16-.02-.17.01,0,.01,0,.05-.02.08h-.04c-.09.06-.19.12-.2.24h.09s-.03.05-.03.05l-.03-.03c-.02.06.02.04.06.03-.02.02-.03.04-.03.06l.12-.03s-.09.04-.08.08c.06-.01.06-.08.12-.07-.02.05-.06.07,0,.07-.02.02-.04.03-.06.02.04,0,.05.05.11.03-.04.06.07.07-.02.13.03,0,.1,0,.12.01-.14.03.04.09-.09.15.12-.03.11.09.2.11-.01,0-.03,0-.03,0,0,.04-.02.06-.03.09.09-.04.13,0,.2,0-.07.08-.12.02-.19.07.07-.03.1.04.16,0-.04.05-.01.04-.08.08.12-.04.03.02.11.02-.04.07-.1.05-.05.09-.03.04-.08,0-.08,0ZM1560.81,280.74h0s0-.02,0-.03c0,0,0,.01,0,.03ZM1560.81,280.85s0-.03,0-.05c.02,0,.05,0,.05.01-.02,0-.03.02-.05.03ZM1561.3,280.61s0,.03-.02.03c0,0,0-.02,0-.03h0s.03,0,.04,0Z"/>
        <polygon class="cls-11" points="1561.21 280.58 1561.2 280.57 1561.19 280.58 1561.21 280.59 1561.21 280.58"/>
        <polygon class="cls-11" points="1552.97 284.5 1552.97 284.5 1552.97 284.49 1552.97 284.5"/>
        <polygon class="cls-11" points="1560.32 282.28 1560.34 282.29 1560.33 282.27 1560.32 282.28"/>
        <path class="cls-11" d="M1552.49,284.01s0-.01,0-.02c0,0,0,.01,0,.02Z"/>
        <path class="cls-11" d="M1552.26,283.87l-.02-.04s.02.03.02.04Z"/>
        <path class="cls-11" d="M1552.09,283.74s-.01.02-.02.02h0s.02-.02.02-.02Z"/>
        <path class="cls-11" d="M1555.21,284.74h0s0,0,0,0Z"/>
        <path class="cls-11" d="M1554.21,284.71s.03-.02.04-.02c-.02,0-.03-.01-.04.02Z"/>
        <polygon class="cls-11" points="1556.28 284.69 1556.28 284.69 1556.29 284.69 1556.28 284.69"/>
        <path class="cls-11" d="M1554.3,284.7s-.03-.02-.04-.01c.01,0,.03.02.04.01Z"/>
        <polygon class="cls-11" points="1551.34 283.23 1551.33 283.22 1551.32 283.23 1551.34 283.23"/>
        <path class="cls-11" d="M1551.32,283.23h-.01s0,0,.01,0Z"/>
        <path class="cls-11" d="M1551.28,283.23h.03s-.01-.01-.03,0Z"/>
        <path class="cls-11" d="M1551.55,283.41l.02-.02s0,0-.02.02Z"/>
        <path class="cls-11" d="M1551.62,283.45s-.01-.07-.04-.08v.02s0,.09.04.06Z"/>
        <path class="cls-11" d="M1551.76,283.9l-.05-.05s0,.07-.04.06c.04.12.01-.06.09,0Z"/>
        <path class="cls-11" d="M1551.94,284.05s-.02.03-.03.05c.03,0,.04-.01.03-.05Z"/>
        <path class="cls-11" d="M1553.42,284.74l-.03.06s0-.02.03-.06Z"/>
        <polygon class="cls-11" points="1553.82 284.53 1553.81 284.48 1553.77 284.53 1553.82 284.53"/>
        <polygon class="cls-11" points="1553.86 285.02 1553.84 285.02 1553.9 285.01 1553.86 285.02"/>
        <path class="cls-11" d="M1556.64,285.28l-.02-.08s-.01.1.02.08Z"/>
        <path class="cls-11" d="M1557.81,284.95s.06.05.07,0c-.03,0-.06-.02-.07,0Z"/>
        <polygon class="cls-11" points="1560.74 282.84 1560.75 282.88 1560.75 282.83 1560.74 282.84"/>
      </g>
      <g>
        <path class="cls-11" d="M1559.08,286.22s.01.07.02.06v-.08s-.02.03-.02.03Z"/>
        <path class="cls-11" d="M1559.2,286.35s0-.12-.02-.19c0,.08,0,.05,0,.15-.01.01-.03-.02-.03-.05,0,.02-.02-.01-.02.04.03.06.05.05.06,0,0,.02,0,.04.01.05Z"/>
        <path class="cls-11" d="M1560.45,285.98h-.01s.01,0,.01,0Z"/>
        <path class="cls-11" d="M1561.15,285.54s0,.01,0,.02c0,0,0-.01,0-.02Z"/>
        <path class="cls-11" d="M1561.31,285.52h0s.01,0,0,0Z"/>
        <path class="cls-11" d="M1560.45,285.98h.03s-.02,0-.03,0Z"/>
        <path class="cls-11" d="M1559.31,286.11s0,.01,0,.02c0,0,0-.01,0-.01h0Z"/>
        <path class="cls-11" d="M1560.16,286.21h0s0,.02,0,.04v-.04Z"/>
        <path class="cls-11" d="M1559.91,286.33s-.02-.07-.03-.09c0,.03,0,.04,0,.05,0,.01.01.03.02.04Z"/>
        <path class="cls-11" d="M1559.45,286.37h0s0,0,0,0Z"/>
        <path class="cls-11" d="M1560.34,286.13s.01.02.01.02v-.02Z"/>
        <path class="cls-11" d="M1561.81,279.62s.01,0,.01,0c0,0-.01,0-.01,0Z"/>
        <polygon class="cls-11" points="1561.94 279.18 1561.95 279.18 1561.98 279.16 1561.94 279.18"/>
        <path class="cls-11" d="M1561.57,285.41h0s0,0,0,0Z"/>
        <path class="cls-11" d="M1562.81,283.33c-.07,0-.06-.07-.14-.05.03,0,.09.07.14.05Z"/>
        <path class="cls-11" d="M1559.32,286.12h.01s-.01,0-.01,0Z"/>
        <polygon class="cls-11" points="1562.66 283.28 1562.66 283.28 1562.66 283.28 1562.66 283.28"/>
        <path class="cls-11" d="M1561.95,284.93s-.02-.01-.03-.01c0,0,.01,0,.03.01Z"/>
        <path class="cls-11" d="M1561.58,285.2h.01s-.01,0-.01,0Z"/>
        <path class="cls-11" d="M1562.02,284.68s.02,0,.01,0h0s0,.01,0,0Z"/>
        <path class="cls-11" d="M1562.15,284.48s-.01,0-.01,0h0s.02,0,.02,0Z"/>
        <path class="cls-11" d="M1562.13,280.2l.06-.03s-.07,0-.06.03Z"/>
        <path class="cls-11" d="M1559.32,286.15s0-.03,0-.03h0s0,.03,0,.03Z"/>
        <path class="cls-11" d="M1561.58,284.35l.03-.02s-.02.01-.03.02Z"/>
        <path class="cls-11" d="M1562.45,281.71h0s0,0,0,0Z"/>
        <path class="cls-11" d="M1561.65,284.24s.04.01.05.01h-.01s-.04-.01-.04-.01Z"/>
        <path class="cls-11" d="M1562.18,280.16h0s0,0,0,0Z"/>
        <path class="cls-11" d="M1561.94,280.02s.09-.02.14-.04c.04.02-.05.04-.09.08.03.01.12,0,.12.01-.01,0-.02.01-.04.02.08,0,.03.07.13.06h-.02s.08-.03.12-.04c0,.01.06,0,.01.03,0,0-.02,0-.04,0h.03c-.08.05-.04,0-.1.02.04.02.12.03.1.06-.08.03-.05-.04-.11.01l.02-.05c-.11.07,0-.02-.12.05,0,.05.06.03.05.09.05,0,.06-.03.11-.03.1.04-.19.12-.06.13.06,0,.16-.03.12.02l-.1.02s.14-.02.09.05c-.04,0-.04-.02-.05-.01-.06.05.06,0,.07.03l-.08.03s.1.08.13.13c-.02,0-.05,0-.08.02.06.05.03.14-.01.22h.08s-.03.03-.05.02c-.02.03.05,0,.08,0,0,.01-.04.03-.06.02.07.03.16.1.09.16h-.02s.15.01.09.06h-.01c-.02.08.06.16-.05.23.11,0-.04.08.11.08-.07.05-.1.04-.14.11,0,.02.09.02.11.04h-.08s.08.03.08.03l-.09.02.02.02s.03-.02.06-.02c.04.03-.05.08-.09.08l.07.07s-.04-.01-.06-.02c.08.04-.08,0,0,.04.02,0,.05,0,.06,0-.05.02-.05.06-.03.09h-.05s.02.11.02.17c.03-.02.12-.01.13,0h-.08s.03-.01.09.01c-.01.02-.09,0-.12,0l.03.03s-.04,0-.07-.01c.05.02-.09.04,0,.06h-.02c0,.06.02.09.02.14.07,0,.05.03.11.05-.03.03-.09.07-.09.11.03.04.06.02.1.04-.06,0-.06.04-.11,0,0,.05,0,.07.04.14.03,0,.04,0,.06,0,0,.01-.03.02-.06.01h0c.08.09-.22.12-.1.21h0s.05.07.05.07c-.02.02-.04-.03-.09-.02.08.09-.04.1,0,.17-.19-.02-.04.15-.17.16h.04s-.03.02-.04.03c.03.01.04,0,.06.02,0,.14-.16.22-.25.31-.03.04.19.13.07.13l-.07-.05c.05.13-.09.17-.07.29-.01-.01-.03-.03-.03-.03-.06-.01-.04.06,0,.09-.01,0-.04-.02-.07-.03-.04,0,.04.08-.02.06,0,0-.01-.01-.02-.02.02.03-.04.05.03.07-.05.01-.01.07-.06.07.05.06-.06.03.02.1-.09-.07-.11,0-.08.05-.02-.03-.04,0-.07-.04-.01.02-.01.05.04.08-.14-.05.03.14-.12.06,0,.1-.01.18-.04.25-.08-.08.04-.06-.05-.14,0,.08.04.17-.02.2-.02,0-.03-.04-.04-.06,0,.08-.09.08-.09.17,0,0-.01-.02-.01-.03,0,.01-.03,0,0,.04v-.02c.06.04.08.14.1.17-.09-.12-.07.02-.18-.14,0,.01.01.04.04.06-.01,0-.03-.01-.05-.05,0,.05.04.08.01.1-.02-.02-.02-.03-.04-.05.02.05.04.1,0,.1,0-.01-.02-.02-.02-.03-.03.04.02.16-.06.16-.06-.09-.04-.01-.1-.08v.04s.03.03.03.03c-.02.02,0,.08-.04.08v-.04s-.04.05-.04.05h.05c0,.06.08.1.03.1,0-.01-.02.02-.07-.02h0s.02.07-.02.06c-.02-.02-.06-.08-.08-.1.04.07-.04.06,0,.13,0-.02-.04-.06-.04-.07l.03.06s-.03-.02-.05-.05c-.04.01.08.09.01.07,0,0,0-.01,0-.03-.05,0-.05.09-.1.09-.06-.07.02-.04-.04-.1-.04.05-.04.17-.1.18h.02c.06.12-.07-.03-.07.04,0-.01-.03-.07-.02-.05-.05,0-.05.07-.09.14v-.03s-.08.02-.11.01c0,.03,0,.04.03.07-.16-.13-.09.17-.23.06,0,0,0-.04,0-.03l-.04.05s.02.03.05.06c0,.03,0,.07-.01.07,0-.05-.04-.08-.06-.11l.02.05c-.07-.08.04.11-.03.06v-.03s-.02.06-.04.06c-.03-.06,0-.04-.02-.09-.02.01,0,.14-.04.09,0-.02.02-.03.02-.05-.05-.06-.05-.04-.07-.05h0s-.05-.02-.05-.02l.02.02c.04.17-.05.05-.04.17,0-.12-.02-.06-.04-.13-.02-.02-.04-.03-.04-.05,0,.06-.05-.03-.04.06,0-.02-.02,0-.04-.05-.02.03.02.04.03.07,0,.09-.12-.07-.14.06-.03.06-.02.14-.05.19-.03-.03-.01-.09-.01-.09-.03-.03-.05-.01-.06.02,0-.02-.01-.04-.03-.06-.02.01.01.09-.02.06,0-.03-.01-.07,0-.1-.01.03-.02.08-.04.1-.02-.04,0-.07,0-.09-.02.02-.05.05-.04.12l.02.02s-.02-.05-.02-.07c0-.06.04.01.04.04v.02c.04.13.05-.04.08-.04l.02.1v-.09s.04.08.03.1c.04.04,0-.04.05,0,0,0,0,.02,0,.02v-.04s.04.07.02.06c.06.04.04-.1.08-.03h0s-.02-.07,0-.17l.09.17-.02-.07s.02,0,.03.03c0-.06-.02-.03-.02-.08.05.06.06-.06.11.05-.01-.06-.04-.03-.03-.08.05.12.03-.03.07.01.02.07-.02.04.03.09-.03-.11.06,0,.07-.03-.03-.08.03-.05.06-.1.01.03.09.01.13.03h0c-.03-.07,0-.07.02-.1.02.05.03.07.02.1h.02s0-.06,0-.07l.02.06s.03-.1.09-.08c-.03-.06-.11-.14-.09-.2.02.03.05.08.04.1,0,0,0-.03.01-.02v.06s0-.05.01-.05c.02.04.03.03.04.06,0,0-.02-.01-.02,0,.02,0,.05.01.08.04-.01-.02-.03-.06-.02-.07.03-.02.04.05.07.06,0-.03.03-.01,0-.08,0,0,.03.02.04.04,0-.04.07-.05.01-.11h0s0,0,0,0h0s0,0,0,0c.01-.09.12-.03.16-.08v.02s.07-.05.06-.11c0,0,.04.03.06.05.01-.03,0-.05.05-.04,0,.05.03.03,0,.04.04,0,.07.03.06-.05.03.06.07.05.07.03l-.05-.02s.03-.02.04-.03l.04.07c.12.04,0-.21.15-.11-.02-.06-.06,0-.08-.07.03-.01.13.06.14.06.06,0-.04-.12.01-.13-.02-.02-.08-.08-.07-.12.03-.01.11.07.11.1,0,0-.01,0-.02,0,0,.01,0,.03.03.05l-.02-.03s.06-.02.09.03c0-.04-.02-.04-.05-.04.06,0,.05-.04.1-.05-.02,0-.04-.03-.04-.03.07-.01-.02-.06,0-.1.05.02.07.09.07.03.04,0,.06.05.07.08,0-.07.08-.02.1-.03v.03s0-.03.02-.03l-.05-.04s.02,0,.04.01c-.02-.04-.08-.07-.09-.12.03.01.01-.06.07,0-.05.02.06.05.04.09,0-.01,0-.02.02-.02,0,0,0,.01.01.02.08.01-.05-.08,0-.11.03.04.07.05.07.04-.02.01-.06-.05-.07-.08.05,0,0-.04.02-.05h-.02s-.01-.04,0-.07c.03.02,0,.03.02.04-.04-.07.1.02.08-.05.03,0,.06.06.09.06-.02-.07.07,0,.07-.05-.05-.03-.04-.02-.07-.08v.08s-.05-.09-.05-.09c-.01.01,0,.06-.02.06-.02-.05-.01-.04-.06-.06.08.04,0-.08.06-.06l.11.1c.08,0,0-.12.07-.14h-.03s.02-.04.01-.07c.04.03.06.03.09.05-.03-.02.03-.03-.04-.1l.07.02c.05-.02-.08-.13-.03-.16.03.04.08.05.09.1.01-.01.03-.02,0-.04.03.01-.03-.08.02-.06-.01-.02-.05-.05-.04-.06,0,0,.02.01.02.01-.02-.01-.01-.04-.06-.06.15.05.07-.12.2-.08,0-.04.02-.08.03-.11.01,0,.02.01.01.02.06-.01-.11-.1-.04-.11.08.02.02.05.06.05.14.08.01-.06.11-.04h0c.06.02-.02-.07.01-.1,0,0,.01,0,.02.01-.06-.06-.06-.13-.06-.17.05.04.02.03.08.06,0-.02-.09-.04-.09-.08.04,0,.07,0,.14.02v.03c.08.02,0-.04.03-.05l.03.02c.01-.05-.08-.1-.04-.14h-.03c-.07-.08.06,0,0-.07l.09.03s-.06-.1-.06-.14c.06.05.08.1.11.14,0-.02.02-.07-.02-.1,0,.01.02.03,0,.03-.06-.05-.08-.1-.07-.13.17.08.09-.08.23-.05-.04-.09.08-.13.09-.21-.15-.02,0-.02-.14-.07,0-.02,0-.03.01-.03l.1-.03s.03.03.06.04c.02-.04.07,0,.11-.02-.05,0-.07-.04-.04-.05h-.08c-.06-.07.14,0,.08-.08l.04.03s.03-.11-.08-.17c.02,0,.06,0,.07.02.03-.07-.09-.19,0-.23h.04s-.06-.02-.02-.03c.02,0,.04.01.04,0-.01,0-.06-.05-.03-.06l.04.02c.06-.06-.08-.13-.1-.19.11.02.15-.04.17-.06h.02c.02-.08-.08-.15-.11-.23.13-.04.06-.16.13-.24-.02.01-.09,0-.1-.02.02-.02-.07-.05.03-.05h0c.1,0,.08-.04.08-.07h-.13c.19-.08-.08-.2.09-.25-.03-.02-.03-.04-.07-.06h.07c.01-.06.02-.08,0-.15h.05s-.21-.02-.21-.05l.1-.02c0-.06.08-.14-.03-.19.02,0,.05,0,.05,0,0-.03.05-.12-.09-.09.09-.02,0-.07-.05-.09h.07c-.09-.02-.12-.02-.15-.05,0-.01.05-.02.04,0,.03-.04-.07-.01-.04-.05h.05s-.02-.02-.08-.03c-.03-.01,0-.06.07-.08-.04,0-.09,0-.08-.02.02,0,.04,0,.05,0,.04-.06-.1-.06-.04-.11.02,0,.03-.01.04-.02,0,.04.01.08,0,.07.06-.01.06-.05.16-.05-.05-.02-.17-.04-.15-.08,0,0,.01,0,.02-.01h0s0-.01-.02-.02c0-.01.01-.02.01-.03.05-.02.02-.05.02-.06-.07.02-.06,0-.11.03,0,0,0,0,.01.01h0s0,0,0,0l.02.04s-.07,0-.04-.04c-.05,0-.09,0-.12,0,.09-.05.13-.11.18-.13-.05-.04-.06-.11-.2-.1-.02,0,.03-.03.05-.04.02,0,.02.01.04.01-.04-.02-.04-.08-.13-.05.03-.05.09,0,.06-.05h.03c.1-.15-.28-.07-.15-.24,0,.01-.01.02-.03.02.02-.15-.18-.2-.12-.37,0-.04-.05-.02-.1-.02l.06-.04h-.09c-.08,0,.12-.16-.02-.16l-.04.03s-.07-.05-.01-.07c0,0-.05.02-.03,0l.03-.02h-.09c0-.07.14-.09.11-.15-.03-.01-.13,0-.15.03,0,0,0,.04-.04.06h-.03c-.1.06-.2.11-.25.2h.08s-.04.03-.04.03l-.02-.02s0,.03.04.02c-.02.02-.04.03-.04.05l.11-.03s-.08.04-.09.07c.05-.01.08-.07.12-.06-.04.04-.08.06-.03.05-.02.02-.04.02-.06.03.04,0,.04.03.1,0-.05.05.05.04-.05.1.03,0,.09-.02.1,0-.13.04.02.06-.1.12.11-.04.08.04.16.05,0,0-.03,0-.02,0,0,.02-.03.05-.04.07.09-.04.12-.02.19-.03-.07.07-.11.04-.19.08.07-.04.09,0,.15-.03-.04.04-.02.03-.09.07.11-.05.03,0,.1,0-.04.05-.1.06-.05.07-.03.03-.08.02-.08.02ZM1562.4,280.67h0s0-.01,0-.01c0,0,0,0,0,.01ZM1562.41,280.73s0-.02,0-.03c.02,0,.05-.01.05,0-.02,0-.03.02-.04.03ZM1562.85,280.47s0,.02-.01.02c0,0,0-.01-.01-.02h0s.03,0,.04,0Z"/>
        <path class="cls-11" d="M1562.75,280.47h0s-.01,0-.01,0h.02s0,0,0,0Z"/>
        <polygon class="cls-11" points="1560.43 285.97 1560.44 285.97 1560.43 285.97 1560.43 285.97"/>
        <polygon class="cls-11" points="1562.41 281.64 1562.43 281.64 1562.41 281.64 1562.41 281.64"/>
        <path class="cls-11" d="M1559.99,285.93h-.01s0,0,.01,0Z"/>
        <path class="cls-11" d="M1559.84,285.99h-.03s.02,0,.03,0Z"/>
        <path class="cls-11" d="M1559.71,286s0,.02,0,.03h0s0-.03,0-.03Z"/>
        <path class="cls-11" d="M1561.23,284.88h0s0-.01,0,0Z"/>
        <path class="cls-11" d="M1560.92,285.38s0-.03,0-.04c-.01,0-.02,0,0,.04Z"/>
        <polygon class="cls-11" points="1561.57 284.35 1561.57 284.35 1561.58 284.35 1561.57 284.35"/>
        <path class="cls-11" d="M1560.94,285.33s-.02,0-.02.02c0,0,.02,0,.02-.02Z"/>
        <polygon class="cls-11" points="1559.21 286.13 1559.2 286.13 1559.2 286.14 1559.21 286.13"/>
        <path class="cls-11" d="M1559.2,286.14h0s0,0,0,0Z"/>
        <path class="cls-11" d="M1559.19,286.17v-.02s0,0,0,.02Z"/>
        <path class="cls-11" d="M1559.37,286.12v-.02s0,.01,0,.02Z"/>
        <path class="cls-11" d="M1559.41,286.1s-.04-.04-.05-.02v.02s.06.05.05,0Z"/>
        <path class="cls-11" d="M1559.71,286.33h-.05s.04.05.02.06c.08.06-.03-.05.03-.06Z"/>
        <path class="cls-11" d="M1559.85,286.32s.02.04.02.05c0-.03,0-.04-.02-.05Z"/>
        <path class="cls-11" d="M1560.72,285.86l.03.05s-.01-.02-.03-.05Z"/>
        <polygon class="cls-11" points="1560.68 285.48 1560.65 285.46 1560.67 285.51 1560.68 285.48"/>
        <polygon class="cls-11" points="1561.04 285.79 1561.04 285.8 1561.05 285.76 1561.04 285.79"/>
        <path class="cls-11" d="M1562.18,284.56l-.07-.04s.08.07.07.04Z"/>
        <path class="cls-11" d="M1562.47,283.89s.07,0,.04-.03c-.01.01-.05.01-.04.03Z"/>
        <polygon class="cls-11" points="1563.05 281.81 1563.07 281.82 1563.05 281.79 1563.05 281.81"/>
      </g>
      <g>
        <path class="cls-11" d="M1556.16,288.29s-.02.07,0,.06l.04-.08h-.03Z"/>
        <path class="cls-11" d="M1556.23,288.47s.08-.09.09-.17c-.04.07-.04.04-.09.12-.02,0-.02-.03-.01-.06-.01.02-.02-.03-.05.02,0,.07.03.08.08.04,0,.02-.01.04-.02.05Z"/>
        <path class="cls-11" d="M1558.01,288.86h-.01s.01,0,.01,0Z"/>
        <path class="cls-11" d="M1559.16,288.79s-.01.01,0,.02c0,0,.01-.01,0-.02Z"/>
        <path class="cls-11" d="M1559.37,288.84s-.01,0-.01,0c0,0,.01,0,.01,0Z"/>
        <path class="cls-11" d="M1558.01,288.86l.03.03s-.02-.02-.03-.03Z"/>
        <path class="cls-11" d="M1556.52,288.34s-.01,0-.02.02c0,0,.02,0,.02,0h0Z"/>
        <path class="cls-11" d="M1557.5,288.9h0s0,.02-.01.03l.02-.03Z"/>
        <path class="cls-11" d="M1557.11,288.87s.02-.06.03-.09c0,.03-.02.04-.03.04,0,.01,0,.03,0,.05Z"/>
        <path class="cls-11" d="M1556.53,288.64h-.01s0,0,.01,0Z"/>
        <path class="cls-11" d="M1557.78,288.93s0,.02,0,.03v-.03Z"/>
        <path class="cls-11" d="M1563.7,281.85s.01,0,.01,0c0,0-.01,0-.01,0Z"/>
        <polygon class="cls-11" points="1563.97 281.37 1563.97 281.38 1564.01 281.37 1563.97 281.37"/>
        <path class="cls-11" d="M1559.75,288.84h0s0,0,0,0Z"/>
        <path class="cls-11" d="M1562.61,287.09c-.07-.02-.02-.1-.11-.11.02.01.04.11.11.11Z"/>
        <path class="cls-11" d="M1556.52,288.36h.01s-.01,0-.01,0Z"/>
        <polygon class="cls-11" points="1562.5 286.98 1562.5 286.98 1562.49 286.98 1562.5 286.98"/>
        <path class="cls-11" d="M1560.54,288.52s-.01-.02-.02-.02c0,0,0,.01.02.02Z"/>
        <path class="cls-11" d="M1559.91,288.64h.02s-.02,0-.02,0Z"/>
        <path class="cls-11" d="M1560.79,288.3s.02,0,.02,0h0s0,.01-.02,0Z"/>
        <polygon class="cls-11" points="1561.09 288.14 1561.08 288.13 1561.07 288.14 1561.09 288.14"/>
        <path class="cls-11" d="M1563.78,282.79s.04,0,.06-.01c-.05,0-.07-.04-.06.01Z"/>
        <path class="cls-11" d="M1556.51,288.38s.01-.02.02-.03h-.01s0,.02,0,.03Z"/>
        <path class="cls-11" d="M1560.56,287.79h.05s-.03,0-.05,0Z"/>
        <path class="cls-11" d="M1563.32,284.95h0s0,0,0,0Z"/>
        <path class="cls-11" d="M1560.73,287.7s.03.03.05.03c0,0,0-.01,0-.02h-.04Z"/>
        <path class="cls-11" d="M1563.85,282.77h0s0,0,0,0Z"/>
        <path class="cls-11" d="M1563.68,282.45s.09.02.15.03c.03.06-.07.03-.11.05.03.03.11.06.11.09-.02,0-.02,0-.04,0,.07.04,0,.11.09.15h-.02s.09,0,.13,0c0,.02.06.04,0,.05,0-.01-.02-.02-.04-.02l.03.02c-.09.02-.03-.03-.09-.03.03.04.1.1.07.13-.08,0-.03-.08-.1-.04l.03-.05c-.13.03,0-.03-.13,0-.03.07.04.08.01.14.05.02.07,0,.12.02.08.1-.22.06-.11.14.05.02.16.04.1.08l-.09-.03c-.02.06.13.05.06.11-.04-.02-.03-.05-.04-.05-.08.04.05.04.05.07h-.08c0,.07.05.15.06.23-.02,0-.05-.03-.08-.01.03.1-.04.2-.11.28l.06.05s-.04,0-.05,0c-.03.03.04.01.07.04,0,.02-.05.02-.07,0,.05.08.09.21,0,.26l-.02-.02s.13.1.05.13h0c-.06.09-.03.23-.17.28.09.05-.08.09.05.15-.09.04-.11.01-.19.08-.02.02.07.07.07.1l-.07-.03.06.07h-.09s0,.02,0,.02c0,0,.04,0,.06,0,.01.05-.09.08-.13.06l.02.12s-.03-.04-.04-.06c.05.08-.08-.02-.03.05.02,0,.04.02.05.03-.05,0-.08.05-.08.1l-.04-.03c-.05.06-.05.16-.09.23.04-.02.11.03.11.06l-.08-.03s.04,0,.08.05c-.03.02-.09-.03-.11-.05v.05s-.02-.02-.05-.04c.04.04-.11.02-.04.08h-.02c-.04.06-.04.11-.07.17.06.04.03.05.07.1-.05.03-.13.05-.16.1,0,.06.04.04.06.08-.05-.03-.08.02-.1-.03-.04.07-.04.09-.06.2.03,0,.04,0,.06.02,0,.02-.05.02-.07,0h0c0,.14-.3.07-.25.22h0s0,.1,0,.1c-.04.02-.02-.05-.07-.05.02.14-.11.1-.11.21-.18-.09-.15.16-.29.13l.03.03s-.04,0-.05,0c.03.02.04.01.05.04-.09.16-.32.2-.49.27-.06.03.11.21-.03.17l-.03-.08c-.05.16-.23.16-.29.3,0-.02-.02-.04,0-.05-.06-.04-.09.05-.06.09-.02,0-.03-.04-.05-.05-.04-.02-.02.1-.06.06,0,0,0-.02,0-.03,0,.03-.08.03-.03.09-.06,0-.07.07-.12.06.01.08-.09,0-.05.11-.05-.1-.12-.04-.12.02,0-.04-.04-.02-.05-.07-.03.02-.05.05-.02.1-.12-.1-.08.16-.18.01-.07.1-.15.17-.23.23-.04-.11.1-.05.05-.16-.07.08-.08.19-.18.19-.03,0,0-.05,0-.07-.07.08-.17.04-.23.13,0-.01,0-.02,0-.03-.01,0-.04,0-.02.04v-.02c.06.06,0,.17,0,.21-.01-.15-.09-.01-.1-.2,0,.01-.01.04,0,.07-.02,0-.03-.02-.02-.07-.05.04-.01.09-.06.1,0-.02,0-.04,0-.07-.01.05-.03.11-.08.1,0-.02-.01-.03,0-.04-.07.03-.1.16-.19.13,0-.11-.04-.03-.06-.12l-.04.04.03.04s-.06.08-.1.05l.02-.04-.07.03.05.03c-.03.05.03.12-.03.1,0-.01-.04,0-.07-.04h0s-.03.07-.06.05c-.01-.03,0-.1-.02-.12,0,.08-.09.04-.1.12,0-.02,0-.07,0-.08v.06s-.03-.03-.04-.07c-.06,0,.03.12-.04.07,0,0,0-.01.01-.03-.07-.02-.12.05-.19.03-.03-.09.05-.03.02-.11-.08.03-.17.13-.26.11h.02c0,.14-.07-.05-.11.01.01-.01.01-.07,0-.06-.06-.02-.12.04-.21.08v-.03s-.08-.02-.12-.04c-.01.03-.03.03-.02.08-.11-.2-.22.1-.32-.07.01,0,.03-.03.02-.03l-.09.02c0,.06,0,.04.02.08-.01.03-.04.06-.06.06.04-.03,0-.09,0-.13,0,.02,0,.04,0,.05-.04-.11-.02.12-.07.04v-.03s-.04.05-.07.04c0-.07.03-.03.04-.08-.03,0-.08.12-.11.05.02-.02.04-.01.06-.03-.03-.08-.03-.06-.06-.08h0s-.05-.04-.05-.04v.02c-.05.17-.08.02-.16.12.07-.1.02-.06.03-.13-.01-.02-.03-.05-.02-.07-.04.06-.04-.05-.09.03,0-.02-.03,0-.01-.07-.04.01,0,.04,0,.07-.07.08-.11-.13-.21-.03-.08.03-.11.11-.18.13-.01-.04.04-.08.04-.08-.03-.04-.05-.04-.09-.02.01-.02,0-.04,0-.07-.03,0-.04.08-.06.04.01-.02.03-.06.05-.09-.04.01-.08.05-.11.06,0-.04.04-.06.05-.08-.04,0-.1.01-.13.07l.02.03s0-.06.02-.07c.04-.04.04.04.03.06h-.03c-.02.15.1.01.14.03l-.04.1.07-.07s0,.09-.03.1c.02.06.04-.03.05.03,0,0,0,.01,0,.02l.04-.02s-.01.07-.03.05c.05.07.11-.05.12.03h0c.09-.01.02-.07.1-.14v.19s.03-.07.03-.07c0,0,.02.01.01.04.04-.04,0-.03.03-.08.03.08.12-.01.11.11.02-.06-.03-.05.02-.08,0,.13.05-.01.08.05-.02.06-.05.02-.02.09.04-.11.07.04.11.02.01-.09.07-.03.13-.05,0,.03.1.06.14.1v.02c.02-.09.07-.07.1-.08,0,.05-.01.08-.04.1h.04s.02-.04.05-.05v.07s.09-.07.15-.02c0-.06-.04-.18.03-.22,0,.03,0,.09-.02.11,0,0,.02-.03.03-.01l-.03.06s.02-.05.04-.04c0,.05.01.04.01.07,0,0-.02-.02-.03,0,.02,0,.05.04.06.08,0-.03,0-.07.02-.07.05,0,.01.06.04.09.01-.03.04,0,.04-.07.01,0,.02.04.02.06.02-.03.12,0,.09-.09h0s0,0,0,0c.08-.07.17.04.25,0v.02s.11-.02.14-.08c.01,0,.04.04.03.07.04-.02.04-.05.09-.01-.03.05.02.04-.03.03.05.02.06.05.11-.02-.01.06.04.08.06.05l-.04-.04s.05,0,.07,0v.08c.11.09.15-.19.25-.03.02-.06-.06-.03-.05-.1.05,0,.11.11.12.11.07.03.04-.13.11-.11-.01-.03-.03-.1,0-.14.05,0,.08.11.05.14-.01,0-.02,0-.02-.01-.01.01-.03.03,0,.06v-.03s.09.01.08.06c.03-.03,0-.05-.02-.06.07.03.09-.01.15,0-.01-.01-.03-.05-.02-.05.09.02.03-.06.08-.09.04.04.01.11.06.06.04.02.03.07.02.1.04-.07.11.01.14.01l-.02.03s.03-.02.04-.02l-.03-.05s.03,0,.04.03c0-.04-.04-.09-.02-.15.03.02.06-.05.09.03-.08,0,.03.08-.03.1,0-.01.02-.01.04,0,0,0,0,.02,0,.02.08.05,0-.1.07-.11,0,.05.04.08.05.06-.03,0-.03-.07-.02-.11.05.02.04-.04.06-.04h-.03c0-.05.02-.05.04-.08.01.03-.02.03,0,.04,0-.08.1.05.13-.01.03.02.03.08.05.09.03-.07.08.04.11-.03-.04-.05-.03-.04-.02-.1l-.07.07.03-.1s-.04.06-.06.05c.01-.06.01-.04-.02-.08.07.07.05-.08.11-.03l.05.14c.09.04.09-.11.18-.11h-.04c-.01-.07.05-.04.06-.07.02.05.04.06.06.08-.02-.03.06-.02.03-.12l.06.04c.08,0,.02-.16.08-.17,0,.06.05.08.02.13.02,0,.04,0,.03-.04.03.02.03-.09.07-.05,0-.02-.02-.07,0-.08,0,0,.01.02.01.02-.01-.02.02-.05-.02-.09.13.1.16-.1.28-.01.04-.04.08-.08.12-.1,0,.01.01.02,0,.02.08,0-.04-.14.04-.13.07.05,0,.06.03.07.09.13.06-.06.15,0h0c.06.04.04-.08.1-.11,0,0,0,.01.01.02-.01-.09.04-.16.07-.21.02.06,0,.04.04.09.02-.02-.07-.08-.04-.12.03.02.08.02.12.08l-.04.03c.07.06.05-.04.08-.04l.02.03c.05-.05,0-.13.06-.17l-.02-.02c-.02-.1.06.02.05-.06l.07.07s.02-.14.04-.18c.03.07,0,.14,0,.2.02-.02.07-.07.05-.11,0,.01,0,.04-.02.04-.02-.08-.01-.14.03-.17.12.15.14-.06.27.02.02-.12.17-.12.24-.21-.14-.07.02-.03-.09-.13.01-.03.02-.03.03-.03h.12s0,.04.03.07c.05-.04.06.03.12.02-.05-.03-.04-.07,0-.08h-.08c0-.13.14.02.14-.1l.02.05c0-.05.11-.12.04-.23.02,0,.06.02.05.05.08-.07.04-.26.15-.28l.03.03s-.04-.07,0-.07c.01.01.03.03.03.02,0-.02-.02-.08,0-.09l.02.04c.1-.06,0-.19.03-.27.09.06.17.01.2-.01h.01c.07-.09.02-.21.04-.33.14,0,.15-.18.26-.24-.03,0-.08-.04-.08-.06.03-.01-.04-.1.05-.05h0c.1.03.1-.03.12-.06l-.12-.06c.22-.02.04-.28.23-.27-.02-.04,0-.07-.03-.1l.07.03c.04-.06.06-.09.08-.18l.04.03s-.17-.13-.16-.17l.1.02c.03-.08.14-.14.07-.25.01,0,.04.02.04.03.01-.04.11-.13-.03-.16.09.02.03-.08,0-.14l.07.02c-.08-.06-.1-.07-.11-.13.01-.01.06,0,.04.01.04-.03-.06-.05,0-.09l.04.03s0-.04-.06-.08c-.02-.03.04-.08.1-.07-.04-.01-.08-.05-.06-.07.02,0,.04.01.04.02.06-.06-.06-.12.01-.16.02,0,.03,0,.04,0-.01.06-.02.1-.03.1.06.01.08-.03.16.02-.04-.05-.14-.13-.1-.17,0,0,.01,0,.02,0h0s0-.01,0-.02c.01-.01.02-.02.02-.04.05,0,.04-.05.04-.07-.07,0-.05-.04-.12-.02,0,0,0,0,0,.02h0s0,0,0,0c0,.02,0,.04,0,.06-.03-.02-.06-.05-.02-.07-.04-.02-.09-.04-.11-.05.1-.02.16-.07.22-.08-.03-.08-.01-.18-.14-.23-.02-.02.04-.02.06-.03.01.01,0,.03.03.03-.03-.04,0-.12-.09-.14.05-.05.08.03.07-.04h.03c.15-.13-.23-.22-.04-.37-.01.01-.02.02-.03.02.08-.18-.09-.36.03-.54.02-.05-.04-.05-.09-.08l.07-.02-.09-.04c-.07-.06.17-.15.04-.23l-.05.02s-.05-.1.01-.1c0,0-.05,0-.03-.02h.04s-.08-.08-.08-.08c.02-.07.16-.02.15-.11-.02-.03-.13-.07-.15-.05,0,.01-.02.04-.06.05l-.03-.03c-.11.02-.23.02-.3.11l.08.03-.05.03v-.04c-.06.03,0,.04.02.05-.03,0-.05.02-.06.03l.12.03s-.09,0-.11.03c.06.01.1-.04.14,0-.05.03-.09.03-.04.05-.03,0-.05,0-.06,0,.04.02.03.06.09.07-.06.03.03.08-.08.09.03,0,.09.03.1.05-.14-.02,0,.09-.14.09.12.02.06.1.14.15,0,0-.03,0-.02-.01,0,.03-.04.04-.06.06.1,0,.12.04.18.07-.09.04-.12-.02-.21,0,.08,0,.08.06.15.04-.06.03-.03.03-.11.05.12,0,.02.03.1.05-.06.04-.11.01-.07.06-.04.02-.08-.02-.08-.02ZM1563.82,283.56h0s0-.02,0-.02c0,0,0,.01,0,.02ZM1563.81,283.65s0-.02,0-.04c.02,0,.05,0,.05.02-.02,0-.03.01-.05.02ZM1564.32,283.52s0,.02-.02.02c0,0,0-.02,0-.03h0s.02,0,.03,0Z"/>
        <polygon class="cls-11" points="1564.23 283.48 1564.23 283.47 1564.21 283.48 1564.23 283.49 1564.23 283.48"/>
        <polygon class="cls-11" points="1558 288.84 1558 288.85 1558 288.84 1558 288.84"/>
        <polygon class="cls-11" points="1563.33 284.84 1563.35 284.85 1563.33 284.84 1563.33 284.84"/>
        <path class="cls-11" d="M1557.48,288.58v-.02s0,.01,0,.02Z"/>
        <path class="cls-11" d="M1557.25,288.54l-.03-.03s.02.02.03.03Z"/>
        <path class="cls-11" d="M1557.09,288.48s0,.02,0,.03h0s0-.03,0-.03Z"/>
        <path class="cls-11" d="M1559.76,288.2h0s0-.01,0,0Z"/>
        <path class="cls-11" d="M1559.01,288.54s.01-.03.02-.04c-.02,0-.03,0-.02.04Z"/>
        <polygon class="cls-11" points="1560.56 287.79 1560.56 287.79 1560.56 287.79 1560.56 287.79"/>
        <path class="cls-11" d="M1559.07,288.5s-.03,0-.04,0c.01,0,.03,0,.04,0Z"/>
        <polygon class="cls-11" points="1556.37 288.29 1556.37 288.29 1556.36 288.3 1556.37 288.29"/>
        <path class="cls-11" d="M1556.36,288.3h-.01s0,0,.01,0Z"/>
        <path class="cls-11" d="M1556.33,288.32h.02s-.01-.02-.02,0Z"/>
        <path class="cls-11" d="M1556.58,288.39v-.02s0,.01,0,.02Z"/>
        <path class="cls-11" d="M1556.65,288.39s-.03-.06-.05-.05v.02s.03.07.05.03Z"/>
        <path class="cls-11" d="M1556.88,288.76l-.06-.03s.01.07-.02.07c.06.1,0-.06.07-.04Z"/>
        <path class="cls-11" d="M1557.06,288.83s0,.04,0,.05c.02-.02.03-.03,0-.05Z"/>
        <path class="cls-11" d="M1558.43,288.88v.06s0-.02,0-.06Z"/>
        <polygon class="cls-11" points="1558.65 288.53 1558.62 288.49 1558.62 288.55 1558.65 288.53"/>
        <polygon class="cls-11" points="1558.86 288.97 1558.85 288.98 1558.89 288.95 1558.86 288.97"/>
        <path class="cls-11" d="M1561.07,288.22l-.04-.07s.03.1.04.07Z"/>
        <path class="cls-11" d="M1561.87,287.61s.07.03.06-.01c-.02.01-.06,0-.06.01Z"/>
        <polygon class="cls-11" points="1563.81 285.33 1563.82 285.36 1563.82 285.31 1563.81 285.33"/>
      </g>
    </g>
    <path class="cls-5" d="M1556.97,277.7c-6.14,4.13-7.36,8.31-3.5,11.89,1.62,1.51,3.51,3.25,5.95,2.44,2.96-.99,5.58-2.82,6.02-5.84.56-3.9-1.78-9.13-7.97-8.49"/>
  </g>
  <path class="cls-6" d="M1214.69,880.53c-5.29.97-10.23,2.53-14.22,6.52-11.62,11.61-6.11,30.28,7.22,35.92,14.72,6.23,31.67-5.81,29.84-22.41-1.11-10.07-8.08-18.17-18.46-19.35-1.33-.15-2.6-.87-4.01-.68"/>
  <path class="cls-3" d="M1128.5,69c-6.68,3.91-7.64,10.63-2,13.99,2.56,1.52,5.6,1.88,7.9.37,2.52-1.66,5.03-3.97,4.13-7.87-.84-3.62-3.08-5.65-6.54-6.46-.95-.22-1.99-.03-2.99-.03"/>
  <g>
    <path class="cls-9" d="M1276.5,571c-4.39.66-6.59,3.68-7.99,7.5-1.15,3.13-.41,5.57,2.46,7.54,2.81,1.93,5.39,2.12,8.03-.05,6.72-5.54,5.88-11.78-1.99-14.99"/>
    <g class="cls-10">
      <path class="cls-7" d="M1275.86,575c-.47.28-.96.52-1.46.74-.37.16-.74.29-1.12.41-.21.07-.43.13-.65.12s-.45-.12-.55-.32c-.86-1.72,3.81-3.56,4.64-2.32.37.56-.46,1.15-.86,1.38Z"/>
      <path class="cls-7" d="M1270.16,576.91c-.32.79.13,1.73.83,2.22s1.59.6,2.44.6c1.35,0,2.72-.23,3.9-.9s2.13-1.78,2.4-3.1-.21-2.82-1.33-3.57"/>
      <path class="cls-7" d="M1281.02,574.44c.33,1.81.29,3.82-.76,5.33-.89,1.28-2.4,2.02-3.93,2.3s-3.11.15-4.66.01c-.66-.06-1.33-.13-1.94-.38s-1.16-.74-1.33-1.37"/>
      <path class="cls-7" d="M1269.73,584.42c3.68,1.47,8.08.99,11.35-1.24"/>
    </g>
    <path class="cls-5" d="M1276.5,571c-4.39.66-6.59,3.68-7.99,7.5-1.15,3.13-.41,5.57,2.46,7.54,2.81,1.93,5.39,2.12,8.03-.05,6.72-5.54,5.88-11.78-1.99-14.99"/>
  </g>
  <path class="cls-3" d="M1494.25,198.45c-5.08,1.86-8.01,5.42-7,8.5.96,2.93,4.44,4.74,8.49,3.94,3.07-.61,5.42-2.26,5.54-5.94.12-3.59-1.11-5.83-5.02-6.08-.39-.03-.94-.45-1.51-.42"/>
  <path class="cls-8" d="M654.5,267c-6.47,3.39-7.64,9.5-2.5,13,2.76,1.88,6.58,1.19,8.95-2.04,1.81-2.47,1.78-5.42,0-7.92-1.36-1.9-3.35-3.22-5.94-3.04"/>
  <path class="cls-8" d="M347.95,680.44c.9-2.76,1.69-5.48,5.5-5.55,3-.06,4.15,1.87,4.95,4.07,1.03,2.83-1.4,6.98-4.46,7.42-3.96.58-5.52-1.94-5.99-5.44v-.5Z"/>
  <path class="cls-6" d="M650.97,568.12c.7,3.03,1.35,5.92,5.5,6.06,3.36.12,5.94-1.14,6.88-4.1.97-3.06,1.32-6.44-1.85-8.99-3.35-2.69-7.84-1.47-9.61,2.49-.61,1.37.27,2.92-.91,4.04v.5Z"/>
  <path class="cls-2" d="M705.23,624.12c-2.01,2.51-2.93,5.39-1.19,8.24,1.65,2.7,4.77,3.03,7.47,2.46,2-.42,4.44-1.34,4.45-4.33,0-2.84.54-5.77-2.51-7.67-2.98-1.86-5.64-1.53-8.22.67v.64Z"/>
  <path class="cls-2" d="M350.48,560.43c-2.01,2.51-2.93,5.39-1.19,8.24,1.65,2.7,4.77,3.03,7.47,2.46,2-.42,4.44-1.34,4.45-4.33,0-2.84.54-5.77-2.51-7.67-2.98-1.86-5.64-1.53-8.22.67v.64Z"/>
  <g>
    <path class="cls-8" d="M466.3,581.71c-.63,1.64-1.27,3.35-1.2,5.11s1.08,3.6,2.76,4.11c2.06.62,4.24-1.05,4.99-3.07s.43-4.25.11-6.38"/>
    <path class="cls-3" d="M467.29,561.44c-3.14,1.15-6.72,1.56-8.03,5.49-1.09,3.28-1.57,6.43.52,9.51,3.05,4.51,7.53,5.93,12.48,4.87,3.71-.79,6.29-3.74,7.47-7.39,1.17-3.63-1.19-7.95-5.46-10.46-1.98-1.16-4.06-2.19-6.49-2.02h-.5Z"/>
  </g>
  <path class="cls-2" d="M357.92,859.85c-7.27,1.34-14.05,3.48-19.54,8.96-15.96,15.94-8.39,41.59,9.91,49.34,20.22,8.55,43.5-7.98,40.99-30.78-1.53-13.83-11.1-24.96-25.35-26.58-1.82-.21-3.57-1.2-5.51-.94h-.5Z"/>
</svg>