<?xml version="1.0" encoding="UTF-8"?>
<svg id="main-bigBall" xmlns="http://www.w3.org/2000/svg" viewBox="0 0 56 99">
  <defs>
    <style>
      .cls-1 {
        fill: #ff6a37;
        stroke-miterlimit: 10;
      }

      .cls-1, .cls-2, .cls-3, .cls-4 {
        stroke: #000;
        stroke-width: 1.45px;
      }

      .cls-5 {
        fill: #000;
        stroke-width: 0px;
      }

      .cls-2 {
        fill: #d793ff;
      }

      .cls-2, .cls-3, .cls-4 {
        stroke-linecap: round;
        stroke-linejoin: round;
      }

      .cls-3 {
        fill: #ff97b5;
      }

      .cls-4 {
        fill: #ffec2d;
      }
    </style>
  </defs>
  <path class="cls-4" d="M28.25,74.36c-.43,6.25-.2,12.55.69,18.75.14.98.31,1.99.81,2.85s1.41,1.54,2.4,1.5c1.06-.05,1.93-.93,2.31-1.91s.37-2.08.35-3.13c-.1-6.08-.2-12.15-.3-18.23"/>
  <rect class="cls-3" x="24.86" y="60.83" width="13.13" height="13.13"/>
  <path class="cls-1" d="M42.53,49.4c1.26,2.9.13,5.82-.09,8.7-.09,1.22-.95,2.26-2.79,2.52-5.48.79-11.03-.24-16.45.89-2.17.45-2.81-1.38-2.78-2.44.07-2.59-1.45-5.16-.13-7.74l22.25-1.93Z"/>
  <path class="cls-2" d="M53.84,34.4c2.03-8.3-.86-14.99-5.13-21.26-4.84-7.12-12.4-10.91-20.71-11.52C10.16.31-1.35,16.54,2.11,30.55c2.66,10.77,9.6,17.41,18.36,21.26,6.39,2.81,14.6,2.32,21.57-1.5,0,0,10.06-8.81,11.79-15.91Z"/>
  <path class="cls-5" d="M19.68,3.76c-2.71,3.14-4.65,6.51-6.29,10.25-.83,1.81-1.71,3.7-2.05,5.73-.88,6.09,1.38,12.16,2.98,17.95,1.12,3.8,2.82,7.49,6.71,9.09.06.02.09.1.07.16-2.13.32-4.45-1.15-5.97-2.72-3.69-4.15-4.55-9.79-5.08-15.1-.13-3.17.24-6.35.52-9.49.2-2.09.33-4.25.94-6.33,1.28-4.07,4.17-7.84,8.02-9.73.11-.05.23.09.15.19h0Z"/>
  <path class="cls-5" d="M22.64,5.3c-1.99,3.6-3.28,7.34-4.13,11.29-1.16,3.86-1.45,8.22.36,11.98,1.74,3.74,3.76,7.21,6.15,10.49,1.78,2.46,3.97,5.96,3.37,9.37-.18,1.24-.74,2.45-1.64,3.29-.18.18-.47.18-.65,0-.38-.48.35-1.5.48-2.07.03-.08.12-.11.19-.08.25.44.1,1.28.18,1.82,0,0-.88-.36-.88-.36,1.56-3.97-1.41-7.02-3.62-10.19-2.38-3.58-4.28-7.59-4.92-11.87-.39-2.11-.69-4.19-1.01-6.3-.87-4.24-.75-8.9,1.57-12.72,1.07-1.92,2.52-3.64,4.33-4.84.12-.09.29.07.21.2h0Z"/>
  <path class="cls-5" d="M29.39,4.86c4.63,1.59,9.15,3.8,12.66,7.32,8.23,9.09,11.76,25.33.4,33.44-1.96,1.54-4.12,2.74-6.36,3.72-.06.03-.13,0-.16-.06,3.39-3.39,7.3-6.49,9.34-10.54,1.69-2.93,2.28-6.41,2.38-9.81.2-3.5-.11-7.2-2.07-10.22-2.68-3.94-6.77-6.44-10.49-9.32-1.92-1.4-3.93-2.73-5.82-4.3-.1-.07,0-.26.12-.21h0Z"/>
  <path class="cls-5" d="M28.11,11.68c2.29.95,4.22,2.69,5.74,4.62,1.6,1.93,2.19,4.47,2.91,6.77,0,0,1.57,4.61,1.57,4.61,1.06,3.14,1.22,6.6.61,9.86-.7,3.25-2.17,6.38-4.49,8.74-.09.09-.25,0-.21-.12,1.44-4.62,2.34-8.91,2.72-13.6.1-3.05.37-6.34-.93-9.21-.97-2.16-2.68-3.81-3.91-5.79,0,0-1.33-1.88-1.33-1.88-.9-1.26-1.87-2.47-2.82-3.81-.07-.09.04-.24.15-.19h0Z"/>
  <path class="cls-5" d="M24.19,15.82c.11,1.92.77,3.12,1.29,4.73.22.82.36,1.79.76,2.61.79,1.68,2.34,3.06,2.87,4.9,1.06,2.71.88,5.92-.78,8.37-.04.06-.12.07-.18.03-.68-2.79-.9-5.15-1.25-7.84-.32-1.67-.23-3.63-1.33-5.07-.52-.74-1.33-1.31-1.9-2.12-.57-.8-.84-1.85-.85-2.89,0-1.03.34-2.16,1.16-2.83.08-.07.22,0,.22.1h0Z"/>
  <path class="cls-5" d="M27.49,62.98c.55,1.09.39,2.15.11,3.23-.02,1.08.45,2.15.36,3.23-.04.72-.16,1.44-.47,2.15-.02.04-.08.04-.1,0-.86-1.79-.25-3.55-.11-5.38-.28-1.08-.44-2.14.11-3.23.02-.04.08-.04.1,0h0Z"/>
  <path class="cls-5" d="M29.95,62.98c.55,1.09.39,2.15.11,3.23-.02,1.08.45,2.15.36,3.23-.04.72-.16,1.44-.47,2.15-.02.04-.08.04-.1,0-.86-1.79-.25-3.55-.11-5.38-.28-1.08-.44-2.14.11-3.23.02-.04.08-.04.1,0h0Z"/>
  <path class="cls-5" d="M32.41,62.98c.55,1.09.39,2.15.11,3.23-.02,1.08.45,2.15.36,3.23-.04.72-.16,1.44-.47,2.15-.02.04-.08.04-.1,0-.86-1.79-.25-3.55-.11-5.38-.28-1.08-.44-2.14.11-3.23.02-.04.08-.04.1,0h0Z"/>
  <path class="cls-5" d="M34.87,62.98c.55,1.09.39,2.15.11,3.23-.02,1.08.45,2.15.36,3.23-.04.72-.16,1.44-.47,2.15-.02.04-.08.04-.1,0-.86-1.79-.25-3.55-.11-5.38-.28-1.08-.44-2.14.11-3.23.02-.04.08-.04.1,0h0Z"/>
  <path class="cls-5" d="M22.09,54.62c2.27.11,4.35.62,6.54,1.02,3.69.05,7.21-1.07,10.88-1.48.05,0,.08.07.03.09-3.27,2.09-7.21,2.03-10.93,1.7-2.25.16-4.56-.07-6.55-1.24-.04-.02-.02-.1.03-.09h0Z"/>
  <path class="cls-5" d="M22.12,58.17c2.29-.19,4.46.13,6.69.4,3.74-.11,7.4-1.39,11.11-1.42-3.35,1.96-7.36,1.82-11.11,1.73-2.25.29-4.56.28-6.71-.62-.05-.02-.04-.09.02-.1h0Z"/>
  <path class="cls-5" d="M30.09,75.64c.19,2.46.54,7.39.7,9.85.11,3.29.31,6.59,1.08,9.8,0,0-.19-.19-.19-.19.81,0,.95-1.01.74-1.69-.61-2.61-1.03-5.3-1.18-7.98-.1-3.47-.04-7.61.97-10.69-.16,3.56-.18,7.09.06,10.64.15,2.66.43,5.28.85,7.92.21.94-.27,2.45-1.53,2.26-.1-.01-.17-.09-.19-.19-.21-1.64-.44-3.27-.7-4.91-.86-4.77-1.48-10.26-.63-14.83h0Z"/>
</svg>