<?xml version="1.0" encoding="UTF-8"?>
<svg id="main-bigBall" xmlns="http://www.w3.org/2000/svg" viewBox="0 0 31.38 127.13">
  <defs>
    <style>
      .cls-1 {
        fill: #ff97b5;
      }

      .cls-1, .cls-2, .cls-3 {
        stroke-width: 0px;
      }

      .cls-4 {
        fill: none;
      }

      .cls-4, .cls-5, .cls-6 {
        stroke: #000;
        stroke-width: 1.6px;
      }

      .cls-4, .cls-6 {
        stroke-linecap: round;
        stroke-linejoin: round;
      }

      .cls-5 {
        stroke-miterlimit: 10;
      }

      .cls-5, .cls-2 {
        fill: #00d675;
      }

      .cls-3 {
        fill: #000;
      }

      .cls-6 {
        fill: #d793ff;
      }
    </style>
  </defs>
  <g>
    <path class="cls-1" d="M29.97,3.85c-.69-3.14-4.23-2.16-6.78-2.63-6.21-1.13-12.35.42-18.51.08C1.81,1.14.84,2.48.56,5.29c-.26,2.65,1.51,4.32,2.17,6.49.52,1.73,1.46,2.12,2.55,2.08l1.89,20.44c-.06-.59-.11-1.22-.16-1.87l.19,2c-3.05.96-3.82,4.02-3.45,6.35.22,1.37,1,2.23,2.02,2.75l-.18.93c-.65,1.19-.96,2.42-.95,3.84.02,3.3.32,6.58.55,9.88l-.02,2.49-.35,11.55-.02.19c-.23,1.16-.52,2.32-.89,3.48-.53,1.64-.54,3.49-.32,5.39h0s0,0,0,0c.25,2.18.79,4.42,1.22,6.5.31,1.5,1.28,2.75,3.17,2.87l.24,1.39v.03c.35,4.08.89,8.16.87,12.24,1.46,4.57.6,5.61,2.92,6.3l-.35.7c-1.55,3.58.32,7,.53,10.5.08,1.36.51,2.69.79,4.13,1.09.33,2.13.47,3.27.38,1.34-.11,2.31-1.3,2.25-2.65-.13-2.67.51-5.22.21-8.37-.09-.94-.47-2.32.02-2.93.39-.49.72-.99,1.03-1.49.02-.02.03-.04.05-.06h0c3.68-6.11,1.54-12.97,1.86-19.5l.05-.78c1.41-.22,2.35-1.1,2.27-1.7-.61-4.75,2.48-9.27.7-14.03-.4-1.06-.9-1.99-1.6-2.62l.09-.37c1.09-5.12.03-10.36.96-15.51.72-3.97,1.04-7.99.04-11.99v.1s-.07-.61-.07-.61c4-.77,3.96-2.42,3-9.48h-1.85v-.03s1.38-12.23,1.38-12.23l.26-1.89v-.06c.36-2.27.67-4.49.85-6.53v-.08s.01-.03.01-.03c0-.04.01-.09.01-.14h-.01v-.58c2.89-2.41,2.86-5.96,2.22-8.88ZM25.29,32.59v-.07c0,.05,0,.11,0,.17v-.1Z"/>
    <path class="cls-2" d="M13.73,125.52c-.56-.46-.84-1.18-.94-1.9s-.06-1.44-.09-2.17c-.07-1.67-.56-3.28-.87-4.92-.31-1.64-.43-3.39.2-4.93.09-.23.22-.47.46-.56.15-.06.32-.04.48-.01,1.97.28,3.93.68,5.85,1.2.11,3.62.22,7.24.02,10.86-.04.69-.1,1.41-.43,2.02-.48.86-1.2.93-2.07.95s-1.86.07-2.6-.54Z"/>
    <path class="cls-6" d="M27.93,12.8c2.97-2.41,2.95-6.01,2.3-8.96-.69-3.14-4.23-2.16-6.78-2.63-6.21-1.13-12.35.42-18.51.08-2.86-.16-3.83,1.18-4.11,4-.26,2.65,1.51,4.32,2.17,6.49,1.04,3.46,3.76,1.57,5.94,1.54,6.17-.07,12.34-.03,19.09-.03-.55,6.52-2.55,14.98-2.51,21"/>
    <path class="cls-6" d="M5.93,44.3c-.72,1.24-1.04,2.52-1.03,4,.06,9.18,2.27,18.3-.73,27.58-1.14,3.52.1,7.99.9,11.89.39,1.91,1.83,3.44,4.9,2.71,3.31-.79,7.06-.69,10.42,0,2.24.46,3.96-.86,3.86-1.66-.61-4.75,2.48-9.27.7-14.03-.81-2.15-2.05-3.77-4.51-3.46-4.18.53-8.33-1.42-12.51-.05-.77.25-1.89.52-2.85,1.07"/>
    <path class="cls-3" d="M21.14,44.43c.35,3.3.18,6.58-.1,9.87-.03,5.48.44,11.07-.44,16.48-.65-5.46.01-11,.2-16.49-.09-3.22-.33-6.88.35-9.87h0Z"/>
    <path class="cls-3" d="M18.63,44.89c.35,3.3.18,6.58-.1,9.87-.03,5.48.44,11.07-.44,16.48-.65-5.46.01-11,.2-16.49-.09-3.22-.33-6.88.35-9.87h0Z"/>
    <path class="cls-3" d="M16.13,45.36c.35,3.18.18,6.35-.1,9.52-.03,5.29.44,10.68-.44,15.9-.65-5.27.01-10.61.2-15.9-.09-3.1-.33-6.64.35-9.52h0Z"/>
    <path class="cls-3" d="M13.88,44.47c.35,3.24.18,6.46-.1,9.68-.03,5.38.44,10.86-.44,16.17-.65-5.36.01-10.79.2-16.17-.09-3.15-.33-6.75.35-9.68h0Z"/>
    <path class="cls-3" d="M11.37,44.43c.35,3.3.18,6.58-.1,9.87-.03,5.48.44,11.07-.44,16.48-.65-5.46.01-11,.2-16.49-.09-3.22-.33-6.88.35-9.87h0Z"/>
    <path class="cls-3" d="M8.87,44.89c.35,3.3.18,6.58-.1,9.87-.03,5.48.44,11.07-.44,16.48-.65-5.46.01-11,.2-16.49-.09-3.22-.33-6.88.35-9.87h0Z"/>
    <path class="cls-3" d="M24.48,14.09c-.08,2.53-.44,4.98-.8,7.46-.15,4.17.56,8.44-.24,12.56-.73-4.14-.3-8.39,0-12.57-.04-2.43-.01-5.38,1.04-7.45h0Z"/>
    <path class="cls-3" d="M21.64,14.09c-.08,2.53-.44,4.98-.8,7.46-.15,4.17.56,8.44-.24,12.56-.73-4.14-.3-8.39,0-12.57-.04-2.43-.01-5.38,1.04-7.45h0Z"/>
    <path class="cls-3" d="M18.8,13.65c-.08,2.53-.44,4.98-.8,7.46-.15,4.17.56,8.44-.24,12.56-.73-4.14-.3-8.39,0-12.57-.04-2.43-.01-5.38,1.04-7.45h0Z"/>
    <path class="cls-3" d="M16.14,13.65c-.08,2.53-.44,4.98-.8,7.46-.15,4.17.56,8.44-.24,12.56-.73-4.14-.3-8.39,0-12.57-.04-2.43-.01-5.38,1.04-7.45h0Z"/>
    <path class="cls-3" d="M12.98,13.65c-.08,2.53-.44,4.98-.8,7.46-.15,4.17.56,8.44-.24,12.56-.73-4.14-.3-8.39,0-12.57-.04-2.43-.01-5.38,1.04-7.45h0Z"/>
    <path class="cls-3" d="M10.3,13.65c-.08,2.53-.44,4.98-.8,7.46-.15,4.17.56,8.44-.24,12.56-.73-4.14-.3-8.39,0-12.57-.04-2.43-.01-5.38,1.04-7.45h0Z"/>
    <path class="cls-3" d="M19.86,90.66c.48,2.37.43,4.74.27,7.12.17,3.95.87,7.99.19,11.91-.86-3.91-.4-7.94-.43-11.9-.22-2.3-.59-5.02-.03-7.13h0Z"/>
    <path class="cls-3" d="M17.72,90.66c.48,2.55.43,5.11.27,7.68.17,4.26.87,8.61.19,12.83-.86-4.22-.4-8.55-.43-12.83-.22-2.48-.59-5.39-.03-7.68h0Z"/>
    <path class="cls-3" d="M15.22,90.66c.48,2.55.43,5.11.27,7.68.17,4.26.87,8.61.19,12.83-.86-4.22-.4-8.55-.43-12.83-.22-2.48-.59-5.39-.03-7.68h0Z"/>
    <path class="cls-3" d="M12.43,90.66c.48,2.37.43,4.74.27,7.12.17,3.95.87,7.99.19,11.91-.86-3.91-.4-7.94-.43-11.9-.22-2.3-.59-5.02-.03-7.13h0Z"/>
    <path class="cls-3" d="M24.49,1.3c.42.88.3,1.75.08,2.62-.01.87.34,1.75.28,2.63-.03.58-.13,1.17-.36,1.75-.01.03-.06.03-.07,0-.66-1.45-.19-2.9-.08-4.37-.22-.88-.34-1.74.08-2.63.01-.03.06-.03.07,0h0Z"/>
    <path class="cls-3" d="M21.64,1.8c.43.76.3,1.5.08,2.25-.01.75.34,1.5.28,2.25-.03.5-.13,1-.36,1.5-.01.03-.06.03-.07,0-.66-1.24-.2-2.48-.08-3.75-.22-.75-.34-1.49.08-2.25.01-.03.06-.03.07,0h0Z"/>
    <path class="cls-3" d="M18.3,1.3c.42.76.3,1.5.08,2.25-.01.75.34,1.5.28,2.25-.03.5-.13,1-.36,1.5-.01.03-.06.03-.08,0-.66-1.24-.2-2.48-.08-3.75-.22-.75-.34-1.49.08-2.25.01-.03.06-.03.08,0h0Z"/>
    <path class="cls-3" d="M14.95,1.8c.42.76.3,1.5.08,2.25-.01.75.34,1.5.28,2.25-.03.5-.13,1-.36,1.5-.01.03-.06.03-.08,0-.66-1.24-.2-2.48-.08-3.75-.22-.75-.34-1.49.08-2.25.01-.03.06-.03.08,0h0Z"/>
    <path class="cls-3" d="M11.6,1.8c.42.76.3,1.5.08,2.25-.01.75.34,1.5.28,2.25-.03.5-.13,1-.36,1.5-.01.03-.06.03-.08,0-.66-1.24-.2-2.48-.08-3.75-.22-.75-.34-1.49.08-2.25.01-.03.06-.03.08,0h0Z"/>
    <path class="cls-3" d="M8.25,1.8c.42.9.3,1.78.08,2.68-.01.89.34,1.78.28,2.68-.03.59-.13,1.19-.36,1.78-.01.03-.06.03-.08,0-.66-1.47-.19-2.96-.08-4.46-.22-.9-.34-1.78.08-2.68.01-.03.06-.03.08,0h0Z"/>
    <path class="cls-3" d="M4.68,2.41c.42.9.3,1.78.08,2.68-.01.89.34,1.78.28,2.68-.03.59-.13,1.19-.36,1.78-.01.03-.06.03-.08,0-.66-1.47-.19-2.96-.08-4.46-.22-.9-.34-1.78.08-2.68.01-.03.06-.03.08,0h0Z"/>
    <path class="cls-3" d="M27.47,1.8c.43.76.3,1.5.08,2.25-.01.75.34,1.5.28,2.25-.03.5-.13,1-.36,1.5-.01.03-.06.03-.07,0-.66-1.24-.2-2.48-.08-3.75-.22-.75-.34-1.49.08-2.25.01-.03.06-.03.07,0h0Z"/>
    <path class="cls-3" d="M4.55,83.55c2.51-.04,4.94.27,7.41.55,4.14.02,8.26-.91,12.37-.91-3.92,1.53-8.24,1.33-12.38,1.15-2.41.11-5.32.15-7.41-.8h0Z"/>
    <path class="cls-3" d="M5.18,86.74c2.35-.21,4.64.1,6.95.44,3.87.13,7.76-.48,11.6-.34-3.7,1.38-7.75.86-11.61.58-2.25.04-4.95.11-6.93-.68h0Z"/>
    <path class="cls-3" d="M4.75,74.83c2.3-1.14,4.9-1.47,7.44-1.44,4.21-.4,8.6-.4,12.49,1.48.04.02.02.08-.02.07-4.15-.58-8.25-1.5-12.45-1.31-2.44.32-5.14,1.13-7.45,1.2h0Z"/>
    <path class="cls-3" d="M4.11,77.65c2.56-.83,5.23-.98,7.89-.88,4.4-.26,9.01-.62,13.23.78-4.41.12-8.8-.66-13.22-.54-2.56.27-5.48.87-7.9.64h0Z"/>
    <path class="cls-3" d="M4.24,79.57c2.52-.77,5.15-.87,7.75-.74,4.31-.21,8.83-.57,12.98.8-4.33.16-8.64-.62-12.97-.56-2.52.24-5.39.79-7.76.49h0Z"/>
    <path class="cls-4" d="M11.93,111.3c-1.55,3.58.32,7,.53,10.5.08,1.36.51,2.69.79,4.13,1.09.33,2.13.47,3.27.38,1.34-.11,2.31-1.3,2.25-2.65-.13-2.67.51-5.22.21-8.37-.09-.94-.47-2.32.02-2.93,5.15-6.48,2.59-13.96,2.93-21.05"/>
    <path class="cls-5" d="M7.93,34.3h19.43c1.18,8.69.97,9.19-6.44,9.93-3.96.4-8,.21-11.99.01-2.21-.11-4.53-.93-4.92-3.46-.39-2.46.47-5.71,3.92-6.49"/>
    <path class="cls-4" d="M24.43,44.3c1,4,.69,8.03-.04,11.99-.94,5.15.13,10.39-.96,15.51"/>
    <path class="cls-4" d="M28.93,8.8c-7.85-.81-15.69-.65-23.5.51-.84.12-1.67.33-2.5.49"/>
    <path class="cls-4" d="M8.43,91.3c.33,4.33.95,8.67.93,13,1.96,6.12-.26,5.9,6.57,7,.84.14,3.07,1.05,4.15-.5"/>
    <path class="cls-4" d="M3.84,81.27c6.17,1.52,15.06-.29,21.22,0"/>
    <path class="cls-4" d="M5.54,13.86c1.19,5.77,1.33,14.61,1.89,20.44"/>
  </g>
  <path class="cls-3" d="M5.53,35.83c1.27,2.9,2.75,5.69,4.53,8.3l-.74.08c.94-2.72,2.62-6.52,3.79-9.19.06-.2.37-.18.41.02.68,3.14,1.97,6.15,3.63,8.9,0,0-.54.04-.54.04.94-3.05,1.99-6.07,3.02-9.09.09-.27.38-.41.65-.32.16.05.28.18.32.33.99,2.92,2.15,5.77,3.46,8.56l-.81.04c1.17-2.81,2.26-5.79,3.63-8.47-.74,2.93-1.84,5.88-2.8,8.77-.08.23-.33.35-.56.27-.12-.04-.2-.12-.25-.22-1.5-2.75-2.71-5.66-3.64-8.65h.97c-1.12,3-2.22,6-3.43,8.96-.05.16-.23.25-.39.18-1.67-2.82-2.68-6.08-3.68-9.21,0,0,.41.02.41.02-.93,2.78-2.27,6.68-3.4,9.34-.11.32-.57.37-.74.08-1.74-2.69-3.11-5.64-3.93-8.73-.02-.06.07-.09.09-.03h0Z"/>
</svg>