<?xml version="1.0" encoding="UTF-8"?>
<svg id="main-bigBall" xmlns="http://www.w3.org/2000/svg" viewBox="0 0 56.32 168.23">
  <defs>
    <style>
      .cls-1, .cls-2, .cls-3, .cls-4, .cls-5, .cls-6, .cls-7, .cls-8, .cls-9, .cls-10, .cls-11, .cls-12, .cls-13 {
        stroke-linecap: round;
        stroke-linejoin: round;
      }

      .cls-1, .cls-2, .cls-3, .cls-5, .cls-7, .cls-8, .cls-9, .cls-11, .cls-12, .cls-13 {
        fill: none;
      }

      .cls-1, .cls-4, .cls-5, .cls-6, .cls-10 {
        stroke: #000;
      }

      .cls-2 {
        stroke-width: 4.5px;
      }

      .cls-2, .cls-3, .cls-7, .cls-9, .cls-11, .cls-12, .cls-13 {
        stroke: #00d675;
      }

      .cls-3 {
        stroke-width: 3.76px;
      }

      .cls-14 {
        fill: #ffec2d;
      }

      .cls-14, .cls-15 {
        stroke-width: 0px;
      }

      .cls-4, .cls-6, .cls-10 {
        fill: #ff6a37;
   animation: fillColorChang2 .5s infinite alternate;
}

@keyframes fillColorChang2 {
  0% {
    fill: #FF6A37;
  }
  100% {
    fill: #FF97B5;
  }
}

      .cls-5 {
        stroke-width: 1.6px;
      }

      .cls-6 {
        stroke-width: 1.42px;
      }

      .cls-15 {
        fill: #000;
      }

      .cls-7, .cls-8 {
        stroke-width: 2px;
      }

      .cls-8 {
        stroke: #ff6a37;
      }

      .cls-9 {
        stroke-width: 1.98px;
      }

      .cls-10 {
        stroke-width: 1.2px;
      }

      .cls-11 {
        stroke-width: 3.84px;
      }

      .cls-12 {
        stroke-width: 3.9px;
      }

      .cls-13 {
        stroke-width: 3.86px;
      }
    </style>
  </defs>
  <path class="cls-14" d="M54.49,87.9l.04.04c.05-.14.08-.29.12-.43l.04-.09v-.02c1.21-4.06,1.4-8.23,1.41-12.46,0-1.82-.35-4.25-1.19-4.84-4.54-3.18-2.56-9-5.69-12.83-1.22-1.5-.2-4.84-.2-7.34v-13.32c-1.69-.63-3.39-1.13-5.09-1.56l.09-.63c-.05-3.53.12-7.03-.94-10.52-1.14-3.76-3.79-6.22-7.06-6.87v-.62s0,0,0,0c0-.35,0-.67-.02-.98v-.09s0-.01,0-.01c-.12-1.5-.59-2.64-1.48-3.38l.22-1.19h0c1.01-3.62-.48-6.53-3.25-8.8-2.11-1.72-4.58-1.42-6.97-.07-3.57,2.02-5.13,5.34-4.29,8.97.51,2.23-.86,3.68-.7,5.54l-.37,1.09c-.55.11-1.09.22-1.64.37-4.43,1.25-6.07,2.41-6.39,5.91-.02,0-.03.02-.05.02h.05c-.06.63-.08,1.32-.06,2.11.07,2.83-.65,5.72.46,8.5l-.12.84c-1.29.21-2.59.43-3.88.66.02,1.12-.01,2.31-.07,3.53-.03,0-.06,0-.08.01h.08c-.27,6.09-1.14,13.18.57,18.45v.46c-.34.14-.7.27-1.05.43-1.42.65-3.13,1.52-2.82,2.57,1.68,5.7-3.03,10.07-2.76,15.54.25,5.15.98,10.28.91,15.5-.04,2.77,2.91,2.82,5.43,2.6.12.29.24.61.35.91h-.06c.4,3.5-1.05,7.28,1.37,10.52-1.28,1.23-1.7,3.01-2.06,4.81-.03,0-.07.01-.1.02h.1c-.18.9-.35,1.8-.6,2.63.8,0,1.6,0,2.38,0l-.03.5h-.05c0,3-.21,8.02.08,10.99.18,1.87.73,3.62-.05,5.52-2.02,4.86-1.6,6,3.49,7.44.73.21,1.48.35,2.22.47l.26,1.08c-.43,3.08.63,6.01,1.02,9,.26,1.96,1.43,2.73,3.47,3.07,1.66.28,3.32.49,4.98.64h0s.04,1.22.04,1.22c.1,4.21-.46,8.47.78,12.66,4.54,1.2,8.88,1.2,13.43,0,.76-4.33,1.2-8.6.31-12.91l.36-1.18s.07,0,.11-.01c6.45-.72,7.5-1.97,7.5-8.49v-7.12c1.17-.26,2.34-.55,3.49-.9,3.3-1,4.35-3.4,1.88-5.32-2.75-2.14-2.32-4.56-2.37-7.16-.05-2.5-.01-5-.01-7.5v-1.03c2.56-.27,4.29-2.61,2.78-5.35-2.98-5.39-.82-10.43-.78-15.62h0s.33-.79.33-.79c1.5-.07,2.85-.62,3.67-2.71-.47-.46-1.18-.86-2.07-1.23l.53-1.31ZM7.66,41.73v-.14s0,.14,0,.14h0Z"/>
  <path class="cls-6" d="M24.53,84.46c14.81-2.31,11.26-15.41,2.33-19.16-7.67-3.22-15.82,4.55-12.97,12.36,1.36,3.72,4.82,6.21,10.04,6.79"/>
  <path class="cls-10" d="M33.95,114.44c4.43,16.08-20.18,16.47-17,0,5.66-.45,11.32-.19,17,0Z"/>
  <path class="cls-15" d="M25.05,115.44c.56.4.94.9.73,1.5-.13.25-.45.5-.51.75-.07.25.04.5.22.75.36.46.53.96.52,1.5-.09.5-.33,1-.97,1.5-.06.05-.14.04-.2,0-.64-.5-.88-1-.97-1.5-.01-.54.16-1.04.52-1.5.19-.25.3-.5.22-.75-.06-.25-.38-.5-.51-.75-.2-.6.18-1.1.73-1.5.06-.04.14-.04.2,0h0Z"/>
  <path class="cls-15" d="M25.23,69.76c.37.81.45,1.56-.11,2.16-.28.23-.77.35-.98.62-.22.26-.26.61-.21,1,.11.74,0,1.42-.34,2.05-.39.54-.94,1.01-1.91,1.26-.09.02-.18-.02-.21-.11-.38-.93-.34-1.64-.14-2.28.3-.64.78-1.14,1.43-1.5.35-.2.61-.43.68-.77.08-.33-.11-.79-.1-1.16.15-.81.8-1.19,1.66-1.38.09-.02.17.03.21.11h0Z"/>
  <path class="cls-4" d="M24.27,104.84c7.88-1.23,5.99-8.2,1.24-10.2-4.08-1.72-8.42,2.42-6.9,6.58.72,1.98,2.57,3.3,5.34,3.62"/>
  <path class="cls-15" d="M24.67,97.04c.33.43.58.98.19,1.27-.45.16-1.01.14-.73.81.39,1.02-.09,1.65-1.34,1.68-.07,0-.14-.03-.18-.09-.73-1.02-.51-1.78.54-2.08.25-.07.42-.18.44-.37.02-.18-.18-.48-.22-.7-.04-.21.12-.33.29-.45.16-.08.71-.31,1.02-.08h0Z"/>
  <path class="cls-10" d="M24.39,54.94c11.13-1.74,8.47-11.59,1.76-14.41-5.77-2.42-11.9,3.42-9.75,9.3,1.02,2.8,3.63,4.67,7.55,5.11"/>
  <path class="cls-15" d="M24.93,43.89c.32.61.44,1.22,0,1.66-.23.16-.63.24-.79.44-.17.19-.19.46-.13.77.12.57.05,1.09-.2,1.56-.3.4-.74.74-1.53.9-.07.01-.15-.02-.18-.09-.35-.73-.34-1.28-.2-1.76.23-.49.61-.85,1.13-1.1.28-.14.49-.31.53-.57.06-.25-.12-.61-.12-.89.09-.63.65-.89,1.32-1,.07,0,.14.03.18.09h0Z"/>
  <path class="cls-10" d="M24.34,32.91c9.77-1.53,7.43-10.17,1.54-12.64-5.06-2.13-10.44,3-8.56,8.16.9,2.45,3.18,4.09,6.63,4.48"/>
  <path class="cls-15" d="M24.82,23.22c.33.53.5,1.12.07,1.5-.21.14-.6.19-.75.36-.16.16-.16.41-.09.68.14.51.11.97-.12,1.4-.27.35-.68.63-1.45.74-.07,0-.14-.03-.18-.09-.38-.68-.4-1.17-.28-1.6.21-.44.56-.74,1.05-.94.27-.11.46-.26.49-.48.04-.22-.15-.56-.17-.81.05-.57.62-.78,1.24-.84.07,0,.14.03.18.09h0Z"/>
  <path class="cls-8" d="M22.39,10.9c-.81-1.82-.6-3.44.81-4.85,1.42-1.41,3.82-1.74,5.51-.68,1.69,1.06,2.42,3.46,1.52,5.24"/>
  <path class="cls-15" d="M24.81,10.49c-.94-.61-.61-2.06.39-2.42.83-.55,2.06-.71,2.7.28.38.6.34,1.43-.13,1.88-.03.03-.07,0-.07-.03.04-1.24-1.13-2.6-2.36-1.93-.46.54-.52,1.4-.46,2.18,0,.03-.03.06-.06.04h0Z"/>
  <path class="cls-9" d="M19.21,15.28c4.84-1.61,10.31-1.77,15.26-.43"/>
  <path class="cls-7" d="M11.45,22.06c7.7-4.54,18.85-4.28,27.31-2.72"/>
  <path class="cls-1" d="M10.5,23.83c4.04-1.99,8.21-4.02,12.71-4.33,3.06-.2,6.11.4,9.17.46,1.58.03,3.18-.09,4.75.11s3.16.77,4.23,1.95"/>
  <path class="cls-15" d="M38.97,20.63c.73,1.56.85,3.24.81,4.93.33,2.68,1.07,5.84.09,8.31-.55-2.76-.16-5.51-.34-8.29-.32-1.57-.9-3.48-.57-4.95h0Z"/>
  <path class="cls-15" d="M35.84,20.23c.64,1.57.66,3.22.52,4.86.18,2.64.75,5.77-.35,8.14-.41-2.73.12-5.4.1-8.12-.23-1.55-.7-3.45-.28-4.87h0Z"/>
  <path class="cls-1" d="M6.95,41.75c24.29-4.05,33.11-.97,41.37.52"/>
  <path class="cls-15" d="M44.58,41.69c.39,1.98.25,3.95,0,5.92.02,3.28.56,6.68-.27,9.89-.7-3.27-.1-6.6.03-9.89-.13-1.9-.39-4.23.24-5.91h0Z"/>
  <path class="cls-15" d="M40.84,41.29c.41,1.95.28,3.88.05,5.83.05,3.23.61,6.57-.19,9.74-.73-3.22-.15-6.5-.05-9.74-.15-1.87-.42-4.16.2-5.83h0Z"/>
  <path class="cls-15" d="M37.88,40.73c.38,1.95.24,3.89-.02,5.83,0,3.23.54,6.58-.31,9.74-.69-3.22-.08-6.5.06-9.75-.13-1.87-.38-4.17.26-5.82h0Z"/>
  <path class="cls-13" d="M8.26,39.02c6.39-1.05,12.8-2.08,19.26-2.34s13,.28,19.19,2.29"/>
  <path class="cls-2" d="M5.47,62.85c14.15-3.11,28.6-3.33,42.8-.66"/>
  <path class="cls-15" d="M52.27,68.7c.62,2.4.57,4.87.29,7.31-.03,4.06.07,8.33-1.52,12.11.08-4.07,1.09-8.06,1.27-12.12-.09-2.37-.48-5.11-.05-7.3h0Z"/>
  <path class="cls-15" d="M49.33,66.79c.59,2.58.47,5.21.09,7.8-.2,4.32-.39,8.88-2.32,12.81.44-4.31,1.72-8.5,2.08-12.83,0-2.53-.3-5.44.16-7.79h0Z"/>
  <path class="cls-15" d="M46.33,66.31c.45,2.56.29,5.13-.06,7.68-.16,4.19.04,8.89-1.42,12.72-.03-4.3.87-8.47,1.18-12.73-.03-2.49-.29-5.39.3-7.67h0Z"/>
  <path class="cls-15" d="M42.9,65.28c.68,2.63.68,5.33.45,8,.05,4.45.23,9.1-1.31,13.32.02-4.46.97-8.86,1.07-13.32-.14-2.6-.59-5.57-.21-8h0Z"/>
  <path class="cls-15" d="M40.35,65.51c.37,2.63.25,5.26-.12,7.88-.21,2.62,0,5.27-.25,7.89-.15,1.76-.4,3.51-.76,5.24-.02.08-.1.13-.18.12-.28-.09.06-.85.06-1.12,0-.02.02-.03.05-.03.1.29.04.68.08,1,0,0-.3-.03-.3-.03.03-1.76.11-3.5.26-5.24.19-2.61.74-5.21.78-7.83-.06-2.46-.2-5.64.39-7.87h0Z"/>
  <path class="cls-12" d="M3.74,93.38c16.24-3.41,32.96-4.3,49.44-2.64"/>
  <path class="cls-15" d="M48.67,93.13c.42,1.72.3,3.44.08,5.16.07,2.86.65,5.84-.13,8.63-.74-2.83-.2-5.76-.11-8.63-.16-1.65-.45-3.71.16-5.16h0Z"/>
  <path class="cls-15" d="M46.09,93.33c.42,1.72.3,3.42.08,5.13.07,2.85.65,5.81-.13,8.59-.74-2.82-.2-5.73-.11-8.59-.16-1.64-.45-3.69.16-5.13h0Z"/>
  <path class="cls-15" d="M43.78,93.13c.42,1.7.3,3.38.08,5.07.07,2.81.65,5.74-.13,8.48-.74-2.78-.2-5.66-.11-8.48-.16-1.62-.45-3.65.16-5.07h0Z"/>
  <path class="cls-15" d="M41.13,93.33c.42,1.58.3,3.14.08,4.72.07,2.62.65,5.36-.13,7.9-.74-2.59-.2-5.26-.11-7.9-.16-1.5-.45-3.42.16-4.72h0Z"/>
  <path class="cls-15" d="M38.36,93.53c.42,1.5.3,2.99.08,4.49.07,2.49.65,5.1-.13,7.51-.73-2.46-.2-5.01-.11-7.51-.16-1.42-.45-3.26.16-4.49h0Z"/>
  <path class="cls-3" d="M8.2,111.16c14.12-2.66,28.75-2.64,42.86.07"/>
  <path class="cls-15" d="M46.35,114.91s-.08.14-.04.04c.4,1.96.27,3.92.06,5.88.05,3.2.7,6.81-.16,9.8-.66-3.27-.2-6.53-.08-9.8-.2-1.97-.36-3.95.08-5.92.03-.02.16-.12.13,0h0Z"/>
  <path class="cls-15" d="M43.3,114.58l-.05.08.02-.04c.4,2.08.27,4.15.06,6.23.05,3.39.7,7.2-.16,10.38-.66-3.46-.2-6.91-.08-10.38-.21-2.08-.34-4.16.07-6.25,0,0,0-.02.01-.02l.08-.05s.08.02.05.05h0Z"/>
  <path class="cls-15" d="M40.4,114.76c.27,2.05.26,4.24.01,6.35.08,3.28.69,6.97-.15,10.04-.64-3.35-.23-6.69-.08-10.04-.18-2.02-.35-4.03.02-6.05.05-.12.13-.44.2-.3h0Z"/>
  <path class="cls-15" d="M37.5,114.42c.42,2.15.31,4.3.08,6.45.07,3.58.66,7.26-.13,10.78-.75-3.55-.19-7.19-.12-10.78-.16-2.07-.45-4.58.16-6.45h0Z"/>
  <path class="cls-11" d="M9.45,133.35c3.3,1.44,6.93,1.59,10.49,1.71,5.41.17,10.83.3,16.24,0,4.81-.27,9.83-.98,13.78-3.97"/>
  <path class="cls-15" d="M43.71,137.64c.42,1.71.3,3.4.08,5.11.07,2.83.65,5.79-.13,8.55-.74-2.8-.2-5.7-.11-8.55-.16-1.63-.45-3.68.16-5.11h0Z"/>
  <path class="cls-15" d="M40.47,138.56c.42,1.68.3,3.36.08,5.04.07,2.79.65,5.71-.13,8.43-.74-2.76-.2-5.62-.11-8.43-.16-1.61-.45-3.63.16-5.04h0Z"/>
  <path class="cls-15" d="M37.1,138.89c.42,1.67.3,3.32.08,4.99.07,2.77.65,5.65-.13,8.34-.74-2.73-.2-5.56-.11-8.34-.16-1.59-.45-3.59.16-4.99h0Z"/>
  <path class="cls-15" d="M33.46,139.03c.42,1.72.3,3.42.08,5.14.07,2.85.65,5.82-.13,8.6-.74-2.82-.2-5.73-.11-8.6-.16-1.64-.45-3.7.16-5.14h0Z"/>
  <path class="cls-15" d="M30.29,138.69c.42,1.76.3,3.5.08,5.26.07,2.92.65,5.95-.13,8.79-.74-2.88-.2-5.86-.11-8.79-.16-1.68-.45-3.78.16-5.26h0Z"/>
  <path class="cls-15" d="M26.64,139.05l-.05.08.02-.04c.41,1.74.26,3.47.06,5.21.06,2.83.7,6.08-.16,8.69-.66-2.89-.2-5.78-.08-8.69-.2-1.75-.36-3.51.08-5.26.03-.02.16-.12.13,0h0Z"/>
  <path class="cls-15" d="M23.01,139.17s-.03.26-.02.19c.39,1.61.21,3.21.03,4.81.08,2.61.68,5.63-.16,8.02-.65-2.66-.22-5.34-.08-8.02-.18-1.61-.36-3.22.03-4.84.05-.07.14-.28.19-.16h0Z"/>
  <path class="cls-15" d="M19.51,139.62c.42,1.53.3,3.04.08,4.56.07,2.53.65,5.19-.13,7.64-.73-2.5-.2-5.09-.11-7.64-.16-1.45-.45-3.31.16-4.56h0Z"/>
  <path class="cls-15" d="M16.8,139.55c.42,1.43.3,2.84.08,4.27.07,2.36.65,4.86-.13,7.14-.73-2.33-.2-4.76-.11-7.14-.22-1.42-.34-2.84.08-4.27,0-.04.07-.04.07,0h0Z"/>
  <path class="cls-15" d="M24.1,155.21c1.77-.44,3.53-.34,5.31-.14,2.94-.11,6-.72,8.88.03-2.9.77-5.92.27-8.87.21-1.69.18-3.81.5-5.31-.1h0Z"/>
  <path class="cls-15" d="M24.17,157.88c1.83-.43,3.65-.32,5.48-.12,3.04-.09,6.19-.69,9.17.07-3,.76-6.11.24-9.16.17-1.75.17-3.92.48-5.48-.13h0Z"/>
  <path class="cls-15" d="M24.17,160.63c1.8-.4,3.57-.26,5.36-.01,2.97-.03,6.07-.57,8.96.25-2.95.7-5.98.12-8.96,0-1.71.14-3.85.4-5.35-.23h0Z"/>
  <path class="cls-15" d="M24.5,163.43c1.71-.38,3.39-.22,5.09.04,2.82,0,5.77-.51,8.5.34-2.81.67-5.68.06-8.51-.09-1.62.12-3.67.36-5.08-.28h0Z"/>
  <path class="cls-5" d="M7.45,95.94c.4,3.51-1.05,7.29,1.37,10.54,12.15-1.04,24.16-2.46,36.15.39,1.72.41,3.71.41,5.48-.43"/>
  <path class="cls-5" d="M48.45,58.44c-8.97-1.11-17.86-3.19-27-2.51-5.13.38-10.22.7-15.05,2.9-1.42.65-3.13,1.52-2.82,2.57,1.68,5.7-3.03,10.07-2.76,15.54.25,5.15.98,10.28.91,15.5-.04,3.27,4.06,2.75,6.72,2.48,13.13-1.35,26.29-2.14,39.5-1.99,2.75.03,5.99,1.33,7.5-2.48-4.84-4.67-33.39-4.67-52.5,0"/>
  <path class="cls-5" d="M8.81,106.48c-1.92,1.85-1.91,4.94-2.67,7.46,6.79,0,12.8.03,18.8,0,7.85-.05,15.68.2,23.5.98,3.07.31,5.48-2.27,3.77-5.35-2.98-5.39-.82-10.43-.78-15.62"/>
  <path class="cls-5" d="M50.95,66.44c-15.5-2.3-31-2.72-46.5,0"/>
  <path class="cls-5" d="M49.95,129.44c-4.27,2.07-9,2.03-13.51,2.37-6.79.51-13.66.04-20.49.18-2.37.05-4.26-1.35-6.5-1.55"/>
  <path class="cls-5" d="M38.45,153.44c.93,4.38.49,8.7-.28,13.09-4.55,1.21-8.88,1.21-13.43,0-1.28-4.33-.64-8.74-.79-13.09"/>
  <path class="cls-5" d="M53.95,87.94c1.36-4.23,1.56-8.59,1.57-13,0-1.82-.35-4.25-1.19-4.84-4.54-3.18-2.56-9-5.69-12.83-1.22-1.5-.2-4.84-.2-7.34v-13.32c-13.71-5.08-27.6-3.14-41.5-.68"/>
  <path class="cls-5" d="M49.45,115.94c0,2.5-.04,5,.01,7.5.05,2.6-.38,5.01,2.37,7.16,2.47,1.92,1.41,4.32-1.88,5.32-7.82,2.37-15.96,2.46-24,2.93-4.63.27-9.42.83-13.98-.46-5.09-1.44-5.52-2.57-3.49-7.44.79-1.89.24-3.64.05-5.52-.29-2.97-.08-7.99-.08-10.99"/>
  <path class="cls-5" d="M33.95,11.44c1.39-3.92-.11-7.05-3.04-9.45-2.11-1.72-4.58-1.42-6.97-.07-3.57,2.02-5.13,5.34-4.29,8.97.51,2.23-.86,3.68-.7,5.54"/>
  <path class="cls-5" d="M43.45,34.44c-.05-3.53.12-7.03-.94-10.52-1.42-4.69-5.17-7.35-9.56-7.01-5.33.41-10.71-.5-16.01.99-5.23,1.47-6.58,2.82-6.45,8.04.07,2.83-.65,5.72.46,8.5"/>
  <path class="cls-5" d="M6.95,35.94c.12,6.69-1.55,15.66.5,22"/>
  <path class="cls-5" d="M46.45,137.94v6c0,6.52-1.06,7.77-7.5,8.49-6.68.74-13.34.72-20.01-.42-2.04-.35-3.21-1.11-3.47-3.07-.39-2.99-1.45-5.91-1.02-9"/>
  <path class="cls-5" d="M35.45,16.44c.1-3.77-1.58-5.64-5.5-5.54-3.25.09-6.52-.17-9.5,1.54"/>
</svg>