<svg width="970" height="1003" viewBox="0 0 970 1003" fill="none" xmlns="http://www.w3.org/2000/svg">
<rect width="970" height="1003" fill="#0C0B22"/>
<path d="M466.536 147.3C462.666 147.3 459.096 146.04 457.236 143.1L460.056 139.8C461.406 142.32 464.316 143.43 466.716 143.43C468.456 143.43 469.716 142.89 469.716 141.51C469.716 139.95 468.396 139.44 465.726 138.9L463.776 138.48C460.656 137.85 457.716 136.47 457.716 132.66C457.716 128.73 461.106 126.66 465.186 126.66C468.966 126.66 471.996 128.1 473.676 130.5L470.766 133.77C469.446 131.67 467.106 130.53 464.796 130.53C463.266 130.53 462.156 131.19 462.156 132.36C462.156 133.83 463.446 134.37 465.546 134.85L467.826 135.39C471.576 136.26 474.126 137.79 474.126 141.39C474.126 145.23 470.886 147.3 466.536 147.3ZM480.873 147H476.583V126.9H480.873V134.88L480.663 138.72L483.363 135.48L486.453 132.3H491.523L485.763 138.18L491.493 147H486.603L482.883 140.73L480.873 142.83V147ZM497.602 130.56H493.312V126.9H497.602V130.56ZM497.602 147H493.312V132.3H497.602V147ZM504.926 147H500.636V126.9H504.926V147ZM512.25 147H507.96V126.9H512.25V147Z" fill="#FFE800"/>
<rect x="165" y="221" width="640" height="203" rx="8.30769" fill="white"/>
<path d="M202 383C202 337.16 239.16 300 285 300H763C766.314 300 769 302.686 769 306V311C769 356.84 731.84 394 686 394H208C204.686 394 202 391.314 202 388V383Z" fill="#45C7FF"/>
<path d="M224.358 260.663C219.474 255.779 211.554 255.779 206.663 260.663C201.779 265.547 201.779 273.467 206.663 278.358C206.871 278.566 207.086 278.761 207.301 278.949L215.497 287.145L223.599 279.043C223.632 279.016 223.666 278.989 223.7 278.956C223.921 278.761 224.143 278.566 224.351 278.351C229.235 273.467 229.235 265.547 224.351 260.656L224.358 260.663Z" fill="#191919"/>
<path d="M239.103 278.358C243.987 273.474 243.987 265.554 239.103 260.663C234.219 255.779 226.299 255.779 221.408 260.663C221.2 260.871 221.005 261.086 220.817 261.301L212.621 269.497L220.723 277.599C220.75 277.632 220.777 277.666 220.81 277.7C221.005 277.921 221.2 278.143 221.415 278.351C226.299 283.235 234.219 283.235 239.11 278.351L239.103 278.358Z" fill="#191919"/>
<path d="M635.078 282.24C628.778 282.24 625.088 277.71 625.088 271.92C625.088 266.13 628.778 261.6 635.078 261.6C639.428 261.6 642.548 263.79 644.078 267.33L640.418 270.27C639.818 267.75 638.108 265.71 635.048 265.71C631.538 265.71 629.708 268.26 629.708 271.92C629.708 275.58 631.538 278.13 635.048 278.13C638.108 278.13 639.818 276.09 640.418 273.57L644.078 276.51C642.548 280.05 639.428 282.24 635.078 282.24ZM653.303 282.3C648.623 282.3 645.773 279.18 645.773 274.65C645.773 270.12 648.623 267 652.943 267C657.623 267 659.963 270.12 659.963 273.96C659.963 274.59 659.903 275.43 659.813 275.76H649.793C650.063 277.83 651.443 278.82 653.363 278.82C655.433 278.82 656.543 277.92 657.083 276.66L659.693 279.27C658.583 280.86 656.603 282.3 653.303 282.3ZM652.973 270.3C651.143 270.3 650.003 271.32 649.793 273.3H656.093C655.943 271.35 654.893 270.3 652.973 270.3ZM667.019 282H662.729V267.3H667.019V271.92C667.499 269.46 668.939 267 671.759 267C673.919 267 675.119 268.38 675.119 270.69C675.119 272.28 674.639 273.54 674.279 274.11H670.139C670.679 273.57 671.189 272.52 671.189 271.68C671.189 270.84 670.799 270.21 669.869 270.21C668.399 270.21 667.019 271.8 667.019 274.23V282ZM683.146 282.3C679.906 282.3 678.376 280.38 678.376 277.65V270.57H676.186V267.3H678.376V265.56L682.666 263.31V267.3H686.746V270.57H682.666V276.87C682.666 278.07 683.266 278.49 684.106 278.49C685.036 278.49 685.846 277.74 686.296 276.93L687.526 280.44C686.896 281.25 685.396 282.3 683.146 282.3ZM694.045 265.56H689.755V261.9H694.045V265.56ZM694.045 282H689.755V267.3H694.045V282ZM702.689 282H698.399V270.57H696.359V267.3H698.399V266.64C698.399 263.31 700.829 261.6 704.249 261.6C706.469 261.6 708.479 262.38 709.619 263.1L708.149 266.1C707.429 265.47 706.049 264.87 704.549 264.87C703.169 264.87 702.689 265.59 702.689 266.7V267.3H711.209V282H706.919V270.57H702.689V282ZM721.127 282.3C716.597 282.3 713.747 279.15 713.747 274.65C713.747 270.18 716.597 267 721.127 267C724.637 267 727.067 268.92 727.967 271.44L724.397 273.51C724.037 271.68 723.077 270.57 721.277 270.57C719.387 270.57 718.127 271.95 718.127 274.65C718.127 277.35 719.387 278.73 721.277 278.73C723.107 278.73 724.037 277.62 724.397 275.79L727.967 277.86C727.067 280.38 724.637 282.3 721.127 282.3ZM733.562 282.33C731.282 282.33 729.692 281.1 729.692 278.73C729.692 276.51 731.102 275.22 733.892 274.26L738.392 272.58C738.242 271.35 737.672 270.66 736.052 270.66C734.192 270.66 732.482 271.71 731.462 273.18L729.302 270.06C730.772 268.47 733.202 267 736.352 267C740.072 267 742.232 268.98 742.232 272.67V277.71C742.232 278.37 742.472 278.58 743.012 278.58H743.882V282H741.362C739.772 282 738.332 281.28 738.332 279.18V278.19C737.852 280.11 736.562 282.33 733.562 282.33ZM733.652 278.1C733.652 278.79 734.132 279.18 735.152 279.18C737.192 279.18 738.332 278.16 738.332 276.36V275.34L735.212 276.63C734.042 277.11 733.652 277.53 733.652 278.1ZM751.678 282.3C748.438 282.3 746.908 280.38 746.908 277.65V270.57H744.718V267.3H746.908V265.56L751.198 263.31V267.3H755.278V270.57H751.198V276.87C751.198 278.07 751.798 278.49 752.638 278.49C753.568 278.49 754.378 277.74 754.828 276.93L756.058 280.44C755.428 281.25 753.928 282.3 751.678 282.3ZM764.278 282.3C759.598 282.3 756.748 279.18 756.748 274.65C756.748 270.12 759.598 267 763.918 267C768.598 267 770.938 270.12 770.938 273.96C770.938 274.59 770.878 275.43 770.788 275.76H760.768C761.038 277.83 762.418 278.82 764.338 278.82C766.408 278.82 767.518 277.92 768.058 276.66L770.668 279.27C769.558 280.86 767.578 282.3 764.278 282.3ZM763.948 270.3C762.118 270.3 760.978 271.32 760.768 273.3H767.068C766.918 271.35 765.868 270.3 763.948 270.3Z" fill="black"/>
<path d="M414.456 339.608H416.472V348.712H414.456V339.608ZM411.624 339.864H413.608V348.68H411.624V339.864ZM409.448 346.84H412.424V348.232H409.448V346.84ZM406.456 345.8H408.488V348.632H406.456V345.8ZM403.752 346.664L403.56 345.08C404.04 345.08 404.584 345.08 405.192 345.08C405.811 345.069 406.456 345.053 407.128 345.032C407.8 345 408.467 344.957 409.128 344.904C409.8 344.851 410.435 344.776 411.032 344.68L411.176 346.088C410.365 346.269 409.507 346.403 408.6 346.488C407.704 346.563 406.829 346.611 405.976 346.632C405.133 346.653 404.392 346.664 403.752 346.664ZM405.928 349.192H408.04V350.168H414.376V349.192H416.472V354.264H405.928V349.192ZM408.04 351.736V352.616H414.376V351.736H408.04ZM407.4 340.088C408.371 340.088 409.155 340.291 409.752 340.696C410.349 341.101 410.648 341.64 410.648 342.312C410.648 342.984 410.349 343.523 409.752 343.928C409.155 344.333 408.371 344.536 407.4 344.536C406.44 344.536 405.661 344.333 405.064 343.928C404.467 343.523 404.168 342.984 404.168 342.312C404.168 341.64 404.467 341.101 405.064 340.696C405.661 340.291 406.44 340.088 407.4 340.088ZM407.4 341.544C406.995 341.544 406.669 341.608 406.424 341.736C406.179 341.864 406.056 342.056 406.056 342.312C406.056 342.568 406.179 342.76 406.424 342.888C406.669 343.016 406.995 343.08 407.4 343.08C407.805 343.08 408.131 343.016 408.376 342.888C408.621 342.76 408.744 342.568 408.744 342.312C408.744 342.056 408.621 341.864 408.376 341.736C408.131 341.608 407.805 341.544 407.4 341.544ZM428.375 339.592H430.503V354.456H428.375V339.592ZM419.111 349.16H420.391C421.425 349.16 422.332 349.149 423.111 349.128C423.9 349.107 424.62 349.064 425.271 349C425.932 348.936 426.593 348.84 427.255 348.712L427.447 350.472C426.775 350.6 426.097 350.701 425.415 350.776C424.743 350.84 424.001 350.883 423.191 350.904C422.38 350.915 421.447 350.92 420.391 350.92H419.111V349.16ZM419.111 340.904H426.247V342.632H421.223V349.832H419.111V340.904ZM436.086 341.944H437.766V343.608C437.766 344.429 437.675 345.251 437.494 346.072C437.323 346.893 437.067 347.667 436.726 348.392C436.384 349.107 435.952 349.747 435.43 350.312C434.918 350.877 434.32 351.32 433.638 351.64L432.438 349.96C433.056 349.672 433.59 349.293 434.038 348.824C434.496 348.355 434.875 347.832 435.174 347.256C435.483 346.68 435.712 346.083 435.862 345.464C436.011 344.835 436.086 344.216 436.086 343.608V341.944ZM436.534 341.944H438.214V343.608C438.214 344.163 438.288 344.733 438.438 345.32C438.587 345.907 438.806 346.472 439.094 347.016C439.392 347.56 439.766 348.056 440.214 348.504C440.672 348.941 441.206 349.299 441.814 349.576L440.63 351.272C439.947 350.952 439.35 350.525 438.838 349.992C438.336 349.448 437.91 348.835 437.558 348.152C437.216 347.459 436.96 346.728 436.79 345.96C436.619 345.181 436.534 344.397 436.534 343.608V341.944ZM433.014 341.016H441.158V342.776H433.014V341.016ZM442.23 339.608H444.374V354.424H442.23V339.608ZM443.91 345.256H446.518V347H443.91V345.256ZM457.508 339.608H459.636V350.248H457.508V339.608ZM449.764 352.456H460.02V354.168H449.764V352.456ZM449.764 349.192H451.892V353.16H449.764V349.192ZM451.572 340.552C452.33 340.552 453.012 340.712 453.62 341.032C454.228 341.352 454.708 341.795 455.06 342.36C455.423 342.925 455.604 343.576 455.604 344.312C455.604 345.027 455.423 345.672 455.06 346.248C454.708 346.813 454.228 347.261 453.62 347.592C453.012 347.912 452.33 348.072 451.572 348.072C450.815 348.072 450.132 347.912 449.524 347.592C448.916 347.261 448.431 346.813 448.068 346.248C447.716 345.672 447.54 345.027 447.54 344.312C447.54 343.576 447.716 342.925 448.068 342.36C448.431 341.795 448.916 341.352 449.524 341.032C450.132 340.712 450.815 340.552 451.572 340.552ZM451.572 342.376C451.21 342.376 450.879 342.456 450.58 342.616C450.282 342.765 450.047 342.984 449.876 343.272C449.706 343.549 449.62 343.896 449.62 344.312C449.62 344.707 449.706 345.048 449.876 345.336C450.047 345.613 450.282 345.832 450.58 345.992C450.879 346.141 451.21 346.216 451.572 346.216C451.935 346.216 452.266 346.141 452.564 345.992C452.863 345.832 453.098 345.613 453.268 345.336C453.439 345.048 453.524 344.707 453.524 344.312C453.524 343.896 453.439 343.549 453.268 343.272C453.098 342.984 452.863 342.765 452.564 342.616C452.266 342.456 451.935 342.376 451.572 342.376ZM472.099 339.592H474.227V354.408H472.099V339.592ZM467.731 341.128H469.827C469.827 342.259 469.715 343.341 469.491 344.376C469.278 345.4 468.915 346.365 468.403 347.272C467.902 348.179 467.208 349.021 466.323 349.8C465.448 350.568 464.355 351.272 463.043 351.912L461.923 350.232C463.352 349.539 464.488 348.776 465.331 347.944C466.184 347.101 466.798 346.152 467.171 345.096C467.544 344.029 467.731 342.835 467.731 341.512V341.128ZM462.723 341.128H468.723V342.824H462.723V341.128ZM478.13 343.288H488.37V344.968H478.13V343.288ZM478.13 339.848H480.258V344.056H478.13V339.848ZM476.466 346.232H489.858V347.928H476.466V346.232ZM483.106 348.888C484.706 348.888 485.964 349.128 486.882 349.608C487.799 350.077 488.258 350.755 488.258 351.64C488.258 352.504 487.799 353.176 486.882 353.656C485.964 354.147 484.706 354.392 483.106 354.392C481.506 354.392 480.247 354.147 479.33 353.656C478.423 353.176 477.97 352.504 477.97 351.64C477.97 350.755 478.423 350.077 479.33 349.608C480.247 349.128 481.506 348.888 483.106 348.888ZM483.106 350.504C482.444 350.504 481.89 350.547 481.442 350.632C481.004 350.707 480.674 350.829 480.45 351C480.226 351.16 480.114 351.368 480.114 351.624C480.114 351.88 480.226 352.093 480.45 352.264C480.674 352.424 481.004 352.547 481.442 352.632C481.89 352.717 482.444 352.76 483.106 352.76C483.767 352.76 484.316 352.717 484.754 352.632C485.202 352.547 485.538 352.424 485.762 352.264C485.986 352.093 486.098 351.88 486.098 351.624C486.098 351.368 485.986 351.16 485.762 351C485.538 350.829 485.202 350.707 484.754 350.632C484.316 350.547 483.767 350.504 483.106 350.504ZM494.337 340.744H496.049V342.888C496.049 343.805 495.969 344.701 495.809 345.576C495.649 346.44 495.398 347.245 495.057 347.992C494.726 348.739 494.305 349.405 493.793 349.992C493.281 350.568 492.678 351.027 491.985 351.368L490.705 349.656C491.334 349.368 491.873 348.984 492.321 348.504C492.779 348.024 493.158 347.48 493.457 346.872C493.755 346.264 493.974 345.624 494.113 344.952C494.262 344.269 494.337 343.581 494.337 342.888V340.744ZM494.753 340.744H496.465V342.888C496.465 343.56 496.529 344.221 496.657 344.872C496.795 345.523 497.003 346.141 497.281 346.728C497.569 347.304 497.926 347.821 498.353 348.28C498.779 348.739 499.291 349.117 499.889 349.416L498.593 351.112C497.931 350.771 497.355 350.323 496.865 349.768C496.385 349.203 495.99 348.557 495.681 347.832C495.371 347.096 495.137 346.312 494.977 345.48C494.827 344.637 494.753 343.773 494.753 342.888V340.744ZM500.465 339.608H502.609V354.424H500.465V339.608ZM502.145 345.304H504.753V347.064H502.145V345.304Z" fill="black"/>
<path d="M279.119 353V351.727L283.057 347.648C283.477 347.205 283.824 346.816 284.097 346.483C284.373 346.146 284.58 345.826 284.716 345.523C284.852 345.22 284.92 344.898 284.92 344.557C284.92 344.17 284.83 343.837 284.648 343.557C284.466 343.273 284.218 343.055 283.903 342.903C283.589 342.748 283.235 342.67 282.841 342.67C282.424 342.67 282.061 342.756 281.75 342.926C281.439 343.097 281.201 343.337 281.034 343.648C280.867 343.958 280.784 344.322 280.784 344.739H279.108C279.108 344.03 279.271 343.411 279.597 342.881C279.922 342.35 280.369 341.939 280.938 341.648C281.506 341.352 282.152 341.205 282.875 341.205C283.606 341.205 284.25 341.35 284.807 341.642C285.367 341.93 285.805 342.324 286.119 342.824C286.434 343.32 286.591 343.881 286.591 344.506C286.591 344.938 286.509 345.36 286.347 345.773C286.188 346.186 285.909 346.646 285.511 347.153C285.114 347.657 284.561 348.269 283.852 348.989L281.54 351.409V351.494H286.778V353H279.119ZM292.823 353.193C291.925 353.189 291.158 352.953 290.522 352.483C289.885 352.013 289.399 351.33 289.062 350.432C288.724 349.534 288.556 348.453 288.556 347.188C288.556 345.926 288.724 344.848 289.062 343.955C289.403 343.061 289.891 342.379 290.528 341.909C291.168 341.439 291.933 341.205 292.823 341.205C293.713 341.205 294.476 341.441 295.113 341.915C295.749 342.384 296.236 343.066 296.573 343.96C296.914 344.85 297.084 345.926 297.084 347.188C297.084 348.456 296.916 349.54 296.579 350.438C296.242 351.331 295.755 352.015 295.118 352.489C294.482 352.958 293.717 353.193 292.823 353.193ZM292.823 351.676C293.611 351.676 294.226 351.292 294.67 350.523C295.117 349.754 295.34 348.642 295.34 347.188C295.34 346.222 295.238 345.405 295.033 344.739C294.832 344.068 294.543 343.561 294.164 343.216C293.789 342.867 293.342 342.693 292.823 342.693C292.039 342.693 291.423 343.08 290.976 343.852C290.529 344.625 290.304 345.737 290.3 347.188C290.3 348.157 290.401 348.977 290.601 349.648C290.806 350.314 291.096 350.82 291.471 351.165C291.846 351.506 292.296 351.676 292.823 351.676ZM298.94 353V351.727L302.877 347.648C303.298 347.205 303.644 346.816 303.917 346.483C304.194 346.146 304.4 345.826 304.537 345.523C304.673 345.22 304.741 344.898 304.741 344.557C304.741 344.17 304.65 343.837 304.468 343.557C304.287 343.273 304.038 343.055 303.724 342.903C303.41 342.748 303.055 342.67 302.662 342.67C302.245 342.67 301.881 342.756 301.571 342.926C301.26 343.097 301.021 343.337 300.855 343.648C300.688 343.958 300.605 344.322 300.605 344.739H298.929C298.929 344.03 299.091 343.411 299.417 342.881C299.743 342.35 300.19 341.939 300.758 341.648C301.326 341.352 301.972 341.205 302.696 341.205C303.427 341.205 304.071 341.35 304.627 341.642C305.188 341.93 305.626 342.324 305.94 342.824C306.254 343.32 306.412 343.881 306.412 344.506C306.412 344.938 306.33 345.36 306.167 345.773C306.008 346.186 305.73 346.646 305.332 347.153C304.934 347.657 304.381 348.269 303.673 348.989L301.36 351.409V351.494H306.599V353H298.94ZM308.098 350.727V349.307L313.127 341.364H314.246V343.455H313.536L309.939 349.148V349.239H316.831V350.727H308.098ZM313.615 353V350.295L313.627 349.648V341.364H315.291V353H313.615ZM319.356 353.108C319.045 353.108 318.778 352.998 318.555 352.778C318.331 352.555 318.219 352.286 318.219 351.972C318.219 351.661 318.331 351.396 318.555 351.176C318.778 350.953 319.045 350.841 319.356 350.841C319.666 350.841 319.933 350.953 320.157 351.176C320.38 351.396 320.492 351.661 320.492 351.972C320.492 352.18 320.439 352.371 320.333 352.545C320.231 352.716 320.094 352.852 319.924 352.955C319.753 353.057 319.564 353.108 319.356 353.108ZM326.214 353.193C325.316 353.189 324.549 352.953 323.913 352.483C323.277 352.013 322.79 351.33 322.453 350.432C322.116 349.534 321.947 348.453 321.947 347.188C321.947 345.926 322.116 344.848 322.453 343.955C322.794 343.061 323.282 342.379 323.919 341.909C324.559 341.439 325.324 341.205 326.214 341.205C327.104 341.205 327.868 341.441 328.504 341.915C329.14 342.384 329.627 343.066 329.964 343.96C330.305 344.85 330.476 345.926 330.476 347.188C330.476 348.456 330.307 349.54 329.97 350.438C329.633 351.331 329.146 352.015 328.51 352.489C327.873 352.958 327.108 353.193 326.214 353.193ZM326.214 351.676C327.002 351.676 327.618 351.292 328.061 350.523C328.508 349.754 328.731 348.642 328.731 347.188C328.731 346.222 328.629 345.405 328.424 344.739C328.224 344.068 327.934 343.561 327.555 343.216C327.18 342.867 326.733 342.693 326.214 342.693C325.43 342.693 324.815 343.08 324.368 343.852C323.921 344.625 323.695 345.737 323.691 347.188C323.691 348.157 323.792 348.977 323.993 349.648C324.197 350.314 324.487 350.82 324.862 351.165C325.237 351.506 325.688 351.676 326.214 351.676ZM336.394 353.159C335.875 353.152 335.363 353.057 334.86 352.875C334.36 352.693 333.905 352.39 333.496 351.966C333.087 351.542 332.759 350.972 332.513 350.256C332.271 349.54 332.149 348.646 332.149 347.574C332.149 346.559 332.25 345.657 332.451 344.869C332.655 344.081 332.949 343.417 333.331 342.875C333.714 342.33 334.176 341.915 334.718 341.631C335.259 341.347 335.867 341.205 336.541 341.205C337.235 341.205 337.85 341.341 338.388 341.614C338.926 341.886 339.361 342.263 339.695 342.744C340.032 343.225 340.246 343.773 340.337 344.386H338.604C338.486 343.902 338.254 343.506 337.905 343.199C337.557 342.892 337.102 342.739 336.541 342.739C335.689 342.739 335.024 343.11 334.547 343.852C334.074 344.595 333.835 345.627 333.831 346.949H333.916C334.117 346.619 334.363 346.339 334.655 346.108C334.951 345.873 335.28 345.693 335.644 345.568C336.011 345.439 336.397 345.375 336.803 345.375C337.477 345.375 338.087 345.54 338.632 345.869C339.182 346.195 339.619 346.646 339.945 347.222C340.271 347.797 340.433 348.456 340.433 349.199C340.433 349.941 340.265 350.614 339.928 351.216C339.594 351.818 339.125 352.295 338.519 352.648C337.913 352.996 337.204 353.167 336.394 353.159ZM336.388 351.682C336.835 351.682 337.235 351.572 337.587 351.352C337.939 351.133 338.218 350.837 338.422 350.466C338.627 350.095 338.729 349.68 338.729 349.222C338.729 348.775 338.629 348.367 338.428 348C338.231 347.633 337.958 347.341 337.61 347.125C337.265 346.909 336.871 346.801 336.428 346.801C336.091 346.801 335.778 346.866 335.49 346.994C335.206 347.123 334.956 347.301 334.74 347.528C334.524 347.756 334.354 348.017 334.229 348.312C334.108 348.604 334.047 348.913 334.047 349.239C334.047 349.674 334.147 350.078 334.348 350.449C334.553 350.82 334.831 351.119 335.183 351.347C335.54 351.57 335.941 351.682 336.388 351.682ZM342.954 353.108C342.643 353.108 342.376 352.998 342.153 352.778C341.929 352.555 341.818 352.286 341.818 351.972C341.818 351.661 341.929 351.396 342.153 351.176C342.376 350.953 342.643 350.841 342.954 350.841C343.264 350.841 343.532 350.953 343.755 351.176C343.978 351.396 344.09 351.661 344.09 351.972C344.09 352.18 344.037 352.371 343.931 352.545C343.829 352.716 343.693 352.852 343.522 352.955C343.352 353.057 343.162 353.108 342.954 353.108ZM346.183 353V351.727L350.121 347.648C350.541 347.205 350.888 346.816 351.16 346.483C351.437 346.146 351.643 345.826 351.78 345.523C351.916 345.22 351.984 344.898 351.984 344.557C351.984 344.17 351.893 343.837 351.711 343.557C351.53 343.273 351.282 343.055 350.967 342.903C350.653 342.748 350.299 342.67 349.905 342.67C349.488 342.67 349.124 342.756 348.814 342.926C348.503 343.097 348.265 343.337 348.098 343.648C347.931 343.958 347.848 344.322 347.848 344.739H346.172C346.172 344.03 346.335 343.411 346.66 342.881C346.986 342.35 347.433 341.939 348.001 341.648C348.569 341.352 349.215 341.205 349.939 341.205C350.67 341.205 351.314 341.35 351.871 341.642C352.431 341.93 352.869 342.324 353.183 342.824C353.497 343.32 353.655 343.881 353.655 344.506C353.655 344.938 353.573 345.36 353.41 345.773C353.251 346.186 352.973 346.646 352.575 347.153C352.177 347.657 351.624 348.269 350.916 348.989L348.604 351.409V351.494H353.842V353H346.183ZM359.898 353.159C359.379 353.152 358.868 353.057 358.364 352.875C357.864 352.693 357.409 352.39 357 351.966C356.591 351.542 356.264 350.972 356.017 350.256C355.775 349.54 355.654 348.646 355.654 347.574C355.654 346.559 355.754 345.657 355.955 344.869C356.159 344.081 356.453 343.417 356.836 342.875C357.218 342.33 357.68 341.915 358.222 341.631C358.764 341.347 359.372 341.205 360.046 341.205C360.739 341.205 361.355 341.341 361.892 341.614C362.43 341.886 362.866 342.263 363.199 342.744C363.536 343.225 363.75 343.773 363.841 344.386H362.108C361.991 343.902 361.758 343.506 361.409 343.199C361.061 342.892 360.606 342.739 360.046 342.739C359.194 342.739 358.529 343.11 358.051 343.852C357.578 344.595 357.339 345.627 357.336 346.949H357.421C357.622 346.619 357.868 346.339 358.159 346.108C358.455 345.873 358.784 345.693 359.148 345.568C359.515 345.439 359.902 345.375 360.307 345.375C360.981 345.375 361.591 345.54 362.137 345.869C362.686 346.195 363.123 346.646 363.449 347.222C363.775 347.797 363.938 348.456 363.938 349.199C363.938 349.941 363.769 350.614 363.432 351.216C363.099 351.818 362.629 352.295 362.023 352.648C361.417 352.996 360.709 353.167 359.898 353.159ZM359.892 351.682C360.339 351.682 360.739 351.572 361.091 351.352C361.444 351.133 361.722 350.837 361.926 350.466C362.131 350.095 362.233 349.68 362.233 349.222C362.233 348.775 362.133 348.367 361.932 348C361.735 347.633 361.462 347.341 361.114 347.125C360.769 346.909 360.375 346.801 359.932 346.801C359.595 346.801 359.283 346.866 358.995 346.994C358.711 347.123 358.461 347.301 358.245 347.528C358.029 347.756 357.858 348.017 357.733 348.312C357.612 348.604 357.551 348.913 357.551 349.239C357.551 349.674 357.652 350.078 357.853 350.449C358.057 350.82 358.336 351.119 358.688 351.347C359.044 351.57 359.445 351.682 359.892 351.682Z" fill="#3B3D40"/>
<rect x="165" y="439" width="640" height="408" rx="8.30769" fill="white"/>
<path d="M201 603C201 557.16 238.16 520 284 520H763C766.314 520 769 522.686 769 526V731C769 776.84 731.84 814 686 814H207C203.686 814 201 811.314 201 808V603Z" fill="#32314B"/>
<path d="M224.358 478.663C219.474 473.779 211.554 473.779 206.663 478.663C201.779 483.547 201.779 491.467 206.663 496.358C206.871 496.566 207.086 496.761 207.301 496.949L215.497 505.145L223.599 497.043C223.632 497.016 223.666 496.989 223.7 496.956C223.921 496.761 224.143 496.566 224.351 496.351C229.235 491.467 229.235 483.547 224.351 478.656L224.358 478.663Z" fill="#191919"/>
<path d="M239.103 497.426C243.987 492.542 243.987 484.622 239.103 479.731C234.219 474.847 226.299 474.847 221.408 479.731C221.2 479.94 221.005 480.155 220.817 480.37L212.621 488.565L220.723 496.667C220.75 496.701 220.777 496.734 220.81 496.768C221.005 496.99 221.2 497.211 221.415 497.42C226.299 502.304 234.219 502.304 239.11 497.42L239.103 497.426Z" fill="#191919"/>
<path d="M724.436 500.3C720.566 500.3 716.996 499.04 715.136 496.1L717.956 492.8C719.306 495.32 722.216 496.43 724.616 496.43C726.356 496.43 727.616 495.89 727.616 494.51C727.616 492.95 726.296 492.44 723.626 491.9L721.676 491.48C718.556 490.85 715.616 489.47 715.616 485.66C715.616 481.73 719.006 479.66 723.086 479.66C726.866 479.66 729.896 481.1 731.576 483.5L728.666 486.77C727.346 484.67 725.006 483.53 722.696 483.53C721.166 483.53 720.056 484.19 720.056 485.36C720.056 486.83 721.346 487.37 723.446 487.85L725.726 488.39C729.476 489.26 732.026 490.79 732.026 494.39C732.026 498.23 728.786 500.3 724.436 500.3ZM739.073 500H734.783V479.9H739.073V487.88L738.863 491.72L741.563 488.48L744.653 485.3H749.723L743.963 491.18L749.693 500H744.803L741.083 493.73L739.073 495.83V500ZM756.102 483.56H751.812V479.9H756.102V483.56ZM756.102 500H751.812V485.3H756.102V500ZM763.726 500H759.436V479.9H763.726V500ZM771.35 500H767.06V479.9H771.35V500Z" fill="black"/>
<g filter="url(#filter0_d_1754_640)">
<path fill-rule="evenodd" clip-rule="evenodd" d="M320.787 588.321C320.306 587.503 319.428 587 318.479 587H298.678C297.199 587 296 588.199 296 589.678V593.789V597.176V644.667C296 646.146 297.199 647.345 298.678 647.345H362.588C364.067 647.345 365.265 646.146 365.265 644.667V596.467C365.265 594.988 364.067 593.789 362.588 593.789H325.533C324.584 593.789 323.706 593.286 323.225 592.468L320.787 588.321Z" fill="#FF794E"/>
<path d="M307.18 615.899V603.579H304.295V601.98H309.005V615.899H307.18ZM313.273 616.125C312.578 616.125 312.039 615.587 312.039 614.891C312.039 614.196 312.578 613.658 313.273 613.658C313.968 613.658 314.489 614.196 314.489 614.891C314.489 615.587 313.968 616.125 313.273 616.125Z" fill="black"/>
<path d="M325.447 631.786H327.807V640.301H325.447V637.041H322.892V640.301H320.52V631.786H322.892V634.863H325.447V631.786ZM335.84 631.786V633.902H333.528V640.301H331.169V633.902H328.857V631.786H335.84ZM347.347 640.301H344.975L344.318 635.398L342.056 640.325H341.362L339.112 635.411L338.455 640.301H336.071L337.36 631.786H339.708L341.715 636.42L343.734 631.786H346.07L347.347 640.301ZM350.892 638.16H353.921V640.301H348.508V631.786H350.892V638.16ZM357.549 634.985C359.349 634.985 360.602 636.092 360.602 637.685C360.602 639.328 359.337 640.495 357.573 640.495C355.81 640.495 354.569 639.328 354.569 637.698H356.649C356.649 638.245 357.038 638.634 357.573 638.634C358.109 638.634 358.498 638.233 358.498 637.673C358.498 637.102 358.084 636.7 357.5 636.7H354.982L354.776 636.432L355.226 632.211H360.018V634.06H356.892L356.795 634.985H357.549Z" fill="black"/>
<g opacity="0.8">
<circle cx="302.511" cy="591.769" r="1.73778" fill="#33FF00"/>
<circle cx="307.289" cy="591.769" r="1.73778" fill="#33FF00"/>
<circle cx="312.07" cy="591.769" r="1.73778" fill="#33FF00"/>
<circle cx="316.847" cy="591.769" r="1.73778" fill="#D4D4D4"/>
</g>
<path fill-rule="evenodd" clip-rule="evenodd" d="M398.053 588.321C397.572 587.503 396.694 587 395.744 587H375.943C374.465 587 373.266 588.199 373.266 589.678V593.789V597.176V644.667C373.266 646.146 374.465 647.345 375.943 647.345H439.853C441.332 647.345 442.531 646.146 442.531 644.667V596.467C442.531 594.988 441.332 593.789 439.853 593.789H402.799C401.849 593.789 400.971 593.286 400.49 592.468L398.053 588.321Z" fill="#3DC5FF"/>
<path d="M411.01 640.52C408.419 640.52 406.485 638.598 406.485 636.055C406.485 633.501 408.419 631.579 411.01 631.579C413.236 631.579 414.964 633.051 415.316 635.204H412.932C412.64 634.34 411.91 633.768 411.01 633.768C409.806 633.768 408.918 634.742 408.918 636.055C408.918 637.369 409.806 638.33 411.01 638.33C411.959 638.33 412.701 637.71 412.944 636.761H415.341C415.012 638.999 413.273 640.52 411.01 640.52ZM419.479 640.52C417.399 640.52 416.048 639.413 416.048 637.552H418.469C418.469 638.16 418.944 638.464 419.479 638.464C419.965 638.464 420.44 638.196 420.44 637.734C420.44 637.199 419.771 637.041 418.956 636.846C417.727 636.542 416.158 636.165 416.158 634.231C416.158 632.552 417.387 631.591 419.394 631.591C421.437 631.591 422.617 632.637 422.617 634.377H420.257C420.257 633.829 419.856 633.574 419.369 633.574C418.956 633.574 418.554 633.756 418.554 634.158C418.554 634.644 419.199 634.802 419.99 635.009C421.255 635.326 422.885 635.751 422.885 637.685C422.885 639.547 421.462 640.52 419.479 640.52ZM427.129 640.52C425.049 640.52 423.699 639.413 423.699 637.552H426.12C426.12 638.16 426.594 638.464 427.129 638.464C427.616 638.464 428.09 638.196 428.09 637.734C428.09 637.199 427.421 637.041 426.606 636.846C425.378 636.542 423.808 636.165 423.808 634.231C423.808 632.552 425.037 631.591 427.044 631.591C429.088 631.591 430.268 632.637 430.268 634.377H427.908C427.908 633.829 427.506 633.574 427.02 633.574C426.606 633.574 426.205 633.756 426.205 634.158C426.205 634.644 426.849 634.802 427.64 635.009C428.905 635.326 430.535 635.751 430.535 637.685C430.535 639.547 429.112 640.52 427.129 640.52ZM435.485 635.192C436.641 635.484 437.383 636.42 437.383 637.673C437.383 639.315 436.105 640.495 434.329 640.495C432.602 640.495 431.398 639.364 431.349 637.685H433.429C433.454 638.257 433.806 638.634 434.342 638.634C434.889 638.634 435.278 638.233 435.278 637.637C435.278 637.041 434.877 636.676 434.244 636.676H432.955V636.226L434.269 634.06H431.556V632.211H437.103V632.589L435.485 635.192Z" fill="black"/>
<g opacity="0.8">
<circle cx="379.347" cy="591.769" r="1.73778" fill="#33FF00"/>
<circle cx="384.125" cy="591.769" r="1.73778" fill="#33FF00"/>
<circle cx="388.906" cy="591.769" r="1.73778" fill="#33FF00"/>
<circle cx="393.683" cy="591.769" r="1.73778" fill="#D4D4D4"/>
</g>
<path d="M380.265 615.899V614.718L385.201 609.765C386.973 607.975 387.668 606.846 387.668 605.855C387.668 604.221 386.556 603.266 384.818 603.266C382.942 603.266 381.934 604.691 381.934 606.237H380.109C380.109 603.718 381.934 601.65 384.836 601.65C387.634 601.65 389.476 603.335 389.476 605.838C389.476 607.332 388.624 608.601 386.539 610.738L382.889 614.318H389.945V615.899H380.265ZM393.06 616.125C392.365 616.125 391.826 615.587 391.826 614.891C391.826 614.196 392.365 613.658 393.06 613.658C393.755 613.658 394.276 614.196 394.276 614.891C394.276 615.587 393.755 616.125 393.06 616.125Z" fill="black"/>
<path fill-rule="evenodd" clip-rule="evenodd" d="M475.318 588.321C474.837 587.503 473.959 587 473.01 587H453.209C451.73 587 450.531 588.199 450.531 589.678V593.789V597.176V644.667C450.531 646.146 451.73 647.345 453.209 647.345H517.119C518.598 647.345 519.797 646.146 519.797 644.667V596.467C519.797 594.988 518.598 593.789 517.119 593.789H480.064C479.115 593.789 478.237 593.286 477.756 592.468L475.318 588.321Z" fill="#FFE145"/>
<path d="M487.128 627.059C485.169 627.059 483.795 625.782 483.795 623.92V623.592H486.155V623.811C486.155 624.456 486.544 624.881 487.128 624.881C487.675 624.881 488.064 624.468 488.064 623.811V618.325H490.424V623.92C490.424 625.769 489.098 627.059 487.128 627.059ZM497.106 620.271H498.796V626.84H497.045L496.85 626.378C496.315 626.816 495.634 627.059 494.867 627.059C492.86 627.059 491.425 625.599 491.425 623.555C491.425 621.524 492.86 620.076 494.867 620.076C495.646 620.076 496.339 620.332 496.874 620.782L497.106 620.271ZM495.171 625.064C496.023 625.064 496.643 624.419 496.643 623.555C496.643 622.704 496.023 622.071 495.171 622.071C494.32 622.071 493.699 622.704 493.699 623.555C493.699 624.419 494.32 625.064 495.171 625.064ZM504.47 620.271H506.878L504.239 626.84H502.195L499.519 620.271H502L503.241 624.164L504.47 620.271ZM512.62 620.271H514.311V626.84H512.559L512.365 626.378C511.829 626.816 511.148 627.059 510.382 627.059C508.375 627.059 506.939 625.599 506.939 623.555C506.939 621.524 508.375 620.076 510.382 620.076C511.16 620.076 511.854 620.332 512.389 620.782L512.62 620.271ZM510.686 625.064C511.537 625.064 512.158 624.419 512.158 623.555C512.158 622.704 511.537 622.071 510.686 622.071C509.834 622.071 509.214 622.704 509.214 623.555C509.214 624.419 509.834 625.064 510.686 625.064ZM480.958 639.059C478.878 639.059 477.528 637.952 477.528 636.091H479.948C479.948 636.699 480.423 637.003 480.958 637.003C481.445 637.003 481.919 636.735 481.919 636.273C481.919 635.738 481.25 635.58 480.435 635.385C479.206 635.081 477.637 634.704 477.637 632.77C477.637 631.091 478.866 630.13 480.873 630.13C482.916 630.13 484.096 631.176 484.096 632.916H481.736C481.736 632.368 481.335 632.113 480.848 632.113C480.435 632.113 480.033 632.295 480.033 632.697C480.033 633.183 480.678 633.341 481.469 633.548C482.734 633.865 484.364 634.29 484.364 636.224C484.364 638.086 482.941 639.059 480.958 639.059ZM488.73 639.059C486.625 639.059 485.105 637.587 485.105 635.555C485.105 633.524 486.613 632.076 488.742 632.076C490.591 632.076 491.966 633.232 492.221 634.984H490.007C489.825 634.448 489.326 634.096 488.73 634.096C487.939 634.096 487.367 634.704 487.367 635.555C487.367 636.419 487.939 637.04 488.73 637.04C489.338 637.04 489.837 636.662 490.019 636.079H492.245C491.99 637.855 490.579 639.059 488.73 639.059ZM496.889 632.247H497.497V634.315H496.609C495.819 634.315 495.478 634.667 495.478 635.507V638.84H493.215V632.271H494.736L495.089 633.001C495.551 632.466 496.111 632.247 496.889 632.247ZM498.36 631.456V629.534H500.598V631.456H498.36ZM498.347 638.84V632.271H500.61V638.84H498.347ZM505.874 632.064C507.881 632.064 509.316 633.512 509.316 635.555C509.316 637.611 507.881 639.071 505.874 639.071C505.278 639.071 504.73 638.913 504.268 638.633V641.212H502.03V632.271H503.575L503.855 632.794C504.39 632.332 505.083 632.064 505.874 632.064ZM505.57 637.064C506.409 637.064 507.042 636.419 507.042 635.555C507.042 634.704 506.409 634.059 505.57 634.059C504.718 634.059 504.098 634.704 504.098 635.555C504.098 636.419 504.718 637.064 505.57 637.064ZM513.815 636.869H514.678V638.84H513.121C511.674 638.84 510.786 637.952 510.786 636.492V634.023H509.581V633.487L512.525 630.361H513V632.271H514.642V634.023H513.048V636.115C513.048 636.577 513.34 636.869 513.815 636.869Z" fill="black"/>
<g opacity="0.8">
<circle cx="456.617" cy="591.769" r="1.73778" fill="#33FF00"/>
<circle cx="461.394" cy="591.769" r="1.73778" fill="#33FF00"/>
<circle cx="466.177" cy="591.769" r="1.73778" fill="#33FF00"/>
<circle cx="470.953" cy="591.769" r="1.73778" fill="#D4D4D4"/>
</g>
<path d="M462.347 616.212C459.358 616.212 457.516 614.405 457.412 611.972H459.219C459.271 613.466 460.383 614.631 462.347 614.631C464.293 614.631 465.458 613.519 465.458 612.128C465.458 610.564 464.207 609.643 462.104 609.643H460.575V608.132H462.104C463.876 608.132 465.075 607.124 465.075 605.681C465.075 604.326 463.998 603.214 462.156 603.214C460.279 603.214 459.254 604.534 459.254 606.011H457.429C457.429 603.561 459.306 601.65 462.156 601.65C465.023 601.65 466.883 603.439 466.883 605.629C466.883 607.332 465.684 608.514 464.398 608.827C465.805 609.087 467.248 610.182 467.248 612.111C467.248 614.44 465.267 616.212 462.347 616.212ZM470.344 616.125C469.649 616.125 469.111 615.587 469.111 614.891C469.111 614.196 469.649 613.658 470.344 613.658C471.04 613.658 471.561 614.196 471.561 614.891C471.561 615.587 471.04 616.125 470.344 616.125Z" fill="black"/>
<path fill-rule="evenodd" clip-rule="evenodd" d="M552.584 588.321C552.103 587.503 551.225 587 550.275 587H530.475C528.996 587 527.797 588.199 527.797 589.678V593.789V597.176V644.667C527.797 646.146 528.996 647.345 530.475 647.345H594.385C595.863 647.345 597.062 646.146 597.062 644.667V596.467C597.062 594.988 595.863 593.789 594.385 593.789H557.33C556.381 593.789 555.502 593.286 555.021 592.468L552.584 588.321Z" fill="#C1C1C1"/>
<path d="M553.583 635.759H558.254C558.254 638.545 556.43 640.528 553.766 640.528C551.162 640.528 549.228 638.654 549.228 636.063C549.228 633.472 551.126 631.587 553.741 631.587C555.98 631.587 557.804 632.986 558.169 634.956H555.7C555.396 634.239 554.629 633.776 553.766 633.776C552.488 633.776 551.637 634.701 551.637 636.063C551.637 637.413 552.476 638.338 553.766 638.338C554.666 638.338 555.432 637.9 555.7 637.243H553.583V635.759ZM559.298 632.925V631.003H561.536V632.925H559.298ZM559.286 640.309V633.74H561.548V640.309H559.286ZM566.533 638.338H567.396V640.309H565.839C564.392 640.309 563.504 639.421 563.504 637.961V635.491H562.299V634.956L565.243 631.83H565.718V633.74H567.36V635.491H565.766V637.584C565.766 638.046 566.058 638.338 566.533 638.338ZM573.493 631.793H575.853V640.309H573.493V637.049H570.938V640.309H568.566V631.793H570.938V634.871H573.493V631.793ZM580.434 640.528C578.5 640.528 577.198 639.335 577.198 637.499V633.74H579.461V637.401C579.461 638.095 579.838 638.496 580.434 638.496C581.042 638.496 581.407 638.082 581.407 637.401V633.74H583.669V637.499C583.669 639.335 582.38 640.528 580.434 640.528ZM588.873 633.545C590.892 633.545 592.328 634.993 592.328 637.036C592.328 639.08 590.892 640.528 588.873 640.528C588.107 640.528 587.425 640.272 586.89 639.822L586.683 640.309H585.005V631.368H587.243V633.995C587.717 633.703 588.265 633.545 588.873 633.545ZM588.569 638.52C589.408 638.52 590.041 637.888 590.041 637.036C590.041 636.173 589.42 635.54 588.569 635.54C587.73 635.54 587.097 636.173 587.097 637.036C587.097 637.888 587.73 638.52 588.569 638.52Z" fill="black"/>
<g opacity="0.8">
<circle cx="533.876" cy="591.777" r="1.73778" fill="#33FF00"/>
<circle cx="538.654" cy="591.777" r="1.73778" fill="#33FF00"/>
<circle cx="543.433" cy="591.777" r="1.73778" fill="#33FF00"/>
<circle cx="548.214" cy="591.777" r="1.73778" fill="#D4D4D4"/>
</g>
<path d="M542.242 615.911V612.766H535.222V611.219L541.825 601.991H543.98V611.219H546.257V612.766H543.98V615.911H542.242ZM537.099 611.219H542.242V603.99L537.099 611.219ZM548.501 616.137C547.806 616.137 547.267 615.598 547.267 614.903C547.267 614.208 547.806 613.669 548.501 613.669C549.196 613.669 549.717 614.208 549.717 614.903C549.717 615.598 549.196 616.137 548.501 616.137Z" fill="black"/>
<path fill-rule="evenodd" clip-rule="evenodd" d="M629.85 588.321C629.369 587.503 628.49 587 627.541 587H607.74C606.261 587 605.062 588.199 605.062 589.678V593.789V597.176V644.667C605.062 646.146 606.261 647.345 607.74 647.345H671.65C673.129 647.345 674.328 646.146 674.328 644.667V596.467C674.328 594.988 673.129 593.789 671.65 593.789H634.596C633.646 593.789 632.768 593.286 632.287 592.468L629.85 588.321Z" fill="#7C9CB9"/>
<path d="M638.51 640.309H636.138L635.481 635.406L633.218 640.333H632.525L630.274 635.418L629.617 640.309H627.233L628.523 631.793H630.87L632.878 636.428L634.897 631.793H637.232L638.51 640.309ZM643.704 633.74H646.137L643.376 640.017C642.488 642.036 641.685 642.754 639.982 642.754H639.203V640.82H639.836C640.699 640.82 640.955 640.588 641.259 639.773L638.546 633.74H641.004L642.402 637.365L643.704 633.74ZM649.934 640.528C647.854 640.528 646.503 639.421 646.503 637.559H648.924C648.924 638.168 649.398 638.472 649.934 638.472C650.42 638.472 650.895 638.204 650.895 637.742C650.895 637.207 650.226 637.049 649.411 636.854C648.182 636.55 646.613 636.173 646.613 634.239C646.613 632.56 647.841 631.599 649.849 631.599C651.892 631.599 653.072 632.645 653.072 634.384H650.712C650.712 633.837 650.311 633.582 649.824 633.582C649.411 633.582 649.009 633.764 649.009 634.166C649.009 634.652 649.654 634.81 650.445 635.017C651.71 635.333 653.34 635.759 653.34 637.693C653.34 639.554 651.916 640.528 649.934 640.528ZM663.873 641.476H661.379L660.43 640.296C659.932 640.442 659.384 640.528 658.813 640.528C656.076 640.528 654.129 638.654 654.129 636.051C654.129 633.46 656.076 631.587 658.813 631.587C661.55 631.587 663.496 633.448 663.496 636.051C663.496 637.401 662.985 638.533 662.109 639.335L663.873 641.476ZM656.562 636.051C656.562 637.377 657.523 638.35 658.813 638.35C660.114 638.35 661.051 637.389 661.051 636.051C661.051 634.725 660.114 633.764 658.813 633.764C657.523 633.764 656.562 634.737 656.562 636.051ZM667.085 638.168H670.113V640.309H664.7V631.793H667.085V638.168Z" fill="black"/>
<g opacity="0.8">
<circle cx="610.708" cy="591.777" r="1.73778" fill="#33FF00"/>
<circle cx="615.486" cy="591.777" r="1.73778" fill="#33FF00"/>
<circle cx="620.265" cy="591.777" r="1.73778" fill="#33FF00"/>
<circle cx="625.046" cy="591.777" r="1.73778" fill="#D4D4D4"/>
</g>
<path d="M616.591 616.224C613.585 616.224 611.778 614.399 611.673 611.984H613.481C613.533 613.478 614.628 614.643 616.591 614.643C618.52 614.643 619.719 613.287 619.719 611.462C619.719 609.672 618.468 608.352 616.626 608.352C615.097 608.352 614.21 609.134 613.741 610.003H611.951L612.351 601.991H620.797V603.573H614.019L613.776 608.126C614.297 607.483 615.323 606.788 616.921 606.788C619.563 606.788 621.509 608.682 621.509 611.462C621.509 614.225 619.511 616.224 616.591 616.224ZM624.267 616.137C623.571 616.137 623.033 615.598 623.033 614.903C623.033 614.208 623.571 613.669 624.267 613.669C624.962 613.669 625.483 614.208 625.483 614.903C625.483 615.598 624.962 616.137 624.267 616.137Z" fill="black"/>
<path d="M296.695 562.172V560.688H305.461V562.172H301.945V572H300.227V562.172H296.695ZM309.492 572.172C306.992 572.172 305.461 570.453 305.461 567.812C305.461 565.203 307.023 563.406 309.383 563.406C311.32 563.406 313.148 564.609 313.148 567.672V568.266H307.117C307.164 569.875 308.109 570.797 309.508 570.797C310.461 570.797 311.07 570.391 311.352 569.875H313.039C312.664 571.25 311.352 572.172 309.492 572.172ZM307.133 567.016H311.508C311.508 565.719 310.68 564.781 309.398 564.781C308.062 564.781 307.195 565.812 307.133 567.016ZM318.398 572.172C315.93 572.172 314.43 570.344 314.43 567.797C314.43 565.203 315.977 563.406 318.367 563.406C320.305 563.406 321.711 564.547 321.883 566.266H320.258C320.086 565.469 319.445 564.797 318.398 564.797C317.023 564.797 316.102 565.938 316.102 567.75C316.102 569.609 317.008 570.75 318.398 570.75C319.336 570.75 320.055 570.234 320.258 569.312H321.883C321.695 570.953 320.398 572.172 318.398 572.172ZM325.133 566.969V572H323.461V560.688H325.102V564.906H325.211C325.617 563.984 326.398 563.406 327.727 563.406C329.477 563.406 330.633 564.484 330.633 566.609V572H328.961V566.812C328.961 565.562 328.289 564.844 327.164 564.844C325.992 564.844 325.133 565.609 325.133 566.969ZM334.32 566.969V572H332.648V563.516H334.258V564.906H334.352C334.758 564 335.586 563.406 336.852 563.406C338.602 563.406 339.742 564.5 339.742 566.609V572H338.086V566.812C338.086 565.578 337.414 564.844 336.289 564.844C335.148 564.844 334.32 565.609 334.32 566.969ZM345.367 572.172C342.961 572.172 341.398 570.422 341.398 567.797C341.398 565.156 342.961 563.406 345.367 563.406C347.758 563.406 349.32 565.156 349.32 567.797C349.32 570.422 347.758 572.172 345.367 572.172ZM345.367 570.781C346.898 570.781 347.633 569.422 347.633 567.797C347.633 566.172 346.898 564.781 345.367 564.781C343.805 564.781 343.07 566.172 343.07 567.797C343.07 569.422 343.805 570.781 345.367 570.781ZM352.633 560.688V572H350.961V560.688H352.633ZM358.258 572.172C355.852 572.172 354.289 570.422 354.289 567.797C354.289 565.156 355.852 563.406 358.258 563.406C360.648 563.406 362.211 565.156 362.211 567.797C362.211 570.422 360.648 572.172 358.258 572.172ZM358.258 570.781C359.789 570.781 360.523 569.422 360.523 567.797C360.523 566.172 359.789 564.781 358.258 564.781C356.695 564.781 355.961 566.172 355.961 567.797C355.961 569.422 356.695 570.781 358.258 570.781ZM367.414 575.359C365.273 575.359 363.867 574.406 363.711 572.828H365.414C365.57 573.625 366.32 574.016 367.43 574.016C368.758 574.016 369.602 573.453 369.602 572.125V570.453H369.492C369.195 571 368.586 571.875 367.023 571.875C365.023 571.875 363.477 570.375 363.477 567.672C363.477 564.969 364.992 563.406 367.039 563.406C368.617 563.406 369.195 564.359 369.508 564.891H369.617V563.516H371.242V572.188C371.242 574.359 369.602 575.359 367.414 575.359ZM367.398 570.5C368.82 570.5 369.617 569.453 369.617 567.703C369.617 565.984 368.836 564.828 367.398 564.828C365.914 564.828 365.18 566.078 365.18 567.703C365.18 569.359 365.945 570.5 367.398 570.5ZM374.305 575.188C373.961 575.188 373.633 575.172 373.414 575.141V573.75C373.602 573.766 373.93 573.781 374.164 573.781C374.68 573.781 375.117 573.734 375.508 572.672L375.711 572.109L372.602 563.516H374.383L376.523 570.094H376.617L378.758 563.516H380.555L377.055 573.125C376.57 574.469 375.695 575.188 374.305 575.188Z" fill="#DBDBDB"/>
<path fill-rule="evenodd" clip-rule="evenodd" d="M320.811 697.322C320.33 696.503 319.45 696 318.5 696H298.68C297.2 696 296 697.2 296 698.68V702.793V706.185V753.72C296 755.2 297.2 756.4 298.68 756.4H362.652C364.132 756.4 365.332 755.2 365.332 753.72V705.473C365.332 703.993 364.132 702.793 362.652 702.793H325.56C324.61 702.793 323.731 702.29 323.249 701.471L320.811 697.322Z" fill="#DF7DFC"/>
<path d="M328.949 742.963H325.893V744.315H328.632V746.372H325.893V749.355H323.518V740.832H328.949V742.963ZM330.032 741.965V740.041H332.272V741.965H330.032ZM330.02 749.355V742.78H332.285V749.355H330.02ZM338.978 742.78L340.5 742.793V748.637C340.5 750.695 339.149 751.973 336.981 751.973C335.118 751.973 333.816 751.036 333.511 749.477H335.691C335.849 749.916 336.409 750.159 336.957 750.159C337.724 750.159 338.333 749.672 338.333 748.893V748.698C337.834 749.002 337.249 749.185 336.616 749.185C334.729 749.185 333.329 747.785 333.329 745.885C333.329 744.01 334.729 742.573 336.616 742.573C337.408 742.573 338.126 742.866 338.686 743.34L338.978 742.78ZM336.994 747.322C337.809 747.322 338.394 746.725 338.394 745.885C338.394 745.057 337.809 744.448 336.994 744.448C336.178 744.448 335.581 745.057 335.581 745.885C335.581 746.725 336.166 747.322 336.994 747.322ZM349.678 742.598C351.091 742.598 352.016 743.694 352.016 745.24V749.355H349.751V745.52C349.751 744.826 349.508 744.497 349.021 744.497C348.4 744.497 348.083 744.923 348.083 745.751V749.355H345.879V745.52C345.879 744.85 345.624 744.497 345.149 744.497C344.54 744.497 344.199 744.936 344.199 745.751V749.355H341.934V742.78H343.529L343.846 743.499C344.321 742.939 345.015 742.598 345.77 742.598C346.574 742.598 347.243 742.951 347.657 743.56C348.132 742.963 348.863 742.598 349.678 742.598ZM358.682 742.78H360.375V749.355H358.621L358.426 748.893C357.891 749.331 357.209 749.575 356.442 749.575C354.433 749.575 352.996 748.114 352.996 746.068C352.996 744.034 354.433 742.586 356.442 742.586C357.221 742.586 357.915 742.841 358.451 743.292L358.682 742.78ZM356.746 747.578C357.598 747.578 358.219 746.932 358.219 746.068C358.219 745.216 357.598 744.582 356.746 744.582C355.894 744.582 355.273 745.216 355.273 746.068C355.273 746.932 355.894 747.578 356.746 747.578Z" fill="black"/>
<circle opacity="0.8" cx="301.22" cy="700.786" r="1.73945" fill="#33FF00"/>
<circle opacity="0.8" cx="306.005" cy="700.786" r="1.73945" fill="#33FF00"/>
<circle opacity="0.8" cx="310.788" cy="700.786" r="1.73945" fill="#33FF00"/>
<circle opacity="0.8" cx="315.575" cy="700.786" r="1.73945" fill="#D4D4D4"/>
<path d="M306.448 716.105C306.779 715.949 307.335 715.775 307.944 715.775C310.658 715.775 312.849 717.636 312.849 720.471C312.849 723.376 310.605 725.237 307.805 725.237C304.987 725.237 302.743 723.376 302.743 720.471C302.743 719.045 303.23 717.932 304.1 716.644L307.875 710.991H309.962L306.448 716.105ZM307.805 723.654C309.805 723.654 311.058 722.263 311.058 720.489C311.058 718.697 309.805 717.305 307.805 717.305C305.787 717.305 304.535 718.714 304.535 720.489C304.535 722.263 305.787 723.654 307.805 723.654ZM315.094 725.15C314.398 725.15 313.859 724.611 313.859 723.915C313.859 723.22 314.398 722.68 315.094 722.68C315.789 722.68 316.311 723.22 316.311 723.915C316.311 724.611 315.789 725.15 315.094 725.15Z" fill="black"/>
<path fill-rule="evenodd" clip-rule="evenodd" d="M398.143 697.322C397.662 696.503 396.782 696 395.832 696H376.012C374.532 696 373.332 697.2 373.332 698.68V702.793V706.185V753.72C373.332 755.2 374.532 756.4 376.012 756.4H439.984C441.464 756.4 442.664 755.2 442.664 753.72V705.473C442.664 703.993 441.464 702.793 439.984 702.793H402.892C401.942 702.793 401.063 702.29 400.581 701.471L398.143 697.322Z" fill="#4399FF"/>
<path d="M382.729 740.832C384.543 740.832 385.895 742.135 385.895 743.913C385.895 745.703 384.543 747.005 382.729 747.005H381.451V749.355H379.101V740.832H382.729ZM382.449 744.96C383.07 744.96 383.472 744.534 383.472 743.925C383.472 743.316 383.07 742.89 382.449 742.89H381.451V744.96H382.449ZM390.857 742.598C392.367 742.598 393.341 743.694 393.341 745.398V749.355H391.076V745.666C391.076 744.911 390.808 744.522 390.212 744.522C389.53 744.522 389.104 745.009 389.104 745.849V749.355H386.839V740.406H389.104V743.219C389.591 742.829 390.2 742.598 390.857 742.598ZM398.207 747.383H399.071V749.355H397.513C396.064 749.355 395.175 748.467 395.175 747.005V744.534H393.97V743.998L396.916 740.869H397.391V742.78H399.035V744.534H397.44V746.628C397.44 747.091 397.732 747.383 398.207 747.383ZM403.373 749.575C401.23 749.575 399.696 748.101 399.696 746.068C399.696 744.034 401.23 742.573 403.373 742.573C405.516 742.573 407.062 744.034 407.062 746.068C407.062 748.101 405.516 749.575 403.373 749.575ZM403.373 747.541C404.201 747.541 404.798 746.945 404.798 746.08C404.798 745.216 404.201 744.607 403.373 744.607C402.557 744.607 401.961 745.203 401.961 746.08C401.961 746.945 402.557 747.541 403.373 747.541ZM410.644 749.575C408.854 749.575 407.771 748.625 407.746 747.2H409.926C409.926 747.687 410.267 747.907 410.693 747.907C411.022 747.907 411.338 747.736 411.338 747.395C411.338 747.018 410.839 746.908 410.206 746.811C409.183 746.64 407.831 746.336 407.831 744.741C407.831 743.426 408.964 742.573 410.644 742.573C412.312 742.573 413.408 743.462 413.433 744.789H411.302C411.302 744.375 411.022 744.181 410.62 744.181C410.255 744.181 410.011 744.363 410.011 744.668C410.011 745.033 410.51 745.13 411.131 745.24C412.178 745.423 413.554 745.642 413.554 747.298C413.554 748.674 412.398 749.575 410.644 749.575ZM418.634 742.598C420.144 742.598 421.118 743.694 421.118 745.398V749.355H418.853V745.666C418.853 744.911 418.585 744.522 417.989 744.522C417.307 744.522 416.881 745.009 416.881 745.849V749.355H414.616V740.406H416.881V743.219C417.368 742.829 417.976 742.598 418.634 742.598ZM425.763 749.575C423.62 749.575 422.086 748.101 422.086 746.068C422.086 744.034 423.62 742.573 425.763 742.573C427.906 742.573 429.453 744.034 429.453 746.068C429.453 748.101 427.906 749.575 425.763 749.575ZM425.763 747.541C426.591 747.541 427.188 746.945 427.188 746.08C427.188 745.216 426.591 744.607 425.763 744.607C424.948 744.607 424.351 745.203 424.351 746.08C424.351 746.945 424.948 747.541 425.763 747.541ZM434.349 742.573C436.359 742.573 437.795 744.022 437.795 746.068C437.795 748.126 436.359 749.587 434.349 749.587C433.753 749.587 433.205 749.429 432.742 749.148V751.73H430.502V742.78H432.048L432.328 743.304C432.864 742.841 433.558 742.573 434.349 742.573ZM434.045 747.578C434.885 747.578 435.518 746.932 435.518 746.068C435.518 745.216 434.885 744.57 434.045 744.57C433.193 744.57 432.572 745.216 432.572 746.068C432.572 746.932 433.193 747.578 434.045 747.578Z" fill="black"/>
<path d="M423.564 738.836H422.967L424.292 735.146H424.94L426.27 738.836H425.673L425.337 737.863H423.9L423.564 738.836ZM424.063 737.394H425.174L424.629 735.819H424.603L424.063 737.394ZM427.681 738.892C427.014 738.892 426.524 738.352 426.524 737.46C426.524 736.558 427.019 736.033 427.686 736.033C428.201 736.033 428.39 736.344 428.486 736.517H428.512V735.146H429.057V738.836H428.527V738.403H428.486C428.384 738.586 428.186 738.892 427.681 738.892ZM427.804 738.428C428.267 738.428 428.527 738.031 428.527 737.45C428.527 736.874 428.272 736.497 427.804 736.497C427.319 736.497 427.08 736.905 427.08 737.45C427.08 738.005 427.33 738.428 427.804 738.428ZM430.938 738.892C430.153 738.892 429.643 738.321 429.643 737.465C429.643 736.604 430.153 736.033 430.938 736.033C431.717 736.033 432.227 736.604 432.227 737.465C432.227 738.321 431.717 738.892 430.938 738.892ZM430.938 738.438C431.437 738.438 431.676 737.995 431.676 737.465C431.676 736.935 431.437 736.482 430.938 736.482C430.428 736.482 430.188 736.935 430.188 737.465C430.188 737.995 430.428 738.438 430.938 738.438ZM432.808 738.836V735.146H433.348V736.517H433.379C433.48 736.344 433.664 736.033 434.174 736.033C434.841 736.033 435.341 736.558 435.341 737.46C435.341 738.352 434.851 738.892 434.179 738.892C433.674 738.892 433.48 738.586 433.379 738.403H433.338V738.836H432.808ZM433.338 737.45C433.338 738.031 433.598 738.428 434.056 738.428C434.535 738.428 434.785 738.005 434.785 737.45C434.785 736.905 434.54 736.497 434.056 736.497C433.593 736.497 433.338 736.874 433.338 737.45ZM437.073 738.892C436.258 738.892 435.758 738.331 435.758 737.47C435.758 736.619 436.268 736.033 437.038 736.033C437.669 736.033 438.266 736.426 438.266 737.424V737.618H436.299C436.314 738.143 436.622 738.444 437.078 738.444C437.389 738.444 437.588 738.311 437.68 738.143H438.23C438.108 738.591 437.68 738.892 437.073 738.892ZM436.304 737.21H437.731C437.731 736.787 437.46 736.482 437.043 736.482C436.607 736.482 436.324 736.818 436.304 737.21Z" fill="black"/>
<circle cx="379.425" cy="700.779" r="1.73945" fill="#33FF00" fill-opacity="0.8"/>
<circle cx="384.208" cy="700.779" r="1.73945" fill="#33FF00" fill-opacity="0.8"/>
<circle cx="388.993" cy="700.779" r="1.73945" fill="#33FF00" fill-opacity="0.8"/>
<circle cx="393.775" cy="700.779" r="1.73945" fill="#D4D4D4" fill-opacity="0.8"/>
<path d="M382.23 724.924L387.901 712.592H380.456V710.991H390.006V712.209L384.161 724.924H382.23ZM390.738 725.15C390.042 725.15 389.503 724.611 389.503 723.915C389.503 723.22 390.042 722.68 390.738 722.68C391.434 722.68 391.956 723.22 391.956 723.915C391.956 724.611 391.434 725.15 390.738 725.15Z" fill="black"/>
<path fill-rule="evenodd" clip-rule="evenodd" d="M475.475 697.322C474.994 696.503 474.114 696 473.164 696H453.344C451.864 696 450.664 697.2 450.664 698.68V702.793V706.185V753.72C450.664 755.2 451.864 756.4 453.344 756.4H517.316C518.796 756.4 519.996 755.2 519.996 753.72V705.473C519.996 703.993 518.796 702.793 517.316 702.793H480.224C479.274 702.793 478.395 702.29 477.913 701.471L475.475 697.322Z" fill="#FFA654"/>
<path d="M453.676 749.355V740.832H456.063V749.355H453.676ZM457.562 749.355V740.406H459.827V749.355H457.562ZM461.248 749.355V740.406H463.513V749.355H461.248ZM468.088 749.575C466.152 749.575 464.849 748.381 464.849 746.543V742.78H467.114V746.445C467.114 747.139 467.491 747.541 468.088 747.541C468.697 747.541 469.062 747.127 469.062 746.445V742.78H471.327V746.543C471.327 748.381 470.036 749.575 468.088 749.575ZM475.196 749.575C473.406 749.575 472.322 748.625 472.298 747.2H474.478C474.478 747.687 474.819 747.907 475.245 747.907C475.573 747.907 475.89 747.736 475.89 747.395C475.89 747.018 475.391 746.908 474.758 746.811C473.735 746.64 472.383 746.336 472.383 744.741C472.383 743.426 473.516 742.573 475.196 742.573C476.864 742.573 477.96 743.462 477.984 744.789H475.854C475.854 744.375 475.573 744.181 475.172 744.181C474.806 744.181 474.563 744.363 474.563 744.668C474.563 745.033 475.062 745.13 475.683 745.24C476.73 745.423 478.106 745.642 478.106 747.298C478.106 748.674 476.949 749.575 475.196 749.575ZM482.676 747.383H483.54V749.355H481.982C480.533 749.355 479.644 748.467 479.644 747.005V744.534H478.438V743.998L481.385 740.869H481.86V742.78H483.504V744.534H481.909V746.628C481.909 747.091 482.201 747.383 482.676 747.383ZM488.279 742.756H488.888V744.826H487.999C487.207 744.826 486.866 745.179 486.866 746.019V749.355H484.602V742.78H486.124L486.477 743.511C486.94 742.975 487.5 742.756 488.279 742.756ZM494.94 742.78H496.633V749.355H494.879L494.685 748.893C494.149 749.331 493.467 749.575 492.7 749.575C490.691 749.575 489.254 748.114 489.254 746.068C489.254 744.034 490.691 742.586 492.7 742.586C493.479 742.586 494.173 742.841 494.709 743.292L494.94 742.78ZM493.004 747.578C493.857 747.578 494.478 746.932 494.478 746.068C494.478 745.216 493.857 744.582 493.004 744.582C492.152 744.582 491.531 745.216 491.531 746.068C491.531 746.932 492.152 747.578 493.004 747.578ZM501.63 747.383H502.494V749.355H500.936C499.487 749.355 498.598 748.467 498.598 747.005V744.534H497.392V743.998L500.339 740.869H500.814V742.78H502.458V744.534H500.863V746.628C500.863 747.091 501.155 747.383 501.63 747.383ZM506.796 749.575C504.653 749.575 503.119 748.101 503.119 746.068C503.119 744.034 504.653 742.573 506.796 742.573C508.939 742.573 510.485 744.034 510.485 746.068C510.485 748.101 508.939 749.575 506.796 749.575ZM506.796 747.541C507.624 747.541 508.22 746.945 508.22 746.08C508.22 745.216 507.624 744.607 506.796 744.607C505.98 744.607 505.383 745.203 505.383 746.08C505.383 746.945 505.98 747.541 506.796 747.541ZM515.211 742.756H515.82V744.826H514.931C514.14 744.826 513.799 745.179 513.799 746.019V749.355H511.534V742.78H513.056L513.409 743.511C513.872 742.975 514.432 742.756 515.211 742.756Z" fill="black"/>
<path d="M500.888 738.836H500.292L501.617 735.146H502.264L503.594 738.836H502.998L502.661 737.863H501.224L500.888 738.836ZM501.387 737.394H502.498L501.953 735.819H501.927L501.387 737.394ZM505.005 738.892C504.338 738.892 503.849 738.352 503.849 737.46C503.849 736.558 504.343 736.033 505.011 736.033C505.525 736.033 505.714 736.344 505.811 736.517H505.836V735.146H506.381V738.836H505.851V738.403H505.811C505.709 738.586 505.51 738.892 505.005 738.892ZM505.128 738.428C505.591 738.428 505.851 738.031 505.851 737.45C505.851 736.874 505.597 736.497 505.128 736.497C504.644 736.497 504.404 736.905 504.404 737.45C504.404 738.005 504.654 738.428 505.128 738.428ZM508.262 738.892C507.477 738.892 506.967 738.321 506.967 737.465C506.967 736.604 507.477 736.033 508.262 736.033C509.041 736.033 509.551 736.604 509.551 737.465C509.551 738.321 509.041 738.892 508.262 738.892ZM508.262 738.438C508.761 738.438 509.001 737.995 509.001 737.465C509.001 736.935 508.761 736.482 508.262 736.482C507.752 736.482 507.513 736.935 507.513 737.465C507.513 737.995 507.752 738.438 508.262 738.438ZM510.132 738.836V735.146H510.672V736.517H510.703C510.805 736.344 510.988 736.033 511.498 736.033C512.165 736.033 512.665 736.558 512.665 737.46C512.665 738.352 512.176 738.892 511.503 738.892C510.998 738.892 510.805 738.586 510.703 738.403H510.662V738.836H510.132ZM510.662 737.45C510.662 738.031 510.922 738.428 511.381 738.428C511.86 738.428 512.109 738.005 512.109 737.45C512.109 736.905 511.865 736.497 511.381 736.497C510.917 736.497 510.662 736.874 510.662 737.45ZM514.397 738.892C513.582 738.892 513.083 738.331 513.083 737.47C513.083 736.619 513.592 736.033 514.362 736.033C514.994 736.033 515.59 736.426 515.59 737.424V737.618H513.623C513.638 738.143 513.946 738.444 514.403 738.444C514.713 738.444 514.912 738.311 515.004 738.143H515.554C515.432 738.591 515.004 738.892 514.397 738.892ZM513.628 737.21H515.055C515.055 736.787 514.785 736.482 514.367 736.482C513.931 736.482 513.648 736.818 513.628 737.21Z" fill="black"/>
<g opacity="0.8">
<circle cx="456.753" cy="700.779" r="1.73945" fill="#33FF00" fill-opacity="0.8"/>
<circle cx="461.536" cy="700.779" r="1.73945" fill="#33FF00" fill-opacity="0.8"/>
<circle cx="466.321" cy="700.779" r="1.73945" fill="#33FF00" fill-opacity="0.8"/>
<circle cx="471.105" cy="700.779" r="1.73945" fill="#D4D4D4" fill-opacity="0.8"/>
</g>
<path d="M462.217 725.237C459.294 725.237 457.277 723.602 457.277 721.271C457.277 719.167 458.947 718.001 460.199 717.706C459.121 717.375 457.764 716.244 457.764 714.47C457.764 712.383 459.555 710.661 462.217 710.661C464.861 710.661 466.652 712.4 466.652 714.47C466.652 716.244 465.296 717.375 464.217 717.706C465.487 718.001 467.139 719.167 467.139 721.271C467.139 723.602 465.122 725.237 462.217 725.237ZM462.217 716.888C463.8 716.888 464.913 715.844 464.913 714.522C464.913 713.235 463.852 712.191 462.217 712.191C460.582 712.191 459.521 713.2 459.521 714.488C459.521 715.827 460.634 716.888 462.217 716.888ZM462.217 723.707C464.13 723.707 465.365 722.611 465.365 721.167C465.365 719.706 464.026 718.575 462.217 718.575C460.39 718.575 459.051 719.706 459.051 721.167C459.051 722.611 460.286 723.707 462.217 723.707ZM469.915 725.15C469.219 725.15 468.68 724.611 468.68 723.915C468.68 723.22 469.219 722.68 469.915 722.68C470.611 722.68 471.133 723.22 471.133 723.915C471.133 724.611 470.611 725.15 469.915 725.15Z" fill="black"/>
<path fill-rule="evenodd" clip-rule="evenodd" d="M552.807 697.994C552.326 697.175 551.446 696.672 550.496 696.672H530.676C529.196 696.672 527.996 697.872 527.996 699.352V703.465V706.857V754.391C527.996 755.872 529.196 757.072 530.676 757.072H594.648C596.128 757.072 597.328 755.872 597.328 754.391V706.145C597.328 704.665 596.128 703.465 594.648 703.465H557.556C556.606 703.465 555.727 702.962 555.245 702.142L552.807 697.994Z" fill="#FF889D"/>
<path d="M540.022 750.027V741.504H542.408V750.027H540.022ZM547.829 743.27C549.351 743.27 550.362 744.353 550.362 746.021V750.027H548.097V746.338C548.097 745.571 547.805 745.193 547.233 745.193C546.526 745.193 546.125 745.68 546.125 746.521V750.027H543.86V743.452H545.455L545.759 744.134C546.246 743.586 546.977 743.27 547.829 743.27ZM556.408 741.078H558.648V750.027H556.98L556.761 749.54C556.225 749.991 555.543 750.259 554.776 750.259C552.767 750.259 551.33 748.785 551.33 746.74C551.33 744.706 552.767 743.245 554.776 743.245C555.385 743.245 555.945 743.404 556.408 743.696V741.078ZM555.081 748.25C555.933 748.25 556.554 747.604 556.554 746.752C556.554 745.887 555.933 745.242 555.081 745.242C554.24 745.242 553.607 745.887 553.607 746.752C553.607 747.604 554.24 748.25 555.081 748.25ZM566.837 746.679C566.837 746.886 566.825 747.081 566.8 747.288H561.918C562.064 748.043 562.539 748.432 563.257 748.432C563.781 748.432 564.231 748.201 564.438 747.811H566.703C566.24 749.309 564.901 750.247 563.257 750.247C561.199 750.247 559.689 748.749 559.689 746.74C559.689 744.731 561.187 743.245 563.257 743.245C565.376 743.245 566.837 744.755 566.837 746.679ZM563.257 745.023C562.6 745.023 562.137 745.376 561.954 746.034H564.609C564.414 745.376 563.939 745.023 563.257 745.023ZM570.4 750.247C568.61 750.247 567.526 749.297 567.502 747.872H569.682C569.682 748.359 570.022 748.578 570.449 748.578C570.777 748.578 571.094 748.408 571.094 748.067C571.094 747.69 570.595 747.58 569.962 747.483C568.939 747.312 567.587 747.008 567.587 745.413C567.587 744.098 568.72 743.245 570.4 743.245C572.068 743.245 573.164 744.134 573.188 745.461H571.057C571.057 745.047 570.777 744.852 570.376 744.852C570.01 744.852 569.767 745.035 569.767 745.34C569.767 745.705 570.266 745.802 570.887 745.912C571.934 746.094 573.31 746.314 573.31 747.97C573.31 749.345 572.153 750.247 570.4 750.247ZM574.384 742.636V740.713H576.624V742.636H574.384ZM574.372 750.027V743.452H576.636V750.027H574.372ZM583.33 743.452L584.852 743.464V749.309C584.852 751.367 583.5 752.645 581.333 752.645C579.47 752.645 578.167 751.708 577.863 750.149H580.042C580.201 750.587 580.761 750.831 581.309 750.831C582.076 750.831 582.685 750.344 582.685 749.565V749.37C582.185 749.674 581.601 749.857 580.968 749.857C579.08 749.857 577.68 748.457 577.68 746.557C577.68 744.682 579.08 743.245 580.968 743.245C581.759 743.245 582.478 743.537 583.038 744.012L583.33 743.452ZM581.345 747.994C582.161 747.994 582.745 747.397 582.745 746.557C582.745 745.729 582.161 745.12 581.345 745.12C580.529 745.12 579.933 745.729 579.933 746.557C579.933 747.397 580.517 747.994 581.345 747.994ZM590.255 743.27C591.777 743.27 592.788 744.353 592.788 746.021V750.027H590.523V746.338C590.523 745.571 590.231 745.193 589.659 745.193C588.953 745.193 588.551 745.68 588.551 746.521V750.027H586.286V743.452H587.881L588.186 744.134C588.673 743.586 589.403 743.27 590.255 743.27Z" fill="black"/>
<path d="M578.22 739.508H577.624L578.949 735.818H579.596L580.926 739.508H580.33L579.993 738.534H578.556L578.22 739.508ZM578.719 738.066H579.83L579.285 736.491H579.259L578.719 738.066ZM582.337 739.564C581.67 739.564 581.181 739.024 581.181 738.132C581.181 737.23 581.675 736.705 582.343 736.705C582.857 736.705 583.046 737.016 583.143 737.189H583.168V735.818H583.713V739.508H583.183V739.075H583.143C583.041 739.258 582.842 739.564 582.337 739.564ZM582.46 739.1C582.923 739.1 583.183 738.703 583.183 738.122C583.183 737.546 582.929 737.169 582.46 737.169C581.976 737.169 581.736 737.576 581.736 738.122C581.736 738.677 581.986 739.1 582.46 739.1ZM585.594 739.564C584.809 739.564 584.299 738.993 584.299 738.137C584.299 737.276 584.809 736.705 585.594 736.705C586.374 736.705 586.883 737.276 586.883 738.137C586.883 738.993 586.374 739.564 585.594 739.564ZM585.594 739.11C586.093 739.11 586.333 738.667 586.333 738.137C586.333 737.607 586.093 737.153 585.594 737.153C585.084 737.153 584.845 737.607 584.845 738.137C584.845 738.667 585.084 739.11 585.594 739.11ZM587.464 739.508V735.818H588.004V737.189H588.035C588.137 737.016 588.32 736.705 588.83 736.705C589.497 736.705 589.997 737.23 589.997 738.132C589.997 739.024 589.508 739.564 588.835 739.564C588.33 739.564 588.137 739.258 588.035 739.075H587.994V739.508H587.464ZM587.994 738.122C587.994 738.703 588.254 739.1 588.713 739.1C589.192 739.1 589.441 738.677 589.441 738.122C589.441 737.576 589.197 737.169 588.713 737.169C588.249 737.169 587.994 737.546 587.994 738.122ZM591.729 739.564C590.914 739.564 590.415 739.003 590.415 738.142C590.415 737.291 590.924 736.705 591.694 736.705C592.326 736.705 592.922 737.097 592.922 738.096V738.29H590.955C590.97 738.815 591.278 739.115 591.735 739.115C592.045 739.115 592.244 738.983 592.336 738.815H592.886C592.764 739.263 592.336 739.564 591.729 739.564ZM590.96 737.882H592.387C592.387 737.459 592.117 737.153 591.699 737.153C591.263 737.153 590.98 737.49 590.96 737.882Z" fill="black"/>
<g opacity="0.8">
<circle cx="534.081" cy="701.462" r="1.73945" fill="#33FF00"/>
<circle cx="538.864" cy="701.462" r="1.73945" fill="#33FF00"/>
<circle cx="543.65" cy="701.462" r="1.73945" fill="#33FF00"/>
<circle cx="548.433" cy="701.462" r="1.73945" fill="#D4D4D4"/>
</g>
<path d="M541.447 720.469C541.117 720.625 540.56 720.799 539.951 720.799C537.238 720.799 535.046 718.938 535.046 716.103C535.046 713.198 537.29 711.337 540.09 711.337C542.908 711.337 545.152 713.198 545.152 716.103C545.152 717.529 544.648 718.66 543.795 719.929L540.021 725.583H537.933L541.447 720.469ZM540.09 712.919C538.09 712.919 536.837 714.311 536.837 716.085C536.837 717.877 538.09 719.268 540.09 719.268C542.108 719.268 543.36 717.859 543.36 716.085C543.36 714.311 542.108 712.919 540.09 712.919ZM546.416 725.826C545.721 725.826 545.181 725.287 545.181 724.591C545.181 723.895 545.721 723.356 546.416 723.356C547.112 723.356 547.634 723.895 547.634 724.591C547.634 725.287 547.112 725.826 546.416 725.826Z" fill="black"/>
<path fill-rule="evenodd" clip-rule="evenodd" d="M630.139 697.994C629.658 697.175 628.778 696.672 627.828 696.672H608.008C606.528 696.672 605.328 697.872 605.328 699.352V703.465V706.857V754.391C605.328 755.872 606.528 757.072 608.008 757.072H671.98C673.46 757.072 674.66 755.872 674.66 754.391V706.145C674.66 704.665 673.46 703.465 671.98 703.465H634.888C633.938 703.465 633.059 702.962 632.577 702.142L630.139 697.994Z" fill="#D0CBBD"/>
<path d="M635.876 745.628C636.68 746.006 637.179 746.773 637.179 747.698C637.179 749.086 635.986 750.133 634.415 750.133H630.482V741.61H634.33C635.84 741.61 636.948 742.523 636.948 743.79C636.948 744.544 636.522 745.226 635.876 745.628ZM634.72 744.179C634.72 743.729 634.415 743.436 633.928 743.436H632.735V744.922H633.928C634.415 744.922 634.72 744.617 634.72 744.179ZM634.013 748.197C634.525 748.197 634.854 747.881 634.854 747.418C634.854 746.967 634.525 746.651 634.013 746.651H632.735V748.197H634.013ZM641.981 743.522H642.59V745.592H641.701C640.91 745.592 640.569 745.945 640.569 746.785V750.121H638.304V743.546H639.826L640.179 744.277C640.642 743.741 641.202 743.522 641.981 743.522ZM643.453 742.73V740.806H645.693V742.73H643.453ZM643.441 750.121V743.546H645.705V750.121H643.441ZM651.827 741.172H654.067V750.121H652.399L652.18 749.634C651.644 750.085 650.962 750.352 650.195 750.352C648.186 750.352 646.749 748.879 646.749 746.834C646.749 744.8 648.186 743.339 650.195 743.339C650.804 743.339 651.364 743.497 651.827 743.79V741.172ZM650.5 748.343C651.352 748.343 651.973 747.698 651.973 746.846C651.973 745.981 651.352 745.336 650.5 745.336C649.66 745.336 649.026 745.981 649.026 746.846C649.026 747.698 649.66 748.343 650.5 748.343ZM660.758 743.546L662.28 743.558V749.403C662.28 751.46 660.929 752.739 658.761 752.739C656.899 752.739 655.596 751.801 655.291 750.243H657.471C657.629 750.681 658.189 750.925 658.737 750.925C659.504 750.925 660.113 750.438 660.113 749.658V749.464C659.614 749.768 659.029 749.951 658.396 749.951C656.509 749.951 655.109 748.55 655.109 746.651C655.109 744.776 656.509 743.339 658.396 743.339C659.188 743.339 659.906 743.631 660.466 744.106L660.758 743.546ZM658.774 748.088C659.589 748.088 660.174 747.491 660.174 746.651C660.174 745.823 659.589 745.214 658.774 745.214C657.958 745.214 657.361 745.823 657.361 746.651C657.361 747.491 657.946 748.088 658.774 748.088ZM670.484 746.773C670.484 746.98 670.472 747.174 670.448 747.381H665.565C665.711 748.136 666.186 748.526 666.905 748.526C667.428 748.526 667.879 748.295 668.086 747.905H670.35C669.888 749.403 668.548 750.34 666.905 750.34C664.847 750.34 663.337 748.843 663.337 746.834C663.337 744.824 664.835 743.339 666.905 743.339C669.023 743.339 670.484 744.849 670.484 746.773ZM666.905 745.117C666.247 745.117 665.784 745.47 665.602 746.127H668.256C668.061 745.47 667.586 745.117 666.905 745.117Z" fill="black"/>
<path d="M655.554 739.508H654.958L656.283 735.818H656.93L658.26 739.508H657.664L657.327 738.534H655.89L655.554 739.508ZM656.053 738.066H657.164L656.619 736.491H656.593L656.053 738.066ZM659.671 739.564C659.004 739.564 658.515 739.024 658.515 738.132C658.515 737.23 659.009 736.705 659.677 736.705C660.191 736.705 660.38 737.016 660.477 737.189H660.502V735.818H661.047V739.508H660.517V739.075H660.477C660.375 739.258 660.176 739.564 659.671 739.564ZM659.794 739.1C660.257 739.1 660.517 738.703 660.517 738.122C660.517 737.546 660.263 737.169 659.794 737.169C659.31 737.169 659.07 737.576 659.07 738.122C659.07 738.677 659.32 739.1 659.794 739.1ZM662.928 739.564C662.143 739.564 661.633 738.993 661.633 738.137C661.633 737.276 662.143 736.705 662.928 736.705C663.707 736.705 664.217 737.276 664.217 738.137C664.217 738.993 663.707 739.564 662.928 739.564ZM662.928 739.11C663.427 739.11 663.667 738.667 663.667 738.137C663.667 737.607 663.427 737.153 662.928 737.153C662.418 737.153 662.179 737.607 662.179 738.137C662.179 738.667 662.418 739.11 662.928 739.11ZM664.798 739.508V735.818H665.338V737.189H665.369C665.471 737.016 665.654 736.705 666.164 736.705C666.831 736.705 667.331 737.23 667.331 738.132C667.331 739.024 666.842 739.564 666.169 739.564C665.664 739.564 665.471 739.258 665.369 739.075H665.328V739.508H664.798ZM665.328 738.122C665.328 738.703 665.588 739.1 666.047 739.1C666.526 739.1 666.775 738.677 666.775 738.122C666.775 737.576 666.531 737.169 666.047 737.169C665.583 737.169 665.328 737.546 665.328 738.122ZM669.063 739.564C668.248 739.564 667.749 739.003 667.749 738.142C667.749 737.291 668.258 736.705 669.028 736.705C669.66 736.705 670.256 737.097 670.256 738.096V738.29H668.289C668.304 738.815 668.612 739.115 669.069 739.115C669.379 739.115 669.578 738.983 669.67 738.815H670.22C670.098 739.263 669.67 739.564 669.063 739.564ZM668.294 737.882H669.721C669.721 737.459 669.451 737.153 669.033 737.153C668.597 737.153 668.314 737.49 668.294 737.882Z" fill="black"/>
<g opacity="0.8">
<circle cx="610.978" cy="701.462" r="1.73945" fill="#33FF00"/>
<circle cx="615.759" cy="701.462" r="1.73945" fill="#33FF00"/>
<circle cx="620.546" cy="701.462" r="1.73945" fill="#33FF00"/>
<circle cx="625.329" cy="701.462" r="1.73945" fill="#D4D4D4"/>
</g>
<path d="M614.968 725.6V713.267H612.081V711.667H616.795V725.6H614.968ZM625.199 725.913C622.259 725.913 620.05 723.495 620.05 718.625C620.05 713.754 622.259 711.337 625.199 711.337C628.121 711.337 630.33 713.754 630.33 718.625C630.33 723.495 628.121 725.913 625.199 725.913ZM625.199 724.295C627.078 724.295 628.573 722.417 628.573 718.625C628.573 714.85 627.078 712.954 625.199 712.954C623.303 712.954 621.807 714.85 621.807 718.625C621.807 722.417 623.303 724.295 625.199 724.295ZM632.431 725.826C631.736 725.826 631.196 725.287 631.196 724.591C631.196 723.895 631.736 723.356 632.431 723.356C633.127 723.356 633.649 723.895 633.649 724.591C633.649 725.287 633.127 725.826 632.431 725.826Z" fill="black"/>
<path d="M301.117 681H297.445V669.688H301.227C304.555 669.688 306.555 671.812 306.555 675.328C306.555 678.859 304.555 681 301.117 681ZM299.164 679.5H301.023C303.586 679.5 304.852 678 304.852 675.328C304.852 672.672 303.586 671.188 301.117 671.188H299.164V679.5ZM312.008 681.172C309.508 681.172 307.977 679.453 307.977 676.812C307.977 674.203 309.539 672.406 311.898 672.406C313.836 672.406 315.664 673.609 315.664 676.672V677.266H309.633C309.68 678.875 310.625 679.797 312.023 679.797C312.977 679.797 313.586 679.391 313.867 678.875H315.555C315.18 680.25 313.867 681.172 312.008 681.172ZM309.648 676.016H314.023C314.023 674.719 313.195 673.781 311.914 673.781C310.578 673.781 309.711 674.812 309.648 676.016ZM322.086 674.828C321.93 674.156 321.398 673.719 320.477 673.719C319.523 673.719 318.836 674.219 318.852 674.859C318.836 675.359 319.242 675.719 320.18 675.938L321.523 676.25C323.086 676.594 323.836 677.344 323.852 678.547C323.836 680.078 322.555 681.172 320.383 681.172C318.352 681.172 317.133 680.266 316.93 678.688H318.633C318.773 679.453 319.367 679.828 320.367 679.828C321.445 679.828 322.133 679.391 322.148 678.672C322.133 678.125 321.727 677.766 320.836 677.562L319.508 677.281C317.977 676.938 317.18 676.125 317.18 674.953C317.18 673.438 318.492 672.406 320.461 672.406C322.352 672.406 323.523 673.375 323.695 674.828H322.086ZM325.477 681V672.516H327.148V681H325.477ZM326.32 671.203C325.742 671.203 325.258 670.766 325.258 670.219C325.258 669.672 325.742 669.234 326.32 669.234C326.883 669.234 327.367 669.672 327.367 670.219C327.367 670.766 326.883 671.203 326.32 671.203ZM332.742 684.359C330.602 684.359 329.195 683.406 329.039 681.828H330.742C330.898 682.625 331.648 683.016 332.758 683.016C334.086 683.016 334.93 682.453 334.93 681.125V679.453H334.82C334.523 680 333.914 680.875 332.352 680.875C330.352 680.875 328.805 679.375 328.805 676.672C328.805 673.969 330.32 672.406 332.367 672.406C333.945 672.406 334.523 673.359 334.836 673.891H334.945V672.516H336.57V681.188C336.57 683.359 334.93 684.359 332.742 684.359ZM332.727 679.5C334.148 679.5 334.945 678.453 334.945 676.703C334.945 674.984 334.164 673.828 332.727 673.828C331.242 673.828 330.508 675.078 330.508 676.703C330.508 678.359 331.273 679.5 332.727 679.5ZM340.273 675.969V681H338.602V672.516H340.211V673.906H340.305C340.711 673 341.539 672.406 342.805 672.406C344.555 672.406 345.695 673.5 345.695 675.609V681H344.039V675.812C344.039 674.578 343.367 673.844 342.242 673.844C341.102 673.844 340.273 674.609 340.273 675.969Z" fill="#DBDBDB"/>
</g>
<defs>
<filter id="filter0_d_1754_640" x="296" y="560.688" width="386.36" height="204.085" filterUnits="userSpaceOnUse" color-interpolation-filters="sRGB">
<feFlood flood-opacity="0" result="BackgroundImageFix"/>
<feColorMatrix in="SourceAlpha" type="matrix" values="0 0 0 0 0 0 0 0 0 0 0 0 0 0 0 0 0 0 127 0" result="hardAlpha"/>
<feOffset dx="4" dy="4"/>
<feGaussianBlur stdDeviation="1.85"/>
<feComposite in2="hardAlpha" operator="out"/>
<feColorMatrix type="matrix" values="0 0 0 0 0 0 0 0 0 0 0 0 0 0 0 0 0 0 0.28 0"/>
<feBlend mode="multiply" in2="BackgroundImageFix" result="effect1_dropShadow_1754_640"/>
<feBlend mode="normal" in="SourceGraphic" in2="effect1_dropShadow_1754_640" result="shape"/>
</filter>
</defs>
</svg>
